ply
format ascii 1.0
comment VCGLIB generated
element vertex 262
property float x
property float y
property float z
property float nx
property float ny
property float nz
element face 536
property list uchar int vertex_indices
end_header
-0.03485203 0.03437545 0.3653326 0.2110675 -1.581648 5.321922 
-0.1934681 0.03362816 0.3608027 0.08082965 -0.3579192 6.146028 
-0.09533691 0.01361474 0.3580475 0.1641035 -3.666389 4.332703 
0.170392 0.04682254 0.3634176 -0.06627197 0.06679609 6.169038 
0.1060791 0.00693582 0.3542881 -0.032998 -3.952437 3.28626 
0.2347317 0.00716934 0.357954 -0.1218866 -3.827456 3.417941 
0.3684235 0.02008348 0.3685818 1.723783 -0.9564313 1.819893 
-0.2676401 0.0002335384 0.3713102 0.2690491 -2.417087 2.720769 
-0.2333307 0.002195179 0.3510418 0.8859161 -5.410014 1.973602 
-0.3367128 0.1779023 0.3369608 -2.017621 2.18948 2.009381 
0.3379059 0.1771083 0.3369122 2.047111 2.211651 2.024987 
-0.372097 0.0002335384 0.3702831 -1.354415 -1.049176 1.337117 
0.01189613 0.004787344 0.3248158 -0.1493971 -5.896057 1.693094 
0.3628922 0.0005137697 0.3027468 2.912823 -3.492021 0.287714 
0.1295948 0.2008115 0.2837887 0.1205874 4.443066 3.987747 
-0.3723297 0.0002335384 -0.0975914 -3.074958 -2.502538 -0.008906459 
-0.3351507 0.1793035 0.1026373 -4.183016 3.538518 -0.2344062 
0.3612318 0.05905946 0.1014671 6.206745 0.8703663 0.05582964 
-0.01906681 0.0002335384 0.2604589 0.01602114 -6.277353 0.1869684 
-0.2691078 0.2009516 0.283433 -1.871342 5.194024 2.164932 
0.2756672 0.2049916 0.2604094 2.9447 4.336262 2.046267 
-0.001014709 1.510792 0.2744665 0.4054008 2.988394 2.983535 
-0.2798243 1.510792 0.2770815 -1.452991 1.323723 1.434207 
-0.1192999 1.37392 0.2671804 -0.04706911 -0.9062489 6.195289 
0.2368793 1.502759 0.279747 1.019098 2.416574 2.820003 
0.13165 1.50047 0.2786961 -0.2372367 2.792251 3.668898 
0.2739401 1.435946 0.2726707 3.071732 -0.00326224 2.815174 
0.2582006 1.489003 0.2658968 4.284942 2.836012 1.915123 
0.0871172 1.46439 0.2763109 -0.3960762 0.7370092 6.023679 
0.1682224 1.356312 0.2665501 0.04054459 -1.520071 6.007801 
-0.2694569 1.410421 0.2703333 -2.566264 -1.464199 2.630982 
-0.2311602 1.389123 0.2616701 -1.663831 -4.086051 4.212955 
-0.1787767 1.359932 0.2636786 -0.9954247 -2.650695 4.631483 
0.02712154 1.510792 0.2351904 0.6552315 5.721255 2.330609 
-0.2567072 1.374154 0.2159462 -4.417965 -3.41125 1.451209 
0.06526089 1.343165 0.2609234 -0.05886409 -3.699024 4.443707 
0.2618437 1.343632 0.2608757 2.122692 -2.013357 2.06045 
0.2475996 0.4999854 0.2475891 3.131032 0.3413821 3.130009 
0.2231236 0.3444552 0.2570229 0.5490704 0.8591144 6.115327 
0.2404547 0.3517412 0.246376 3.297248 3.058732 3.199425 
0.2581549 0.344712 0.2574902 1.984217 1.787985 1.952352 
-0.1905508 0.3972327 0.2544546 -0.8677849 0.1798353 6.140086 
-0.2186651 0.3523951 0.2406282 -4.708704 0.9468268 3.82625 
-0.2431841 0.2591003 0.2630243 -3.137361 1.772526 3.689778 
0.249815 0.2233938 0.2666435 0.948814 0.1274332 6.131586 
-0.239728 0.3254926 0.2206373 -5.39021 0.8892508 2.989875 
0.3365259 0.1657588 0.1684217 5.796703 2.279594 -0.1806741 
0.2641325 1.492997 0.1895313 6.089246 0.4613315 1.025921 
-0.1885843 0.6893539 0.2349539 -1.570408 2.423298 4.568176 
-0.2430439 0.5690632 0.2429895 -3.127794 0.413826 3.09109 
-0.2285204 0.4320051 0.2474022 -3.138454 -0.3259253 4.784942 
0.2559547 0.3444317 0.20679 6.148049 0.914012 0.3749383 
-0.2674274 0.2232303 0.1669512 -6.064547 1.435627 0.4779412 
0.2110739 1.512006 0.2072573 1.695872 4.892098 1.891288 
-0.1089525 0.8964707 0.2211533 0.1643871 -0.4355626 6.178311 
-0.2295475 0.7760866 0.1817789 -4.043801 -1.262337 2.476361 
-0.1587677 0.7575676 0.2067671 -3.354359 1.425931 4.686065 
-0.09568977 0.8343053 0.2058096 -0.06423038 0.1031374 5.921521 
-0.06971836 0.7574042 0.2304239 -0.4300777 0.9047178 6.165232 
-0.1921387 0.7393992 0.1814785 -3.941677 -1.312789 4.365839 
-0.1850147 0.7042764 0.1976128 -5.093787 2.415524 1.419141 
0.2301292 0.7577078 0.2304001 3.134501 0.4203937 3.137227 
-0.2327948 0.6731002 0.2345333 -2.284754 1.667912 1.581482 
0.2535524 0.4134395 0.2078905 6.175816 0.1031648 0.7529931 
-0.2571058 0.3632775 0.1941547 -5.694106 0.0756834 1.813653 
0.2669563 0.2233471 0.06218815 5.378692 2.49622 0.04589211 
-0.2252045 1.506565 0.1806841 -1.149683 5.752756 0.6507117 
-0.1919518 1.308999 0.1945305 -3.306392 -3.044781 3.269108 
0.04977608 0.9559505 0.2171812 -0.04444367 0.3809064 6.269314 
-0.2022524 1.171311 0.2028208 -3.137447 0.4123148 3.151499 
-0.2144156 0.9967012 0.2098494 -3.336237 0.340529 3.124984 
0.208086 1.085769 0.2066498 3.203712 0.4110642 3.143373 
0.2167721 0.9563009 0.2171602 3.12017 0.4391386 3.135353 
-0.2265577 0.7930641 0.2171135 -0.8178273 -1.252169 1.471035 
-0.06200239 1.930876 0.1641941 -1.028083 2.20376 5.740973 
-0.1210978 1.864915 0.1775217 1.264808 -0.04560149 4.80158 
-0.002242528 1.941486 0.1775217 -0.687323 1.948199 5.464418 
-0.1329152 1.941162 0.1556274 -1.295188 3.28686 3.303466 
0.1541911 1.9353 0.1425662 2.607545 3.82923 2.289098 
0.05507055 1.950784 0.1775217 0.69985 2.994807 3.224121 
0.1731411 1.864191 0.1777871 2.367211 1.733794 4.727926 
-0.1697557 1.939854 0.1328921 -3.074552 2.631077 1.709281 
-0.002200162 1.891403 0.1769492 0.02743167 -3.048766 3.890824 
0.1165768 1.86697 0.1763772 -1.964264 -1.405989 4.932421 
-0.1995304 1.781171 0.2006125 -2.381487 0.7119733 2.593914 
0.1978102 1.712958 0.2031937 1.623245 0.2415072 3.40528 
-0.1383791 1.582695 0.203311 1.022132 0.6640601 5.488566 
0.133159 1.782246 0.1900792 -2.426688 -1.345743 2.145904 
-0.2000313 1.686429 0.1996212 -3.362134 -0.1363834 3.370703 
-0.1624994 1.570178 0.2019329 -1.588386 -1.098175 5.155616 
0.1567545 1.649952 0.2002287 -3.470597 1.008497 4.580374 
0.1316042 1.581527 0.2025633 -1.314265 1.959636 5.160882 
-0.1796436 1.542505 0.1934795 -2.940401 1.362309 4.169033 
0.183753 1.308859 0.1942272 2.138501 -3.175851 3.469071 
0.1845007 1.206247 0.2002783 0.3572282 0.4199763 6.249643 
-0.2468061 0.5176401 0.07351589 -6.257131 0.5346974 0.03320752 
0.2529459 0.4227573 -0.1795578 5.955091 0.8245809 -1.154369 
0.3251781 0.1795837 0.08526134 4.297482 4.035647 -0.319519 
0.3652735 7.006153e-05 0.08944416 3.131828 -2.95487 0.0630213 
-0.001440391 1.966292 0.1587477 -0.3227409 4.783373 2.084606 
0.09302757 1.859765 0.08961159 -2.109563 -3.860358 -2.481445 
0.001431523 1.883255 0.09293513 -0.1990521 -3.180703 -3.311714 
0.1781699 1.865195 0.1707348 5.245888 1.681141 1.902369 
0.2030458 1.754316 0.1939225 3.427416 0.8127685 1.733162 
-0.09625125 1.859349 0.09647948 2.279396 -4.224993 -2.353775 
-0.2794046 1.510675 0.008432388 -2.895843 2.818135 -0.4788225 
0.2757874 1.510792 0.1547384 3.008898 2.275635 0.5375794 
0.2751074 1.4497 0.06924248 6.215016 -0.4391005 -0.3816448 
0.1950035 1.291532 0.1927328 3.622567 1.058472 2.70491 
-0.1739013 1.865989 0.1136822 -4.556271 -1.616897 -2.376978 
-0.2037468 1.715667 0.1543856 -4.322513 0.2021165 -2.598245 
0.2012873 1.582625 0.1417065 5.520837 1.568063 -1.345868 
-0.2729855 1.423148 0.1184015 -6.19097 -0.9479274 0.08300261 
0.2667274 1.356009 0.07482338 4.906742 -2.77277 -0.07233854 
0.195056 1.309186 0.09906197 4.791399 -2.526749 0.0349909 
0.08297911 1.94448 0.09866279 -0.8940806 4.734555 -1.54562 
0.1738323 1.960778 0.03297721 2.823278 3.285047 0.5962543 
-0.1899026 1.758916 0.1600693 0.4613055 -0.09952956 -2.666695 
-0.2045155 1.529264 0.1407719 -5.358269 2.571081 0.6235499 
0.2029476 1.171241 -0.0605278 6.269682 0.3388127 -0.128518 
0.2167931 0.9562775 -0.2166681 2.973352 0.6930662 -3.068575 
0.2455196 0.533847 -0.1669722 6.021254 0.3812297 -1.216691 
-0.234149 0.5840791 0.1140356 -5.961063 1.535291 -0.1949081 
-0.0773681 1.945531 0.08290649 2.452958 3.569538 -1.510948 
0.1769845 1.917117 0.09998479 5.799205 1.430212 0.7392307 
0.1057072 1.60989 0.1025205 -0.4389513 5.328706 -0.395381 
-0.2573147 1.351408 0.1153402 -4.773911 -3.259639 0.2519965 
-0.1946354 1.308275 -0.06055164 -4.847783 -2.445466 0.04627885 
0.2240829 0.8448374 -0.1936188 5.660392 0.328721 -1.848207 
0.001500499 1.966803 0.09065634 0.08505966 2.954447 -2.587468 
0.1781699 1.876801 0.1229618 5.318444 -1.006888 -1.587034 
-0.1081945 1.609834 0.1242213 1.156653 5.073338 -0.4223813 
-0.198698 1.59624 0.1308708 -4.598262 2.009179 -2.54446 
-0.2095337 1.076358 -0.06148529 -6.091957 0.9799835 -0.6754196 
-0.2112408 1.050857 -0.1299353 -5.218826 2.358322 -0.6976346 
-0.2037468 1.570202 -0.1396961 -5.592826 1.29959 0.5717388 
0.2110271 1.512006 0.03759956 3.235262 3.604941 -0.1092728 
-0.2399406 0.620276 0.04820061 -6.218413 0.4319246 0.4926817 
-0.2800379 0.2032636 0.03489113 -4.745608 3.547235 0.1257523 
-0.2583933 1.352156 -0.001378059 -4.825215 -3.382705 0.1190967 
-0.3198738 0.1655486 0.03244019 -4.378035 4.218502 -0.7354865 
0.3016138 0.1915637 -0.01949883 4.334511 4.490107 0.3738651 
0.3480148 0.1260122 0.06370831 5.891175 1.983757 -0.1435797 
-0.1758731 1.896374 0.009597746 -4.1175 -2.776083 -0.07812689 
-0.2163305 1.511773 0.0002098083 -2.848765 4.910841 -0.09179822 
0.2757406 1.510768 0.008315086 2.742899 2.374374 -0.7531571 
-0.2364378 0.6729134 -0.2067442 -5.834636 0.5021671 -1.544782 
0.0950314 1.886151 0.003393004 -3.000716 -3.544105 -0.2867066 
0.1781699 1.902401 0.001216267 4.17978 -2.724283 -0.01039053 
-0.203207 1.171241 0.009509087 -6.266334 0.3523408 -0.1033508 
-0.1738027 1.964118 0.008597554 -2.830032 3.121777 -0.06985448 
0.26336 0.2338559 -0.2617855 3.107149 0.7769453 -3.593166 
-0.1084056 1.614899 -0.1048412 0.4506699 4.846957 0.702189 
-0.2611694 0.3023498 -0.2475853 -5.808936 0.6464654 -1.650025 
0.08640429 1.944819 -0.1007705 -1.468933 4.354352 1.718316 
0.08463053 1.966468 0.002508326 -2.636014 2.715773 -0.01707232 
0.1745301 1.964915 0.0004234176 2.793147 3.262163 0.04273279 
0.1229138 1.940601 -0.1780656 0.4563243 3.018534 -3.43417 
-0.2759275 1.463852 -0.07019806 -6.046877 0.8457544 -0.3570145 
0.2569618 0.3542867 -0.256671 3.066088 0.7801099 -2.97794 
-0.3107004 0.1897422 -0.001304626 -4.023827 4.197584 0.6515346 
0.3395624 0.1519339 -0.03241158 5.561204 2.456292 0.7627295 
0.2002144 1.583186 -0.07264996 4.091305 3.443155 0.06763124 
0.2623577 1.344309 -0.1956034 4.441808 -3.214464 -0.2045746 
0.1781699 1.932008 -0.1693987 2.483068 1.955246 -1.981143 
-0.09639191 1.883469 0.007916463 3.01879 -3.974971 -0.07974196 
-0.127986 0.0002335384 -0.3380804 -0.1264698 -5.695666 -1.81654 
0.1059175 1.615191 -0.1023784 -0.3727833 5.11618 0.5047165 
-0.2045155 1.528353 -0.1928015 -4.204641 3.115676 -2.504847 
-0.2653265 1.503786 -0.01730347 -2.226206 5.43057 -1.629808 
-0.3490686 0.1132382 -0.04546738 -6.012718 1.710052 0.1741843 
0.2543459 1.495169 -0.0722971 5.490984 2.632788 1.131613 
0.3376474 0.1770849 -0.06204891 4.156349 3.296821 0.5968105 
0.3723259 0.0002335384 -0.1770134 3.081879 -2.531772 0.00832574 
-0.2149506 1.511983 -0.1930113 -2.490852 4.99088 0.277914 
-0.215745 0.9304725 -0.2190266 -3.113796 0.4918181 -3.171065 
-0.335104 0.1793502 -0.1021919 -4.316164 3.478769 0.1886881 
0.1781699 1.877082 -0.1218503 5.073389 -1.10627 2.042742 
-0.0965597 1.85825 -0.09766705 2.398845 -3.910169 2.325459 
-0.2429762 1.510792 -0.2200308 -2.615547 4.452273 -1.534174 
0.2799902 1.502922 -0.1669025 3.453016 2.761901 0.1067022 
-0.2420416 0.5431648 -0.244175 -3.395748 0.4649997 -3.17432 
0.09748581 1.865941 -0.102215 -2.552197 -3.791317 2.638677 
0.2035551 1.583372 -0.1524687 5.652281 1.185504 1.431805 
-0.2659788 1.347228 -0.2632561 -2.094214 -1.62848 -1.982775 
-0.183753 1.125726 -0.1234169 -5.653285 -1.480084 -0.6679732 
-0.1718159 1.937893 -0.09956872 -3.469839 3.361959 -0.7356924 
-0.1782756 1.904732 -0.1563968 -3.406455 1.931377 -2.355815 
-0.1783616 1.877128 -0.1217685 -5.228344 -0.8299378 1.933541 
0.2103262 1.511446 -0.2055273 2.450646 4.625488 -2.314702 
0.1953096 1.309326 -0.1935015 2.798726 -3.847007 -2.737732 
-0.2043962 1.153469 -0.1663885 -5.431844 -1.444982 -0.9025888 
-0.1920195 1.308859 -0.1943655 -2.657461 -3.820601 -2.803205 
0.1944952 1.101696 -0.1739779 6.10064 0.2670707 -1.223432 
-0.334938 0.1792801 -0.2864695 -3.664546 3.240558 -1.215503 
-0.2613516 1.498065 -0.1937819 -4.063214 3.190095 0.1006113 
-0.1579952 1.073883 -0.2023754 -2.895401 0.5389978 1.131957 
-0.1379337 1.611256 -0.202445 2.450902 1.046746 -4.723226 
0.2035551 1.713145 -0.1937122 2.927959 0.4493293 -2.49576 
0.1429777 1.570108 -0.2039394 -0.8328624 1.283934 -5.692925 
-0.04639339 1.589514 -0.1768732 -1.494202 3.892702 -3.557502 
0.1975517 1.187705 -0.202302 3.122838 0.09850521 -3.187375 
-0.205822 1.049152 -0.1892023 -3.608803 2.44982 -2.017292 
0.3379269 0.1770382 -0.3374262 2.005916 2.156815 -2.046349 
-0.1959431 1.808891 -0.1984808 -2.245241 0.6726733 -2.456053 
0.116005 1.866344 -0.1756539 -2.52881 -1.43018 -4.800018 
0.06413937 1.581177 -0.202445 0.03389375 3.193558 -4.069974 
0.2762032 0.2050384 -0.2599401 2.65922 4.766361 -1.983495 
-0.1198531 1.933012 -0.1682317 -1.404288 3.04529 -3.822284 
0.2650414 1.356383 -0.2668514 2.228819 -1.734791 -2.245105 
-0.1997519 1.206223 -0.2010212 -3.117337 0.1814358 -3.147611 
0.2173328 0.5407128 -0.2256823 5.834777 0.05943277 -2.156303 
0.3722792 0.0002335384 -0.3682261 1.373722 -1.064801 -1.360291 
-0.1204433 1.864868 -0.1744476 1.715314 -0.5399281 -4.983724 
0.009770531 1.886999 -0.1001591 0.08222495 -3.110514 3.404245 
0.01300715 1.891146 -0.1751284 -0.09925783 -3.169757 -3.741264 
-0.1904783 1.528283 -0.2052708 -2.225266 3.973817 -3.449863 
-0.05732155 1.529007 -0.204874 -0.03604852 3.256182 -5.234209 
-0.265954 1.44865 -0.2703314 -2.707005 0.7508376 -2.667918 
0.1846876 1.031053 -0.193408 0.7363523 1.004681 -5.979 
-0.2687302 0.2067898 -0.2723656 -2.438773 4.334496 -2.834781 
0.01310211 1.965853 -0.1779381 0.03116164 2.939153 -2.641727 
0.04006195 1.511773 -0.2184429 0.07799044 5.56167 -2.264759 
0.169136 1.342744 -0.2604303 0.1268485 -4.148354 -4.207878 
0.07787037 0.9817555 -0.2160378 0.1679725 0.4741314 -6.253728 
-0.1749477 1.032805 -0.2112017 -1.531795 1.100505 -5.733781 
0.1965237 0.8355429 -0.2255182 2.112821 0.4815355 -5.423329 
0.2187119 0.7653675 -0.2242336 3.839024 0.4075869 -3.884856 
0.2099524 0.4227573 -0.2533321 2.28684 0.9913718 -5.036489 
-0.1601429 1.505257 -0.2694435 -0.365091 2.998271 -3.991939 
-0.2178926 0.6636658 -0.2371941 -2.510179 0.6213548 -4.967906 
0.2160978 0.6200426 -0.2349281 3.708226 0.2122249 -4.230336 
-0.3615112 0.04747644 -0.3281536 -4.812639 -0.5673206 -1.94619 
-0.3655796 0 -0.2441292 -3.084088 -3.090405 -0.3609948 
0.1318369 1.510792 -0.2810755 0.02815662 2.850661 -3.133405 
0.1966896 0.5431648 -0.2452993 0.5765142 0.4718406 -6.211331 
0.008559227 1.504603 -0.2748175 -0.2194695 3.328509 -3.548148 
-0.03284454 1.342908 -0.2605677 -0.005408949 -4.090041 -4.299929 
-0.2430439 0.4228975 -0.2530985 -2.020122 0.4072044 -5.530327 
0.2789583 1.503039 -0.2803049 1.556794 1.302191 -1.535761 
-0.1499367 1.357317 -0.2671089 -0.06123093 -1.356074 -6.029837 
0.09057331 1.356943 -0.266922 0.001166309 -1.594918 -5.986923 
-0.2567072 0.2593105 -0.2639103 -1.874633 1.228274 -5.64427 
0.1032295 0.2069066 -0.2724123 0.01516684 3.194646 -4.489404 
-0.041255 0.1910033 -0.2947359 0.3947266 4.019475 -4.75914 
-0.3428564 0.1249613 -0.3121347 -5.050288 2.019418 -2.935697 
-0.08613682 1.436133 -0.2743502 -0.2117582 -0.1873048 -6.259006 
-0.1261187 0.1673468 -0.3402262 0.165022 3.28893 -4.585361 
0.08186054 0.0002335384 -0.3678284 0.0619583 -2.634715 -3.098295 
-0.297576 0.1674169 -0.3401318 -1.482833 2.877767 -3.876044 
0.06068325 0.1875938 -0.310173 -0.4870372 4.306553 -4.084299 
0.1978836 0.178673 -0.3362789 -0.03254227 3.465131 -4.217932 
-0.3258095 0.001377825 -0.3261919 -1.731064 -4.414517 -2.150142 
0.07584095 0.1255451 -0.3448286 -0.2351932 2.067547 -5.852693 
-0.138567 0.02227866 -0.3651905 -0.09966362 -1.811994 -5.186664 
0.03268337 0.1142423 -0.3503599 0.1896416 2.176488 -5.730608 
-0.3382998 0.0483872 -0.361618 -2.219182 -0.6263734 -3.864061 
-0.2210474 0.002428707 -0.3484011 -0.272814 -4.516838 -3.127146 
-0.001554489 0.008080106 -0.3713083 -0.165967 -2.106333 -4.493296 
-0.07241306 1.943374 -0.09813057 1.34063 4.054996 2.408794 
0.009714078 1.965929 -0.09949566 0.02131478 3.006519 2.600222 
-0.07527027 1.966339 0.006257405 2.615569 2.409623 -0.0391325 
3 0 1 2 
3 3 0 4 
3 3 4 5 
3 6 3 5 
3 1 7 8 
3 1 8 2 
3 9 1 0 
3 10 3 6 
3 9 11 7 
3 9 7 1 
3 9 0 3 
3 11 8 7 
3 10 9 3 
3 2 12 0 
3 12 4 0 
3 5 13 6 
3 10 14 9 
3 15 8 11 
3 9 16 11 
3 6 17 10 
3 17 6 13 
3 8 12 2 
3 13 5 4 
3 8 18 12 
3 9 14 19 
3 14 10 20 
3 21 22 23 
3 24 25 26 
3 24 26 27 
3 25 28 26 
3 28 21 23 
3 28 23 29 
3 22 30 23 
3 26 28 29 
3 23 30 31 
3 23 31 32 
3 12 18 4 
3 33 22 21 
3 33 21 28 
3 25 33 28 
3 32 31 34 
3 35 23 32 
3 29 23 35 
3 29 35 36 
3 26 29 36 
3 37 38 39 
3 39 38 40 
3 41 42 43 
3 38 41 44 
3 40 38 44 
3 42 45 43 
3 44 41 43 
3 40 44 20 
3 19 14 43 
3 14 44 43 
3 14 20 44 
3 46 10 17 
3 15 18 8 
3 18 13 4 
3 47 27 26 
3 31 30 34 
3 48 49 41 
3 48 41 37 
3 49 50 41 
3 42 41 50 
3 38 37 41 
3 39 40 51 
3 43 52 19 
3 53 25 24 
3 54 55 56 
3 57 56 48 
3 57 48 58 
3 56 55 59 
3 56 59 60 
3 56 60 48 
3 58 48 61 
3 37 61 48 
3 48 60 62 
3 48 62 49 
3 63 37 39 
3 50 64 42 
3 42 64 45 
3 45 52 43 
3 65 40 20 
3 66 22 33 
3 53 33 25 
3 24 27 47 
3 35 32 67 
3 68 69 54 
3 68 54 57 
3 54 69 70 
3 71 68 72 
3 68 57 58 
3 68 58 72 
3 54 70 73 
3 72 58 61 
3 55 54 73 
3 56 57 54 
3 63 39 51 
3 16 9 19 
3 74 75 76 
3 74 77 75 
3 78 79 80 
3 77 81 75 
3 79 76 82 
3 79 82 83 
3 80 79 83 
3 75 81 84 
3 80 83 85 
3 75 84 86 
3 85 83 87 
3 86 84 88 
3 86 88 89 
3 90 91 85 
3 86 89 92 
3 86 92 53 
3 91 86 53 
3 85 91 53 
3 66 33 92 
3 33 53 92 
3 34 67 32 
3 67 93 35 
3 93 36 35 
3 69 68 94 
3 94 68 71 
3 73 70 55 
3 64 49 95 
3 37 63 96 
3 49 64 50 
3 10 97 20 
3 18 98 13 
3 99 74 76 
3 100 83 82 
3 100 82 101 
3 102 80 103 
3 75 86 104 
3 103 80 85 
3 100 90 85 
3 66 105 22 
3 106 53 24 
3 47 106 24 
3 47 26 107 
3 93 67 94 
3 108 93 94 
3 67 69 94 
3 108 94 71 
3 45 64 52 
3 40 65 51 
3 99 77 74 
3 78 80 102 
3 81 109 84 
3 84 109 110 
3 85 87 100 
3 111 103 85 
3 111 85 53 
3 30 112 34 
3 113 26 36 
3 114 93 108 
3 62 95 49 
3 46 97 10 
3 17 13 98 
3 115 79 78 
3 115 78 116 
3 83 100 87 
3 109 117 110 
3 84 110 88 
3 88 110 118 
3 88 118 89 
3 89 118 92 
3 22 112 30 
3 26 113 107 
3 114 36 93 
3 119 71 72 
3 119 72 120 
3 72 61 121 
3 62 60 122 
3 122 95 62 
3 123 77 99 
3 124 78 102 
3 102 103 111 
3 90 100 125 
3 91 90 125 
3 86 91 125 
3 66 92 118 
3 106 47 107 
3 34 112 126 
3 34 126 67 
3 127 69 67 
3 120 72 128 
3 59 122 60 
3 99 129 123 
3 124 102 130 
3 109 104 117 
3 130 102 111 
3 125 131 86 
3 119 108 71 
3 96 63 51 
3 124 116 78 
3 110 132 118 
3 70 133 134 
3 132 110 131 
3 132 135 118 
3 136 53 106 
3 126 127 67 
3 55 137 59 
3 59 137 122 
3 138 19 52 
3 138 16 19 
3 117 104 110 
3 112 139 126 
3 138 140 16 
3 97 141 20 
3 142 46 17 
3 15 11 16 
3 81 143 109 
3 125 130 111 
3 144 105 66 
3 144 66 118 
3 145 136 106 
3 114 113 36 
3 55 146 137 
3 122 137 95 
3 97 46 142 
3 116 124 130 
3 100 147 148 
3 100 148 130 
3 100 130 125 
3 110 104 131 
3 22 105 112 
3 127 149 69 
3 77 150 81 
3 132 131 135 
3 151 51 65 
3 141 97 142 
3 131 152 135 
3 69 149 70 
3 121 61 96 
3 37 96 61 
3 95 153 64 
3 154 155 156 
3 154 156 157 
3 145 106 107 
3 112 105 158 
3 126 139 127 
3 149 133 70 
3 96 51 159 
3 20 141 65 
3 160 140 138 
3 141 142 161 
3 111 162 125 
3 111 53 162 
3 136 162 53 
3 114 163 113 
3 164 156 148 
3 109 143 165 
3 109 165 104 
3 114 108 119 
3 128 72 121 
3 166 18 15 
3 81 150 143 
3 125 162 167 
3 135 168 118 
3 144 118 168 
3 105 169 158 
3 141 151 65 
3 170 140 160 
3 140 170 16 
3 171 145 107 
3 171 107 113 
3 161 172 141 
3 142 173 161 
3 16 170 15 
3 173 142 17 
3 144 169 105 
3 174 144 168 
3 70 175 55 
3 171 136 145 
3 176 170 160 
3 172 161 173 
3 173 17 98 
3 164 148 177 
3 152 178 135 
3 144 179 169 
3 169 179 158 
3 180 171 113 
3 137 181 95 
3 182 167 177 
3 183 167 162 
3 158 184 112 
3 112 184 139 
3 149 185 133 
3 159 51 151 
3 18 173 98 
3 186 187 188 
3 180 189 136 
3 171 180 136 
3 139 184 127 
3 190 163 114 
3 149 191 185 
3 134 175 70 
3 64 153 52 
3 135 178 188 
3 183 162 189 
3 136 189 162 
3 180 113 163 
3 127 192 191 
3 127 191 149 
3 193 119 120 
3 138 176 160 
3 170 176 194 
3 183 177 167 
3 174 179 144 
3 179 195 158 
3 190 114 119 
3 133 196 134 
3 137 146 181 
3 164 157 156 
3 158 195 184 
3 184 192 127 
3 197 178 152 
3 198 177 183 
3 167 182 199 
3 200 152 167 
3 193 201 119 
3 185 196 133 
3 202 134 196 
3 203 141 172 
3 188 187 204 
3 177 198 164 
3 199 182 205 
3 188 204 135 
3 206 200 167 
3 141 207 151 
3 208 187 186 
3 198 183 189 
3 199 206 167 
3 180 163 209 
3 192 210 191 
3 190 119 201 
3 185 191 196 
3 134 202 175 
3 175 146 55 
3 121 96 211 
3 170 194 15 
3 212 173 18 
3 213 214 178 
3 213 215 214 
3 197 213 178 
3 204 216 135 
3 135 216 168 
3 217 197 152 
3 200 217 152 
3 174 168 216 
3 195 218 184 
3 190 201 192 
3 201 210 192 
3 193 120 219 
3 52 153 138 
3 194 138 220 
3 194 176 138 
3 164 198 157 
3 157 205 215 
3 157 215 221 
3 157 198 205 
3 208 221 213 
3 208 213 187 
3 205 198 199 
3 187 213 204 
3 213 197 204 
3 199 198 189 
3 216 204 197 
3 200 206 217 
3 197 217 216 
3 206 199 217 
3 199 189 217 
3 216 179 174 
3 222 216 217 
3 222 217 189 
3 192 223 190 
3 191 210 196 
3 210 201 224 
3 201 193 219 
3 196 210 225 
3 201 219 224 
3 202 196 225 
3 210 224 225 
3 120 128 226 
3 227 128 121 
3 95 181 153 
3 211 96 228 
3 228 96 159 
3 141 203 207 
3 179 218 195 
3 229 179 216 
3 222 229 216 
3 219 120 224 
3 175 202 225 
3 224 226 225 
3 225 226 175 
3 224 120 226 
3 175 226 230 
3 226 128 227 
3 175 230 146 
3 146 230 181 
3 121 211 231 
3 194 232 15 
3 15 232 233 
3 234 222 189 
3 234 189 180 
3 190 209 163 
3 226 235 230 
3 226 227 231 
3 226 231 235 
3 227 121 231 
3 236 229 222 
3 234 236 222 
3 184 237 192 
3 237 223 192 
3 223 209 190 
3 230 235 238 
3 181 230 238 
3 235 231 228 
3 231 211 228 
3 238 235 228 
3 153 181 238 
3 153 220 138 
3 233 166 15 
3 229 218 179 
3 239 234 180 
3 239 180 209 
3 240 237 184 
3 240 241 237 
3 241 223 237 
3 241 209 223 
3 153 238 242 
3 159 238 228 
3 238 159 242 
3 242 159 243 
3 159 151 243 
3 153 242 220 
3 244 220 242 
3 244 242 243 
3 207 243 151 
3 194 245 232 
3 229 236 246 
3 236 234 246 
3 218 229 240 
3 234 239 209 
3 229 246 240 
3 246 234 209 
3 184 218 240 
3 246 241 240 
3 246 209 241 
3 247 220 244 
3 172 173 212 
3 166 248 18 
3 249 194 220 
3 250 244 243 
3 251 250 243 
3 251 243 207 
3 203 251 207 
3 252 166 233 
3 247 249 220 
3 253 244 250 
3 249 245 194 
3 252 233 232 
3 249 247 254 
3 247 244 255 
3 245 249 256 
3 244 253 255 
3 250 251 253 
3 203 253 251 
3 245 256 232 
3 203 172 212 
3 232 256 252 
3 257 166 252 
3 249 254 256 
3 255 253 258 
3 255 254 247 
3 254 166 257 
3 254 258 166 
3 258 248 166 
3 248 212 18 
3 254 257 256 
3 255 258 254 
3 253 248 258 
3 253 203 248 
3 248 203 212 
3 256 257 252 
3 86 131 104 
3 131 125 167 
3 131 167 152 
3 221 259 260 
3 186 259 221 
3 186 221 208 
3 77 123 261 
3 77 261 150 
3 100 101 129 
3 100 129 115 
3 104 165 261 
3 104 261 123 
3 178 214 260 
3 178 260 259 
3 182 147 155 
3 182 155 154 
3 148 147 177 
3 156 155 115 
3 156 115 116 
3 147 182 177 
3 148 156 116 
3 148 116 130 
3 165 143 178 
3 143 150 186 
3 143 186 188 
3 143 188 178 
3 150 261 259 
3 150 259 186 
3 261 165 178 
3 261 178 259 
3 155 147 100 
3 155 100 115 
3 82 76 75 
3 99 76 79 
3 101 82 75 
3 101 75 104 
3 129 99 79 
3 129 79 115 
3 214 215 205 
3 214 205 182 
3 221 215 213 
3 221 260 154 
3 221 154 157 
3 129 101 104 
3 129 104 123 
3 260 214 182 
3 260 182 154 
