ply
format ascii 1.0
comment VCGLIB generated
element vertex 156
property float x
property float y
property float z
property float nx
property float ny
property float nz
element face 292
property list uchar int vertex_indices
end_header
0.7726238 -0.01429199 0.1538724 0.758453 -5.826162 1.002358 
0.4713964 -0.00380443 0.1541059 -2.739266 -2.475034 1.078525 
0.5730981 -0.01454853 0.05964339 -0.3073125 -6.257303 0.1329528 
0.8291853 0.01009156 0.1521443 4.022511 -2.288199 1.367814 
0.8107842 -0.008498415 0.0590831 2.671168 -4.51714 -1.068369 
0.8301914 0.01015927 0.07075942 4.88378 -1.74504 -1.138606 
0.4907102 -0.004971728 0.05948007 -2.921386 -4.93533 -0.2608948 
0.7326211 -0.01459239 0.007403016 1.009141 -5.847984 -1.000785 
0.8065594 0.02959229 0.01730454 6.083652 -0.2980746 -0.7243509 
0.8054131 0.03136708 -0.03643036 3.373994 -4.056991 1.710884 
0.6417083 -0.01459239 -0.0644536 0.5644681 -6.183998 -0.3199157 
0.4783086 -0.005555376 -0.1750063 -2.454412 -3.076295 -1.467608 
0.629425 -0.01396488 -0.1796535 0.006519938 -5.203747 -2.145257 
0.8351887 -0.01459239 -0.08589172 1.982261 -2.491446 1.21615 
0.8351629 -0.01456951 -0.1691447 2.354616 -2.363943 -1.272418 
0.7993363 -0.0009202063 0.1866363 2.020882 -2.919149 2.739312 
0.4946794 0.008898512 0.1869634 -2.025239 -2.453148 3.408704 
0.4762325 0.02083279 0.04490769 -5.946231 -1.539808 -0.148884 
0.4713497 0.01968838 -0.1798872 -4.732558 -0.8929936 -2.272797 
0.7903749 0.0348807 -0.2248984 1.716127 -1.564361 -4.417593 
0.784678 0.03518523 0.2070382 1.922712 -1.051675 4.865929 
0.5335985 0.07004102 0.2165381 -1.410097 -0.7513704 5.442027 
0.5208062 0.03515065 -0.2219257 -1.492416 -1.693516 -4.760777 
0.5202639 0.2865868 0.2072893 -1.654815 1.17752 5.102947 
0.8348148 0.1787212 0.1538489 5.422341 -0.09747563 2.021252 
0.8351887 0.1677444 0.007893443 6.231402 -0.475644 0.2123377 
0.8351887 0.327317 -0.07507932 4.074921 2.905704 0.7152218 
0.4705305 0.2474945 -0.008266807 -6.134033 0.7695059 -0.1228506 
0.4705562 0.3499668 -0.1691447 -2.32386 2.292396 -1.064184 
0.8348358 0.3488491 -0.178556 2.247432 2.271992 -1.205249 
0.7854086 0.3003522 0.2070382 1.684896 1.753276 4.164458 
0.4846382 0.33586 0.1741192 -2.328377 2.403591 2.832893 
0.5202051 0.3052602 -0.2249192 -1.575104 1.70512 -4.396298 
0.4705305 0.3500164 0.1378056 -2.690325 2.689595 0.7019055 
0.8339527 0.2587507 0.1120006 6.280067 0.01106857 -0.09887026 
0.7901677 0.3050734 -0.2261457 1.5631 1.587928 -4.513395 
0.8351887 0.3500164 0.1378056 2.453467 2.457989 1.172799 
0.8351887 0.3500602 0.01847231 2.942665 2.401898 -0.5929942 
0.8181885 0.3226459 -0.03351104 4.476196 3.250415 -0.1349661 
0.5192708 0.3489187 -0.03428185 -2.459049 4.996976 0.1770412 
0.7880819 0.3455799 -0.08586836 1.082974 6.08961 0.2891867 
0.3739435 -0.02359946 0.3351692 -0.3466849 -0.8268762 1.523199 
0.4863349 -0.02359946 0.2382936 1.921436 -1.069524 0.1652504 
0.4676748 0.05401643 0.232534 2.405334 2.120022 0.04257429 
0.3797031 0.05401643 0.316509 -0.3736096 1.707851 1.961601 
0.3965799 0.05401643 0.1554393 0.4780958 2.389354 -2.600357 
0.3261161 0.05401643 0.1926642 -2.357398 2.196919 -0.7987955 
0.3992291 -0.02359946 0.1384223 0.4004796 -1.310009 -2.181699 
0.3105662 -0.02359946 0.1852615 -1.942077 -1.193448 -0.7052485 
0.9700079 0.0312554 -0.8668487 2.851691 -1.392264 -3.957744 
0.9796712 0.2900256 -0.7601585 5.620721 -0.417569 0.08342075 
1.005895 0.05495666 -0.8109646 5.082492 -0.1439313 -0.6554797 
0.9860655 0.01194787 -0.7657236 4.940457 -1.94456 2.06351 
0.9739383 -0.01786314 -0.789112 2.687021 -3.967789 -0.1666124 
0.9909729 0.3173824 -0.7794998 4.052201 -0.8885198 -1.108278 
0.9754265 0.5454849 -0.740453 2.48632 2.497845 0.3400725 
0.914355 0.5257846 -0.620029 1.429685 2.141343 2.485571 
0.9226524 -0.01964791 -0.7167754 1.807691 -4.561243 1.987932 
0.9331064 0.04616198 -0.6717119 3.681134 -1.276659 4.126207 
0.9658205 0.5299255 -0.7860179 3.027637 2.336966 -2.679992 
0.9818643 0.0180762 -0.8541511 1.733382 -2.173408 -2.392539 
0.8412606 0.4711262 -0.5943568 1.183889 2.992367 4.09934 
0.8707654 0.5239156 -0.8419507 2.301105 2.929109 -4.22197 
0.8974682 0.3093677 -0.8630047 3.593181 0.7777083 -4.970824 
0.8674309 0.005568163 -0.6504208 2.198774 -3.892483 2.878809 
0.8527255 0.5262188 -0.6512952 -1.552556 5.249778 1.974269 
0.812389 0.3848096 -0.5280082 4.072486 -0.4806435 4.104068 
0.8187813 -0.002443312 -0.5475385 1.000607 -1.902144 2.062469 
0.8239655 0.1843821 -0.551631 3.781 -0.1021117 4.235062 
0.7926921 0.4492891 -0.4942425 0.6403627 1.225157 2.327801 
0.7692745 0.4080667 -0.5088587 1.036987 0.2550175 5.407996 
0.8065877 0.1195482 -0.5426073 1.3031 -0.123211 5.949997 
0.7124368 0.4677947 -0.6771743 -0.9769697 5.466579 2.269807 
0.6239332 0.005365359 -0.7692268 -0.6179881 -5.874123 1.153799 
0.7641219 0.1547184 -0.5386839 3.331727 -0.1545035 4.443151 
0.771756 0.04026081 -0.552407 0.2195163 -2.542161 4.809221 
0.7000299 -0.003391517 -0.6058978 -1.198875 -4.167686 2.411554 
0.809433 -0.01987378 -0.8872551 1.124849 -5.176958 -2.135604 
0.6272049 0.3663296 -0.2607274 1.144178 1.907791 2.495538 
0.6720791 0.01220772 -0.3526611 2.398808 -2.996345 1.579228 
0.6505103 0.05247943 -0.3094498 3.298477 -1.538653 4.007473 
0.6408442 0.4532055 -0.6044638 -1.230529 5.151588 2.601605 
0.563212 0.007994505 -0.3335006 -0.330089 -5.128534 2.067881 
0.5711839 0.05683463 -0.2756157 -0.1767853 -2.01904 4.557422 
0.7959132 0.5183865 -0.7154285 -1.321532 5.872526 1.580374 
0.8020816 -0.01887807 -0.7282215 -0.6198894 -5.838625 1.521944 
0.6466052 0.4033952 -0.5599252 -1.49036 4.770454 2.690859 
0.571157 0.3138951 -0.2540684 -0.8471176 0.6696733 5.3959 
0.6937771 0.543641 -0.8922277 0.562782 5.803116 -1.104387 
0.4384519 0.361944 -0.3431925 -1.473961 4.580051 2.891598 
0.5421102 0.491784 -1.010355 0.5297102 1.415228 -5.546771 
0.7965721 0.04544728 -0.9503703 2.612188 -1.36253 -5.070019 
0.7029358 0.5329829 -0.7691145 -0.1878194 5.718118 1.830814 
0.344867 0.3032791 -0.3507664 -3.53937 0.997662 3.366393 
0.4105591 0.02296536 -0.5699227 -0.1905921 -6.125653 -1.150247 
0.4435872 -0.02888143 -0.9281324 -2.413062 -2.476215 -0.4130161 
0.6171752 0.4651693 -0.6874155 -0.6965706 5.674987 2.240498 
0.546089 0.3976087 -1.022302 0.1374792 0.07959001 -5.614326 
0.6170033 0.1904223 -1.017834 2.517986 0.9398218 -5.671098 
0.3474176 0.05615385 -0.3853728 -3.330129 -2.068965 3.665933 
0.5716432 0.523629 -0.9886838 1.670655 3.323178 -4.239932 
0.6141064 0.5264007 -0.7683885 -0.8135625 5.406324 2.361455 
0.6942431 0.3093895 -0.9625931 2.671419 0.802762 -5.628835 
0.4096412 -0.002527339 -0.7479466 -2.145552 -1.800301 0.5460502 
0.3834981 0.4493232 -0.6946599 -2.402946 1.5105 0.9110424 
0.423373 0.4654177 -0.7832971 -4.15303 2.898239 1.04016 
0.4557699 0.02466588 -0.7186384 -2.995684 -2.621714 4.329209 
0.3207116 0.004775496 -0.4637995 -2.402893 -2.34953 -0.04597352 
0.6010206 0.01518519 -1.048631 0.7123258 -2.162515 -4.209888 
0.5701662 -0.01991494 -1.004568 -0.5716459 -4.74278 -2.658689 
0.4987797 0.5415919 -0.9859886 -0.3594243 4.061385 -2.633572 
0.4525334 0.01302479 -0.8528893 -4.161708 -3.287854 0.5571876 
0.4210225 0.4041743 -0.6710933 -4.070085 1.430049 3.349666 
0.3124133 0.3695834 -0.4460187 -2.86079 2.005165 0.2965381 
0.4371421 0.0452548 -0.6788301 -3.352245 -3.988172 -1.340828 
0.5524238 0.2836778 -1.025936 0.01872072 1.298376 -5.653052 
0.3094517 0.1608806 -0.4348803 -5.519448 0.02266942 0.2591512 
0.5349634 0.09412907 -1.069542 -0.302002 -0.5570273 -5.166903 
0.3633118 0.02388175 -0.5446804 -3.412914 -2.994301 -2.398561 
0.3312137 0.2478255 -0.4720707 -6.04682 0.3514728 -1.265411 
0.5181521 0.2186608 -1.051264 -0.7099687 1.318868 -5.25226 
0.4079789 0.2895035 -0.7053418 -5.389767 -0.6344217 1.857003 
0.4391164 0.0874864 -0.7080697 -5.669798 -0.504578 0.2227058 
0.3743549 0.3084164 -0.5717247 -5.681056 -0.05719473 -2.682414 
0.4079475 0.5257724 -0.8680931 -2.790633 2.252795 0.16179 
0.4187413 0.1267719 -0.7599974 -6.014796 -0.2355818 -0.2426112 
0.4349431 0.3602204 -0.8246884 -5.977451 -0.3889657 -0.1728681 
0.4119835 0.3314824 -0.7607967 -6.006658 -0.2955958 -1.697501 
0.4892948 0.3996142 -1.009999 -2.270933 -1.493273 -4.14546 
0.4997759 0.09226412 -1.053197 -3.472559 -1.11306 -4.080026 
0.4722401 0.5379921 -0.9828387 -2.103866 2.587873 -2.268236 
0.4824248 0.2373874 -1.025432 -3.702312 1.623467 -3.754286 
0.4139144 0.4203559 -0.8820201 -5.84442 -0.2915265 -0.8866849 
0.4249582 0.2297019 -0.9042394 -5.836398 -0.3365158 -0.4980123 
0.4469084 0.3608185 -0.9504089 -4.88132 -0.154971 -3.697923 
0.4502827 0.2814446 -0.9595701 -4.899841 0.5933008 -3.558758 
0.933655 -0.02359946 -0.3547673 2.275909 -1.408815 0.5766126 
0.8920637 -0.02359946 -0.4693216 1.111164 -1.237977 -1.844376 
0.8793718 0.06566784 -0.4507909 1.353718 2.469982 -2.298655 
0.9151243 0.06566784 -0.3674593 2.739409 2.587913 0.3991851 
0.8409778 0.06566784 -0.2915745 0.6577711 2.621106 2.760926 
0.8246785 0.06566784 -0.4440452 -1.213384 3.120747 -2.823149 
0.7704406 0.06566784 -0.3990039 -2.685023 2.706091 -0.9436649 
0.7872884 0.06566784 -0.3089104 -2.146368 2.693975 1.858085 
0.7526536 -0.02359946 -0.407719 -2.270606 -1.513997 -0.8925431 
0.7738528 -0.02359946 -0.2943565 -1.760962 -1.496629 1.658365 
0.8235658 -0.02359946 -0.4581302 -1.107975 -2.238192 -2.747683 
0.8450302 -0.02359946 -0.2780392 0.6454138 -1.783752 2.569553 
0.9476587 -0.02358999 -0.1925636 0.5087317 -0.8268769 1.476997 
0.9775345 -0.02358999 -0.2878244 1.719668 -1.069522 -0.8729013 
0.9648234 0.02863286 -0.2844957 2.066112 2.120024 -1.232326 
0.94433 0.02863286 -0.2052747 0.7170558 1.707849 1.863677 
0.896825 0.02863286 -0.3033414 -0.9651415 2.389352 -2.46149 
0.8697518 0.02863286 -0.2570582 -2.424192 2.196921 0.564533 
0.8923013 -0.02358999 -0.3140095 -0.8102995 -1.31001 -2.064852 
0.8582357 -0.02358999 -0.2557725 -2.021984 -1.193446 0.4249852 
3 0 1 2 
3 3 0 4 
3 3 4 5 
3 2 1 6 
3 4 0 2 
3 4 2 7 
3 5 4 8 
3 4 7 9 
3 8 4 9 
3 7 10 9 
3 2 10 7 
3 10 2 11 
3 10 12 9 
3 2 6 11 
3 9 12 13 
3 10 11 12 
3 13 12 14 
3 15 16 1 
3 15 1 0 
3 15 0 3 
3 6 17 11 
3 1 17 6 
3 11 17 18 
3 14 12 19 
3 16 20 21 
3 16 15 20 
3 11 18 22 
3 12 11 22 
3 12 22 19 
3 16 21 23 
3 15 3 20 
3 24 5 8 
3 25 8 9 
3 24 3 5 
3 25 9 13 
3 3 24 20 
3 25 13 26 
3 26 13 14 
3 17 27 28 
3 17 28 18 
3 1 27 17 
3 19 29 14 
3 24 8 25 
3 24 30 20 
3 16 31 1 
3 31 16 23 
3 18 32 22 
3 33 1 31 
3 1 33 27 
3 34 24 25 
3 25 26 34 
3 26 14 29 
3 19 35 29 
3 18 28 32 
3 36 34 37 
3 37 34 38 
3 38 34 26 
3 27 39 28 
3 24 34 36 
3 30 31 23 
3 30 24 36 
3 29 35 32 
3 36 31 30 
3 33 39 27 
3 28 29 32 
3 31 36 33 
3 36 39 33 
3 36 37 39 
3 40 37 38 
3 37 40 39 
3 38 26 40 
3 40 26 29 
3 39 40 29 
3 39 29 28 
3 19 22 32 
3 19 32 35 
3 20 30 23 
3 20 23 21 
3 41 42 43 
3 41 43 44 
3 44 43 45 
3 44 45 46 
3 46 45 47 
3 46 47 48 
3 48 47 42 
3 48 42 41 
3 42 47 45 
3 42 45 43 
3 48 41 44 
3 48 44 46 
3 49 50 51 
3 51 52 53 
3 54 55 56 
3 50 54 56 
3 51 50 56 
3 53 52 57 
3 52 51 56 
3 52 56 58 
3 52 58 57 
3 55 54 59 
3 51 53 60 
3 58 56 61 
3 62 59 54 
3 63 62 54 
3 50 63 54 
3 49 51 60 
3 58 64 57 
3 58 61 64 
3 55 65 56 
3 65 61 56 
3 64 61 66 
3 67 64 68 
3 61 69 66 
3 64 66 68 
3 66 69 70 
3 68 71 67 
3 61 72 69 
3 73 64 67 
3 70 74 66 
3 74 68 66 
3 74 71 68 
3 74 75 71 
3 75 67 71 
3 75 76 67 
3 63 50 49 
3 77 53 57 
3 74 70 78 
3 75 74 78 
3 79 75 78 
3 79 78 80 
3 65 72 61 
3 69 72 81 
3 82 79 83 
3 79 80 83 
3 60 53 49 
3 84 72 65 
3 64 85 57 
3 73 85 64 
3 73 67 76 
3 86 70 69 
3 80 78 87 
3 55 88 84 
3 55 84 65 
3 77 57 85 
3 80 87 83 
3 78 89 87 
3 63 90 62 
3 77 49 53 
3 69 81 86 
3 70 86 78 
3 62 88 59 
3 77 91 49 
3 88 55 59 
3 84 92 72 
3 78 86 89 
3 87 89 93 
3 94 79 82 
3 75 79 94 
3 84 88 92 
3 77 85 95 
3 72 96 81 
3 97 90 63 
3 98 63 49 
3 98 49 91 
3 83 99 82 
3 62 100 88 
3 72 92 96 
3 92 101 96 
3 90 100 62 
3 102 97 63 
3 88 101 92 
3 73 76 103 
3 81 104 86 
3 98 102 63 
3 96 101 105 
3 75 106 76 
3 106 103 76 
3 94 82 107 
3 108 91 77 
3 108 77 109 
3 73 95 85 
3 100 110 88 
3 96 105 81 
3 82 99 107 
3 73 111 95 
3 111 73 103 
3 104 112 86 
3 86 113 89 
3 89 113 93 
3 109 77 95 
3 75 94 114 
3 91 108 98 
3 88 110 101 
3 106 75 114 
3 98 115 102 
3 105 104 81 
3 86 112 113 
3 116 99 93 
3 115 97 102 
3 108 117 98 
3 114 94 118 
3 118 94 107 
3 119 116 93 
3 107 99 116 
3 120 115 98 
3 113 119 93 
3 121 122 112 
3 122 106 114 
3 122 114 118 
3 112 122 123 
3 122 118 123 
3 112 123 113 
3 123 116 119 
3 123 119 113 
3 123 118 107 
3 123 107 116 
3 104 121 112 
3 103 106 122 
3 90 110 100 
3 110 124 101 
3 125 122 121 
3 105 126 127 
3 126 125 127 
3 126 111 125 
3 105 127 104 
3 125 111 103 
3 104 127 121 
3 127 125 121 
3 125 103 122 
3 128 90 97 
3 117 120 98 
3 101 124 105 
3 126 95 111 
3 108 129 117 
3 130 110 90 
3 128 130 90 
3 120 131 115 
3 129 120 117 
3 110 130 124 
3 124 132 105 
3 132 126 105 
3 132 133 126 
3 133 95 126 
3 120 129 131 
3 130 128 134 
3 129 108 109 
3 128 97 134 
3 97 115 134 
3 115 131 135 
3 130 134 132 
3 134 115 135 
3 129 109 95 
3 129 133 131 
3 130 132 124 
3 129 95 133 
3 135 131 133 
3 135 133 134 
3 132 134 133 
3 87 93 99 
3 87 99 83 
3 136 137 138 
3 136 138 139 
3 140 141 142 
3 140 142 143 
3 143 142 144 
3 143 144 145 
3 145 144 146 
3 145 146 147 
3 141 146 144 
3 141 144 142 
3 145 147 140 
3 145 140 143 
3 140 147 136 
3 140 136 139 
3 139 138 141 
3 139 141 140 
3 137 146 141 
3 137 141 138 
3 147 146 137 
3 147 137 136 
3 148 149 150 
3 148 150 151 
3 151 150 152 
3 151 152 153 
3 153 152 154 
3 153 154 155 
3 155 154 149 
3 155 149 148 
3 149 154 152 
3 149 152 150 
3 155 148 151 
3 155 151 153 
