ply
format ascii 1.0
comment VCGLIB generated
element vertex 228
property float x
property float y
property float z
property float nx
property float ny
property float nz
element face 452
property list uchar int vertex_indices
end_header
0.2821293 0.09971683 0.3098354 2.353951 0.945997 3.920907 
0.264658 0.175894 0.2638531 2.479 3.450104 3.306349 
0.1736517 0.1113699 0.3069839 -0.06557885 2.633879 5.570718 
0.02697182 0.1414017 0.27812 -0.4244908 2.680913 5.636957 
0.05723953 0.09981024 0.3099766 -0.4121266 1.774827 5.593469 
-0.1875458 0.1258954 0.3067045 0.6841038 1.759959 5.387416 
-0.3112698 0.1140321 0.3097191 -2.396126 1.174986 2.367287 
-0.2141457 0.007636398 0.3099966 0.3332697 -2.66326 4.375348 
-0.135561 0.0840704 0.2896318 0.8753667 0.9285504 6.035131 
-0.1180019 0.007332806 0.3096466 -0.1488172 -2.292776 3.879065 
0.2826385 0.02050383 0.2973404 1.551291 -2.914958 2.370198 
0.2977953 0.02622529 0.2865753 3.313754 -2.319921 1.63832 
-0.1355867 4.670769e-05 0.2804108 -0.01980695 -6.191914 0.7496778 
0.06818867 4.670769e-05 0.3057938 0.07966281 -3.285247 3.105267 
0.2140999 0.005324453 0.3004456 0.6540489 -3.451785 2.651044 
-0.3085861 4.670769e-05 0.3070774 -1.624052 -1.671963 1.584224 
-0.2378702 0.2074437 0.2371597 -3.059148 3.265941 3.070076 
-0.08250332 0.1774119 0.262989 0.1078896 2.96589 5.433609 
0.3009758 0.1350264 0.2522945 5.049935 2.129308 1.285875 
0.2403469 2.095642 0.2219324 2.006231 4.58677 0.8190976 
-0.02813721 2.038544 0.2775593 0.7261575 2.323776 5.083956 
0.2123718 2.064629 0.2787504 0.5103662 2.782423 4.275478 
0.2485924 2.0101 0.2808523 1.969811 0.06530286 5.344444 
0.2801886 2.021753 0.2596703 4.107397 0.8043653 2.339547 
-0.05235386 2.064255 0.2791967 1.24254 2.63913 3.151048 
-0.2839699 2.052392 0.2824192 -2.373957 1.107099 2.382292 
-0.2820072 1.915964 0.2805719 -2.331722 -1.31053 2.377603 
0.2705679 1.93474 0.2454491 4.393668 -1.574795 2.498053 
0.2006502 1.907744 0.2746668 0.9944245 -2.23372 5.121312 
0.2336473 0.5376536 0.2602539 1.932752 1.941381 3.490536 
0.08516788 0.5268879 0.2715378 0.1746424 2.260744 5.305058 
0.06894016 0.4635782 0.2742672 0.1095394 -2.727601 4.110311 
-2.288818e-05 0.5383308 0.266284 -0.005782555 2.845754 5.025472 
-0.1473351 0.5272614 0.2742672 -0.541315 2.157487 5.021765 
-0.25284 0.4595382 0.2507992 -2.162901 -1.639866 2.187363 
-0.1889467 0.4631112 0.2742672 -0.781342 -2.207635 3.602974 
0.2633762 0.4734798 0.2452393 2.904323 -1.274238 3.080413 
0.1592207 0.001658056 0.2416201 0.3003616 -6.265569 0.1651819 
-0.2637682 2.086744 0.2537422 -1.830527 4.011218 1.539385 
0.2526093 2.087795 0.2381668 2.533749 2.603604 0.5036614 
-0.2349997 1.854102 0.2262325 -3.378168 -2.743818 2.867033 
-0.2136307 0.578311 0.2120085 -2.198251 4.211508 2.607191 
-0.0300312 0.4495665 0.233984 0.009601053 -3.210083 4.153083 
-0.2567167 2.094287 0.1437721 -2.279045 5.144154 0.2084282 
-0.04000378 2.096762 0.1584854 0.0155687 6.094656 1.039135 
0.2346497 1.85485 0.2250614 3.648882 -2.110305 3.241269 
0.2753525 0.5281956 0.1875134 4.813238 2.282658 0.8271697 
-0.2756824 0.5276118 0.2139702 -3.704857 1.382371 1.695643 
0.2353506 0.451458 0.2341938 2.61808 -3.278188 3.76239 
-0.2274551 0.4472379 0.2232132 -2.766413 -3.762753 2.662467 
-0.2344389 0.3668272 0.2339401 -2.788739 -0.2708002 2.86844 
-0.07290745 0.35424 0.2262526 -0.06694712 -0.1963007 6.258007 
-0.2189293 0.3007852 0.2208843 -3.415226 -0.09154481 3.940912 
0.04441738 0.3161514 0.2339401 -0.1236535 0.2387863 6.27362 
0.2343016 0.2220159 0.2339401 3.23719 2.345421 3.351388 
-0.2823133 1.916969 0.2114716 -5.524758 -1.751965 -0.525364 
-0.158824 1.7712 0.2295036 0.2301774 -1.939663 5.462994 
0.2277842 1.740981 0.2266493 1.70225 -1.64725 1.806115 
0.04332256 1.7712 0.2295036 -0.1771345 -2.134212 5.25889 
-0.227829 1.740934 0.226675 -1.450097 -1.633686 1.59939 
-0.1865902 1.738366 0.1992149 -0.8254502 -4.329281 3.311005 
0.1055555 1.747146 0.2178698 -0.4985291 -4.744966 3.788472 
0.1828308 0.6043727 0.1817455 3.033208 3.390773 3.063786 
0.273345 0.4637184 0.2137127 3.862085 -2.590988 0.8544908 
-0.02902889 4.670769e-05 0.1577358 0.01177056 -6.283152 0.001489239 
-0.2293959 1.871197 0.07410812 -5.741289 -1.735745 0.1215479 
0.2347898 1.85436 -0.04587364 5.653945 -2.061345 -0.04720061 
0.06779385 1.729702 0.1814632 -0.1752364 -2.522319 4.947028 
0.3114586 0.1132615 0.1840572 5.700414 1.524211 0.1899641 
0.1833191 1.730356 0.1822796 1.971109 -4.516867 2.313444 
0.2287436 1.741004 0.0943327 3.78178 -3.212544 -0.01533938 
-0.235446 0.3540999 0.1750908 -6.232721 -0.2446314 0.3922715 
0.3072805 4.670769e-05 0.1335182 3.054577 -3.217057 0.193014 
0.2842302 2.037096 0.06876087 5.446917 1.718472 0.07029971 
-0.1823406 1.450027 0.1808319 -2.460459 -1.224662 2.454893 
0.1820831 1.505374 0.1806717 3.024154 -0.5355039 2.954081 
0.135869 1.462731 0.1803188 0.7369573 -1.60992 5.708942 
0.1197529 1.344613 0.1805315 0.6893586 1.615154 5.448104 
-0.1814747 1.344846 0.1700439 -2.710742 1.088879 2.471361 
-0.07977295 1.250384 0.180788 -0.3073125 0.1329528 6.257303 
0.1763144 1.342885 0.156148 4.130863 1.137358 2.51064 
0.1579132 1.249823 0.1747379 2.671167 -1.06837 4.517139 
0.1773205 1.2615 0.1560802 4.88378 -1.138606 1.74504 
-0.1621609 1.25022 0.1712112 -2.921386 -0.2608948 4.93533 
0.07975006 1.198143 0.1808319 1.00914 -1.000785 5.847985 
0.1536884 1.208045 0.1366472 6.083652 -0.7243509 0.2980746 
0.1525421 1.15431 0.1348724 3.373994 1.710885 4.056991 
-0.01116276 1.126287 0.1808319 0.5644677 -0.3199155 6.183998 
-0.1745625 1.015734 0.1717949 -2.716801 -1.166104 3.368521 
-0.02344608 1.011087 0.1802044 0.009269746 -1.670937 5.641203 
0.1823177 1.104849 0.1808319 1.982261 1.21615 2.491446 
0.182292 1.021595 0.180809 2.566941 -1.060176 2.589891 
0.1819439 0.9271798 0.1804352 2.362237 1.264336 2.383487 
-0.1359606 0.9031496 0.180809 -1.728898 1.121656 5.229297 
0.1823177 0.8058848 0.1808319 3.138621 0.00313909 3.131454 
-0.1484518 0.6053536 0.180975 -1.106269 2.982633 4.917728 
0.181778 0.7030621 0.180459 3.158767 0.03509336 3.232049 
-0.1816616 0.8874798 0.1462231 -4.892205 0.5689259 2.4331 
-0.1829948 0.6064512 0.1580181 -4.334757 3.332756 1.892821 
-0.2754908 0.4628776 -0.1734066 -3.523647 -3.070822 -0.3066098 
-0.05476189 4.670769e-05 -0.0007133484 -0.02402619 -6.283062 -0.004619103 
-0.2275276 1.773325 0.04181671 -5.482275 -2.182776 0.03986897 
0.1777868 1.440266 0.09134388 5.655802 -1.96856 0.2810965 
0.1471243 1.397227 0.1464577 3.56421 0.2127147 3.761958 
0.1576786 1.377377 0.1566381 2.905782 2.551404 2.948274 
-0.1581917 1.377704 0.157341 -3.014698 1.92592 3.541371 
-0.1766386 1.235648 0.1454067 -5.946231 -0.148884 1.539808 
-0.1486635 0.9690749 0.1477413 -3.490473 -0.63428 3.925485 
0.1823177 0.7692675 0.1354351 6.282967 -0.0142569 -0.01397097 
-0.236001 0.4486791 0.1170349 -4.536268 -2.870521 0.1248382 
-0.2319641 0.2220393 0.1460838 -5.695436 1.827098 0.1456101 
-0.2703066 1.948261 0.1322336 -6.082948 -1.219428 -0.4912465 
0.2642374 1.892425 0.132143 5.575623 -2.385325 0.1130958 
-0.1830158 1.729702 0.06658936 -5.129691 -2.42521 -0.1541744 
-0.1585388 1.414157 0.1576891 -3.131013 -2.373623 3.303352 
0.01765728 1.397203 0.1469479 0.04409577 -0.04320919 5.578393 
-0.1815214 1.010853 0.1465511 -5.308193 -1.805353 0.8648686 
0.1541767 0.9657354 0.1480446 3.639731 0.6236253 3.279372 
0.2354221 0.22288 -0.2369251 3.203548 2.295966 -3.372479 
-0.2805347 2.064395 -0.03728294 -5.592477 1.984029 0.01937103 
-0.1791649 1.440523 -0.02495193 -5.660995 -1.943278 -0.03823401 
-0.1480093 1.397507 -0.1341515 -3.920384 0.86246 -3.060255 
-0.1816616 0.9281139 0.1080418 -5.437289 1.958149 0.579886 
-0.224 2.096646 -0.2254581 -0.7246609 5.353775 -1.965221 
0.2363358 0.448936 -0.06712818 4.248256 -2.962065 0.01535476 
0.1819439 1.344589 -0.01248169 5.76129 1.591532 0.1090922 
0.1823177 1.198634 -0.001504898 6.231401 0.2123377 0.475644 
0.2261038 2.096179 0.02943802 2.093016 5.476427 0.1145851 
-0.2838297 1.957392 0.02511787 -5.894195 -0.9678457 0.6370023 
0.1818295 1.586105 -0.1497726 6.197064 0.1437698 -0.677317 
-0.235446 0.4495198 -0.03160667 -4.068052 -3.136692 -0.07757987 
0.3094501 0.03397846 -0.09790802 5.946733 -1.388167 0.2489079 
0.1823177 1.115661 -0.1610775 4.074921 0.7152218 -2.905704 
0.2753782 0.4629944 -0.2769318 1.826945 -1.540417 -1.843478 
0.3113861 0.1132849 -0.04024887 5.724431 1.704607 -0.007865068 
-0.3072996 4.670769e-05 -0.1474867 -3.075011 -3.257128 0.004597443 
-0.1823406 1.182473 -0.08125496 -6.134033 -0.1228506 -0.7695057 
-0.1823149 1.021595 -0.1837273 -2.550226 -0.8530779 -2.505895 
0.2796755 0.002358641 -0.01110458 1.755926 -5.768431 -0.225947 
0.2769871 1.912695 -0.2777462 2.365232 -1.007374 -2.34861 
-0.2310514 1.838409 -0.01594067 -5.928441 -1.560187 0.3604421 
0.1819649 1.012184 -0.1826096 2.498101 -0.9863378 -2.519698 
-0.2755375 0.5281489 -0.2426262 -4.396075 1.84603 -1.123041 
-0.1290016 2.096762 -0.2271423 0.5850461 5.068972 -2.347158 
0.07996178 2.096762 -0.1614971 -0.1249086 6.27011 -0.2345109 
0.1831112 0.6063344 -0.09284019 5.253524 2.489637 -0.1029965 
0.1479397 1.397227 -0.1495161 3.527251 -0.4382184 -3.559256 
-0.1682329 1.364859 -0.1696205 -2.542739 2.6902 -2.627672 
0.1823177 0.9031729 -0.1196966 5.978192 0.9682717 -0.4201675 
-0.2564154 2.09438 -0.1894016 -2.703763 4.936356 -0.3656026 
-0.1493387 0.965712 -0.1557064 -3.272208 0.6033456 -3.648477 
0.1790695 0.7435327 -0.1042118 6.152864 -0.05144814 -0.960916 
-0.1982193 0.002241876 -0.1082993 -0.06917543 -6.278488 0.07642972 
-0.2824755 1.917132 -0.05432892 -5.682896 -1.753888 0.3086162 
-0.2379894 0.2071401 -0.2129679 -5.583476 2.41904 -0.5681958 
0.3072805 4.670769e-05 -0.1863689 3.135323 -3.18192 0.03483358 
-0.04002571 2.096762 -0.06782913 0.01483469 6.28159 -0.07814074 
-0.1823406 1.328546 -0.1837769 -2.690324 0.7019055 -2.689595 
0.1810818 1.302741 -0.09251118 6.280067 -0.09887026 -0.01106856 
-0.181963 0.9270864 -0.1826324 -2.357159 1.075275 -2.273822 
0.2278566 1.740888 -0.2289371 1.598312 -1.656586 -1.686355 
-0.2278757 1.740841 -0.2289639 -1.741731 -1.662995 -1.756868 
-0.2311916 1.83925 -0.2321625 -3.232983 -2.36094 -3.271572 
0.2001114 1.738459 -0.1746178 1.921965 -5.502683 -0.7849568 
0.1823177 1.450051 -0.183753 2.470244 -1.091119 -2.452268 
0.153944 0.9643341 -0.1554966 3.603566 -0.1946654 -3.513801 
0.2563925 2.094404 -0.1894016 2.676885 3.77758 -1.212934 
0.2842779 2.037143 -0.1977177 4.980405 1.500493 -1.68329 
0.1698942 0.7547887 -0.1341515 5.99131 -0.1541192 -1.797523 
-0.2787132 2.062527 -0.2536449 -3.739661 2.716476 -1.481676 
-0.2267084 0.3402049 -0.2303638 -3.270248 -0.08687756 -3.341936 
0.2271566 1.85506 -0.2366018 2.956449 -2.739758 -3.491902 
-0.1837158 1.730356 -0.1848974 -2.042416 -4.572049 -2.180781 
-0.181941 1.478075 -0.1833801 -2.384141 -1.05163 -2.646343 
0.1739788 1.697568 -0.1738272 3.918965 -0.7878523 -3.600258 
0.1823177 1.328546 -0.1837769 2.615963 0.9894938 -2.626708 
0.1823177 1.209213 -0.1838207 2.942665 -0.5929942 -2.401898 
0.1653175 1.157229 -0.1564064 4.476196 -0.1349661 -3.250415 
-0.1336002 1.156458 -0.1826792 -2.459049 0.1770412 -4.996976 
0.1739111 0.9229296 -0.1777058 2.561338 1.03374 -2.722121 
-0.1565819 0.6876024 -0.173687 -3.037939 0.7663475 -4.451554 
-0.1820135 0.6622412 -0.1496353 -5.466733 1.184556 -1.627433 
0.1827583 0.6046997 -0.184288 2.978708 3.62025 -2.919461 
-0.1794872 0.601944 -0.1810913 -2.841789 3.704459 -3.052451 
0.2756376 0.5267243 -0.2771416 2.142122 1.38519 -2.156956 
-0.2586784 0.4651896 -0.2497015 -3.255555 -3.03947 -2.226635 
-0.3082809 0.0001401119 -0.3099985 -1.544738 -1.453756 -1.554258 
-0.01525211 2.087935 -0.223053 -0.6256533 5.210243 -2.470839 
-0.05709743 1.493627 -0.1779623 -0.3906666 -1.265288 -6.088021 
4.577637e-05 1.39767 -0.1492348 -0.4572967 0.2496356 -5.43047 
0.0235157 1.439705 -0.181138 -0.5953305 -2.014025 -5.484909 
-0.23458 0.4508976 -0.2356186 -2.915272 -4.137561 -2.571879 
-0.3114567 0.113425 -0.2259274 -5.42556 1.884566 -0.5654117 
0.1767807 2.094474 -0.2579212 1.1388 4.396016 -2.544906 
0.1752653 1.543136 -0.1810913 3.053685 0.2567527 -4.120193 
0.1666002 0.8051609 -0.1719847 3.304821 -0.2186891 -3.674802 
0.148365 0.7143182 -0.1838207 2.328248 0.6590583 -4.976441 
0.2361441 0.4490761 -0.2374191 2.323145 -4.388213 -2.36923 
0.05020905 2.087071 -0.2649736 -0.7345366 4.538118 -2.948816 
-0.06676483 1.740234 -0.2116814 0.103359 -4.087544 -4.022661 
0.1356363 1.729958 -0.1849213 0.1495641 -2.737751 -4.993312 
-0.1030569 1.609061 -0.1830759 0.04483464 -0.09791292 -6.281834 
0.135211 1.104872 -0.1793404 1.082974 0.2891866 -6.089609 
-0.01132393 0.6056105 -0.1838207 -0.1443144 2.301354 -5.316382 
0.01109314 0.7028985 -0.1838207 0.05916518 0.1483744 -6.278379 
-0.2629995 0.5265843 -0.2732887 -2.072456 1.214838 -2.835478 
-0.2459068 0.1874069 -0.2503319 -5.32237 2.742019 0.3215137 
0.3077221 0.1263858 -0.254509 4.618342 1.497673 -1.834025 
-0.2261267 0.2316139 -0.2273521 -2.973522 1.439141 -4.778815 
0.3071404 -3.72529e-09 -0.2836304 1.770806 -1.674867 -1.552824 
-0.2820072 1.915871 -0.283329 -2.412358 -1.068463 -2.434711 
0.1015863 1.772414 -0.2260685 -0.08252265 -2.438985 -5.507874 
-0.1213894 1.86746 -0.2399874 0.06354354 -2.504749 -5.443647 
-0.1016769 1.796818 -0.2324886 0.1474634 -1.147905 -6.140797 
0.2762184 0.1607613 -0.2764149 2.783867 2.482558 -3.344901 
-0.1356802 2.061289 -0.272728 1.834961 2.50568 -3.86346 
-0.2150116 0.466077 -0.273263 -0.6513243 -2.800197 -4.182914 
-0.1466303 0.4492629 -0.2369251 -0.09235248 -2.914993 -4.455768 
-0.06678963 0.20693 -0.2408981 -0.05830356 2.156834 -5.529254 
-0.2815876 0.1263391 -0.3092957 -2.254232 1.77611 -3.29843 
0.1747046 2.064325 -0.2823257 1.381521 1.972614 -4.913692 
-0.2770319 2.047675 -0.2760906 -2.421284 1.438324 -2.887362 
0.026577 2.050921 -0.2856884 -1.382962 1.938472 -4.976669 
-0.175518 1.917155 -0.2840996 0.05796766 -1.79849 -5.638307 
0.01674366 1.916945 -0.2839603 0.05761507 -2.146891 -5.460067 
0.2294397 0.1264792 -0.3094387 0.999469 1.450882 -5.078015 
-0.1066055 1.984692 -0.2845669 0.3062489 1.142439 -6.010571 
-0.0266428 1.983991 -0.2855682 -0.45298 1.107833 -5.965964 
3 0 1 2 
3 2 3 4 
3 2 4 0 
3 5 6 7 
3 5 7 8 
3 3 8 9 
3 3 9 4 
3 0 10 11 
3 8 7 9 
3 9 7 12 
3 4 9 13 
3 0 4 13 
3 10 0 14 
3 6 15 7 
3 0 13 14 
3 5 16 6 
3 5 17 16 
3 5 8 17 
3 8 3 17 
3 2 1 3 
3 0 18 1 
3 18 0 11 
3 12 7 15 
3 12 13 9 
3 19 20 21 
3 21 22 23 
3 24 25 26 
3 20 24 26 
3 21 20 26 
3 23 22 27 
3 22 21 26 
3 22 26 28 
3 22 28 27 
3 29 30 31 
3 30 32 31 
3 33 34 35 
3 32 33 35 
3 32 35 31 
3 29 31 36 
3 37 14 13 
3 25 24 38 
3 21 23 39 
3 28 26 40 
3 33 32 41 
3 42 31 35 
3 43 38 24 
3 44 43 24 
3 20 44 24 
3 19 21 39 
3 28 45 27 
3 28 40 45 
3 46 29 36 
3 33 47 34 
3 35 34 42 
3 31 42 48 
3 36 31 48 
3 42 49 50 
3 42 50 51 
3 42 51 48 
3 51 50 52 
3 48 51 53 
3 51 52 53 
3 48 53 54 
3 53 52 16 
3 53 16 54 
3 54 16 17 
3 54 17 1 
3 3 1 17 
3 1 18 54 
3 25 55 26 
3 55 40 26 
3 45 40 56 
3 57 45 58 
3 40 59 56 
3 45 56 58 
3 56 59 60 
3 58 61 57 
3 41 47 33 
3 62 32 30 
3 62 30 29 
3 46 36 63 
3 48 63 36 
3 64 37 13 
3 37 10 14 
3 40 65 59 
3 66 45 57 
3 60 67 56 
3 67 58 56 
3 68 18 11 
3 37 11 10 
3 67 61 58 
3 67 69 61 
3 69 57 61 
3 69 70 57 
3 32 62 41 
3 29 46 62 
3 50 71 52 
3 13 12 64 
3 37 72 11 
3 44 20 19 
3 73 23 27 
3 67 60 74 
3 69 67 74 
3 75 69 74 
3 75 74 76 
3 77 78 79 
3 80 77 81 
3 80 81 82 
3 79 78 83 
3 81 77 79 
3 81 79 84 
3 82 81 85 
3 81 84 86 
3 85 81 86 
3 84 87 86 
3 79 87 84 
3 87 79 88 
3 87 89 86 
3 79 83 88 
3 86 89 90 
3 87 88 89 
3 90 89 91 
3 92 93 94 
3 94 93 95 
3 94 95 96 
3 97 98 95 
3 96 95 62 
3 41 95 98 
3 41 62 95 
3 47 99 34 
3 12 100 64 
3 55 65 40 
3 59 65 101 
3 102 75 103 
3 75 76 103 
3 104 105 78 
3 104 78 77 
3 104 77 80 
3 83 106 88 
3 93 107 97 
3 93 97 95 
3 94 96 108 
3 49 109 71 
3 49 71 50 
3 52 110 16 
3 39 23 19 
3 111 65 55 
3 45 112 27 
3 66 112 45 
3 66 57 70 
3 113 60 59 
3 76 74 114 
3 76 114 115 
3 78 106 83 
3 88 106 116 
3 91 89 117 
3 93 92 107 
3 118 48 54 
3 72 68 11 
3 64 72 37 
3 25 119 111 
3 25 111 55 
3 73 27 112 
3 76 115 103 
3 105 115 114 
3 105 104 115 
3 104 103 115 
3 88 116 107 
3 89 88 107 
3 89 107 117 
3 92 117 107 
3 108 96 62 
3 47 41 98 
3 74 120 114 
3 105 114 121 
3 122 97 107 
3 71 110 52 
3 54 18 68 
3 44 123 43 
3 73 19 23 
3 104 80 103 
3 34 99 109 
3 48 124 63 
3 59 101 113 
3 60 113 74 
3 125 82 85 
3 126 85 86 
3 15 100 12 
3 43 119 38 
3 73 127 19 
3 119 25 38 
3 111 128 65 
3 74 113 120 
3 114 120 121 
3 125 80 82 
3 126 86 90 
3 92 94 108 
3 129 75 102 
3 99 130 109 
3 68 72 131 
3 80 125 103 
3 126 90 132 
3 132 90 91 
3 46 63 133 
3 134 68 131 
3 15 6 135 
3 69 75 129 
3 106 136 137 
3 106 137 116 
3 138 72 64 
3 111 119 128 
3 73 112 139 
3 65 140 101 
3 78 136 106 
3 117 141 91 
3 142 47 98 
3 124 133 63 
3 138 131 72 
3 143 123 44 
3 144 44 19 
3 144 19 127 
3 125 85 126 
3 46 145 62 
3 103 146 102 
3 125 146 103 
3 105 147 78 
3 148 92 108 
3 47 142 99 
3 54 68 118 
3 43 149 119 
3 65 128 140 
3 147 105 121 
3 122 107 150 
3 148 108 151 
3 151 108 62 
3 151 62 145 
3 135 152 15 
3 128 153 140 
3 109 130 71 
3 124 48 118 
3 15 152 100 
3 116 150 107 
3 110 71 154 
3 6 16 110 
3 155 64 100 
3 155 138 64 
3 123 149 43 
3 156 143 44 
3 157 78 147 
3 78 157 136 
3 158 125 126 
3 126 132 158 
3 132 91 141 
3 159 122 150 
3 119 153 128 
3 66 70 160 
3 101 161 113 
3 144 156 44 
3 140 153 162 
3 69 163 70 
3 163 160 70 
3 129 102 164 
3 92 165 117 
3 166 127 73 
3 166 73 167 
3 66 139 112 
3 155 131 138 
3 117 165 141 
3 122 159 97 
3 168 148 151 
3 149 169 119 
3 140 162 101 
3 102 146 164 
3 116 137 150 
3 92 148 165 
3 130 170 71 
3 71 170 154 
3 66 171 139 
3 171 66 160 
3 161 172 113 
3 113 173 120 
3 120 173 121 
3 134 118 68 
3 167 73 139 
3 69 129 174 
3 175 158 176 
3 176 158 177 
3 177 158 132 
3 136 178 137 
3 148 179 165 
3 179 148 168 
3 159 180 97 
3 97 180 181 
3 97 181 98 
3 168 151 145 
3 168 145 182 
3 183 142 98 
3 46 182 145 
3 184 46 133 
3 99 185 130 
3 154 6 110 
3 127 166 144 
3 119 169 153 
3 163 69 174 
3 125 158 175 
3 98 181 183 
3 152 186 100 
3 186 155 100 
3 144 187 156 
3 162 161 101 
3 113 172 173 
3 188 189 121 
3 190 146 189 
3 147 121 189 
3 146 147 189 
3 185 191 130 
3 135 192 186 
3 187 143 156 
3 166 193 144 
3 174 129 194 
3 194 129 164 
3 188 190 189 
3 164 146 190 
3 146 125 175 
3 141 165 150 
3 150 165 159 
3 195 179 168 
3 196 168 182 
3 46 184 182 
3 124 197 133 
3 130 191 170 
3 6 192 135 
3 198 187 144 
3 173 188 121 
3 175 147 146 
3 157 178 136 
3 137 141 150 
3 179 159 165 
3 181 180 183 
3 6 154 192 
3 134 131 155 
3 199 200 172 
3 200 163 174 
3 200 174 194 
3 172 200 201 
3 200 194 201 
3 172 201 173 
3 201 190 188 
3 201 188 173 
3 201 194 164 
3 201 164 190 
3 147 175 157 
3 175 178 157 
3 175 176 178 
3 202 176 177 
3 176 202 178 
3 177 132 202 
3 202 132 141 
3 178 202 141 
3 178 141 137 
3 159 179 195 
3 159 203 180 
3 159 195 204 
3 195 168 196 
3 203 159 204 
3 195 196 204 
3 204 196 182 
3 204 182 203 
3 180 203 183 
3 142 183 205 
3 99 142 185 
3 206 192 154 
3 134 207 118 
3 155 207 134 
3 135 186 152 
3 161 199 172 
3 160 163 200 
3 184 183 203 
3 182 184 203 
3 154 170 208 
3 207 155 209 
3 123 169 149 
3 169 210 153 
3 211 200 199 
3 197 124 118 
3 162 212 213 
3 212 211 213 
3 212 171 211 
3 162 213 161 
3 211 171 160 
3 161 213 199 
3 213 211 199 
3 211 160 200 
3 154 208 206 
3 207 214 118 
3 215 123 143 
3 193 198 144 
3 153 210 162 
3 212 139 171 
3 185 216 191 
3 191 216 217 
3 217 197 118 
3 191 217 170 
3 170 217 208 
3 208 217 218 
3 217 118 218 
3 219 206 208 
3 219 208 218 
3 214 218 118 
3 166 220 193 
3 184 205 183 
3 216 197 217 
3 216 133 197 
3 221 169 123 
3 215 221 123 
3 198 222 187 
3 220 198 193 
3 169 221 210 
3 210 223 162 
3 223 212 162 
3 223 224 212 
3 224 139 212 
3 142 205 185 
3 214 207 225 
3 225 207 209 
3 219 186 192 
3 198 220 222 
3 221 215 226 
3 220 166 167 
3 215 143 226 
3 143 187 226 
3 187 222 227 
3 221 226 223 
3 226 187 227 
3 220 167 139 
3 220 224 222 
3 221 223 210 
3 220 139 224 
3 227 222 224 
3 227 224 226 
3 223 226 224 
3 205 184 216 
3 205 216 185 
3 184 133 216 
3 219 192 206 
3 225 219 218 
3 225 218 214 
3 186 209 155 
3 219 225 186 
3 186 225 209 
3 42 34 49 
3 34 109 49 
