ply
format ascii 1.0
comment VCGLIB generated
element vertex 106
property float x
property float y
property float z
property float nx
property float ny
property float nz
element face 208
property list uchar int vertex_indices
end_header
0.2821293 0.09971683 0.3098354 2.353951 0.945997 3.920907 
0.264658 0.175894 0.2638531 2.479 3.450104 3.306349 
0.1736517 0.1113699 0.3069839 -0.06557885 2.633879 5.570718 
0.02697182 0.1414017 0.27812 -0.4244908 2.680913 5.636957 
0.05723953 0.09981024 0.3099766 -0.4121266 1.774827 5.593469 
-0.1875458 0.1258954 0.3067045 0.6841038 1.759959 5.387416 
-0.3112698 0.1140321 0.3097191 -2.396126 1.174986 2.367287 
-0.2141457 0.007636398 0.3099966 0.3332697 -2.66326 4.375348 
-0.135561 0.0840704 0.2896318 0.8753667 0.9285504 6.035131 
-0.1180019 0.007332806 0.3096466 -0.1488172 -2.292776 3.879065 
0.2826385 0.02050383 0.2973404 1.551291 -2.914958 2.370198 
0.2977953 0.02622529 0.2865753 3.313754 -2.319921 1.63832 
-0.1355867 4.670769e-05 0.2804108 -0.01980695 -6.191914 0.7496778 
0.06818867 4.670769e-05 0.3057938 0.07966281 -3.285247 3.105267 
0.2140999 0.005324453 0.3004456 0.6540489 -3.451785 2.651044 
-0.3085861 4.670769e-05 0.3070774 -1.624052 -1.671963 1.584224 
-0.2378702 0.2074437 0.2371597 -3.059148 3.265941 3.070076 
-0.08250332 0.1774119 0.262989 0.1078896 2.96589 5.433609 
0.3009758 0.1350264 0.2522945 5.049935 2.129308 1.285875 
0.2336473 0.5376536 0.2602539 1.932752 1.941381 3.490536 
0.08516788 0.5268879 0.2715378 0.1746424 2.260744 5.305058 
0.06894016 0.4635782 0.2742672 0.1095394 -2.727601 4.110311 
-2.288818e-05 0.5383308 0.266284 -0.005782555 2.845754 5.025472 
-0.1473351 0.5272614 0.2742672 -0.541315 2.157487 5.021765 
-0.25284 0.4595382 0.2507992 -2.162901 -1.639866 2.187363 
-0.1889467 0.4631112 0.2742672 -0.781342 -2.207635 3.602974 
0.2633762 0.4734798 0.2452393 2.904323 -1.274238 3.080413 
0.1592207 0.001658056 0.2416201 0.3003616 -6.265569 0.1651819 
-0.2136307 0.578311 0.2120085 -2.198251 4.211508 2.607191 
-0.0300312 0.4495665 0.233984 0.009601053 -3.210083 4.153083 
0.2753525 0.5281956 0.1875134 4.813238 2.282658 0.8271697 
-0.2756824 0.5276118 0.2139702 -3.704857 1.382371 1.695643 
0.2353506 0.451458 0.2341938 2.61808 -3.278188 3.76239 
-0.2274551 0.4472379 0.2232132 -2.766413 -3.762753 2.662467 
-0.2344389 0.3668272 0.2339401 -2.788739 -0.2708002 2.86844 
-0.07290745 0.35424 0.2262526 -0.06694712 -0.1963007 6.258007 
-0.2189293 0.3007852 0.2208843 -3.415226 -0.09154481 3.940912 
0.04441738 0.3161514 0.2339401 -0.1236535 0.2387863 6.27362 
0.2343016 0.2220159 0.2339401 3.23719 2.345421 3.351388 
0.1828308 0.6043727 0.1817455 3.033208 3.390773 3.063786 
0.273345 0.4637184 0.2137127 3.862085 -2.590988 0.8544908 
-0.02902889 4.670769e-05 0.1577358 0.01177056 -6.283152 0.001489239 
0.3114586 0.1132615 0.1840572 5.700414 1.524211 0.1899641 
-0.235446 0.3540999 0.1750908 -6.232721 -0.2446314 0.3922715 
0.3072805 4.670769e-05 0.1335182 3.054577 -3.217057 0.193014 
0.1819439 0.9271798 0.1804352 1.59891 1.549904 1.743807 
-0.1359606 0.8149341 0.180809 -1.977735 1.911832 4.280582 
0.1823177 0.8058848 0.1808319 3.137363 0.004002817 3.131452 
-0.1484518 0.6053536 0.180975 -1.119092 3.008013 4.907834 
0.181778 0.7030621 0.180459 3.158767 0.03509336 3.232049 
-0.1816616 0.7992643 0.1462231 -4.421383 1.256896 2.245594 
-0.1829948 0.6064512 0.1580181 -4.3191 3.363745 1.90002 
-0.2754908 0.4628776 -0.1734066 -3.523647 -3.070822 -0.3066098 
-0.05476189 4.670769e-05 -0.0007133484 -0.02402619 -6.283062 -0.004619103 
-0.05480564 0.9399294 0.07853011 -1.921708 4.937747 1.423653 
0.1823177 0.7692675 0.1354351 6.282967 -0.0142569 -0.01397097 
-0.236001 0.4486791 0.1170349 -4.536268 -2.870521 0.1248382 
-0.2319641 0.2220393 0.1460838 -5.695436 1.827098 0.1456101 
0.2354221 0.22288 -0.2369251 3.203548 2.295966 -3.372479 
0.07118171 0.9589604 0.04358135 0.05288292 6.04686 0.5261389 
-0.1816616 0.8595575 0.1080418 -3.044093 1.976659 1.295342 
0.2363358 0.448936 -0.06712818 4.248256 -2.962065 0.01535476 
-0.235446 0.4495198 -0.03160667 -4.068052 -3.136692 -0.07757987 
0.3094501 0.03397846 -0.09790802 5.946733 -1.388167 0.2489079 
0.2753782 0.4629944 -0.2769318 1.826945 -1.540417 -1.843478 
0.3113861 0.1132849 -0.04024887 5.724431 1.704607 -0.007865068 
-0.3072996 4.670769e-05 -0.1474867 -3.075011 -3.257128 0.004597443 
0.2796755 0.002358641 -0.01110458 1.755926 -5.768431 -0.225947 
-0.2755375 0.5281489 -0.2426262 -4.396075 1.84603 -1.123041 
0.1831112 0.6063344 -0.09284019 5.253524 2.489637 -0.1029965 
0.1823177 0.9031729 -0.1196966 4.707607 1.895654 -1.199786 
-0.01843257 0.9362295 -0.1082162 -2.117467 4.872178 -2.037025 
0.1790695 0.7435327 -0.1042118 6.152864 -0.05144814 -0.960916 
-0.1982193 0.002241876 -0.1082993 -0.06917543 -6.278488 0.07642972 
-0.2379894 0.2071401 -0.2129679 -5.583476 2.41904 -0.5681958 
0.3072805 4.670769e-05 -0.1863689 3.135323 -3.18192 0.03483358 
-0.1407431 0.8388709 -0.1369303 -2.975175 1.962808 -2.768514 
0.1078674 0.9575592 -0.1502372 0.4695929 3.178873 -2.391067 
0.1698942 0.7547887 -0.1341515 5.989679 -0.06443682 -1.819496 
-0.2267084 0.3402049 -0.2303638 -3.270248 -0.08687756 -3.341936 
0.1557777 0.9171846 -0.1617222 2.166687 1.793774 -3.196917 
-0.1565819 0.7020249 -0.173687 -2.517262 1.471615 -3.881315 
-0.1820135 0.6622412 -0.1496353 -5.630098 1.126762 -1.375713 
0.1827583 0.6046997 -0.184288 2.978708 3.62025 -2.919461 
-0.1794872 0.601944 -0.1810913 -2.856454 3.672949 -3.057278 
0.2756376 0.5267243 -0.2771416 2.142122 1.38519 -2.156956 
-0.2586784 0.4651896 -0.2497015 -3.255555 -3.03947 -2.226635 
-0.3082809 0.0001401119 -0.3099985 -1.544738 -1.453756 -1.554258 
-0.23458 0.4508976 -0.2356186 -2.915272 -4.137561 -2.571879 
-0.3114567 0.113425 -0.2259274 -5.42556 1.884566 -0.5654117 
0.1666002 0.8051609 -0.1719847 2.950224 0.4837153 -2.958858 
0.148365 0.7143182 -0.1838207 2.328248 0.6590583 -4.976441 
0.2361441 0.4490761 -0.2374191 2.323145 -4.388213 -2.36923 
-0.01132393 0.6056105 -0.1838207 -0.2252156 2.489949 -5.301898 
0.01109314 0.7028985 -0.1838207 -0.6708724 0.6200851 -6.119672 
-0.2629995 0.5265843 -0.2732887 -2.072456 1.214838 -2.835478 
-0.2459068 0.1874069 -0.2503319 -5.32237 2.742019 0.3215137 
0.3077221 0.1263858 -0.254509 4.618342 1.497673 -1.834025 
-0.2261267 0.2316139 -0.2273521 -2.973522 1.439141 -4.778815 
0.3071404 -3.72529e-09 -0.2836304 1.770806 -1.674867 -1.552824 
0.2762184 0.1607613 -0.2764149 2.783867 2.482558 -3.344901 
-0.2150116 0.466077 -0.273263 -0.6513243 -2.800197 -4.182914 
-0.1466303 0.4492629 -0.2369251 -0.09235248 -2.914993 -4.455768 
-0.06678963 0.20693 -0.2408981 -0.05830356 2.156834 -5.529254 
-0.2815876 0.1263391 -0.3092957 -2.254232 1.77611 -3.29843 
0.2294397 0.1264792 -0.3094387 0.999469 1.450882 -5.078015 
3 0 1 2 
3 2 3 4 
3 2 4 0 
3 5 6 7 
3 5 7 8 
3 3 8 9 
3 3 9 4 
3 0 10 11 
3 8 7 9 
3 9 7 12 
3 4 9 13 
3 0 4 13 
3 10 0 14 
3 6 15 7 
3 0 13 14 
3 5 16 6 
3 5 17 16 
3 5 8 17 
3 8 3 17 
3 2 1 3 
3 0 18 1 
3 18 0 11 
3 12 7 15 
3 12 13 9 
3 19 20 21 
3 20 22 21 
3 23 24 25 
3 22 23 25 
3 22 25 21 
3 19 21 26 
3 27 14 13 
3 23 22 28 
3 29 21 25 
3 30 19 26 
3 23 31 24 
3 25 24 29 
3 21 29 32 
3 26 21 32 
3 29 33 34 
3 29 34 35 
3 29 35 32 
3 35 34 36 
3 32 35 37 
3 35 36 37 
3 32 37 38 
3 37 36 16 
3 37 16 38 
3 38 16 17 
3 38 17 1 
3 3 1 17 
3 1 18 38 
3 28 31 23 
3 39 22 20 
3 39 20 19 
3 30 26 40 
3 32 40 26 
3 41 27 13 
3 27 10 14 
3 42 18 11 
3 27 11 10 
3 22 39 28 
3 19 30 39 
3 34 43 36 
3 13 12 41 
3 27 44 11 
3 45 46 47 
3 47 46 48 
3 47 48 49 
3 50 51 48 
3 49 48 39 
3 28 48 51 
3 28 39 48 
3 31 52 24 
3 12 53 41 
3 46 54 50 
3 46 50 48 
3 47 49 55 
3 33 56 43 
3 33 43 34 
3 36 57 16 
3 46 45 54 
3 58 32 38 
3 44 42 11 
3 41 44 27 
3 45 59 54 
3 55 49 39 
3 31 28 51 
3 60 50 54 
3 43 57 36 
3 38 18 42 
3 24 52 56 
3 32 61 40 
3 15 53 12 
3 45 47 55 
3 52 62 56 
3 42 44 63 
3 30 40 64 
3 65 42 63 
3 15 6 66 
3 67 44 41 
3 68 31 51 
3 61 64 40 
3 67 63 44 
3 30 69 39 
3 70 45 55 
3 31 68 52 
3 38 42 58 
3 60 54 71 
3 70 55 72 
3 72 55 39 
3 72 39 69 
3 66 73 15 
3 56 62 43 
3 61 32 58 
3 15 73 53 
3 57 43 74 
3 6 16 57 
3 75 41 53 
3 75 67 41 
3 76 60 71 
3 45 77 59 
3 75 63 67 
3 60 76 50 
3 78 70 72 
3 45 70 77 
3 62 79 43 
3 43 79 74 
3 65 58 42 
3 70 80 77 
3 80 70 78 
3 76 81 50 
3 50 81 82 
3 50 82 51 
3 78 72 69 
3 78 69 83 
3 84 68 51 
3 30 83 69 
3 85 30 64 
3 52 86 62 
3 74 6 57 
3 51 82 84 
3 73 87 53 
3 87 75 53 
3 86 88 62 
3 66 89 87 
3 71 77 76 
3 90 80 78 
3 91 78 83 
3 30 85 83 
3 61 92 64 
3 62 88 79 
3 6 89 66 
3 80 76 77 
3 82 81 84 
3 6 74 89 
3 65 63 75 
3 76 80 90 
3 76 93 81 
3 76 90 94 
3 90 78 91 
3 93 76 94 
3 90 91 94 
3 94 91 83 
3 94 83 93 
3 81 93 84 
3 68 84 95 
3 52 68 86 
3 96 89 74 
3 65 97 58 
3 75 97 65 
3 66 87 73 
3 85 84 93 
3 83 85 93 
3 74 79 98 
3 97 75 99 
3 92 61 58 
3 74 98 96 
3 97 100 58 
3 86 101 88 
3 88 101 102 
3 102 92 58 
3 88 102 79 
3 79 102 98 
3 98 102 103 
3 102 58 103 
3 104 96 98 
3 104 98 103 
3 100 103 58 
3 85 95 84 
3 101 92 102 
3 101 64 92 
3 68 95 86 
3 100 97 105 
3 105 97 99 
3 104 87 89 
3 95 85 101 
3 95 101 86 
3 85 64 101 
3 104 89 96 
3 105 104 103 
3 105 103 100 
3 87 99 75 
3 104 105 87 
3 87 105 99 
3 29 24 33 
3 24 56 33 
3 59 77 71 
3 59 71 54 
