ply
format ascii 1.0
comment VCGLIB generated
element vertex 381
property float x
property float y
property float z
property float nx
property float ny
property float nz
element face 722
property list uchar int vertex_indices
end_header
0.1378093 0.3746247 -0.04958236 2.58919 5.198129 -0.9377384 
0.3731809 0.1966122 0.005004764 1.802821 -0.4729006 0.1659553 
0.2900639 0.2611313 -0.1757123 3.618433 2.210929 -1.996352 
0.1907563 0.2658284 -0.2351356 1.790723 5.043741 -3.207953 
0.198204 0.2034471 -0.318031 0.8696983 -0.4965911 -1.761934 
-0.1552072 0.4047472 -0.07656288 -1.869205 4.449353 -1.253469 
0.04640484 0.4578582 0.09548175 0.6149823 3.951907 0.8948778 
0.03707743 0.3571332 -0.1651849 0.5688436 5.056851 -3.064299 
-0.08758497 0.3692637 0.1067909 -2.917077 4.896035 2.61039 
-0.1119175 0.2779702 0.227958 -1.084238 5.591596 2.14885 
-0.1282887 0.1445052 0.04902542 -0.1921835 -6.139698 0.336482 
0.1908851 0.2351698 0.3298174 1.95794 1.241248 2.985478 
-0.07928753 0.3266256 -0.1863359 -1.084159 4.594323 -4.015787 
-0.1767545 0.1991806 0.3192526 -1.305884 -0.9728926 2.340682 
-0.3979864 0.1853914 0.02442157 -2.056702 -0.6145124 0.2445882 
-0.2285337 0.1656251 -0.3710598 -0.5715835 -0.2555411 -0.921126 
-0.2146611 0.3260171 0.0526365 -3.253311 4.629342 2.439471 
-0.3391776 0.2620928 -0.01211536 -3.975798 3.552594 -0.4820736 
-0.2364368 0.19948 -0.2200179 -3.242387 4.796306 -2.030524 
-0.1505733 0.2697583 0.2877384 -1.371121 3.887185 2.690657 
0.1753697 0.1918176 0.3279252 1.233381 -2.593799 2.803278 
-0.06635845 0.08484882 0.3734829 -3.186575 2.828351 2.467078 
-0.09741545 0.03246278 0.4175352 -3.638844 2.127173 1.116875 
0.09741533 0.03246278 0.4175352 3.569969 2.02702 1.079005 
0.06635821 0.08484882 0.3734829 3.221859 2.742203 2.447067 
0.09741533 0.01776245 0.4027091 2.402357 -1.870497 -1.28235 
-0.09741545 0.01776245 0.4027091 -2.436573 -1.967112 -1.309247 
-0.06635845 0.07385287 0.344812 -2.553843 -1.182887 -2.995815 
0.06635821 0.07385287 0.344812 2.564456 -1.186556 -2.952113 
-0.05391061 0.1658339 0.3368457 -3.550824 0.8935372 3.027107 
-0.05391061 0.1555289 0.3194365 -2.866835 -0.3561476 -3.342781 
0.05391061 0.1658339 0.3368457 3.55208 0.8821003 3.02481 
0.05391061 0.1555289 0.3194365 2.868905 -0.3641026 -3.328294 
-0.07659698 0.02066612 0.4946485 -1.542732 1.56348 2.24417 
0.07659674 0.02066612 0.4946485 1.555155 1.534575 2.190206 
0.07659674 0.0004786998 0.4921134 1.468371 -2.000566 1.551564 
-0.07659698 0.0004786998 0.4921134 -1.4578 -2.040144 1.589736 
0.05391061 0.2239302 0.3367806 1.571917 1.572556 1.570795 
0.05391061 0.2239302 0.3160977 1.522023 1.494214 -1.568928 
-0.05391061 0.2239302 0.3367806 -1.571917 1.572556 1.570796 
-0.05391061 0.2239302 0.3160977 -1.522022 1.494213 -1.568928 
0.2467 0.464745 -0.4190657 1.255918 1.717988 -2.26244 
0.2393355 0.3624454 -0.4063102 1.423049 -2.494663 -2.392768 
-0.2298312 0.3624454 -0.4063102 -1.424625 -2.551932 -2.396476 
-0.2371956 0.4513748 -0.4190657 -1.294371 1.660866 -2.288334 
-0.4644148 0.3817705 0 -2.906905 -2.514161 0.001690626 
-0.4791436 0.4840701 0 -2.488982 1.732385 -0.02047853 
-0.2298312 0.3624454 0.4063103 -1.423172 -2.494592 2.392232 
-0.2371956 0.464745 0.4190658 -1.224363 1.716921 2.250666 
0.2393355 0.3624454 0.4063103 1.424398 -2.641605 2.409582 
0.2467 0.4364077 0.4190658 1.296891 1.573994 2.29863 
0.4739187 0.3815706 0 2.908618 -2.51837 -0.007356837 
0.4886479 0.4838703 0 2.463161 1.733227 0.04003643 
0.2155261 0.3624454 -0.3650713 -1.290776 -3.827277 2.459981 
0.4263 0.3815706 0 -2.90073 -3.7995 0.0231325 
-0.2060218 0.3624454 -0.3650713 1.276781 -3.775653 2.47175 
-0.4167958 0.3817705 0 2.898991 -3.803498 -0.01769423 
-0.2060218 0.3624454 0.3650712 1.28956 -3.827276 -2.460219 
0.2155261 0.3624454 0.3650712 -1.27812 -3.696173 -2.483775 
0.2221432 0.464745 -0.3765322 -1.488974 4.524032 2.146901 
-0.2126389 0.4513748 -0.3765322 1.419653 4.570834 2.237629 
-0.4300297 0.4840701 0 2.504783 4.499971 -0.1056234 
-0.2126389 0.464745 0.376532 1.556059 4.519407 -2.078407 
0.2221432 0.4364077 0.376532 -1.411801 4.633996 -2.259161 
0.4395339 0.4838703 0 -2.478755 4.486312 0.208416 
0.2252544 0.2999317 -0.3819208 1.317596 0.9023104 -2.28214 
0.2016778 0.2133868 -0.3410852 1.419466 -3.641158 -2.458591 
-0.1921736 0.2133868 -0.3410852 -1.419468 -3.641154 -2.45859 
-0.21575 0.2999317 -0.3819208 -1.317596 0.9023124 -2.282144 
-0.3890994 0.2133868 0 -2.838935 -3.641156 -7.748604e-07 
-0.4362524 0.2999317 0 -2.635186 0.9023097 -7.450581e-08 
-0.1921736 0.2133868 0.3410853 -1.419467 -3.641153 2.458591 
-0.21575 0.2999317 0.3819208 -1.317595 0.9023122 2.282144 
0.2016778 0.2133868 0.3410853 1.419466 -3.641156 2.458591 
0.2252544 0.2999317 0.3819208 1.317595 0.902312 2.28214 
0.3986034 0.2133868 0 2.838935 -3.641158 -5.960464e-08 
0.4457564 0.2999317 0 2.635191 0.9023098 8.940697e-08 
0.1816906 0.2133868 -0.3064663 -1.416659 -2.606717 2.453727 
0.358629 0.2133868 0 -2.833318 -2.606714 -4.544854e-07 
-0.1721863 0.2133868 -0.3064663 1.416659 -2.606717 2.453727 
-0.3491247 0.2133868 0 2.833319 -2.606713 -5.960464e-08 
-0.1721863 0.2133868 0.3064662 1.416659 -2.606717 -2.453727 
0.1816906 0.2133868 0.3064662 -1.416659 -2.606716 -2.453727 
0.2084074 0.3090804 -0.3527411 -0.4952523 5.11193 0.8577982 
-0.1989031 0.3090804 -0.3527411 0.4952501 5.11193 0.857797 
-0.4025583 0.3090804 0 0.9905037 5.111934 2.086163e-07 
-0.1989031 0.3090804 0.352741 0.4952506 5.111931 -0.8578008 
0.2084074 0.3090804 0.352741 -0.4952524 5.111932 -0.8578008 
0.4120626 0.3090804 0 -0.990497 5.111931 5.960464e-08 
0.1792346 0.3494269 -0.4699429 -0.925562 -0.8879833 -3.951431 
0.1867468 0.4862624 -0.4829546 -0.09292195 -2.266556 -4.679892 
0.3171414 0.4862624 -0.4076713 4.148263 -2.173631 -2.096185 
0.3096291 0.3494269 -0.3946595 3.884822 -0.887982 -1.174149 
0.2688773 0.6292479 -0.4989206 0.8681911 0.7142778 -4.114731 
0.261475 0.6450764 -0.4860997 -0.8946106 3.211613 -0.6098236 
0.282501 0.6450764 -0.4739604 0.9754274 3.211624 0.4698341 
0.289903 0.6292479 -0.4867812 3.129384 0.7142835 -2.809252 
0.1722541 0.4862624 -0.4578524 -4.200414 -0.3248278 2.183445 
0.1647418 0.3654523 -0.4448406 -4.513845 0.9431181 0.7880258 
0.2951362 0.3654523 -0.3695573 1.574469 0.9431204 4.303123 
0.3026485 0.4862624 -0.382569 0.317886 -0.2700825 4.680637 
0.1132755 0.1757888 -0.3556985 -4.340727 2.320056 -0.9119585 
0.1260401 0.1418799 -0.3778074 -1.071646 -2.287334 -2.232809 
0.2564347 0.1418799 -0.302524 2.46949 -2.287329 -0.1883286 
0.24367 0.1757888 -0.2804152 2.960139 2.320068 3.303206 
-0.2436703 0.1757889 0.2625498 -2.960145 2.320054 -3.303203 
-0.1132758 0.1757889 0.337833 4.340727 2.320059 0.9119565 
-0.1260403 0.1418799 0.359942 1.071643 -2.287333 2.232806 
0.2319559 0.5167208 -0.4858905 -0.1428204 -2.660006 -2.989906 
0.2382165 0.5589616 -0.4950877 0.381896 1.117929 -3.874664 
0.3019142 0.5589616 -0.4583118 3.164614 1.117919 -2.268057 
0.297079 0.5167208 -0.4482917 2.660741 -2.660052 -1.371309 
0.3484828 0.5082253 -0.3964808 2.771092 -0.9864902 -0.1795044 
0.3201752 0.5785632 -0.4341583 4.466299 0.4669981 -2.386411 
0.3099058 0.6005224 -0.4163715 1.183311 2.322902 2.271305 
0.3346317 0.5146906 -0.3724902 1.110594 -0.1021841 2.732363 
0.1978993 0.6005224 -0.4810385 -2.573993 2.243638 0.08416915 
0.147534 0.5146906 -0.4805111 -2.955213 0.06438097 0.3708768 
0.2081684 0.5785632 -0.4988254 -0.3722499 0.4034134 -4.946591 
0.1613851 0.5082253 -0.5045017 -1.231593 -0.8198985 -2.563372 
0.2152611 0.515668 -0.475654 1.660534 -2.414204 -5.110909 
0.2965616 0.515668 -0.4287151 3.595912 -2.414173 -3.993538 
0.3025976 0.5684018 -0.4412247 3.855009 -0.4259284 -4.418231 
0.2230769 0.5684018 -0.487136 1.89879 -0.4259043 -5.547653 
-0.3096294 0.3494269 0.3767941 -3.884819 -0.8879807 1.174147 
-0.1792349 0.3494269 0.4520774 0.9255601 -0.8879859 3.951439 
-0.1867472 0.4862624 0.4650893 0.2587816 -2.173634 4.640596 
-0.3171418 0.4862624 0.389806 -4.099365 -2.26654 2.259485 
-0.2899035 0.6292479 0.4689159 -3.129366 0.7142835 2.809232 
-0.2688776 0.6292479 0.4810553 -1.211582 0.7621133 4.233198 
-0.2614753 0.6450764 0.4682342 0.7570162 3.406329 0.5054995 
-0.2825015 0.6450764 0.4560949 -0.9638036 3.200638 -0.4733497 
-0.3026489 0.4862624 0.3647037 -0.209286 -0.3248178 -4.729381 
-0.1722543 0.4862624 0.439987 4.212494 -0.2700875 -2.065017 
-0.164742 0.3654523 0.4269753 4.51384 0.9431169 -0.7880164 
-0.2951366 0.3654523 0.3516919 -1.574469 0.9431229 -4.303123 
-0.2564349 0.1418799 0.2846587 -2.46949 -2.287335 0.1883334 
-0.2970796 0.5167209 0.4304261 -2.660753 -2.660021 1.371289 
-0.2319567 0.5167209 0.4680249 0.1427798 -2.66005 2.989931 
-0.2382168 0.5589616 0.4772224 -0.3818715 1.117924 3.874639 
-0.3019145 0.5589616 0.4404466 -3.164599 1.117927 2.268039 
-0.1613853 0.5082253 0.4866365 1.2722 -1.326444 2.651461 
-0.1475343 0.5146906 0.4626458 3.125193 -0.3083104 -0.5700483 
-0.181312 0.6005224 0.4737813 2.32002 2.121228 0.07999256 
-0.1915814 0.5785632 0.4915682 0.531612 0.3868862 4.629262 
-0.3346322 0.5146906 0.3546248 -1.15642 0.0643793 -2.744714 
-0.309906 0.6005224 0.398506 -1.208679 2.244068 -2.267406 
-0.348483 0.5082253 0.3786154 -2.835748 -0.8198998 0.2150996 
-0.3201753 0.5785632 0.4162929 -4.475353 0.4032498 2.147535 
-0.2152617 0.515668 0.4577886 -1.66054 -2.414209 5.110916 
-0.2965621 0.515668 0.4108497 -3.595917 -2.414181 3.993536 
-0.2230772 0.5684018 0.4692705 -1.878335 -0.6638738 5.475001 
-0.3025978 0.5684018 0.4233593 -3.863484 -0.4577017 4.403434 
0.3096291 0.3494269 0.3767942 3.884828 -0.8879881 1.174163 
0.3171417 0.4862624 0.3898061 4.099362 -2.266533 2.259491 
0.186747 0.4862624 0.4650893 -0.2587774 -2.173623 4.640604 
0.1792346 0.3494269 0.4520774 -0.9255612 -0.8879868 3.95144 
0.2899034 0.6292479 0.4689158 3.129386 0.714295 2.809233 
0.2825012 0.6450764 0.4560952 0.9754238 3.211616 -0.4698206 
0.2614751 0.6450764 0.4682344 -0.8946045 3.211606 0.6098021 
0.2688774 0.6292479 0.4810553 0.8681924 0.7142918 4.114734 
0.3026488 0.4862624 0.3647037 0.2092901 -0.3248097 -4.729377 
0.2951365 0.3654523 0.351692 1.574481 0.9431126 -4.30311 
0.1647418 0.3654523 0.4269753 -4.513838 0.9431149 -0.7880195 
0.1722541 0.4862624 0.4399871 -4.212492 -0.2700836 -2.065011 
0.2436702 0.1757888 0.2625498 2.960147 2.32004 -3.303193 
0.2564347 0.1418799 0.2846588 2.469493 -2.287341 0.1883371 
0.1260402 0.1418799 0.359942 -1.071644 -2.28734 2.232812 
0.1132755 0.1757888 0.3378332 -4.340724 2.320041 0.9119647 
-0.1132755 0.1757889 -0.3556983 4.340724 2.320053 -0.9119589 
-0.2436702 0.1757889 -0.2804152 -2.960143 2.320057 3.303204 
-0.2564348 0.1418799 -0.302524 -2.469489 -2.287333 -0.1883315 
0.2970796 0.5167208 0.4304261 2.660747 -2.660004 1.371262 
0.3019142 0.5589616 0.4404466 3.164607 1.117935 2.268069 
0.2382166 0.5589616 0.4772224 0.3818721 1.117925 3.874639 
0.2319564 0.5167208 0.468025 -0.142804 -2.660032 2.989914 
0.1613851 0.5082253 0.4866363 -1.230092 -0.9865003 2.489616 
0.2081686 0.5785632 0.4809601 -0.1664494 0.4669778 5.061136 
0.1978993 0.6005224 0.4631732 -2.558661 2.322897 -0.1108678 
0.147534 0.5146906 0.4626459 -2.921576 -0.1021825 -0.404361 
0.3099058 0.6005224 0.398506 1.214096 2.243631 -2.271235 
0.3346317 0.5146906 0.3546251 1.156422 0.06439202 -2.744765 
0.3201753 0.5785632 0.4162931 4.469985 0.4034045 2.150917 
0.3484828 0.5082253 0.3786154 2.835726 -0.8198854 0.2150766 
0.2965618 0.515668 0.4108498 3.595903 -2.414252 3.993506 
0.2152615 0.515668 0.4577885 1.660528 -2.414217 5.11091 
0.2230771 0.5684018 0.4692705 1.89878 -0.4259454 5.547637 
0.3025976 0.5684018 0.4233594 3.854984 -0.4259448 4.418233 
-0.1792346 0.3494269 -0.4699428 0.925564 -0.8879852 -3.951438 
-0.3096293 0.3494269 -0.3946595 -3.884819 -0.8879815 -1.17415 
-0.3171417 0.4862624 -0.4076713 -4.148262 -2.173623 -2.096189 
-0.186747 0.4862624 -0.4829546 0.09291613 -2.266567 -4.679896 
-0.2688774 0.6292479 -0.4989206 -0.868185 0.7142891 -4.114726 
-0.2899033 0.6292479 -0.4867812 -3.129366 0.7142928 -2.809219 
-0.282501 0.6450764 -0.4739603 -0.9754164 3.211635 0.4698492 
-0.2614751 0.6450764 -0.4860996 0.8946112 3.211624 -0.6098169 
-0.1722541 0.4862624 -0.4578524 4.200407 -0.3248233 2.183436 
-0.3026488 0.4862624 -0.382569 -0.3178879 -0.270083 4.680637 
-0.2951365 0.3654523 -0.3695573 -1.574471 0.9431196 4.303123 
-0.1647418 0.3654523 -0.4448406 4.51384 0.9431168 0.7880208 
-0.1260402 0.1418799 -0.3778074 1.071643 -2.287336 -2.232808 
-0.2319561 0.5167209 -0.4858905 0.1428114 -2.660003 -2.989916 
-0.2970792 0.5167209 -0.4482917 -2.660746 -2.660033 -1.371304 
-0.3019143 0.5589616 -0.4583117 -3.164616 1.117926 -2.268044 
-0.2382168 0.5589616 -0.4950876 -0.3819047 1.117939 -3.874666 
-0.348483 0.5082253 -0.3964808 -2.7711 -0.9864922 -0.1795102 
-0.3346319 0.5146906 -0.3724902 -1.110597 -0.1021845 2.732357 
-0.309906 0.6005224 -0.4163713 -1.183315 2.322889 2.271285 
-0.3201752 0.5785632 -0.4341582 -4.466308 0.4669912 -2.386436 
-0.1475341 0.5146906 -0.4805111 2.955217 0.06438454 0.3708785 
-0.1978993 0.6005224 -0.4810385 2.573985 2.243623 0.08416027 
-0.1613852 0.5082253 -0.5045018 1.231589 -0.8198909 -2.563364 
-0.2081686 0.5785632 -0.4988253 0.3722335 0.4033999 -4.946607 
-0.2965617 0.515668 -0.4287151 -3.595917 -2.414157 -3.993538 
-0.2152612 0.515668 -0.475654 -1.660549 -2.41416 -5.110921 
-0.3025976 0.5684018 -0.4412246 -3.855009 -0.4259166 -4.418224 
-0.2230771 0.5684018 -0.4871359 -1.898801 -0.4259115 -5.547647 
0.4888639 0.3494269 -0.08421612 2.959258 -0.8879833 -2.777277 
0.5038886 0.4862624 -0.08421612 4.006451 -2.266538 -2.420417 
0.5038886 0.4862624 0.06635058 3.889486 -2.173616 2.544408 
0.4888639 0.3494269 0.06635058 2.959258 -0.8879833 2.777277 
0.5587807 0.6292479 -0.02107203 3.997554 0.7142931 -1.305497 
0.5439763 0.6450764 -0.02107203 0.08081228 3.211627 -1.07966 
0.5439763 0.6450764 0.003206491 0.0808121 3.211627 1.079659 
0.5587807 0.6292479 0.003206491 3.997555 0.7142931 1.305496 
0.4749029 0.4862624 -0.08421612 -3.991115 -0.3248062 -2.54594 
0.4598782 0.3654523 -0.08421612 -2.939372 0.9431186 -3.515092 
0.4598782 0.3654523 0.06635058 -2.939372 0.9431186 3.515092 
0.4749029 0.4862624 0.06635058 -3.894604 -0.2700728 2.615616 
0.3569458 0.1757888 -0.08421612 -1.380584 2.320055 -4.215159 
0.3824749 0.1418799 -0.08421612 1.397846 -2.287335 -2.044475 
0.3824749 0.1418799 0.06635058 1.397846 -2.287335 2.044475 
0.3569458 0.1757888 0.06635058 -1.380584 2.320055 4.215159 
-0.3569458 0.1757889 -0.08421612 1.380584 2.320056 -4.215158 
-0.3569458 0.1757889 0.06635058 1.380584 2.320055 4.215159 
-0.382475 0.1418799 0.06635058 -1.397846 -2.287335 2.044474 
0.5290358 0.5167208 -0.04653168 2.517924 -2.660008 -1.618637 
0.5401311 0.5589616 -0.04570854 3.546503 1.117934 -1.6066 
0.5401311 0.5589616 0.02784324 3.546477 1.117925 1.606614 
0.5290358 0.5167208 0.02866602 2.517937 -2.660027 1.618628 
0.5098679 0.5082253 0.09908819 1.541011 -0.9864975 2.310094 
0.5283439 0.5785632 0.05573428 4.299851 0.4669903 2.674722 
0.5078053 0.6005224 0.05573428 -1.375342 2.322895 2.160428 
0.4821661 0.5146906 0.09908819 -1.810988 -0.1021821 2.327984 
0.5078053 0.6005224 -0.07359982 -1.359878 2.243623 -2.187056 
0.4821661 0.5146906 -0.1169535 -1.798802 0.06438749 -2.373861 
0.5283439 0.5785632 -0.07359982 4.097761 0.4033998 -2.795671 
0.5098679 0.5082253 -0.1169535 1.60415 -0.819898 -2.348283 
0.5118232 0.515668 -0.05587161 5.256435 -2.414233 -1.117393 
0.5118232 0.515668 0.03800607 5.256437 -2.414231 1.117393 
0.5256748 0.5684018 0.03697848 5.753795 -0.4259086 1.129433 
0.5256748 0.5684018 -0.05484402 5.753802 -0.4259163 -1.129423 
-0.4888639 0.3494269 -0.08421612 -2.959258 -0.8879827 -2.777277 
-0.4888639 0.3494269 0.06635058 -2.959258 -0.8879826 2.777277 
-0.5038886 0.4862624 0.06635058 -3.889481 -2.173631 2.54441 
-0.5038886 0.4862624 -0.08421612 -4.00645 -2.266556 -2.420413 
-0.5587808 0.6292479 -0.02107203 -3.997538 0.7142909 -1.305494 
-0.5587808 0.6292479 0.003206491 -3.997538 0.7142907 1.305495 
-0.5439763 0.6450764 0.003206491 -0.08080912 3.211637 1.079664 
-0.5439763 0.6450764 -0.02107203 -0.08080912 3.211638 -1.079664 
-0.474903 0.4862624 -0.08421612 3.991124 -0.3248316 -2.54594 
-0.474903 0.4862624 0.06635058 3.89461 -0.2700949 2.61562 
-0.4598783 0.3654523 0.06635058 2.939372 0.9431193 3.515092 
-0.4598783 0.3654523 -0.08421612 2.939372 0.9431192 -3.515092 
-0.382475 0.1418799 -0.08421612 -1.397846 -2.287335 -2.044474 
-0.5290357 0.5167209 -0.04653168 -2.517952 -2.660019 -1.618629 
-0.5290357 0.5167209 0.02866578 -2.517972 -2.660057 1.618613 
-0.540131 0.5589616 0.02784324 -3.546478 1.117924 1.606613 
-0.540131 0.5589616 -0.04570854 -3.546503 1.117934 -1.6066 
-0.509868 0.5082253 0.09908819 -1.541014 -0.9864935 2.310091 
-0.4821659 0.5146906 0.09908819 1.810988 -0.102185 2.32798 
-0.5078052 0.6005224 0.05573428 1.375343 2.322895 2.160427 
-0.5283438 0.5785632 0.05573428 -4.299855 0.4669941 2.674722 
-0.4821659 0.5146906 -0.1169537 1.798795 0.0643802 -2.373849 
-0.5078052 0.6005224 -0.07359982 1.359881 2.243626 -2.187056 
-0.509868 0.5082253 -0.1169537 -1.604145 -0.8198935 -2.348271 
-0.5283438 0.5785632 -0.07359982 -4.097766 0.4034042 -2.795671 
-0.5118232 0.515668 0.03800607 -5.256465 -2.414177 1.117383 
-0.5118232 0.515668 -0.05587184 -5.256469 -2.41417 -1.117381 
-0.5256747 0.5684018 0.03697848 -5.753796 -0.4259026 1.129428 
-0.5256747 0.5684018 -0.05484402 -5.753804 -0.4259105 -1.129419 
0.2902664 0.08484882 0.2442095 0.5432662 2.828353 3.993194 
0.3128883 0.03246278 0.2931318 -0.9835631 2.128927 3.732752 
0.4103038 0.03246278 0.1244035 2.73317 2.092667 -2.568499 
0.3566246 0.08484882 0.1292734 3.730149 2.742199 -1.566691 
0.3974638 0.01776245 0.1169904 0.04135975 -1.867665 -2.745791 
0.3000486 0.01776245 0.2857187 -2.229383 -1.98042 1.435261 
0.2654366 0.07385287 0.229874 -3.871374 -1.182887 0.713786 
0.3317949 0.07385287 0.114938 -1.274381 -1.18656 -3.696938 
0.2647616 0.1658339 0.2151107 0.8461369 0.8935342 4.588659 
0.2496848 0.1555289 0.2064061 -4.328357 -0.3561515 0.8113594 
0.3186723 0.1658339 0.1217347 4.395583 0.882103 -1.563794 
0.3035954 0.1555289 0.1130302 -1.447942 -0.3641044 -4.148697 
0.3897316 0.02780409 0.3160551 0.9592582 1.470647 2.214129 
0.4663284 0.01324321 0.179728 3.114481 1.534923 -0.2819107 
0.4648292 -0.006659232 0.1773258 1.674411 -1.797247 -0.4721412 
0.3882322 0.007901669 0.3136528 0.7615206 -2.145912 2.251845 
0.3186157 0.2239302 0.1217022 2.146312 1.572566 -0.5759264 
0.3007039 0.2239302 0.1113608 -0.5977189 1.494213 -2.102574 
0.2647052 0.2239302 0.2150782 0.5743961 1.572562 2.146721 
0.2467932 0.2239302 0.2047368 -2.119735 1.494206 0.5336483 
0.3566246 0.08484882 -0.1292734 3.729836 2.828347 1.52612 
0.4103036 0.03246278 -0.1244035 2.803869 2.197509 2.50785 
0.3128883 0.03246278 -0.2931317 -0.9062143 2.05861 -3.611432 
0.2902663 0.08484882 -0.2442095 0.5082978 2.742203 -4.013745 
0.3000484 0.01776245 -0.2857188 -2.295113 -1.877134 -1.456154 
0.3974638 0.01776245 -0.1169903 0.01624948 -1.951179 2.897269 
0.3317949 0.07385287 -0.114938 -1.317535 -1.182889 3.709602 
0.2654365 0.07385287 -0.2298741 -3.838829 -1.186551 -0.7448314 
0.3186719 0.1658339 -0.121735 4.396962 0.8935314 1.561553 
0.3035952 0.1555289 -0.1130304 -1.461519 -0.3561507 4.154146 
0.2647613 0.1658339 -0.2151109 0.8435251 0.8821019 -4.588599 
0.2496846 0.1555289 -0.2064064 -4.31684 -0.3641021 -0.820399 
0.4663281 0.01324247 -0.1797279 3.000036 1.610301 0.1770084 
0.3897314 0.02780471 -0.3160554 0.8847776 1.452618 -2.028521 
0.3882322 0.007902343 -0.313653 0.7809614 -2.127791 -2.412803 
0.464829 -0.006659906 -0.1773255 1.863938 -1.886085 0.4880913 
0.2647049 0.2239302 -0.2150784 0.5743858 1.572556 -2.146717 
0.246793 0.2239302 -0.2047368 -2.119748 1.494216 -0.533642 
0.3186157 0.2239302 -0.1217024 2.146306 1.572553 0.5759205 
0.3007036 0.2239302 -0.1113609 -0.5977196 1.49421 2.102572 
0.06635821 0.08484882 -0.3734828 3.186576 2.828353 -2.467077 
0.09741533 0.03246278 -0.4175353 3.638841 2.127171 -1.116874 
-0.09741545 0.03246278 -0.4175353 -3.569971 2.027024 -1.079005 
-0.06635845 0.08484882 -0.3734828 -3.221861 2.742201 -2.447063 
-0.09741545 0.01776245 -0.4027091 -2.402358 -1.8705 1.282351 
0.09741533 0.01776245 -0.4027091 2.436572 -1.967109 1.309247 
0.06635821 0.07385287 -0.344812 2.553843 -1.182889 2.995818 
-0.06635845 0.07385287 -0.344812 -2.564456 -1.186557 2.952113 
0.05391049 0.1658339 -0.3368456 3.550825 0.8935344 -3.027106 
0.05391049 0.1555289 -0.3194366 2.866835 -0.3561492 3.342779 
-0.05391085 0.1658339 -0.3368456 -3.55208 0.8820997 -3.024809 
-0.05391085 0.1555289 -0.3194366 -2.868905 -0.3641025 3.328295 
0.07659674 0.02066612 -0.4946486 1.542729 1.563476 -2.244171 
-0.07659698 0.02066612 -0.4946486 -1.555152 1.534568 -2.190202 
-0.07659698 0.0004786998 -0.4921134 -1.468374 -2.00057 -1.551562 
0.07659674 0.0004786998 -0.4921134 1.457802 -2.040152 -1.589738 
-0.05391085 0.2239302 -0.3367805 -1.571917 1.572556 -1.570795 
-0.05391085 0.2239302 -0.3160977 -1.522023 1.494214 1.568928 
0.05391049 0.2239302 -0.3367805 1.571917 1.572556 -1.570795 
0.05391049 0.2239302 -0.3160977 1.522023 1.494214 1.568928 
-0.2902666 0.08484882 -0.2442094 -0.543271 2.828357 -3.993195 
-0.3128885 0.03246278 -0.2931318 0.9835589 2.128935 -3.732756 
-0.410304 0.03246278 -0.1244035 -2.733177 2.092675 2.568499 
-0.356625 0.08484882 -0.1292734 -3.730148 2.742196 1.566684 
-0.397464 0.01776245 -0.1169904 -0.04136333 -1.867662 2.745789 
-0.3000487 0.01776245 -0.2857187 2.229379 -1.98041 -1.435259 
-0.2654369 0.07385287 -0.229874 3.871372 -1.182884 -0.7137867 
-0.3317952 0.07385287 -0.114938 1.274379 -1.186559 3.696942 
-0.2647618 0.1658339 -0.2151107 -0.8461524 0.893537 -4.588665 
-0.2496849 0.1555289 -0.2064061 4.328338 -0.3561478 -0.8113658 
-0.3186724 0.1658339 -0.1217347 -4.395598 0.8820997 1.56379 
-0.3035957 0.1555289 -0.1130302 1.447937 -0.3641055 4.148696 
-0.3897316 0.02780406 -0.3160551 -0.9592525 1.470655 -2.214137 
-0.4663285 0.01324316 -0.1797282 -3.114484 1.534924 0.2819003 
-0.4648293 -0.006659269 -0.1773258 -1.674407 -1.797243 0.4721437 
-0.3882325 0.007901639 -0.3136528 -0.7615309 -2.145898 -2.251835 
-0.318616 0.2239302 -0.1217022 -2.146302 1.572554 0.5759262 
-0.300704 0.2239302 -0.1113608 0.5977284 1.494216 2.102577 
-0.2647054 0.2239302 -0.2150782 -0.5743886 1.572551 -2.146715 
-0.2467934 0.2239302 -0.2047367 2.119741 1.49421 -0.5336457 
-0.356625 0.08484882 0.1292734 -3.729836 2.828346 -1.526118 
-0.410304 0.03246278 0.1244035 -2.803876 2.197513 -2.507858 
-0.3128885 0.03246278 0.2931316 0.9062061 2.058576 3.611423 
-0.2902666 0.08484882 0.2442095 -0.5082948 2.742199 4.013744 
-0.3000487 0.01776245 0.2857187 2.295118 -1.877143 1.456152 
-0.3974642 0.01776245 0.1169902 -0.01626289 -1.951167 -2.897245 
-0.3317952 0.07385287 0.114938 1.317534 -1.182892 -3.709605 
-0.2654369 0.07385287 0.229874 3.838831 -1.186556 0.7448303 
-0.3186723 0.1658339 0.1217349 -4.396958 0.8935367 -1.561556 
-0.3035955 0.1555289 0.1130303 1.461514 -0.3561518 -4.154148 
-0.2647617 0.1658339 0.2151108 -0.8435254 0.8821072 4.588599 
-0.2496848 0.1555289 0.2064062 4.316836 -0.3641026 0.8203968 
-0.4663286 0.01324335 0.1797282 -2.999999 1.610292 -0.1770096 
-0.3897318 0.02780392 0.3160548 -0.8848039 1.452643 2.028575 
-0.3882326 0.007901471 0.3136525 -0.7809448 -2.127773 2.412762 
-0.4648293 -0.006659094 0.1773259 -1.863966 -1.886107 -0.4880883 
-0.2647053 0.2239302 0.2150782 -0.5743954 1.572563 2.146723 
-0.2467933 0.2239302 0.2047368 2.119736 1.494208 0.5336491 
-0.3186159 0.2239302 0.1217024 -2.146309 1.572558 -0.5759196 
-0.3007039 0.2239302 0.1113609 0.5977217 1.494214 -2.102575 
3 0 1 2 
3 2 3 0 
3 2 1 4 
3 5 6 0 
3 7 3 4 
3 2 4 3 
3 6 8 9 
3 10 4 1 
3 6 9 11 
3 7 0 3 
3 7 5 0 
3 5 8 6 
3 7 12 5 
3 10 13 14 
3 15 4 10 
3 9 8 16 
3 16 8 5 
3 16 17 9 
3 7 4 12 
3 15 12 4 
3 18 5 12 
3 14 15 10 
3 18 12 15 
3 14 18 15 
3 16 5 17 
3 5 18 17 
3 17 18 14 
3 14 13 19 
3 14 19 17 
3 9 17 19 
3 10 20 13 
3 11 13 20 
3 19 13 11 
3 9 19 11 
3 0 6 11 
3 1 0 11 
3 11 20 1 
3 10 1 20 
3 21 22 23 
3 21 23 24 
3 25 26 27 
3 25 27 28 
3 24 23 25 
3 24 25 28 
3 27 26 22 
3 27 22 21 
3 29 30 27 
3 29 27 21 
3 31 29 21 
3 31 21 24 
3 32 31 24 
3 32 24 28 
3 27 30 32 
3 27 32 28 
3 23 22 33 
3 23 33 34 
3 25 23 34 
3 25 34 35 
3 36 26 25 
3 36 25 35 
3 22 26 36 
3 22 36 33 
3 37 31 32 
3 37 32 38 
3 39 29 31 
3 39 31 37 
3 40 30 29 
3 40 29 39 
3 32 30 40 
3 32 40 38 
3 37 38 40 
3 37 40 39 
3 35 34 33 
3 35 33 36 
3 41 42 43 
3 41 43 44 
3 44 43 45 
3 44 45 46 
3 46 45 47 
3 46 47 48 
3 48 47 49 
3 48 49 50 
3 50 49 51 
3 50 51 52 
3 52 51 42 
3 52 42 41 
3 53 42 51 
3 53 51 54 
3 55 43 42 
3 55 42 53 
3 56 45 43 
3 56 43 55 
3 57 47 45 
3 57 45 56 
3 58 49 47 
3 58 47 57 
3 54 51 49 
3 54 49 58 
3 59 41 44 
3 59 44 60 
3 60 44 46 
3 60 46 61 
3 61 46 48 
3 61 48 62 
3 62 48 50 
3 62 50 63 
3 63 50 52 
3 63 52 64 
3 64 52 41 
3 64 41 59 
3 64 59 53 
3 64 53 54 
3 59 60 55 
3 59 55 53 
3 60 61 56 
3 60 56 55 
3 61 62 57 
3 61 57 56 
3 62 63 58 
3 62 58 57 
3 63 64 54 
3 63 54 58 
3 65 66 67 
3 65 67 68 
3 68 67 69 
3 68 69 70 
3 70 69 71 
3 70 71 72 
3 72 71 73 
3 72 73 74 
3 74 73 75 
3 74 75 76 
3 76 75 66 
3 76 66 65 
3 77 66 75 
3 77 75 78 
3 79 67 66 
3 79 66 77 
3 80 69 67 
3 80 67 79 
3 81 71 69 
3 81 69 80 
3 82 73 71 
3 82 71 81 
3 78 75 73 
3 78 73 82 
3 83 65 68 
3 83 68 84 
3 84 68 70 
3 84 70 85 
3 85 70 72 
3 85 72 86 
3 86 72 74 
3 86 74 87 
3 87 74 76 
3 87 76 88 
3 88 76 65 
3 88 65 83 
3 88 83 77 
3 88 77 78 
3 83 84 79 
3 83 79 77 
3 84 85 80 
3 84 80 79 
3 85 86 81 
3 85 81 80 
3 86 87 82 
3 86 82 81 
3 87 88 78 
3 87 78 82 
3 89 90 91 
3 89 91 92 
3 93 94 95 
3 93 95 96 
3 97 98 99 
3 97 99 100 
3 92 91 100 
3 92 100 99 
3 98 97 90 
3 98 90 89 
3 101 98 89 
3 101 89 102 
3 102 89 92 
3 102 92 103 
3 103 92 99 
3 103 99 104 
3 98 101 104 
3 98 104 99 
3 104 101 105 
3 104 105 106 
3 103 104 106 
3 103 106 107 
3 108 109 110 
3 108 110 111 
3 112 113 114 
3 112 114 115 
3 115 114 116 
3 115 116 117 
3 117 116 118 
3 117 118 119 
3 118 93 96 
3 118 96 113 
3 113 96 95 
3 113 95 114 
3 114 95 94 
3 114 94 116 
3 116 94 93 
3 116 93 118 
3 97 117 119 
3 97 119 90 
3 90 119 112 
3 90 112 91 
3 91 112 115 
3 91 115 100 
3 100 115 117 
3 100 117 97 
3 119 120 121 
3 119 121 112 
3 112 121 122 
3 112 122 113 
3 113 122 123 
3 113 123 118 
3 118 123 120 
3 118 120 119 
3 120 108 111 
3 120 111 121 
3 121 111 110 
3 121 110 122 
3 122 110 109 
3 122 109 123 
3 123 109 108 
3 123 108 120 
3 124 125 126 
3 124 126 127 
3 128 129 130 
3 128 130 131 
3 132 133 134 
3 132 134 135 
3 125 134 133 
3 125 133 126 
3 135 124 127 
3 135 127 132 
3 105 136 124 
3 105 124 135 
3 136 107 125 
3 136 125 124 
3 107 106 134 
3 107 134 125 
3 135 134 106 
3 135 106 105 
3 103 107 136 
3 103 136 102 
3 102 136 105 
3 102 105 101 
3 137 138 139 
3 137 139 140 
3 141 142 143 
3 141 143 144 
3 142 145 146 
3 142 146 143 
3 145 147 148 
3 145 148 146 
3 148 144 129 
3 148 129 128 
3 144 143 130 
3 144 130 129 
3 143 146 131 
3 143 131 130 
3 146 148 128 
3 146 128 131 
3 132 127 147 
3 132 147 145 
3 127 126 141 
3 127 141 147 
3 126 133 142 
3 126 142 141 
3 133 132 145 
3 133 145 142 
3 147 141 149 
3 147 149 150 
3 141 144 151 
3 141 151 149 
3 144 148 152 
3 144 152 151 
3 148 147 150 
3 148 150 152 
3 150 149 138 
3 150 138 137 
3 149 151 139 
3 149 139 138 
3 151 152 140 
3 151 140 139 
3 152 150 137 
3 152 137 140 
3 153 154 155 
3 153 155 156 
3 157 158 159 
3 157 159 160 
3 161 162 163 
3 161 163 164 
3 156 155 164 
3 156 164 163 
3 162 161 154 
3 162 154 153 
3 165 162 153 
3 165 153 166 
3 166 153 156 
3 166 156 167 
3 167 156 163 
3 167 163 168 
3 162 165 168 
3 162 168 163 
3 168 165 169 
3 168 169 170 
3 167 168 170 
3 167 170 171 
3 172 173 174 
3 172 174 175 
3 176 177 178 
3 176 178 179 
3 179 178 180 
3 179 180 181 
3 181 180 182 
3 181 182 183 
3 182 157 160 
3 182 160 177 
3 177 160 159 
3 177 159 178 
3 178 159 158 
3 178 158 180 
3 180 158 157 
3 180 157 182 
3 161 181 183 
3 161 183 154 
3 154 183 176 
3 154 176 155 
3 155 176 179 
3 155 179 164 
3 164 179 181 
3 164 181 161 
3 183 184 185 
3 183 185 176 
3 176 185 186 
3 176 186 177 
3 177 186 187 
3 177 187 182 
3 182 187 184 
3 182 184 183 
3 184 172 175 
3 184 175 185 
3 185 175 174 
3 185 174 186 
3 186 174 173 
3 186 173 187 
3 187 173 172 
3 187 172 184 
3 188 189 190 
3 188 190 191 
3 192 193 194 
3 192 194 195 
3 196 197 198 
3 196 198 199 
3 189 198 197 
3 189 197 190 
3 199 188 191 
3 199 191 196 
3 169 200 188 
3 169 188 199 
3 200 171 189 
3 200 189 188 
3 171 170 198 
3 171 198 189 
3 199 198 170 
3 199 170 169 
3 167 171 200 
3 167 200 166 
3 166 200 169 
3 166 169 165 
3 201 202 203 
3 201 203 204 
3 205 206 207 
3 205 207 208 
3 206 209 210 
3 206 210 207 
3 209 211 212 
3 209 212 210 
3 212 208 193 
3 212 193 192 
3 208 207 194 
3 208 194 193 
3 207 210 195 
3 207 195 194 
3 210 212 192 
3 210 192 195 
3 196 191 211 
3 196 211 209 
3 191 190 205 
3 191 205 211 
3 190 197 206 
3 190 206 205 
3 197 196 209 
3 197 209 206 
3 211 205 213 
3 211 213 214 
3 205 208 215 
3 205 215 213 
3 208 212 216 
3 208 216 215 
3 212 211 214 
3 212 214 216 
3 214 213 202 
3 214 202 201 
3 213 215 203 
3 213 203 202 
3 215 216 204 
3 215 204 203 
3 216 214 201 
3 216 201 204 
3 217 218 219 
3 217 219 220 
3 221 222 223 
3 221 223 224 
3 225 226 227 
3 225 227 228 
3 220 219 228 
3 220 228 227 
3 226 225 218 
3 226 218 217 
3 229 226 217 
3 229 217 230 
3 230 217 220 
3 230 220 231 
3 231 220 227 
3 231 227 232 
3 226 229 232 
3 226 232 227 
3 232 229 233 
3 232 233 234 
3 231 232 234 
3 231 234 235 
3 236 237 238 
3 236 238 239 
3 240 241 242 
3 240 242 243 
3 243 242 244 
3 243 244 245 
3 245 244 246 
3 245 246 247 
3 246 221 224 
3 246 224 241 
3 241 224 223 
3 241 223 242 
3 242 223 222 
3 242 222 244 
3 244 222 221 
3 244 221 246 
3 225 245 247 
3 225 247 218 
3 218 247 240 
3 218 240 219 
3 219 240 243 
3 219 243 228 
3 228 243 245 
3 228 245 225 
3 247 248 249 
3 247 249 240 
3 240 249 250 
3 240 250 241 
3 241 250 251 
3 241 251 246 
3 246 251 248 
3 246 248 247 
3 248 236 239 
3 248 239 249 
3 249 239 238 
3 249 238 250 
3 250 238 237 
3 250 237 251 
3 251 237 236 
3 251 236 248 
3 252 253 254 
3 252 254 255 
3 256 257 258 
3 256 258 259 
3 260 261 262 
3 260 262 263 
3 253 262 261 
3 253 261 254 
3 263 252 255 
3 263 255 260 
3 233 264 252 
3 233 252 263 
3 264 235 253 
3 264 253 252 
3 235 234 262 
3 235 262 253 
3 263 262 234 
3 263 234 233 
3 231 235 264 
3 231 264 230 
3 230 264 233 
3 230 233 229 
3 265 266 267 
3 265 267 268 
3 269 270 271 
3 269 271 272 
3 270 273 274 
3 270 274 271 
3 273 275 276 
3 273 276 274 
3 276 272 257 
3 276 257 256 
3 272 271 258 
3 272 258 257 
3 271 274 259 
3 271 259 258 
3 274 276 256 
3 274 256 259 
3 260 255 275 
3 260 275 273 
3 255 254 269 
3 255 269 275 
3 254 261 270 
3 254 270 269 
3 261 260 273 
3 261 273 270 
3 275 269 277 
3 275 277 278 
3 269 272 279 
3 269 279 277 
3 272 276 280 
3 272 280 279 
3 276 275 278 
3 276 278 280 
3 278 277 266 
3 278 266 265 
3 277 279 267 
3 277 267 266 
3 279 280 268 
3 279 268 267 
3 280 278 265 
3 280 265 268 
3 281 282 283 
3 281 283 284 
3 285 286 287 
3 285 287 288 
3 284 283 285 
3 284 285 288 
3 287 286 282 
3 287 282 281 
3 289 290 287 
3 289 287 281 
3 291 289 281 
3 291 281 284 
3 292 291 284 
3 292 284 288 
3 287 290 292 
3 287 292 288 
3 283 282 293 
3 283 293 294 
3 285 283 294 
3 285 294 295 
3 296 286 285 
3 296 285 295 
3 282 286 296 
3 282 296 293 
3 297 291 292 
3 297 292 298 
3 299 289 291 
3 299 291 297 
3 300 290 289 
3 300 289 299 
3 292 290 300 
3 292 300 298 
3 297 298 300 
3 297 300 299 
3 295 294 293 
3 295 293 296 
3 301 302 303 
3 301 303 304 
3 305 306 307 
3 305 307 308 
3 304 303 305 
3 304 305 308 
3 307 306 302 
3 307 302 301 
3 309 310 307 
3 309 307 301 
3 311 309 301 
3 311 301 304 
3 312 311 304 
3 312 304 308 
3 307 310 312 
3 307 312 308 
3 303 302 313 
3 303 313 314 
3 305 303 314 
3 305 314 315 
3 316 306 305 
3 316 305 315 
3 302 306 316 
3 302 316 313 
3 317 311 312 
3 317 312 318 
3 319 309 311 
3 319 311 317 
3 320 310 309 
3 320 309 319 
3 312 310 320 
3 312 320 318 
3 317 318 320 
3 317 320 319 
3 315 314 313 
3 315 313 316 
3 321 322 323 
3 321 323 324 
3 325 326 327 
3 325 327 328 
3 324 323 325 
3 324 325 328 
3 327 326 322 
3 327 322 321 
3 329 330 327 
3 329 327 321 
3 331 329 321 
3 331 321 324 
3 332 331 324 
3 332 324 328 
3 327 330 332 
3 327 332 328 
3 323 322 333 
3 323 333 334 
3 325 323 334 
3 325 334 335 
3 336 326 325 
3 336 325 335 
3 322 326 336 
3 322 336 333 
3 337 331 332 
3 337 332 338 
3 339 329 331 
3 339 331 337 
3 340 330 329 
3 340 329 339 
3 332 330 340 
3 332 340 338 
3 337 338 340 
3 337 340 339 
3 335 334 333 
3 335 333 336 
3 341 342 343 
3 341 343 344 
3 345 346 347 
3 345 347 348 
3 344 343 345 
3 344 345 348 
3 347 346 342 
3 347 342 341 
3 349 350 347 
3 349 347 341 
3 351 349 341 
3 351 341 344 
3 352 351 344 
3 352 344 348 
3 347 350 352 
3 347 352 348 
3 343 342 353 
3 343 353 354 
3 345 343 354 
3 345 354 355 
3 356 346 345 
3 356 345 355 
3 342 346 356 
3 342 356 353 
3 357 351 352 
3 357 352 358 
3 359 349 351 
3 359 351 357 
3 360 350 349 
3 360 349 359 
3 352 350 360 
3 352 360 358 
3 357 358 360 
3 357 360 359 
3 355 354 353 
3 355 353 356 
3 361 362 363 
3 361 363 364 
3 365 366 367 
3 365 367 368 
3 364 363 365 
3 364 365 368 
3 367 366 362 
3 367 362 361 
3 369 370 367 
3 369 367 361 
3 371 369 361 
3 371 361 364 
3 372 371 364 
3 372 364 368 
3 367 370 372 
3 367 372 368 
3 363 362 373 
3 363 373 374 
3 365 363 374 
3 365 374 375 
3 376 366 365 
3 376 365 375 
3 362 366 376 
3 362 376 373 
3 377 371 372 
3 377 372 378 
3 379 369 371 
3 379 371 377 
3 380 370 369 
3 380 369 379 
3 372 370 380 
3 372 380 378 
3 377 378 380 
3 377 380 379 
3 375 374 373 
3 375 373 376 
