ply
format ascii 1.0
comment VCGLIB generated
element vertex 477
property float x
property float y
property float z
property float nx
property float ny
property float nz
element face 852
property list uchar int vertex_indices
end_header
1.022934 1.521108 3.147385 5.449065 -2.537159 1.315905 
0.8336945 1.092435 3.605606 5.677117 -2.179751 0.717486 
0.6883507 0.8130679 3.431412 4.318386 -4.114347 -0.1853312 
0.9274979 0.9999728 2.907852 3.825077 -3.970964 0.5472913 
1.190521 1.975686 3.445786 1.979802 1.212 2.869819 
0.8437958 1.48212 3.716766 3.28358 2.03966 3.574611 
0.7336483 1.376132 4.338303 2.60652 2.650267 1.386384 
0.6950417 0.821075 4.142853 5.450716 -2.486231 0.207705 
0.395792 0.464191 3.923386 4.37736 -4.402538 -0.31183 
0.6868362 1.194184 4.704468 3.306579 2.731978 1.000971 
0.6299114 0.7213998 4.633652 5.478652 -2.538353 -0.5032662 
0.2853031 0.3547549 4.540009 3.801563 -4.900394 0.06907924 
0.6922913 1.146946 5.004532 3.219072 3.279861 0.1348036 
0.7259197 0.7140555 5.025131 4.862612 -2.286251 -0.6430099 
0.3059521 0.4198213 5.021957 2.723151 -5.231611 1.579985 
0.7799797 0.7591166 5.369461 3.99719 -2.303955 1.036543 
0.8127403 1.023365 5.412384 2.700043 1.541053 1.197908 
0.3327618 0.7576222 5.553787 -0.0896911 -2.198971 5.060819 
0.5737858 0.7691665 5.619049 0.9103642 -1.165095 3.330283 
0.07256699 0.3075633 5.035828 1.304633 -2.458266 0.9617252 
0.09484673 0.2307172 4.563629 1.598112 -2.531203 0.1851394 
0.00718689 0.666492 5.593918 0.2020409 -2.280351 4.328703 
0.2925663 1.118123 5.487991 0.1335426 3.882216 2.91227 
-0.03490448 0.9758048 5.593689 -0.355321 1.684564 5.031355 
1.287985 1.17799 2.223907 4.303081 -3.556758 1.225567 
1.39875 1.864576 2.537262 5.697707 -2.216834 1.279213 
1.498045 2.116371 3.095596 2.546252 0.9217554 1.281378 
1.441387 1.219089 1.711731 4.510448 -2.973317 0.9323001 
1.486031 1.876404 1.841721 6.207702 -0.5637473 -0.1676247 
1.541206 2.396972 1.99884 3.432425 3.109664 -0.4691899 
1.657354 2.306082 2.370697 2.985488 1.359751 0.8028314 
1.472754 1.913326 1.336929 6.208647 0.5520311 0.6216607 
1.563379 1.210472 1.348984 4.086462 -2.260295 0.7614964 
1.404074 2.388158 1.358078 3.762725 3.770403 -0.007740352 
1.545933 1.825772 0.8500214 6.22982 -0.1406876 0.5963402 
1.470161 1.065105 0.7161865 5.071084 -2.725728 0.5853685 
1.534462 2.351544 0.8426208 3.944927 2.622772 1.949744 
1.439232 0.8289046 0.06622314 5.351207 -2.735044 0.6043518 
1.653149 1.904847 0.1402588 6.175728 -0.6676757 0.6963408 
1.667795 2.254691 0.1262207 5.827444 -1.768248 0.5430152 
1.856333 2.556167 0.5128021 3.006587 -1.742261 2.876274 
1.840698 2.567114 0.06340027 5.409193 -2.953677 -0.8864942 
1.571175 1.062632 -0.6024475 4.633983 -3.192397 0.1315151 
1.713341 1.837997 -0.5676575 6.188198 -0.3766822 0.590878 
1.696552 2.24222 -0.4540558 5.456549 1.292401 -0.8784363 
1.783607 2.663859 -0.2125244 4.035405 0.7178985 -3.8302 
2.031012 2.77484 0.2072754 3.77599 0.5124432 -0.5226898 
2.019396 2.883319 0.5978394 1.220268 0.6242792 1.223682 
1.929176 2.883396 -0.0697937 2.780154 1.925621 -1.435487 
1.624317 2.711111 -1.069214 2.469474 3.345294 1.517267 
1.932701 1.72087 -1.781372 5.786183 -0.4112656 0.0575814 
1.626465 0.7626586 -1.922531 3.247571 -3.583499 -0.4149574 
1.714638 2.726227 -2.538483 3.035267 2.912681 -1.335267 
1.608536 1.236129 -2.725189 3.163128 -2.048661 -3.053117 
1.717804 2.353563 -2.774368 3.589439 0.8496065 -3.301474 
1.227337 0.872828 0.7627563 -1.119022 -2.616571 0.9484031 
1.222807 0.5370393 0.08908081 -0.4110428 -1.701845 0.2350796 
1.250853 1.104346 1.333221 -2.209984 -3.668661 0.515283 
1.21571 1.096723 1.583511 -1.82373 -3.059558 -0.2323923 
1.115196 1.081234 2.151917 -1.467999 -3.072224 -0.6983464 
0.7771378 0.9787812 2.763199 -2.11994 -2.526762 -1.667166 
0.5154877 0.7361388 3.392502 -1.595602 -2.581636 -2.541721 
0.2470951 0.3416963 3.894791 0.8966059 -3.261241 -2.503351 
0.770649 2.107033 3.258194 -2.521754 2.812789 1.095146 
0.3669834 1.523158 3.669632 -2.962065 2.917974 -0.7796783 
0.3773193 1.380675 4.229538 -1.617384 5.574732 1.840827 
0.3386288 1.206801 4.627396 -1.303994 5.911304 1.366354 
0.2802658 1.169938 5.096237 -0.9178528 5.904661 0.7066967 
0.8961086 2.278538 2.884888 -2.371568 3.209785 0.197477 
1.455429 2.238448 2.695358 3.417303 2.981933 1.493407 
1.014784 2.330708 2.508621 -3.058887 3.27349 0.2214099 
1.043758 2.453863 2.222595 -2.388052 2.770506 0.3197511 
1.100569 2.489231 1.812088 -2.309852 3.048135 0.005533651 
0.9634342 2.480417 1.171326 -2.326807 2.174245 -0.03876585 
1.093819 2.443801 0.6558838 -3.802977 2.711996 0.3958985 
1.414186 2.73847 0.4189301 -2.951441 3.876639 2.968649 
1.255909 2.334479 -0.6407928 -4.368762 2.678317 0.1832941 
1.341448 2.84616 -0.3063812 -1.818417 2.523078 -2.145898 
1.588833 2.957139 0.1134186 -1.184164 5.377828 0.6108105 
1.577257 3.065619 0.503952 -0.7230743 1.757706 1.060063 
1.487022 3.065697 -0.163681 -0.7158417 2.04913 -0.5688561 
1.183685 2.803368 -1.255966 -2.216818 2.900964 0.8552237 
1.273983 2.818485 -2.725235 -1.001196 2.279119 -1.508641 
0.9677696 0.8798432 -0.6855621 -2.632978 -2.014883 0.3290941 
1.023045 0.5798688 -2.005661 -1.525346 -2.427453 -0.3665467 
1.144009 2.331784 -3.006348 -1.447563 0.7845516 -2.153823 
0.9487648 1.199477 -2.975723 -1.327567 -0.889569 -1.810069 
0.09680557 0.321239 3.891022 0.449827 -2.656265 -3.526084 
-0.02850723 1.219672 4.011597 -0.5214204 4.187169 -1.940469 
-0.0259285 1.164801 4.206802 -0.809795 5.639476 1.685058 
-0.02232742 1.064282 4.609756 -0.8190164 5.859914 0.8533763 
-0.03001022 1.034317 5.079865 -0.8200985 5.983409 0.2245418 
-0.0470047 1.087454 5.469894 -0.7678125 5.346694 1.59686 
-1.078499 1.23506 3.094803 -4.631117 -3.909309 1.063517 
-0.8356724 0.7599711 2.863708 -2.647364 -4.852094 0.3852164 
-0.5813217 0.6402402 3.399643 -3.047854 -5.11703 -0.3697256 
-0.8043823 0.8694587 3.564606 -4.916677 -3.621752 0.4523452 
-0.9236431 1.241537 3.672546 -3.880515 1.064593 3.395316 
-1.375877 1.626346 3.381577 -2.369996 0.6198854 2.760798 
-0.6248398 0.6414123 4.109833 -4.591858 -3.853212 -0.04358187 
-0.8198547 1.164668 4.299423 -3.284576 1.848367 1.239001 
-0.2307129 0.3789115 3.907684 -3.021336 -5.409729 -0.4970675 
-0.5596313 0.5594792 4.603867 -4.569866 -3.906206 -0.7546096 
-0.744175 0.999393 4.66864 -3.961293 1.742719 0.8191427 
-0.1254196 0.2988486 4.529739 -2.353039 -5.738189 -0.08490294 
-0.751543 0.9504113 4.968414 -3.980799 2.299926 -0.04539421 
-0.669281 0.5241399 4.990204 -4.037549 -3.497792 -0.8658179 
-0.1863518 0.3528085 5.009628 -1.300987 -5.779382 1.479186 
-0.7502766 0.550818 5.331161 -3.282302 -3.294752 0.8543106 
-0.8545017 0.7964196 5.370667 -3.068828 0.7557043 1.053515 
-0.3285179 0.6676078 5.537247 0.4251243 -2.128647 5.07364 
-0.5667496 0.6139159 5.5905 -0.7283977 -1.388211 3.289401 
0.08984756 0.2300363 4.563492 -0.8710006 -2.867281 0.1233204 
0.06756783 0.3068824 5.035721 -0.6462358 -2.723748 0.9129076 
-0.3828926 1.026177 5.471069 -1.308627 3.686094 2.876164 
-1.501982 1.469725 2.464661 -4.95421 -3.666744 1.012621 
-1.196579 0.8397908 2.161728 -3.251418 -4.585091 1.036539 
-1.692219 1.682111 3.015732 -2.759837 0.1995068 1.148546 
-1.330032 0.8418412 1.642395 -3.592412 -4.076312 0.7295067 
-1.554964 1.462462 1.76561 -5.815559 -2.200299 -0.468549 
-1.754841 1.948312 1.916367 -4.111036 2.08286 -0.6579613 
-1.860603 1.827212 2.282669 -3.275984 0.5074442 0.6461488 
-1.527267 1.504961 1.261871 -6.153275 -1.130592 0.3123172 
-1.427326 0.8033738 1.274155 -3.36641 -3.274808 0.5749561 
-1.589039 1.980733 1.283173 -4.628073 2.628268 -0.2177376 
-1.5504 1.404296 0.7725525 -5.987365 -1.803601 0.290601 
-1.267687 0.6924281 0.6476746 -4.181165 -3.985232 0.3539239 
-1.679417 1.914069 0.7621918 -4.698084 1.200484 1.776893 
-1.142925 0.4774194 0.001617432 -4.449011 -4.069133 0.3590546 
-1.639839 1.456602 0.05786133 -5.799436 -2.297748 0.3965781 
-1.7467 1.789907 0.04077148 -5.748196 -2.448705 0.4170622 
-2.00433 2.353051 0.4412689 -2.437079 -0.8419092 3.623984 
-2.006302 2.253516 0.002624512 -5.099875 -3.586258 -0.02676925 
-1.299498 0.6718755 -0.6742706 -3.613503 -4.315008 -0.07494944 
-1.645136 1.380838 -0.6517029 -5.883988 -2.019984 0.2886981 
-1.742546 1.774088 -0.5401154 -5.622105 -0.2307941 -1.037772 
-1.97316 2.284867 -0.2917633 -4.206046 -0.9634824 -3.492663 
-2.20858 2.667582 0.4555664 -1.251773 0.7491431 1.117171 
-2.218653 2.464598 0.1046753 -3.826881 -0.1187441 -0.3695928 
-2.142963 2.512686 -0.1967773 -3.071746 1.136756 -1.663516 
-1.768068 2.249335 -1.154114 -3.344746 2.553824 1.371729 
-1.765354 1.217488 -1.873917 -5.461644 -1.942343 -0.2239236 
-1.207737 0.3768659 -1.993484 -2.147847 -4.317886 -0.5500832 
-1.786854 2.249604 -2.626114 -3.633677 2.004969 -1.502148 
-1.678772 1.891217 -2.85939 -3.519297 -0.1180173 -3.479324 
-1.277534 0.8432765 -2.797394 -2.34713 -2.798832 -3.191029 
-0.9849377 0.571692 0.7073975 1.729221 -2.228848 1.019753 
-0.8577728 0.2538295 0.03701782 0.8387285 -1.531775 0.2663405 
-1.097416 0.784698 1.274445 3.081643 -2.94836 0.6476662 
-1.073847 0.7850661 1.526215 2.583912 -2.459565 -0.1220738 
-1.000906 0.7931886 2.098953 2.267751 -2.56374 -0.6048242 
-0.6781902 0.7806802 2.726776 2.797077 -1.857423 -1.544142 
-0.3924713 0.6125464 3.369781 2.350171 -2.044517 -2.442982 
-0.05347061 0.3007827 3.887268 0.1312676 -3.365435 -2.522539 
-0.4734116 1.408764 3.648605 2.109595 3.608408 -0.6526361 
-0.9976368 1.866333 3.213928 1.621991 3.376863 1.198754 
-0.4727974 1.264956 4.208267 -0.02298191 5.791746 1.880773 
-0.4086456 1.10508 4.608688 -0.3911817 6.035553 1.389201 
-0.3656521 1.082015 5.080063 -0.7285952 5.93043 0.7114337 
-1.14588 2.000581 2.833801 1.415231 3.725338 0.292259 
-1.255548 2.021668 2.451797 2.058721 3.970082 0.3495298 
-1.664148 1.813809 2.617294 -4.15879 1.950839 1.30379 
-1.302286 2.134518 2.16391 1.542458 3.305542 0.4181952 
-1.346233 2.15617 1.750854 1.408563 3.554241 0.09861912 
-1.180431 2.188591 1.117661 1.660472 2.716978 0.06098934 
-1.27083 2.121926 0.5967102 3.347664 3.423639 0.8300971 
-1.595741 2.560908 0.2757568 3.311803 3.476832 2.168735 
-1.564556 2.492725 -0.4572906 1.353685 2.258846 -2.636054 
-1.333944 1.981946 -0.7056122 3.587307 3.639922 0.2651204 
-1.799984 2.875438 0.2900696 0.5064231 2.043724 0.5503716 
-1.810055 2.672455 -0.06082153 0.4386978 5.465835 -0.7929208 
-1.734364 2.720544 -0.3623047 0.4005779 1.916511 -1.096178 
-1.359463 2.457193 -1.319626 1.316584 3.381937 0.9436492 
-1.378235 2.457463 -2.791611 0.4288766 2.473847 -1.472829 
-0.6658554 0.6574731 -0.7264404 3.056038 -1.240465 0.4714649 
-0.5740891 0.3624654 -2.045624 2.134434 -1.92927 -0.2749413 
-1.109344 2.025055 -3.062759 1.289331 1.157128 -2.085499 
-0.620472 0.9858727 -3.014999 1.604145 -0.4905187 -1.736669 
0.2952881 0.9133048 5.280594 -2.48242 0.1568354 1.445252 
0.4662285 1.22662 5.537949 -5.073905 0.3309079 3.030725 
0.4582214 1.28431 5.446411 -5.133378 2.908903 -0.08854774 
0.3043442 1.052974 5.141449 -2.333383 1.636437 -0.02584165 
0.4048824 0.7807803 5.360901 -1.081496 -1.139421 2.266999 
0.5720901 1.153872 5.627472 -1.679221 -1.956444 4.857957 
0.5692139 0.7331138 5.33316 1.083254 -1.579268 1.893237 
0.6632805 1.126478 5.602783 2.621507 -2.634648 4.109119 
0.6905785 0.7984853 5.21312 2.567051 -0.8790777 0.6290321 
0.7372971 1.143522 5.493103 5.487736 -1.417854 1.276924 
0.6972122 0.9382138 5.072662 2.667142 0.4692956 -0.7295272 
0.7256794 1.201231 5.364441 5.62146 1.056317 -1.873157 
0.5866489 1.070508 4.995438 1.39876 1.801769 -1.474937 
0.6428127 1.266094 5.294922 2.762244 3.680681 -3.785972 
0.4249058 1.118454 5.025101 -0.6789463 2.35068 -1.191018 
0.5351009 1.295966 5.314011 -1.845741 4.670344 -3.091134 
0.5634651 1.463939 5.677246 -4.88896 0.6066301 3.006195 
0.5534019 1.481923 5.580673 -5.54895 2.282081 -0.7000135 
0.6288719 1.447598 5.734985 -1.301268 -0.5215976 5.063578 
0.7115631 1.44244 5.719101 2.9304 -0.8077719 4.369493 
0.7626877 1.453316 5.639847 5.425819 -0.1050933 1.247936 
0.7374382 1.485277 5.519394 4.80257 1.59181 -2.733628 
0.6860085 1.488508 5.486679 1.385321 3.248136 -4.938872 
0.6040154 1.492851 5.502213 -2.913713 3.436478 -3.940538 
0.6113815 1.664972 5.685471 -4.116583 2.215972 2.725116 
0.6070137 1.679936 5.630615 -4.714038 2.807815 -0.6011809 
0.6488647 1.651096 5.719574 -1.037037 1.700257 4.793137 
0.6978798 1.647084 5.710297 2.802184 1.583656 4.302175 
0.7278042 1.655429 5.663406 4.958658 1.887215 1.356195 
0.7126465 1.675849 5.593155 4.067252 2.662894 -2.219941 
0.6823597 1.683974 5.577362 1.109912 3.38686 -4.171462 
0.6360531 1.687612 5.586731 -2.436004 3.262674 -3.39885 
0.6677551 1.740021 5.654449 0.1671666 2.760621 0.4726925 
0.9816475 2.155654 2.9608 -2.343214 1.189953 0.4182352 
1.108564 2.327042 3.164719 -5.137214 2.279968 1.376779 
1.141079 2.36333 3.078247 -3.468657 4.505072 -1.507045 
1.052944 2.22322 2.834457 -1.254696 2.168225 -0.7537255 
1.035883 2.070247 3.083572 -2.155151 -0.4108211 1.791694 
1.175716 2.2719 3.293915 -3.273589 -0.8225919 4.300714 
1.184608 2.016501 3.129364 -0.2753741 -1.897886 2.336173 
1.273125 2.23839 3.315811 0.1114233 -2.502876 4.85043 
1.3396 2.026037 3.070419 1.953399 -1.781749 1.453246 
1.38867 2.230894 3.254074 3.743184 -2.616368 3.107763 
1.408949 2.093454 2.942307 2.824579 -0.1402137 -0.2093933 
1.429216 2.260953 3.134705 5.764624 -0.4739471 -0.1451826 
1.353079 2.179574 2.821487 1.814177 1.552952 -1.214344 
1.378073 2.311314 3.033264 4.246348 2.951501 -3.005033 
1.20636 2.233882 2.777939 0.2145168 2.311549 -1.255222 
1.265755 2.346914 2.99913 0.6173966 4.825082 -3.621303 
1.174124 2.438682 3.257187 -1.386656 2.595402 1.351146 
1.203716 2.4281 3.1548 -2.800131 5.189003 -0.03903639 
1.221996 2.346141 3.315567 -1.826638 1.67078 4.905942 
1.317404 2.369872 3.352417 0.344956 1.460141 2.556632 
1.406586 2.332489 3.289932 3.506308 0.445256 3.004756 
1.430103 2.440261 3.197342 1.303216 1.935902 0.2767349 
1.386765 2.415363 3.129898 2.691622 4.3442 -2.386871 
1.290602 2.487479 3.126419 0.136912 3.178403 -0.2753718 
1.339264 2.398298 3.235474 0.6810762 5.432648 2.870564 
1.116165 2.204462 2.268509 -2.602594 0.3950345 0.6246597 
1.213455 2.515502 2.468994 -5.510299 0.906357 1.536028 
1.232738 2.549056 2.378036 -4.505255 2.951525 -2.170764 
1.164671 2.292698 2.145538 -2.053627 1.505918 -1.03291 
1.194172 2.123882 2.382706 -1.738079 -0.7095526 2.025194 
1.299141 2.479165 2.595093 -3.005124 -1.136597 4.600677 
1.353758 2.097883 2.419647 0.221252 -1.365961 2.489357 
1.402302 2.460117 2.610611 0.9170038 -1.962685 5.196984 
1.500237 2.14167 2.356857 2.174389 -1.003254 1.588303 
1.512337 2.462873 2.539856 4.490932 -1.43217 3.096101 
1.546745 2.229489 2.232178 2.842666 0.2356689 -0.2568491 
1.537642 2.488888 2.415924 5.824562 0.451842 -0.7315241 
1.467091 2.310314 2.120026 1.684196 1.514472 -1.729527 
1.470879 2.52459 2.316345 3.540048 2.727212 -3.984572 
1.309509 2.337118 2.085281 -0.3640649 2.008645 -1.951695 
1.351624 2.542903 2.289795 -0.6590195 3.841976 -4.521669 
1.280899 2.735232 2.570068 -5.289406 1.296795 1.499122 
1.2983 2.731471 2.473984 -4.690616 2.416175 -2.792024 
1.339092 2.739361 2.65094 -2.779378 0.506709 4.627245 
1.439272 2.741245 2.668488 1.124429 0.1137947 5.228978 
1.522171 2.741701 2.612747 4.444162 0.2118515 2.791514 
1.529663 2.744709 2.486298 5.241724 1.073524 -1.780901 
1.479666 2.734735 2.436203 2.682362 2.19122 -5.066737 
1.380331 2.732069 2.418747 -1.206934 2.707274 -5.276121 
1.336681 2.899743 2.560318 -4.515241 2.846945 1.009928 
1.349583 2.902661 2.499695 -3.924164 2.798225 -2.557555 
1.372824 2.897748 2.613388 -2.479403 2.766508 3.951396 
1.438175 2.897975 2.625137 0.9716723 2.634238 4.605809 
1.491978 2.900285 2.588287 3.934605 2.419285 2.301297 
1.496395 2.904072 2.506409 4.302077 2.42615 -1.649761 
1.463249 2.905065 2.476105 2.240027 2.628257 -4.459584 
1.401262 2.904817 2.465637 -1.010968 2.638307 -4.67866 
1.423885 2.980849 2.536804 0.06782429 3.100192 -0.09094709 
-0.3206177 0.8294673 5.265152 2.276203 0.8045235 1.564267 
-0.3598042 0.9625697 5.124832 1.809896 2.200354 0.07794466 
-0.584671 1.14235 5.420303 4.16785 4.174879 0.1443212 
-0.5814629 1.084008 5.511719 4.64611 1.654054 3.273806 
-0.3946419 0.671948 5.340881 1.234088 -0.8242161 2.32496 
-0.6683102 0.9850287 5.596436 1.899955 -1.469073 4.947364 
-0.5386829 0.5823064 5.305435 -0.7135985 -1.823896 1.848263 
-0.7475452 0.9344344 5.567474 -2.021287 -3.266539 3.992733 
-0.6670628 0.6136832 5.179123 -2.266521 -1.536948 0.507993 
-0.8179398 0.9318213 5.454163 -4.965621 -2.840804 1.01517 
-0.7038727 0.7474961 5.037613 -2.656616 -0.2554843 -0.8627901 
-0.8158665 0.9913945 5.325867 -5.600086 -0.4710539 -2.154081 
-0.6290169 0.9050317 4.965012 -1.754935 1.372431 -1.553714 
-0.7500076 1.076501 5.260086 -3.455905 2.834431 -3.942017 
-0.4876137 0.9942412 5.002274 0.08398885 2.454626 -1.171955 
-0.6552773 1.133932 5.284195 0.6797378 5.013748 -3.028181 
-0.7356529 1.306455 5.548386 4.765256 3.686069 -0.4421598 
-0.7452698 1.285792 5.644485 4.395049 1.870157 3.238684 
-0.8067055 1.252186 5.699036 1.143796 -0.1890121 5.125842 
-0.884119 1.225235 5.679184 -2.817849 -1.590034 4.225729 
-0.9323425 1.222587 5.597443 -5.254847 -1.559014 0.9810902 
-0.9106655 1.260935 5.478134 -4.912004 0.2697696 -2.97717 
-0.8604221 1.278005 5.447998 -1.958129 2.793069 -5.02344 
-0.7834187 1.303992 5.467468 2.078707 4.115903 -3.815781 
-0.8425903 1.482615 5.594345 3.816041 3.96918 -0.3869031 
-0.8454952 1.466659 5.649017 3.235702 3.216872 2.909317 
-0.8795395 1.443046 5.681335 0.3076419 1.882934 4.82592 
-0.9251747 1.426154 5.669662 -3.332443 0.7489321 4.149971 
-0.9539185 1.426513 5.621338 -5.341961 0.4847091 1.100131 
-0.9413395 1.450706 5.551743 -4.516129 1.494009 -2.43491 
-0.9135895 1.466733 5.537415 -1.767768 2.995276 -4.243606 
-0.87043 1.482548 5.549026 1.640204 3.817684 -3.296452 
-0.918293 1.524127 5.614746 -0.9219468 2.612543 0.4453827 
-1.16391 1.851544 2.915161 1.747459 1.855276 0.5869771 
-1.235977 1.891911 2.778091 0.6948833 2.397154 -0.6915328 
-1.413778 2.015563 3.014282 2.405624 5.109437 -1.871052 
-1.377048 1.988698 3.102509 4.471864 3.540374 1.725484 
-1.208433 1.762887 3.03949 1.939044 0.3853108 1.98412 
-1.433283 1.916761 3.228592 3.312353 -0.01725048 4.55061 
-1.343933 1.677089 3.076813 0.6089641 -1.729272 2.45041 
-1.519163 1.858303 3.245926 0.2245743 -2.603749 4.863353 
-1.489834 1.644765 3.004395 -1.465635 -2.406225 1.297174 
-1.625324 1.820628 3.178635 -3.016646 -3.561203 2.818481 
-1.559803 1.685359 2.865738 -2.631105 -1.079614 -0.609646 
-1.666519 1.839559 3.05722 -5.12934 -2.435704 -0.6119312 
-1.514061 1.775224 2.743393 -1.96785 0.9442582 -1.591791 
-1.625771 1.902429 2.958069 -4.558764 0.9588349 -3.683775 
-1.38089 1.861204 2.708069 -0.6078053 2.134907 -1.4133 
-1.525503 1.966964 2.929276 -1.480379 4.18543 -4.087123 
-1.54192 2.153087 3.122604 3.191267 4.209753 -2.797129 
-1.521751 2.159441 3.218216 4.402848 3.265271 1.377591 
-1.571878 2.137167 3.300781 2.581707 1.396921 4.54441 
-1.663378 2.098968 3.321259 -0.8070567 -0.5696647 5.260512 
-1.742849 2.069196 3.268021 -4.009082 -1.724272 2.957965 
-1.758554 2.074131 3.142288 -5.312924 -1.072729 -1.524511 
-1.711695 2.086604 3.090286 -3.580628 1.135214 -4.848172 
-1.620644 2.123757 3.069885 -0.2144612 3.187397 -5.140093 
-1.656696 2.288753 3.159821 2.363388 4.247386 -2.521769 
-1.64003 2.288681 3.219727 3.06669 4.383263 1.007552 
-1.669167 2.27055 3.273621 1.387678 3.36781 4.016209 
-1.728432 2.244698 3.287216 -1.689188 1.82204 4.787871 
-1.780876 2.227247 3.252121 -4.436398 0.5244888 2.587 
-1.791365 2.232302 3.170792 -4.982147 0.5491614 -1.3434 
-1.76321 2.247417 3.139648 -3.316749 1.690519 -4.220567 
-1.706944 2.271884 3.127411 -0.344012 3.018476 -4.543929 
-1.75419 2.329777 3.203552 -1.29158 2.801186 0.09634587 
-1.307583 1.874539 2.207855 2.368355 1.071648 0.7492086 
-1.371803 1.947432 2.082047 1.62468 2.006644 -0.9407997 
-1.517225 2.17473 2.309219 3.654019 4.062243 -1.966845 
-1.494164 2.146939 2.40123 4.985643 2.335133 1.798553 
-1.366774 1.775284 2.318619 1.762898 -0.2331093 2.113017 
-1.573116 2.088191 2.523224 2.969872 -0.323212 4.750034 
-1.515205 1.707357 2.347855 0.02973855 -1.392057 2.4845 
-1.668077 2.042175 2.533783 -0.6136072 -2.170931 5.15868 
-1.664789 1.710845 2.277649 -1.902687 -1.558367 1.486292 
-1.771233 2.015913 2.457703 -4.091315 -2.600412 2.881713 
-1.7269 1.783878 2.150238 -2.785927 -0.5305364 -0.3976727 
-1.796467 2.035046 2.332504 -5.690221 -1.115896 -1.019142 
-1.666328 1.883792 2.041626 -1.940701 1.021136 -1.820405 
-1.73686 2.087951 2.236084 -3.939766 1.708873 -4.171798 
-1.520109 1.951948 2.014465 -0.09040475 2.045907 -1.944777 
-1.625658 2.137634 2.215302 -0.1699135 3.908605 -4.509573 
-1.633747 2.33236 2.400604 4.005965 3.600114 -2.573716 
-1.622744 2.339986 2.497406 4.670818 2.65271 1.748586 
-1.683821 2.32788 2.575302 2.311395 1.199602 4.754545 
-1.78159 2.302819 2.58786 -1.369959 -0.2258619 5.167314 
-1.858744 2.281487 2.528137 -4.470716 -1.002007 2.5693 
-1.860575 2.283226 2.401459 -5.24412 -0.3541052 -2.042571 
-1.807323 2.287307 2.353928 -2.917997 1.428801 -5.206706 
-1.71014 2.311389 2.3414 0.6978793 2.966644 -5.228413 
-1.73012 2.483449 2.422638 3.155226 3.76255 -2.380901 
-1.719872 2.483682 2.483826 3.535392 3.94204 1.210258 
-1.756737 2.471751 2.535065 1.453142 3.301661 4.050257 
-1.820293 2.454429 2.543594 -1.86506 2.24741 4.534701 
-1.870878 2.442531 2.50412 -4.54628 1.264651 2.088617 
-1.872114 2.445549 2.422119 -4.707349 1.200151 -1.87528 
-1.83898 2.455562 2.393463 -2.638588 1.964599 -4.581511 
-1.778744 2.471955 2.386063 0.4984157 2.844311 -4.640363 
-1.82432 2.538702 2.455536 -0.8887974 2.970132 -0.1146003 
3.379677 0.02670336 5.672256 1.101227 2.542728 0.8859211 
4.106274 4.768372e-07 4.415939 1.457746 2.418115 0.4955933 
3.285011 0.4982204 4.415955 2.383256 5.520697 1.295535 
4.344219 4.768372e-07 3.349197 1.620877 2.619895 0.3811914 
3.475372 0.515825 3.349213 2.858696 5.514913 0.8803397 
4.535124 0.002347469 2.28244 1.746127 2.480865 0.2740496 
3.627687 0.6246619 2.28244 3.232126 5.313987 0.8015814 
4.612108 0.02150536 1.215698 1.828176 2.420775 0.02816779 
3.689688 0.7150807 1.215698 3.467878 5.196874 0.1905502 
4.535122 0.02150536 0.1489563 1.838764 2.439558 -0.2654446 
3.628094 0.7150807 0.1489716 3.494 5.148992 -0.5894933 
4.344704 0.002347469 -0.9177856 1.769039 2.513813 -0.4062238 
3.476574 0.6246619 -0.9248352 3.325307 5.219569 -0.9905945 
4.107109 4.768372e-07 -2.002487 1.667401 2.581433 -0.3880937 
3.285999 0.5158257 -2.099243 2.981997 5.428496 -0.9505855 
3.484531 0.02670336 -4.345367 1.17906 2.618093 -0.548133 
2.338652 0.4982204 5.565338 1.338074 5.698064 1.803555 
2.315548 4.768372e-07 6.702194 0.514264 2.450667 1.054595 
2.447296 0.7292635 4.416733 1.391263 5.886699 1.568426 
2.58194 0.880218 3.349197 2.440415 5.618289 1.288768 
2.691801 1.128566 2.28244 2.927211 5.427211 1.181601 
2.729429 1.289982 1.215698 3.184585 5.381143 0.3684337 
2.685886 1.289982 0.1489716 3.280126 5.31136 -0.5674039 
2.577698 1.128566 -0.9682159 3.262561 5.21959 -1.242785 
2.446285 0.8827868 -2.246445 2.884135 5.451608 -1.1685 
2.342636 0.5005672 -4.375549 2.785676 5.458072 -1.338799 
2.918808 4.768372e-07 -5.346634 1.045969 2.6901 -0.7660674 
1.546705 0.4982204 5.754578 1.992885 5.569051 1.695627 
1.543697 4.768372e-07 6.957031 0.8693633 2.559011 1.523599 
1.603725 0.777276 4.464584 1.586826 5.508263 1.885318 
1.681923 1.307435 3.349213 2.319706 5.381196 2.221026 
1.736856 1.667219 2.28244 3.259969 5.171653 1.410467 
1.751966 1.87318 1.215714 3.363038 5.26646 0.479164 
1.727909 1.87318 0.1489563 3.534389 5.178997 -0.2628996 
1.670956 1.744456 -1.02771 4.143835 4.549972 -1.072258 
1.604206 1.329416 -2.365067 3.922222 4.453559 -1.472931 
1.551216 0.9421809 -4.542633 2.405198 5.438964 -1.67691 
2.133789 0 -6.32814 0.8985671 2.530194 -0.9802611 
0.7718487 0.8830614 6.302048 1.514084 4.909657 2.26463 
0.7718468 4.768372e-07 7.191757 0.421002 2.122836 2.097137 
0.7800827 1.112375 4.865845 1.712337 5.721267 1.598265 
0.8155403 1.740267 3.22403 1.152312 5.676481 2.095171 
1.216242 2.046321 2.282455 1.534083 5.387189 1.448171 
1.223227 2.236047 1.215698 1.468818 5.570729 0.4927418 
1.20924 2.236047 0.1489716 1.498538 5.726016 0.06756349 
1.171333 2.302829 -1.014771 1.691128 5.123565 -0.375595 
1.138115 2.07821 -2.339493 2.308203 4.534135 -1.471799 
0.772438 1.273998 -4.317459 1.611593 5.587314 -2.206439 
0.7718468 4.768372e-07 -7.232956 0.3130799 2.417188 -1.054044 
0 0.8830614 6.384796 -0.003629392 5.230766 2.790577 
-1.907349e-06 4.768372e-07 7.286102 0.004984953 2.108345 2.074281 
0 1.138736 4.908661 -0.02407753 6.040203 1.652793 
-3.814697e-06 1.805843 3.22403 0.1436135 5.969397 1.683728 
1.907349e-06 1.930173 2.282471 0.1281811 6.152562 1.106932 
-1.907349e-06 2.131725 1.215729 0.00389614 6.237726 0.5794443 
-3.814697e-06 2.131725 0.1489563 0.06988443 6.25539 0.01240746 
-3.814697e-06 2.114219 -1.016937 0.006433725 6.223391 -0.3268451 
0 2.000276 -2.340576 -0.1498835 6.113301 -1.336431 
0 1.45077 -4.212646 -0.1371625 5.738315 -2.247927 
0 4.768372e-07 -7.286102 0.02574749 2.742044 -1.25346 
-0.7718487 0.8830614 6.302048 -1.781616 4.54614 2.397686 
-0.7718506 4.768372e-07 7.191757 -0.6512849 2.27337 1.818311 
-0.7730789 1.112375 4.865845 -1.588671 5.771899 1.580577 
-0.7904091 1.740267 3.22403 -1.4437 5.610621 2.185857 
-1.167234 2.046321 2.282455 -1.7115 5.236119 1.546662 
-1.170626 2.236047 1.215714 -1.487212 5.540053 0.4795312 
-1.161495 2.236047 0.1489563 -1.698596 5.612801 -0.0174292 
-1.137356 2.302829 -1.016922 -1.831292 4.922644 -0.4350314 
-1.120525 2.07821 -2.341354 -2.182103 4.609627 -1.120668 
-0.7718506 1.273998 -4.317459 -1.199661 5.681017 -2.35336 
-0.7718468 4.768372e-07 -7.232956 -0.343639 2.398922 -1.092838 
-1.543699 0.4982204 5.754578 -1.94018 5.483561 1.962706 
-1.543701 4.768372e-07 6.957031 -0.3619587 2.85634 1.201602 
-1.577324 0.777276 4.465179 -1.975752 5.455963 1.678066 
-1.631527 1.307435 3.349197 -2.631627 5.297267 2.08772 
-1.668646 1.667219 2.282455 -3.213782 5.136143 1.587227 
-1.677362 1.87318 1.215714 -3.459428 5.207695 0.4603296 
-1.659359 1.87318 0.1489563 -3.520465 5.181571 -0.4039494 
-1.619192 1.744456 -1.037796 -4.039718 4.680107 -0.9375888 
-1.575546 1.329416 -2.384109 -4.098946 4.327601 -1.063835 
-1.544884 0.9421809 -4.543915 -2.484686 5.383646 -1.814621 
-2.133797 0 -6.32814 -0.893674 2.512817 -1.038501 
-2.326822 0.4982204 5.565323 -1.241405 5.72828 1.845183 
-2.315548 4.768372e-07 6.702194 -0.5451457 2.43603 1.072967 
-2.412567 0.7292635 4.416763 -1.080438 6.042148 1.057611 
-2.527554 0.880218 3.349213 -2.303464 5.649344 1.439126 
-2.61685 1.128566 2.282455 -2.915216 5.420701 1.21779 
-2.645258 1.289982 1.215714 -3.152367 5.397695 0.4061145 
-2.607861 1.289982 0.1489716 -3.192799 5.370028 -0.536714 
-2.519859 1.128566 -0.9875183 -3.206682 5.292504 -1.058537 
-2.41048 0.8827868 -2.253235 -2.871794 5.432256 -1.235504 
-2.329735 0.5005672 -4.382523 -2.850857 5.480223 -1.053481 
-2.918808 4.768372e-07 -5.346634 -1.221794 2.610464 -0.7826716 
-3.375256 0.02670336 5.672272 -1.141069 2.512806 0.9237809 
-3.26046 0.4982204 4.41597 -2.368292 5.586397 1.049086 
-3.443638 0.515825 3.349197 -2.700272 5.599525 0.7810462 
-3.595366 0.6246619 2.282455 -3.113272 5.359648 0.835786 
-3.651987 0.7150807 1.215729 -3.359402 5.255181 0.2429684 
-3.593044 0.7150807 0.1489716 -3.400751 5.221401 -0.5207952 
-3.442289 0.6246619 -0.9264069 -3.282286 5.267314 -0.9334606 
-3.259933 0.5158257 -2.103333 -3.00075 5.418156 -0.9978856 
-3.480099 0.02670336 -4.350525 -1.183973 2.612545 -0.5542923 
-4.095337 4.768372e-07 4.415955 -1.449244 2.428512 0.4991671 
-4.335674 4.768372e-07 3.349197 -1.555972 2.673279 0.3116067 
-4.535124 0.002347469 2.282471 -1.635439 2.544411 0.2725665 
-4.612108 0.02150536 1.215729 -1.748087 2.474343 0.05246435 
-4.535122 0.02150536 0.1489563 -1.801562 2.460271 -0.2397293 
-4.33567 0.002347469 -0.9177704 -1.780643 2.51132 -0.4096297 
-4.095337 4.768372e-07 -2.003326 -1.682333 2.570676 -0.4302577 
3 0 1 2 
3 0 2 3 
3 1 0 4 
3 1 4 5 
3 5 6 7 
3 5 7 1 
3 1 7 8 
3 1 8 2 
3 7 6 9 
3 7 9 10 
3 11 8 7 
3 11 7 10 
3 12 13 10 
3 12 10 9 
3 11 10 13 
3 11 13 14 
3 15 12 16 
3 17 14 18 
3 11 14 19 
3 11 19 20 
3 21 19 14 
3 21 14 17 
3 21 17 22 
3 21 22 23 
3 3 24 25 
3 3 25 0 
3 0 26 4 
3 27 28 25 
3 27 25 24 
3 29 30 28 
3 31 28 27 
3 31 27 32 
3 33 29 28 
3 33 28 31 
3 34 31 32 
3 34 32 35 
3 36 33 31 
3 36 31 34 
3 37 38 34 
3 37 34 35 
3 39 36 34 
3 39 34 38 
3 40 36 39 
3 40 39 41 
3 42 43 38 
3 42 38 37 
3 44 39 38 
3 44 38 43 
3 41 39 44 
3 41 44 45 
3 40 41 46 
3 40 46 47 
3 45 48 46 
3 45 46 41 
3 49 44 43 
3 49 43 50 
3 43 42 51 
3 43 51 50 
3 52 49 50 
3 50 53 54 
3 55 56 37 
3 55 37 35 
3 35 32 57 
3 35 57 55 
3 58 57 32 
3 58 32 27 
3 59 58 27 
3 59 27 24 
3 60 59 24 
3 60 24 3 
3 3 2 61 
3 3 61 60 
3 62 61 2 
3 62 2 8 
3 8 11 20 
3 8 20 62 
3 22 18 16 
3 5 4 63 
3 5 63 64 
3 6 5 64 
3 6 64 65 
3 9 6 65 
3 9 65 66 
3 12 9 66 
3 12 66 67 
3 16 12 67 
3 68 26 69 
3 68 69 70 
3 71 30 29 
3 71 29 72 
3 29 33 73 
3 29 73 72 
3 33 36 74 
3 33 74 73 
3 36 40 75 
3 36 75 74 
3 45 44 76 
3 45 76 77 
3 47 46 78 
3 47 78 79 
3 40 47 79 
3 40 79 75 
3 48 45 77 
3 48 77 80 
3 46 48 80 
3 46 80 78 
3 44 49 81 
3 44 81 76 
3 49 52 82 
3 49 82 81 
3 22 16 67 
3 42 37 56 
3 42 56 83 
3 51 42 83 
3 51 83 84 
3 52 54 85 
3 52 85 82 
3 53 51 84 
3 53 84 86 
3 54 53 86 
3 54 86 85 
3 4 26 68 
3 4 68 63 
3 69 26 25 
3 25 26 0 
3 69 30 71 
3 69 71 70 
3 25 30 69 
3 28 30 25 
3 13 12 15 
3 22 17 18 
3 16 18 15 
3 18 14 15 
3 15 14 13 
3 62 20 87 
3 65 64 88 
3 65 88 89 
3 66 65 89 
3 66 89 90 
3 67 66 90 
3 67 90 91 
3 22 92 23 
3 22 67 91 
3 22 91 92 
3 62 87 88 
3 62 88 64 
3 64 63 61 
3 64 61 62 
3 63 68 60 
3 63 60 61 
3 68 70 60 
3 59 60 70 
3 59 70 71 
3 71 72 58 
3 71 58 59 
3 72 73 57 
3 72 57 58 
3 55 57 73 
3 55 73 74 
3 77 76 74 
3 77 74 75 
3 79 78 75 
3 80 77 78 
3 78 77 75 
3 74 76 56 
3 74 56 55 
3 83 56 76 
3 84 83 76 
3 84 76 81 
3 81 82 86 
3 81 86 84 
3 82 85 86 
3 50 51 53 
3 52 50 54 
3 93 94 95 
3 93 95 96 
3 96 97 98 
3 96 98 93 
3 97 96 99 
3 97 99 100 
3 96 95 101 
3 96 101 99 
3 99 102 103 
3 99 103 100 
3 104 102 99 
3 104 99 101 
3 105 103 102 
3 105 102 106 
3 104 107 106 
3 104 106 102 
3 108 109 105 
3 110 111 107 
3 104 112 113 
3 104 113 107 
3 21 110 107 
3 21 107 113 
3 21 23 114 
3 21 114 110 
3 94 93 115 
3 94 115 116 
3 93 98 117 
3 118 116 115 
3 118 115 119 
3 120 119 121 
3 122 123 118 
3 122 118 119 
3 124 122 119 
3 124 119 120 
3 125 126 123 
3 125 123 122 
3 127 125 122 
3 127 122 124 
3 128 126 125 
3 128 125 129 
3 130 129 125 
3 130 125 127 
3 131 132 130 
3 131 130 127 
3 133 128 129 
3 133 129 134 
3 135 134 129 
3 135 129 130 
3 132 136 135 
3 132 135 130 
3 131 137 138 
3 131 138 132 
3 136 132 138 
3 136 138 139 
3 140 141 134 
3 140 134 135 
3 134 141 142 
3 134 142 133 
3 143 141 140 
3 141 144 145 
3 146 126 128 
3 146 128 147 
3 126 146 148 
3 126 148 123 
3 149 118 123 
3 149 123 148 
3 150 116 118 
3 150 118 149 
3 151 94 116 
3 151 116 150 
3 94 151 152 
3 94 152 95 
3 153 101 95 
3 153 95 152 
3 101 153 112 
3 101 112 104 
3 114 109 111 
3 97 154 155 
3 97 155 98 
3 100 156 154 
3 100 154 97 
3 103 157 156 
3 103 156 100 
3 105 158 157 
3 105 157 103 
3 109 158 105 
3 159 160 161 
3 159 161 117 
3 162 163 120 
3 162 120 121 
3 120 163 164 
3 120 164 124 
3 124 164 165 
3 124 165 127 
3 127 165 166 
3 127 166 131 
3 136 167 168 
3 136 168 135 
3 137 169 170 
3 137 170 138 
3 131 166 169 
3 131 169 137 
3 139 171 167 
3 139 167 136 
3 138 170 171 
3 138 171 139 
3 135 168 172 
3 135 172 140 
3 140 172 173 
3 140 173 143 
3 114 158 109 
3 133 174 147 
3 133 147 128 
3 142 175 174 
3 142 174 133 
3 143 173 176 
3 143 176 144 
3 145 177 175 
3 145 175 142 
3 144 176 177 
3 144 177 145 
3 98 155 159 
3 98 159 117 
3 161 115 117 
3 115 93 117 
3 161 160 162 
3 161 162 121 
3 115 161 121 
3 119 115 121 
3 106 108 105 
3 114 111 110 
3 109 108 111 
3 111 108 107 
3 108 106 107 
3 153 87 112 
3 156 89 88 
3 156 88 154 
3 157 90 89 
3 157 89 156 
3 158 91 90 
3 158 90 157 
3 114 23 92 
3 114 92 91 
3 114 91 158 
3 153 154 88 
3 153 88 87 
3 154 153 152 
3 154 152 155 
3 155 152 151 
3 155 151 159 
3 159 151 160 
3 150 162 160 
3 150 160 151 
3 162 150 149 
3 162 149 163 
3 163 149 148 
3 163 148 164 
3 146 165 164 
3 146 164 148 
3 167 166 165 
3 167 165 168 
3 169 166 170 
3 171 170 167 
3 170 166 167 
3 165 146 147 
3 165 147 168 
3 174 168 147 
3 175 172 168 
3 175 168 174 
3 172 175 177 
3 172 177 173 
3 173 177 176 
3 141 145 142 
3 143 144 141 
3 178 179 180 
3 178 180 181 
3 182 183 179 
3 182 179 178 
3 184 185 183 
3 184 183 182 
3 186 187 185 
3 186 185 184 
3 188 189 187 
3 188 187 186 
3 190 191 189 
3 190 189 188 
3 192 193 191 
3 192 191 190 
3 181 180 193 
3 181 193 192 
3 179 194 195 
3 179 195 180 
3 183 196 194 
3 183 194 179 
3 185 197 196 
3 185 196 183 
3 187 198 197 
3 187 197 185 
3 189 199 198 
3 189 198 187 
3 191 200 199 
3 191 199 189 
3 193 201 200 
3 193 200 191 
3 180 195 201 
3 180 201 193 
3 194 202 203 
3 194 203 195 
3 196 204 202 
3 196 202 194 
3 197 205 204 
3 197 204 196 
3 198 206 205 
3 198 205 197 
3 199 207 206 
3 199 206 198 
3 200 208 207 
3 200 207 199 
3 201 209 208 
3 201 208 200 
3 195 203 209 
3 195 209 201 
3 203 202 210 
3 202 204 210 
3 204 205 210 
3 205 206 210 
3 206 207 210 
3 207 208 210 
3 208 209 210 
3 209 203 210 
3 211 212 213 
3 211 213 214 
3 215 216 212 
3 215 212 211 
3 217 218 216 
3 217 216 215 
3 219 220 218 
3 219 218 217 
3 221 222 220 
3 221 220 219 
3 223 224 222 
3 223 222 221 
3 225 226 224 
3 225 224 223 
3 214 213 226 
3 214 226 225 
3 212 227 228 
3 212 228 213 
3 216 229 227 
3 216 227 212 
3 218 230 229 
3 218 229 216 
3 220 231 230 
3 220 230 218 
3 222 232 231 
3 222 231 220 
3 224 233 232 
3 224 232 222 
3 226 234 233 
3 226 233 224 
3 213 228 234 
3 213 234 226 
3 227 235 228 
3 229 235 227 
3 230 235 229 
3 231 235 230 
3 232 235 231 
3 233 235 232 
3 234 235 233 
3 228 235 234 
3 236 237 238 
3 236 238 239 
3 240 241 237 
3 240 237 236 
3 242 243 241 
3 242 241 240 
3 244 245 243 
3 244 243 242 
3 246 247 245 
3 246 245 244 
3 248 249 247 
3 248 247 246 
3 250 251 249 
3 250 249 248 
3 239 238 251 
3 239 251 250 
3 237 252 253 
3 237 253 238 
3 241 254 252 
3 241 252 237 
3 243 255 254 
3 243 254 241 
3 245 256 255 
3 245 255 243 
3 247 257 256 
3 247 256 245 
3 249 258 257 
3 249 257 247 
3 251 259 258 
3 251 258 249 
3 238 253 259 
3 238 259 251 
3 252 260 261 
3 252 261 253 
3 254 262 260 
3 254 260 252 
3 255 263 262 
3 255 262 254 
3 256 264 263 
3 256 263 255 
3 257 265 264 
3 257 264 256 
3 258 266 265 
3 258 265 257 
3 259 267 266 
3 259 266 258 
3 253 261 267 
3 253 267 259 
3 261 260 268 
3 260 262 268 
3 262 263 268 
3 263 264 268 
3 264 265 268 
3 265 266 268 
3 266 267 268 
3 267 261 268 
3 269 270 271 
3 269 271 272 
3 273 269 272 
3 273 272 274 
3 275 273 274 
3 275 274 276 
3 277 275 276 
3 277 276 278 
3 279 277 278 
3 279 278 280 
3 281 279 280 
3 281 280 282 
3 283 281 282 
3 283 282 284 
3 270 283 284 
3 270 284 271 
3 272 271 285 
3 272 285 286 
3 274 272 286 
3 274 286 287 
3 276 274 287 
3 276 287 288 
3 278 276 288 
3 278 288 289 
3 280 278 289 
3 280 289 290 
3 282 280 290 
3 282 290 291 
3 284 282 291 
3 284 291 292 
3 271 284 292 
3 271 292 285 
3 286 285 293 
3 286 293 294 
3 287 286 294 
3 287 294 295 
3 288 287 295 
3 288 295 296 
3 289 288 296 
3 289 296 297 
3 290 289 297 
3 290 297 298 
3 291 290 298 
3 291 298 299 
3 292 291 299 
3 292 299 300 
3 285 292 300 
3 285 300 293 
3 293 301 294 
3 294 301 295 
3 295 301 296 
3 296 301 297 
3 297 301 298 
3 298 301 299 
3 299 301 300 
3 300 301 293 
3 302 303 304 
3 302 304 305 
3 306 302 305 
3 306 305 307 
3 308 306 307 
3 308 307 309 
3 310 308 309 
3 310 309 311 
3 312 310 311 
3 312 311 313 
3 314 312 313 
3 314 313 315 
3 316 314 315 
3 316 315 317 
3 303 316 317 
3 303 317 304 
3 305 304 318 
3 305 318 319 
3 307 305 319 
3 307 319 320 
3 309 307 320 
3 309 320 321 
3 311 309 321 
3 311 321 322 
3 313 311 322 
3 313 322 323 
3 315 313 323 
3 315 323 324 
3 317 315 324 
3 317 324 325 
3 304 317 325 
3 304 325 318 
3 319 318 326 
3 319 326 327 
3 320 319 327 
3 320 327 328 
3 321 320 328 
3 321 328 329 
3 322 321 329 
3 322 329 330 
3 323 322 330 
3 323 330 331 
3 324 323 331 
3 324 331 332 
3 325 324 332 
3 325 332 333 
3 318 325 333 
3 318 333 326 
3 326 334 327 
3 327 334 328 
3 328 334 329 
3 329 334 330 
3 330 334 331 
3 331 334 332 
3 332 334 333 
3 333 334 326 
3 335 336 337 
3 335 337 338 
3 339 335 338 
3 339 338 340 
3 341 339 340 
3 341 340 342 
3 343 341 342 
3 343 342 344 
3 345 343 344 
3 345 344 346 
3 347 345 346 
3 347 346 348 
3 349 347 348 
3 349 348 350 
3 336 349 350 
3 336 350 337 
3 338 337 351 
3 338 351 352 
3 340 338 352 
3 340 352 353 
3 342 340 353 
3 342 353 354 
3 344 342 354 
3 344 354 355 
3 346 344 355 
3 346 355 356 
3 348 346 356 
3 348 356 357 
3 350 348 357 
3 350 357 358 
3 337 350 358 
3 337 358 351 
3 352 351 359 
3 352 359 360 
3 353 352 360 
3 353 360 361 
3 354 353 361 
3 354 361 362 
3 355 354 362 
3 355 362 363 
3 356 355 363 
3 356 363 364 
3 357 356 364 
3 357 364 365 
3 358 357 365 
3 358 365 366 
3 351 358 366 
3 351 366 359 
3 359 367 360 
3 360 367 361 
3 361 367 362 
3 362 367 363 
3 363 367 364 
3 364 367 365 
3 365 367 366 
3 366 367 359 
3 368 369 370 
3 369 371 372 
3 369 372 370 
3 371 373 374 
3 371 374 372 
3 373 375 376 
3 373 376 374 
3 375 377 378 
3 375 378 376 
3 377 379 380 
3 377 380 378 
3 379 381 382 
3 379 382 380 
3 381 383 382 
3 368 384 385 
3 368 370 386 
3 368 386 384 
3 370 372 387 
3 370 387 386 
3 372 374 388 
3 372 388 387 
3 374 376 389 
3 374 389 388 
3 376 378 390 
3 376 390 389 
3 378 380 391 
3 378 391 390 
3 380 382 392 
3 380 392 391 
3 382 383 393 
3 382 393 392 
3 383 394 393 
3 385 384 395 
3 385 395 396 
3 384 386 397 
3 384 397 395 
3 386 387 398 
3 386 398 397 
3 387 388 399 
3 387 399 398 
3 388 389 400 
3 388 400 399 
3 389 390 401 
3 389 401 400 
3 390 391 402 
3 390 402 401 
3 391 392 403 
3 391 403 402 
3 392 393 404 
3 392 404 403 
3 393 394 405 
3 393 405 404 
3 396 395 406 
3 396 406 407 
3 395 397 408 
3 395 408 406 
3 397 398 409 
3 397 409 408 
3 398 399 410 
3 398 410 409 
3 399 400 411 
3 399 411 410 
3 400 401 412 
3 400 412 411 
3 401 402 413 
3 401 413 412 
3 402 403 414 
3 402 414 413 
3 403 404 415 
3 403 415 414 
3 404 405 416 
3 404 416 415 
3 407 406 417 
3 407 417 418 
3 406 408 419 
3 406 419 417 
3 408 409 420 
3 408 420 419 
3 409 410 421 
3 409 421 420 
3 410 411 422 
3 410 422 421 
3 411 412 423 
3 411 423 422 
3 412 413 424 
3 412 424 423 
3 413 414 425 
3 413 425 424 
3 414 415 426 
3 414 426 425 
3 415 416 427 
3 415 427 426 
3 418 417 428 
3 418 428 429 
3 417 419 430 
3 417 430 428 
3 419 420 431 
3 419 431 430 
3 420 421 432 
3 420 432 431 
3 421 422 433 
3 421 433 432 
3 422 423 434 
3 422 434 433 
3 423 424 435 
3 423 435 434 
3 424 425 436 
3 424 436 435 
3 425 426 437 
3 425 437 436 
3 426 427 438 
3 426 438 437 
3 429 428 439 
3 429 439 440 
3 428 430 441 
3 428 441 439 
3 430 431 442 
3 430 442 441 
3 431 432 443 
3 431 443 442 
3 432 433 444 
3 432 444 443 
3 433 434 445 
3 433 445 444 
3 434 435 446 
3 434 446 445 
3 435 436 447 
3 435 447 446 
3 436 437 448 
3 436 448 447 
3 437 438 449 
3 437 449 448 
3 440 439 450 
3 440 450 451 
3 439 441 452 
3 439 452 450 
3 441 442 453 
3 441 453 452 
3 442 443 454 
3 442 454 453 
3 443 444 455 
3 443 455 454 
3 444 445 456 
3 444 456 455 
3 445 446 457 
3 445 457 456 
3 446 447 458 
3 446 458 457 
3 447 448 459 
3 447 459 458 
3 448 449 460 
3 448 460 459 
3 451 450 461 
3 450 452 462 
3 450 462 461 
3 452 453 463 
3 452 463 462 
3 453 454 464 
3 453 464 463 
3 454 455 465 
3 454 465 464 
3 455 456 466 
3 455 466 465 
3 456 457 467 
3 456 467 466 
3 457 458 468 
3 457 468 467 
3 458 459 469 
3 458 469 468 
3 459 460 469 
3 461 462 470 
3 462 463 471 
3 462 471 470 
3 463 464 472 
3 463 472 471 
3 464 465 473 
3 464 473 472 
3 465 466 474 
3 465 474 473 
3 466 467 475 
3 466 475 474 
3 467 468 476 
3 467 476 475 
3 468 469 476 
