ply
format ascii 1.0
comment VCGLIB generated
element vertex 360
property float x
property float y
property float z
property float nx
property float ny
property float nz
element face 652
property list uchar int vertex_indices
end_header
1.02747 0.4492884 1.751572 5.088141 -3.203851 1.306625 
0.8009186 0.07906342 2.214844 5.347389 -2.902494 0.6903579 
0.6207924 -0.1758523 2.059631 3.718225 -4.666176 -0.1092255 
0.862072 -0.04633856 1.541336 3.267123 -4.430916 0.6267965 
1.254807 0.8736598 2.019928 2.19559 1.034968 2.780546 
0.8641701 0.4553506 2.307465 3.616177 1.703047 3.426762 
0.7595673 0.3899112 2.915024 2.973663 2.320436 1.230101 
0.6453381 -0.144176 2.747681 5.069155 -3.193632 0.1975467 
0.3063259 -0.4547915 2.554512 3.734613 -4.964125 -0.2254356 
0.6996765 0.2343702 3.277161 3.668539 2.292465 0.8281109 
0.5816174 -0.2140479 3.227631 5.072104 -3.274745 -0.5111574 
0.2008114 -0.5236616 3.157501 3.106646 -5.365164 0.1859867 
0.7059402 0.198843 3.569229 3.634262 2.815549 -0.05695035 
0.6821632 -0.2200193 3.604935 4.492524 -2.94662 -0.6486004 
0.2407055 -0.4471221 3.621025 2.031194 -5.492205 1.729559 
0.7481937 -0.1718688 3.93541 3.674413 -2.786039 1.047049 
0.8151779 0.07875347 3.966309 2.911866 1.202598 1.083303 
0.3233204 -0.1080813 4.12236 -0.2598497 -1.982102 5.143758 
0.5576515 -0.1264038 4.180473 0.8272038 -1.156874 3.354897 
0.002445221 -0.5236273 3.643143 0.9846759 -2.576211 1.031284 
0.002443314 -0.616766 3.18866 1.246326 -2.716256 0.2525147 
0 -0.1512914 4.170845 4.474074e-05 -2.129004 4.40984 
0.3302574 0.2406359 4.045776 0.7279693 3.930907 2.754933 
0 0.1508808 4.159721 5.255081e-05 1.897559 4.967398 
1.214788 0.05309796 0.86586 3.813275 -4.061168 1.278938 
1.418283 0.7079654 1.140961 5.37672 -2.921722 1.252626 
1.559834 0.9559224 1.669815 2.678432 0.613446 1.193998 
1.355051 0.05444241 0.3657532 4.090053 -3.52219 0.9589912 
1.486862 0.6835184 0.4657745 6.068922 -1.40644 -0.2676109 
1.611563 1.181011 0.5970459 3.807687 2.596249 -0.6579346 
1.720064 1.09158 0.9581299 3.160583 0.9702187 0.6901374 
1.46682 0.7030218 -0.02384949 6.239866 -0.2733075 0.477299 
1.462273 0.01746035 0.01271057 3.761942 -2.764845 0.7687624 
1.463446 1.168173 -0.02009583 4.235385 3.222287 -0.2292663 
1.51392 0.5924094 -0.4931335 6.166808 -0.9629505 0.4787312 
1.338629 -0.1318285 -0.5923767 4.670263 -3.365727 0.5917699 
1.571386 1.0979 -0.519989 4.447753 1.890114 1.82065 
1.26252 -0.3770192 -1.211807 4.946804 -3.412214 0.6054622 
1.610073 0.6293359 -1.185028 6.044664 -1.473783 0.6002286 
1.669477 0.9624372 -1.212143 6.013757 -1.62949 0.6255488 
1.833509 1.550383 -0.8410034 2.43779 -0.3721925 3.70142 
1.858932 1.439845 -1.261673 5.535925 -2.859803 0.2138807 
1.403584 -0.1935849 -1.870255 4.163038 -3.784733 0.1650499 
1.64209 0.5325594 -1.868683 6.093634 -1.19121 0.4832499 
1.681503 0.9264088 -1.773743 5.625914 0.4968246 -0.9170798 
1.830105 1.455262 -1.548386 4.38273 -0.509374 -3.368906 
2.032665 1.673759 -1.166855 3.815881 0.3883001 -0.2892348 
1.988056 1.879376 -0.8351746 1.111162 0.9518401 1.11143 
1.960999 1.69939 -1.461868 2.930618 1.482115 -1.64594 
1.658672 1.364078 -2.385452 2.934912 3.031877 1.336283 
1.808121 0.3489604 -3.042969 5.677521 -1.190174 -0.04026026 
1.385746 -0.5347013 -3.137436 2.723418 -4.003595 -0.3383358 
1.712006 1.315332 -3.809555 3.366316 2.423945 -1.50763 
1.41111 -0.1063294 -3.931747 2.781417 -2.56782 -3.032285 
1.660721 0.9492607 -4.023788 3.588188 0.2351357 -3.402061 
1.081669 -0.2826912 -0.5354004 -1.43766 -2.40457 1.071916 
1.017277 -0.6276889 -1.1745 -0.6308441 -1.62077 0.3095304 
1.148159 -0.0437963 0.00743103 -2.671042 -3.313883 0.7017427 
1.119453 -0.03773665 0.2506104 -2.224825 -2.790217 -0.07656512 
1.034645 -0.01950693 0.8031464 -1.885616 -2.867823 -0.5485681 
0.711565 -0.05196047 1.405014 -2.481908 -2.274274 -1.524995 
0.4439354 -0.2282739 2.028183 -1.991696 -2.431322 -2.406889 
0.1469593 -0.5537276 2.534317 0.3861537 -3.4409 -2.391019 
0.864584 1.04825 1.841385 -2.091683 3.166653 1.033585 
0.4108944 0.5557225 2.269386 -2.560002 3.262864 -0.8347172 
0.4156494 0.4372945 2.816399 -0.8048275 5.80539 1.652824 
0.3653698 0.289537 3.208733 -0.4607872 6.078994 1.159452 
0.3158112 0.2782478 3.66494 -0.09555709 5.996218 0.4930711 
0.9984093 1.183189 1.471268 -1.911433 3.506963 0.1184048 
1.525278 1.064608 1.278717 3.824119 2.54279 1.308106 
1.110052 1.204467 1.10289 -2.58329 3.664045 0.1533365 
1.147076 1.308771 0.8209076 -1.983978 3.078648 0.2581025 
1.196329 1.32087 0.4212189 -1.876957 3.331466 -0.06822347 
1.04822 1.308032 -0.1959076 -2.012651 2.467009 -0.07801917 
1.156168 1.23776 -0.695816 -3.798389 2.965443 0.6295241 
1.418291 1.690242 -1.01683 -3.803082 3.071341 1.965468 
1.266277 1.066268 -1.94957 -4.05086 3.126705 0.051907 
1.414879 1.595121 -1.724213 -1.580244 1.957743 -2.748581 
1.617439 1.813619 -1.342682 -1.151881 5.323561 -1.014609 
1.572838 2.019235 -1.011002 -0.7908381 1.974603 0.4599332 
1.545773 1.839249 -1.637695 -0.6280822 1.803663 -1.178008 
1.243446 1.503937 -2.561264 -1.78353 3.203874 0.7845423 
1.296772 1.455192 -3.985382 -0.7218269 2.337932 -1.576637 
0.7987328 -0.292495 -1.932266 -2.871603 -1.625772 0.4594132 
0.7809029 -0.6336105 -3.199432 -1.847328 -2.209691 -0.2412067 
1.101753 0.9956716 -4.236511 -1.381501 0.8954855 -2.154093 
0.7672577 -0.06353307 -4.160248 -1.479813 -0.7659813 -1.747377 
1.907349e-06 -0.5537276 2.534325 -8.89751e-05 -2.818493 -3.427673 
5.722046e-06 0.3285971 2.619331 -6.175041e-05 4.146331 -2.092203 
3.814697e-06 0.2824593 2.810265 -8.642673e-07 5.754295 1.478756 
3.814697e-06 0.1996746 3.203957 -1.427531e-05 5.943807 0.639394 
5.722046e-06 0.1883855 3.660164 -2.552569e-05 6.043514 0.006384559 
3.814697e-06 0.255218 4.035912 1.777709e-05 5.455665 1.401145 
0.3011436 0.03659678 3.852783 -2.402071 0.5441816 1.486563 
0.5122528 0.3236151 4.086716 -4.906381 1.125463 3.114502 
0.5099106 0.3767934 3.996109 -4.695002 3.5733 -0.1011065 
0.3247242 0.1644912 3.712677 -2.091335 1.935802 -0.0438506 
0.3909187 -0.1020961 3.933434 -1.168945 -0.8995849 2.330623 
0.6064796 0.2430654 4.174103 -1.806132 -1.533818 4.962626 
0.5416927 -0.1703753 3.905281 0.90689 -1.642303 1.931936 
0.6898098 0.2039442 4.14949 2.343967 -2.815955 4.156579 
0.6638069 -0.1278296 3.784317 2.43981 -1.195885 0.6122563 
0.7604179 0.206728 4.04129 5.276492 -2.102245 1.223085 
0.6850395 0.0003933907 3.64299 2.687175 0.0764147 -0.7997382 
0.7537212 0.2591009 3.914825 5.664212 0.2155831 -2.023429 
0.5943832 0.1391015 3.565361 1.592057 1.540934 -1.571688 
0.6810017 0.3297682 3.84668 3.138568 3.132862 -3.980942 
0.4461613 0.2073779 3.595314 -0.3850684 2.376437 -1.26846 
0.5820198 0.3732395 3.866058 -1.274937 4.762815 -3.234554 
0.6398888 0.5433087 4.210678 -4.685787 1.372359 3.075964 
0.6302738 0.5585003 4.116714 -5.206349 2.987096 -0.6797914 
0.7019062 0.5210586 4.2659 -1.234161 -0.1571583 5.105706 
0.7801914 0.5046897 4.249176 2.901134 -1.039358 4.339252 
0.828764 0.5056295 4.171097 5.391224 -0.795118 1.144384 
0.8058186 0.5353875 4.053772 4.903381 0.8260533 -2.888042 
0.7561092 0.5441003 4.022995 1.687255 2.849896 -5.088961 
0.6783676 0.5595846 4.039413 -2.520386 3.655413 -4.013798 
0.7123241 0.7300982 4.210098 -3.71086 2.85084 2.717374 
0.7087631 0.7431049 4.156525 -4.305602 3.397836 -0.6175678 
0.747303 0.7130561 4.242905 -0.678429 1.997036 4.742733 
0.7935677 0.7024441 4.233139 3.096201 1.343277 4.18213 
0.8222561 0.7048755 4.186905 5.199042 1.244547 1.1848 
0.8086948 0.7239923 4.118408 4.332892 2.004365 -2.401816 
0.7803173 0.7352142 4.103394 1.452234 3.052062 -4.321304 
0.7365742 0.7451181 4.11322 -2.057922 3.438584 -3.475011 
0.7754745 0.7935789 4.176163 0.5496576 2.727741 0.3612159 
1.056997 0.948261 1.527374 -2.454585 1.067851 0.4242441 
1.225243 1.260623 1.753845 -1.237769 2.700548 0.938289 
1.249161 1.239077 1.650482 -1.771845 4.891225 -1.254727 
1.135054 1.019782 1.414139 -1.58495 1.969709 -1.154204 
1.099257 0.8518538 1.639908 -2.000439 -0.2542206 1.875491 
1.275644 1.154379 1.861984 -1.841856 1.299451 3.65815 
1.237823 0.7866056 1.684387 -0.2914404 -1.370746 2.466097 
1.375187 1.159259 1.900269 0.4847966 1.000347 2.26249 
1.390478 0.7910252 1.63382 1.687565 -1.549114 1.732384 
1.47365 1.085672 1.820923 3.102211 -0.3916296 3.04184 
1.466715 0.8626807 1.518799 2.814981 -0.5866724 -0.04806918 
1.523556 1.154052 1.721207 3.012301 1.752404 0.571788 
1.42285 0.9597075 1.408157 2.137361 1.012269 -1.593433 
1.468691 1.156472 1.604416 4.15595 3.12955 -2.09548 
1.286175 1.025175 1.365936 0.3481733 1.960438 -2.045245 
1.374685 1.253233 1.589859 1.129982 3.707005 -1.162165 
1.392643 1.188614 1.759308 2.29512 5.376229 1.851751 
1.185061 1.061673 0.8733978 -2.509159 0.7666945 0.6600069 
1.323858 1.3542 1.053772 -5.29794 1.700299 1.607679 
1.344559 1.380666 0.9641266 -4.118694 3.455164 -2.195507 
1.240175 1.135622 0.7501221 -1.856709 1.732423 -1.050364 
1.252146 0.978132 0.9854584 -1.76726 -0.3936298 2.085266 
1.404356 1.312499 1.175537 -3.016104 -0.5515068 4.699866 
1.402742 0.9335191 1.01918 0.09640554 -1.292508 2.536063 
1.501232 1.281216 1.189316 0.7725443 -1.879892 5.250738 
1.547501 0.9540675 0.9539642 2.058059 -1.231031 1.583246 
1.605461 1.266927 1.118652 4.332062 -1.915501 3.061056 
1.600605 1.027816 0.829071 2.84103 -0.1616312 -0.3217837 
1.630177 1.284215 0.9972534 5.81219 -0.3695526 -0.8627304 
1.532051 1.11188 0.7190247 1.829927 1.208548 -1.820419 
1.568382 1.323747 0.9008026 3.77547 2.076097 -4.15718 
1.383507 1.157079 0.6873627 -0.1381108 1.967613 -2.021039 
1.455709 1.356055 0.8766937 -0.2469932 3.730247 -4.654632 
1.419703 1.559602 1.141968 -5.027591 2.0558 1.551357 
1.433582 1.550349 1.048782 -4.389461 2.92777 -2.7913 
1.478016 1.558742 1.218964 -2.569722 1.045727 4.657631 
1.574806 1.547997 1.233948 1.259114 0.1486293 5.197817 
1.653053 1.535591 1.178421 4.50022 -0.2928094 2.693677 
1.657619 1.533068 1.055801 5.292732 0.2873008 -1.923921 
1.607138 1.528323 1.008652 2.826643 1.622811 -5.200403 
1.511049 1.538209 0.9937592 -0.9611739 2.653513 -5.353525 
1.494465 1.709705 1.125229 -4.063721 3.467308 0.9855027 
1.505787 1.708687 1.066223 -3.573974 3.211464 -2.587395 
1.530163 1.704897 1.17598 -1.985511 3.217966 3.888343 
1.593197 1.696937 1.186111 1.431671 2.641754 4.478757 
1.644232 1.690793 1.149323 4.281159 1.944393 2.126703 
1.646999 1.690982 1.06987 4.547369 1.759089 -1.827675 
1.614592 1.695231 1.041138 2.46308 2.13766 -4.6022 
1.554823 1.702774 1.032181 -0.7613336 2.580402 -4.756528 
1.588169 1.775207 1.097763 0.4827921 3.057307 -0.2132545 
-1.02747 0.4492884 1.751579 -5.088149 -3.203863 1.306602 
-0.862072 -0.04633856 1.541328 -3.267122 -4.430942 0.6267826 
-0.6207924 -0.1758523 2.059639 -3.718264 -4.66616 -0.1091941 
-0.8009186 0.07906342 2.214851 -5.347393 -2.902468 0.6903664 
-0.8641701 0.4553506 2.307457 -3.616194 1.70306 3.426842 
-1.254807 0.8736598 2.01992 -2.195628 1.034985 2.78061 
-0.6453419 -0.144176 2.747673 -5.069136 -3.193633 0.1975355 
-0.7595673 0.3899112 2.915031 -2.973665 2.320446 1.230095 
-0.3063221 -0.4547915 2.554504 -3.734578 -4.96415 -0.2254877 
-0.5816135 -0.2140479 3.227638 -5.072136 -3.274732 -0.5111759 
-0.6996765 0.2343702 3.277168 -3.668539 2.29245 0.8281199 
-0.2008152 -0.5236616 3.157494 -3.106621 -5.365167 0.1859635 
-0.7059402 0.198843 3.569237 -3.634255 2.815565 -0.05695954 
-0.6821632 -0.2200193 3.604927 -4.49251 -2.946593 -0.6486592 
-0.2407017 -0.4471221 3.621017 -2.0312 -5.492219 1.729555 
-0.7481976 -0.1718688 3.935402 -3.674438 -2.786012 1.046983 
-0.8151779 0.07875347 3.966301 -2.911947 1.20264 1.083274 
-0.3233242 -0.1080813 4.122368 0.2599359 -1.982119 5.143719 
-0.5576515 -0.1264038 4.180481 -0.8272301 -1.156843 3.354809 
-0.002439499 -0.616766 3.188667 -1.246305 -2.716256 0.2525218 
-0.002445221 -0.5236273 3.643135 -0.9846926 -2.57622 1.031283 
-0.3302574 0.2406359 4.045784 -0.7279614 3.930875 2.754945 
-1.41828 0.7079654 1.140968 -5.376714 -2.921731 1.252623 
-1.214792 0.05309796 0.8658676 -3.813271 -4.061129 1.278937 
-1.559834 0.9559224 1.669823 -2.678384 0.6134445 1.194007 
-1.355055 0.05444241 0.3657455 -4.090051 -3.522174 0.9589655 
-1.486862 0.6835184 0.4657669 -6.068925 -1.406415 -0.2676173 
-1.611567 1.181011 0.5970535 -3.807661 2.596267 -0.6579535 
-1.720068 1.09158 0.9581223 -3.160568 0.9702032 0.6901225 
-1.46682 0.7030218 -0.02385712 -6.239868 -0.2732761 0.4773031 
-1.462273 0.01746035 0.01270294 -3.76195 -2.764856 0.7687528 
-1.463442 1.168173 -0.0200882 -4.235402 3.222294 -0.2293092 
-1.51392 0.5924094 -0.4931259 -6.166812 -0.9629096 0.4787445 
-1.338633 -0.1318285 -0.5923843 -4.670287 -3.365683 0.5917581 
-1.571383 1.0979 -0.5199966 -4.447769 1.890132 1.820696 
-1.26252 -0.3770192 -1.2118 -4.946806 -3.412213 0.6054605 
-1.610073 0.6293359 -1.18502 -6.044661 -1.473803 0.6002221 
-1.669481 0.9624372 -1.212151 -6.013759 -1.629491 0.625543 
-1.833506 1.550383 -0.841011 -2.437838 -0.3721793 3.701468 
-1.858932 1.439845 -1.261665 -5.53592 -2.859806 0.2139481 
-1.403584 -0.1935849 -1.870262 -4.163029 -3.78474 0.1650647 
-1.64209 0.5325594 -1.86869 -6.093635 -1.191208 0.4832479 
-1.681503 0.9264088 -1.77375 -5.625888 0.496861 -0.9170909 
-1.830105 1.455262 -1.548393 -4.382699 -0.5092772 -3.368896 
-1.988056 1.879376 -0.8351822 -1.111164 0.9518342 1.111427 
-2.032665 1.673759 -1.166862 -3.815877 0.3883023 -0.2892333 
-1.960999 1.69939 -1.461861 -2.930682 1.482201 -1.645947 
-1.658672 1.364078 -2.385445 -2.934833 3.031849 1.336319 
-1.808121 0.3489604 -3.042976 -5.677521 -1.190172 -0.04027037 
-1.385746 -0.5347013 -3.137428 -2.723425 -4.003604 -0.3383164 
-1.712006 1.315332 -3.809563 -3.366286 2.42392 -1.507653 
-1.660721 0.9492607 -4.023781 -3.588281 0.2350626 -3.402088 
-1.41111 -0.1063294 -3.931755 -2.781352 -2.567775 -3.032291 
-1.081669 -0.2826912 -0.5353928 1.437637 -2.404557 1.07193 
-1.017277 -0.6276889 -1.174492 0.6308454 -1.620775 0.3095346 
-1.148159 -0.0437963 0.007423401 2.671041 -3.313893 0.7017602 
-1.119453 -0.03773665 0.2506027 2.224834 -2.790221 -0.07656725 
-1.034645 -0.01950693 0.803154 1.885628 -2.867843 -0.5485789 
-0.7115688 -0.05196047 1.405006 2.481894 -2.274277 -1.525004 
-0.4439354 -0.2282739 2.028175 1.99163 -2.431315 -2.406786 
-0.1469555 -0.5537276 2.534325 -0.3862342 -3.440964 -2.391017 
-0.4108906 0.5557225 2.269394 2.559969 3.262892 -0.8347141 
-0.8645802 1.04825 1.841393 2.091613 3.166614 1.033592 
-0.4156494 0.4372945 2.816406 0.8048202 5.80539 1.652834 
-0.3653736 0.289537 3.20874 0.4607637 6.078997 1.159452 
-0.3158112 0.2782478 3.664948 0.09553099 5.996223 0.4930745 
-0.9984093 1.183189 1.47126 1.911445 3.506954 0.1183784 
-1.110056 1.204467 1.102882 2.583283 3.664058 0.153355 
-1.525282 1.064608 1.278709 -3.824106 2.542724 1.308132 
-1.147076 1.308771 0.8209 1.983991 3.078641 0.2581213 
-1.196325 1.32087 0.4212265 1.876987 3.33146 -0.06821656 
-1.048216 1.308032 -0.1959152 2.012643 2.466997 -0.07803694 
-1.156164 1.23776 -0.6958084 3.798336 2.965453 0.6295019 
-1.418295 1.690242 -1.016823 3.802988 3.071359 1.965567 
-1.414879 1.595121 -1.72422 1.580183 1.957727 -2.748558 
-1.266277 1.066268 -1.949562 4.050828 3.126705 0.05182532 
-1.572838 2.019235 -1.011009 0.7908428 1.974617 0.4599177 
-1.617439 1.813619 -1.34269 1.151907 5.323547 -1.014575 
-1.545773 1.839249 -1.637688 0.6281104 1.803725 -1.177968 
-1.243446 1.503937 -2.561272 1.783538 3.203887 0.7845287 
-1.296772 1.455192 -3.985374 0.7218778 2.338032 -1.576633 
-0.7987328 -0.292495 -1.932259 2.871609 -1.62577 0.4594028 
-0.7809029 -0.6336105 -3.199425 1.847335 -2.209695 -0.2412006 
-1.101753 0.9956716 -4.236519 1.381445 0.8954445 -2.154093 
-0.7672577 -0.06353307 -4.16024 1.479845 -0.7659865 -1.747391 
-0.3011436 0.03659678 3.852791 2.402058 0.5441993 1.486541 
-0.324728 0.1644912 3.712685 2.091434 1.935871 -0.04384133 
-0.5099106 0.3767934 3.996101 4.695011 3.573356 -0.1012456 
-0.5122528 0.3236151 4.086723 4.906256 1.125401 3.114528 
-0.3909187 -0.1020961 3.933441 1.168897 -0.8995556 2.330634 
-0.6064796 0.2430654 4.174095 1.806084 -1.533974 4.962784 
-0.5416965 -0.1703753 3.905289 -0.9070302 -1.642264 1.931909 
-0.6898136 0.2039442 4.149483 -2.343996 -2.815985 4.156624 
-0.6637993 -0.1278296 3.784309 -2.439781 -1.19585 0.6121861 
-0.7604179 0.206728 4.041298 -5.276368 -2.102252 1.223131 
-0.6850395 0.0003933907 3.642998 -2.68731 0.0763557 -0.7997147 
-0.7537174 0.2591009 3.914833 -5.664296 0.215597 -2.023408 
-0.5943832 0.1391015 3.565353 -1.592031 1.540903 -1.571588 
-0.6810055 0.3297682 3.846687 -3.138907 3.132659 -3.980883 
-0.4461575 0.2073779 3.595306 0.3850531 2.376353 -1.268371 
-0.5820198 0.3732395 3.866051 1.274671 4.762727 -3.234591 
-0.63027 0.5585003 4.116707 5.206246 2.987165 -0.6798643 
-0.6398888 0.5433087 4.210686 4.685721 1.372236 3.076043 
-0.70191 0.5210586 4.265907 1.233567 -0.1573422 5.10554 
-0.7801876 0.5046897 4.249168 -2.901721 -1.039496 4.339252 
-0.8287601 0.5056295 4.171089 -5.391255 -0.7950603 1.144298 
-0.8058147 0.5353875 4.05378 -4.903547 0.8259715 -2.888034 
-0.7561131 0.5441003 4.023003 -1.687898 2.849656 -5.088951 
-0.6783676 0.5595846 4.039406 2.519819 3.65545 -4.01394 
-0.7087631 0.7431049 4.156532 4.305573 3.397899 -0.6176983 
-0.7123203 0.7300982 4.210106 3.710595 2.850845 2.717203 
-0.747303 0.7130561 4.242912 0.6775485 1.996909 4.742391 
-0.7935677 0.7024441 4.233131 -3.097146 1.343282 4.181879 
-0.8222523 0.7048755 4.186897 -5.199244 1.244453 1.18481 
-0.8086987 0.7239923 4.118416 -4.332967 2.004161 -2.401592 
-0.7803211 0.7352142 4.103401 -1.452349 3.05203 -4.321462 
-0.736578 0.7451181 4.113228 2.057975 3.438721 -3.475254 
-0.7754745 0.7935789 4.176155 -0.5497087 2.727742 0.3609848 
-1.057001 0.948261 1.527367 2.434791 1.084818 0.4547544 
-1.135057 1.019782 1.414146 1.505061 2.019607 -1.122512 
-1.249161 1.239077 1.650475 3.389883 4.089932 -2.380337 
-1.215305 1.211569 1.736168 5.155586 2.369879 1.170424 
-1.099253 0.8518538 1.639915 1.996054 -0.2265721 1.874617 
-1.27564 1.154379 1.861992 3.510168 -0.3187585 4.346539 
-1.237823 0.7866056 1.68438 0.3224653 -1.402519 2.454192 
-1.365257 1.110206 1.882591 -0.00506562 -2.202087 5.182426 
-1.390474 0.7910252 1.633812 -1.706787 -1.580504 1.702756 
-1.473654 1.085672 1.82093 -3.7124 -2.646808 3.349507 
-1.466719 0.8626807 1.518791 -2.81383 -0.5561168 -0.04712716 
-1.513626 1.104998 1.703514 -5.762217 -1.166523 -0.3032678 
-1.422846 0.9597075 1.40815 -2.146325 1.018722 -1.56582 
-1.468695 1.156472 1.604408 -4.412839 1.701817 -3.653792 
-1.286175 1.025175 1.365944 -0.3109252 2.058 -1.910135 
-1.364759 1.20418 1.572182 -0.6850866 3.933146 -4.436194 
-1.351551 1.391597 1.752525 3.659452 3.634155 -3.021927 
-1.329077 1.398384 1.844414 4.835856 2.685425 1.161698 
-1.378099 1.386497 1.926125 2.857954 1.196804 4.434515 
-1.47039 1.362602 1.94912 -0.7458486 -0.2647178 5.293973 
-1.551802 1.342633 1.900261 -4.130044 -1.056449 3.101725 
-1.569254 1.345034 1.778679 -5.445035 -0.3963246 -1.376569 
-1.523912 1.349019 1.726997 -3.513784 1.434806 -4.81762 
-1.432192 1.37197 1.704109 0.08984238 2.999538 -5.255443 
-1.44306 1.538091 1.785576 2.850503 3.792897 -2.732167 
-1.425653 1.537928 1.843254 3.653752 3.960347 0.7756158 
-1.454676 1.526253 1.896629 1.928507 3.291157 3.853701 
-1.514595 1.509724 1.911903 -1.308981 2.205672 4.744945 
-1.568031 1.498651 1.879585 -4.260648 1.214606 2.65121 
-1.579397 1.502036 1.800896 -4.893231 1.17144 -1.26583 
-1.551155 1.511743 1.769676 -3.161396 1.97249 -4.218091 
-1.494259 1.527385 1.755836 -0.04688883 2.871636 -4.651404 
-1.530195 1.591779 1.828224 -0.8991294 2.952168 0.01237947 
-1.185057 1.061673 0.8733902 2.509115 0.7667143 0.6598923 
-1.240171 1.135622 0.7501297 1.856852 1.732488 -1.050387 
-1.344559 1.380666 0.964119 4.118596 3.455252 -2.195584 
-1.323854 1.3542 1.05378 5.297832 1.70031 1.607725 
-1.252142 0.978132 0.985466 1.767215 -0.3936752 2.085281 
-1.40436 1.312499 1.175545 3.01609 -0.5515654 4.69994 
-1.402746 0.9335191 1.019173 -0.09659109 -1.2926 2.536037 
-1.501225 1.281216 1.189323 -0.772566 -1.879952 5.250569 
-1.547493 0.9540675 0.9539566 -2.058015 -1.231102 1.583269 
-1.605461 1.266927 1.118645 -4.332251 -1.915544 3.060944 
-1.600605 1.027816 0.8290787 -2.841135 -0.1617678 -0.3216813 
-1.630177 1.284215 0.9972458 -5.812184 -0.3694874 -0.8627528 
-1.532051 1.11188 0.719017 -1.829896 1.208495 -1.820375 
-1.568382 1.323747 0.900795 -3.775427 2.076247 -4.15711 
-1.383507 1.157079 0.687355 0.1381562 1.967558 -2.020973 
-1.455706 1.356055 0.8766861 0.2470464 3.730358 -4.654511 
-1.433582 1.550349 1.04879 4.389464 2.927818 -2.79119 
-1.419706 1.559602 1.141975 5.027687 2.055799 1.551427 
-1.478016 1.558742 1.218971 2.569785 1.045701 4.657568 
-1.574806 1.547997 1.233955 -1.259447 0.1486848 5.197496 
-1.653053 1.535591 1.178413 -4.500543 -0.2927349 2.693496 
-1.657619 1.533068 1.055809 -5.292682 0.287388 -1.923909 
-1.607134 1.528323 1.008659 -2.826627 1.622901 -5.200456 
-1.511053 1.538209 0.9937668 0.9611129 2.653572 -5.353537 
-1.505787 1.708687 1.066216 3.573642 3.211071 -2.587606 
-1.494465 1.709705 1.125237 4.063803 3.467358 0.9854956 
-1.530155 1.704897 1.175987 1.985122 3.217844 3.888049 
-1.593197 1.696937 1.186104 -1.432445 2.642016 4.478762 
-1.644228 1.690793 1.149315 -4.281288 1.944447 2.1268 
-1.646999 1.690982 1.069878 -4.547775 1.758968 -1.827262 
-1.614588 1.695231 1.04113 -2.462888 2.137278 -4.601878 
-1.554819 1.702774 1.032188 0.761797 2.580497 -4.757069 
-1.588169 1.775207 1.097755 -0.4828458 3.057225 -0.2134007 
3 0 1 2 
3 0 2 3 
3 1 0 4 
3 1 4 5 
3 5 6 7 
3 5 7 1 
3 1 7 8 
3 1 8 2 
3 7 6 9 
3 7 9 10 
3 11 8 7 
3 11 7 10 
3 12 13 10 
3 12 10 9 
3 11 10 13 
3 11 13 14 
3 15 12 16 
3 17 14 18 
3 11 14 19 
3 11 19 20 
3 21 19 14 
3 21 14 17 
3 21 17 22 
3 21 22 23 
3 3 24 25 
3 3 25 0 
3 0 26 4 
3 27 28 25 
3 27 25 24 
3 29 30 28 
3 31 28 27 
3 31 27 32 
3 33 29 28 
3 33 28 31 
3 34 31 32 
3 34 32 35 
3 36 33 31 
3 36 31 34 
3 37 38 34 
3 37 34 35 
3 39 36 34 
3 39 34 38 
3 40 36 39 
3 40 39 41 
3 42 43 38 
3 42 38 37 
3 44 39 38 
3 44 38 43 
3 41 39 44 
3 41 44 45 
3 40 41 46 
3 40 46 47 
3 45 48 46 
3 45 46 41 
3 49 44 43 
3 49 43 50 
3 43 42 51 
3 43 51 50 
3 52 49 50 
3 50 53 54 
3 55 56 37 
3 55 37 35 
3 35 32 57 
3 35 57 55 
3 58 57 32 
3 58 32 27 
3 59 58 27 
3 59 27 24 
3 60 59 24 
3 60 24 3 
3 3 2 61 
3 3 61 60 
3 62 61 2 
3 62 2 8 
3 8 11 20 
3 8 20 62 
3 22 18 16 
3 5 4 63 
3 5 63 64 
3 6 5 64 
3 6 64 65 
3 9 6 65 
3 9 65 66 
3 12 9 66 
3 12 66 67 
3 16 12 67 
3 68 26 69 
3 68 69 70 
3 71 30 29 
3 71 29 72 
3 29 33 73 
3 29 73 72 
3 33 36 74 
3 33 74 73 
3 36 40 75 
3 36 75 74 
3 45 44 76 
3 45 76 77 
3 47 46 78 
3 47 78 79 
3 40 47 79 
3 40 79 75 
3 48 45 77 
3 48 77 80 
3 46 48 80 
3 46 80 78 
3 44 49 81 
3 44 81 76 
3 49 52 82 
3 49 82 81 
3 22 16 67 
3 42 37 56 
3 42 56 83 
3 51 42 83 
3 51 83 84 
3 52 54 85 
3 52 85 82 
3 53 51 84 
3 53 84 86 
3 54 53 86 
3 54 86 85 
3 4 26 68 
3 4 68 63 
3 69 26 25 
3 25 26 0 
3 69 30 71 
3 69 71 70 
3 25 30 69 
3 28 30 25 
3 13 12 15 
3 22 17 18 
3 16 18 15 
3 18 14 15 
3 15 14 13 
3 62 20 87 
3 65 64 88 
3 65 88 89 
3 66 65 89 
3 66 89 90 
3 67 66 90 
3 67 90 91 
3 22 92 23 
3 22 67 91 
3 22 91 92 
3 62 87 88 
3 62 88 64 
3 64 63 61 
3 64 61 62 
3 63 68 60 
3 63 60 61 
3 68 70 60 
3 59 60 70 
3 59 70 71 
3 71 72 58 
3 71 58 59 
3 72 73 57 
3 72 57 58 
3 55 57 73 
3 55 73 74 
3 77 76 74 
3 77 74 75 
3 79 78 75 
3 80 77 78 
3 78 77 75 
3 74 76 56 
3 74 56 55 
3 83 56 76 
3 84 83 76 
3 84 76 81 
3 81 82 86 
3 81 86 84 
3 82 85 86 
3 93 94 95 
3 93 95 96 
3 97 98 94 
3 97 94 93 
3 99 100 98 
3 99 98 97 
3 101 102 100 
3 101 100 99 
3 103 104 102 
3 103 102 101 
3 105 106 104 
3 105 104 103 
3 107 108 106 
3 107 106 105 
3 96 95 108 
3 96 108 107 
3 94 109 110 
3 94 110 95 
3 98 111 109 
3 98 109 94 
3 100 112 111 
3 100 111 98 
3 102 113 112 
3 102 112 100 
3 104 114 113 
3 104 113 102 
3 106 115 114 
3 106 114 104 
3 108 116 115 
3 108 115 106 
3 95 110 116 
3 95 116 108 
3 109 117 118 
3 109 118 110 
3 111 119 117 
3 111 117 109 
3 112 120 119 
3 112 119 111 
3 113 121 120 
3 113 120 112 
3 114 122 121 
3 114 121 113 
3 115 123 122 
3 115 122 114 
3 116 124 123 
3 116 123 115 
3 110 118 124 
3 110 124 116 
3 118 117 125 
3 117 119 125 
3 119 120 125 
3 120 121 125 
3 121 122 125 
3 122 123 125 
3 123 124 125 
3 124 118 125 
3 126 127 128 
3 126 128 129 
3 130 131 127 
3 130 127 126 
3 132 133 131 
3 132 131 130 
3 134 135 133 
3 134 133 132 
3 136 137 135 
3 136 135 134 
3 138 139 137 
3 138 137 136 
3 140 141 139 
3 140 139 138 
3 129 128 141 
3 129 141 140 
3 127 142 128 
3 131 142 127 
3 133 142 131 
3 135 142 133 
3 137 142 135 
3 139 142 137 
3 141 142 139 
3 128 142 141 
3 143 144 145 
3 143 145 146 
3 147 148 144 
3 147 144 143 
3 149 150 148 
3 149 148 147 
3 151 152 150 
3 151 150 149 
3 153 154 152 
3 153 152 151 
3 155 156 154 
3 155 154 153 
3 157 158 156 
3 157 156 155 
3 146 145 158 
3 146 158 157 
3 144 159 160 
3 144 160 145 
3 148 161 159 
3 148 159 144 
3 150 162 161 
3 150 161 148 
3 152 163 162 
3 152 162 150 
3 154 164 163 
3 154 163 152 
3 156 165 164 
3 156 164 154 
3 158 166 165 
3 158 165 156 
3 145 160 166 
3 145 166 158 
3 159 167 168 
3 159 168 160 
3 161 169 167 
3 161 167 159 
3 162 170 169 
3 162 169 161 
3 163 171 170 
3 163 170 162 
3 164 172 171 
3 164 171 163 
3 165 173 172 
3 165 172 164 
3 166 174 173 
3 166 173 165 
3 160 168 174 
3 160 174 166 
3 168 167 175 
3 167 169 175 
3 169 170 175 
3 170 171 175 
3 171 172 175 
3 172 173 175 
3 173 174 175 
3 174 168 175 
3 50 51 53 
3 52 50 54 
3 176 177 178 
3 176 178 179 
3 179 180 181 
3 179 181 176 
3 180 179 182 
3 180 182 183 
3 179 178 184 
3 179 184 182 
3 182 185 186 
3 182 186 183 
3 187 185 182 
3 187 182 184 
3 188 186 185 
3 188 185 189 
3 187 190 189 
3 187 189 185 
3 191 192 188 
3 193 194 190 
3 187 195 196 
3 187 196 190 
3 21 193 190 
3 21 190 196 
3 21 23 197 
3 21 197 193 
3 177 176 198 
3 177 198 199 
3 176 181 200 
3 201 199 198 
3 201 198 202 
3 203 202 204 
3 205 206 201 
3 205 201 202 
3 207 205 202 
3 207 202 203 
3 208 209 206 
3 208 206 205 
3 210 208 205 
3 210 205 207 
3 211 209 208 
3 211 208 212 
3 213 212 208 
3 213 208 210 
3 214 215 213 
3 214 213 210 
3 216 211 212 
3 216 212 217 
3 218 217 212 
3 218 212 213 
3 215 219 218 
3 215 218 213 
3 214 220 221 
3 214 221 215 
3 219 215 221 
3 219 221 222 
3 223 224 217 
3 223 217 218 
3 217 224 225 
3 217 225 216 
3 226 224 223 
3 224 227 228 
3 229 209 211 
3 229 211 230 
3 209 229 231 
3 209 231 206 
3 232 201 206 
3 232 206 231 
3 233 199 201 
3 233 201 232 
3 234 177 199 
3 234 199 233 
3 177 234 235 
3 177 235 178 
3 236 184 178 
3 236 178 235 
3 184 236 195 
3 184 195 187 
3 197 192 194 
3 180 237 238 
3 180 238 181 
3 183 239 237 
3 183 237 180 
3 186 240 239 
3 186 239 183 
3 188 241 240 
3 188 240 186 
3 192 241 188 
3 242 243 244 
3 242 244 200 
3 245 246 203 
3 245 203 204 
3 203 246 247 
3 203 247 207 
3 207 247 248 
3 207 248 210 
3 210 248 249 
3 210 249 214 
3 219 250 251 
3 219 251 218 
3 220 252 253 
3 220 253 221 
3 214 249 252 
3 214 252 220 
3 222 254 250 
3 222 250 219 
3 221 253 254 
3 221 254 222 
3 218 251 255 
3 218 255 223 
3 223 255 256 
3 223 256 226 
3 197 241 192 
3 216 257 230 
3 216 230 211 
3 225 258 257 
3 225 257 216 
3 226 256 259 
3 226 259 227 
3 228 260 258 
3 228 258 225 
3 227 259 260 
3 227 260 228 
3 181 238 242 
3 181 242 200 
3 244 198 200 
3 198 176 200 
3 244 243 245 
3 244 245 204 
3 198 244 204 
3 202 198 204 
3 189 191 188 
3 197 194 193 
3 192 191 194 
3 194 191 190 
3 191 189 190 
3 236 87 195 
3 239 89 88 
3 239 88 237 
3 240 90 89 
3 240 89 239 
3 241 91 90 
3 241 90 240 
3 197 23 92 
3 197 92 91 
3 197 91 241 
3 236 237 88 
3 236 88 87 
3 237 236 235 
3 237 235 238 
3 238 235 234 
3 238 234 242 
3 242 234 243 
3 233 245 243 
3 233 243 234 
3 245 233 232 
3 245 232 246 
3 246 232 231 
3 246 231 247 
3 229 248 247 
3 229 247 231 
3 250 249 248 
3 250 248 251 
3 252 249 253 
3 254 253 250 
3 253 249 250 
3 248 229 230 
3 248 230 251 
3 257 251 230 
3 258 255 251 
3 258 251 257 
3 255 258 260 
3 255 260 256 
3 256 260 259 
3 261 262 263 
3 261 263 264 
3 265 261 264 
3 265 264 266 
3 267 265 266 
3 267 266 268 
3 269 267 268 
3 269 268 270 
3 271 269 270 
3 271 270 272 
3 273 271 272 
3 273 272 274 
3 275 273 274 
3 275 274 276 
3 262 275 276 
3 262 276 263 
3 264 263 277 
3 264 277 278 
3 266 264 278 
3 266 278 279 
3 268 266 279 
3 268 279 280 
3 270 268 280 
3 270 280 281 
3 272 270 281 
3 272 281 282 
3 274 272 282 
3 274 282 283 
3 276 274 283 
3 276 283 284 
3 263 276 284 
3 263 284 277 
3 278 277 285 
3 278 285 286 
3 279 278 286 
3 279 286 287 
3 280 279 287 
3 280 287 288 
3 281 280 288 
3 281 288 289 
3 282 281 289 
3 282 289 290 
3 283 282 290 
3 283 290 291 
3 284 283 291 
3 284 291 292 
3 277 284 292 
3 277 292 285 
3 285 293 286 
3 286 293 287 
3 287 293 288 
3 288 293 289 
3 289 293 290 
3 290 293 291 
3 291 293 292 
3 292 293 285 
3 294 295 296 
3 294 296 297 
3 298 294 297 
3 298 297 299 
3 300 298 299 
3 300 299 301 
3 302 300 301 
3 302 301 303 
3 304 302 303 
3 304 303 305 
3 306 304 305 
3 306 305 307 
3 308 306 307 
3 308 307 309 
3 295 308 309 
3 295 309 296 
3 297 296 310 
3 297 310 311 
3 299 297 311 
3 299 311 312 
3 301 299 312 
3 301 312 313 
3 303 301 313 
3 303 313 314 
3 305 303 314 
3 305 314 315 
3 307 305 315 
3 307 315 316 
3 309 307 316 
3 309 316 317 
3 296 309 317 
3 296 317 310 
3 311 310 318 
3 311 318 319 
3 312 311 319 
3 312 319 320 
3 313 312 320 
3 313 320 321 
3 314 313 321 
3 314 321 322 
3 315 314 322 
3 315 322 323 
3 316 315 323 
3 316 323 324 
3 317 316 324 
3 317 324 325 
3 310 317 325 
3 310 325 318 
3 318 326 319 
3 319 326 320 
3 320 326 321 
3 321 326 322 
3 322 326 323 
3 323 326 324 
3 324 326 325 
3 325 326 318 
3 327 328 329 
3 327 329 330 
3 331 327 330 
3 331 330 332 
3 333 331 332 
3 333 332 334 
3 335 333 334 
3 335 334 336 
3 337 335 336 
3 337 336 338 
3 339 337 338 
3 339 338 340 
3 341 339 340 
3 341 340 342 
3 328 341 342 
3 328 342 329 
3 330 329 343 
3 330 343 344 
3 332 330 344 
3 332 344 345 
3 334 332 345 
3 334 345 346 
3 336 334 346 
3 336 346 347 
3 338 336 347 
3 338 347 348 
3 340 338 348 
3 340 348 349 
3 342 340 349 
3 342 349 350 
3 329 342 350 
3 329 350 343 
3 344 343 351 
3 344 351 352 
3 345 344 352 
3 345 352 353 
3 346 345 353 
3 346 353 354 
3 347 346 354 
3 347 354 355 
3 348 347 355 
3 348 355 356 
3 349 348 356 
3 349 356 357 
3 350 349 357 
3 350 357 358 
3 343 350 358 
3 343 358 351 
3 351 359 352 
3 352 359 353 
3 353 359 354 
3 354 359 355 
3 355 359 356 
3 356 359 357 
3 357 359 358 
3 358 359 351 
3 224 228 225 
3 226 227 224 
