ply
format ascii 1.0
comment VCGLIB generated
element vertex 206
property float x
property float y
property float z
property float nx
property float ny
property float nz
element face 408
property list uchar int vertex_indices
end_header
1.171677 0.027855 4.999467 -0.09487148 3.047939 3.811027 
1.255577 0.048735 4.920739 -0.01963509 5.844535 2.172999 
0.5077972 -5.999953e-05 4.999269 0.03238248 5.617496 1.70562 
1.347641 -8.999929e-05 4.999307 0.164815 -2.015802 2.930424 
1.78146 0.047035 4.954309 -0.1713501 2.037843 5.405929 
2.54652 0.046925 4.896111 -1.578617 4.257333 2.772113 
2.36565 0.03795 4.998597 0.6208327 2.04016 3.883285 
2.503471 -0.0001350008 4.999337 0.3804151 -0.5098426 1.649673 
3.090931 0.046995 4.90767 -0.04521324 4.724326 3.332479 
3.066391 0.02808 4.999978 -0.09056291 3.018217 3.699482 
4.31234 0.0474 4.897531 -0.001127527 4.33285 3.201716 
3.730461 0.028075 4.999978 0.00275187 2.987208 3.822071 
4.101547 0.037725 4.999429 -0.07121912 3.141955 3.269317 
3.749977 -6.99982e-05 4.999269 0.01567103 -3.215485 3.158447 
4.999977 0.03731 4.999978 1.656704 1.565492 1.664045 
5 -5.551115e-16 5.000001 1.571262 -1.565553 1.568725 
0.04808044 0.04592 4.949441 -1.98913 4.669413 2.147682 
2.288818e-05 7.500872e-06 4.999955 -0.6383911 -0.1984126 0.6542092 
3.183578 -0.003125001 4.999269 -0.005623571 -3.212952 3.126124 
2.27483 0.083115 4.980363 0.2580746 3.83855 3.046708 
1.747589 0.08592 4.954309 -0.1988091 2.958097 3.304585 
0.8799591 0.09803 4.915421 0.1827233 4.591253 2.768274 
0.5395966 0.0883 4.938973 0.005797416 3.005716 3.651797 
1.264179 0.0953 4.809342 0.03665137 6.106425 1.019017 
3.72834 0.046965 4.916093 0.04089035 5.036067 3.142904 
4.64835 -0.00324 3.378907 0.005852263 -6.283165 0.007874196 
4.99926 -5.999953e-05 4.726548 3.167351 -3.097976 -0.01243067 
0.2071304 0.09817 4.845201 -0.2277559 6.069894 1.096968 
0.04916 0.095605 4.827973 -2.85423 3.282517 0.6199071 
2.352573 0.1134032 4.783326 1.953221 4.224869 0.4352487 
3.701439 0.09626999 4.877572 -0.007694069 5.050711 2.496588 
4.936028 0.0472 4.897271 1.371701 5.782989 1.215773 
1.132797 -0.00324 0.8984233 -0.005368397 -6.283176 -0.0007486338 
4.87307 0.098105 4.87613 0.8121818 4.125877 2.426547 
3.057098 0.086335 4.883157 0.02791208 4.846231 2.720319 
2.543968 0.08212 4.898187 -1.581845 1.368667 1.503682 
4.934227 0.07692 4.833901 3.813504 2.875674 0.1640043 
2.803089 0.088035 4.842492 -0.04322192 6.272924 0.2904381 
0.02880096 0.04051 4.101716 -5.374911 3.214788 -0.1569243 
2.56076 0.05699 4.292336 -1.948 5.796445 -0.151715 
3.193943 0.09626501 4.428323 -0.01901702 6.282744 0.05420757 
4.997948 0.037305 4.550797 3.634536 3.212389 -0.01244013 
2.630791 0.09786999 4.251328 -1.630609 5.809988 -0.1356015 
0.04930878 0.095605 4.210908 -2.966051 4.232731 -0.06281149 
4.739899 0.098175 4.502343 0.08718529 6.280761 0.0573046 
3.720787 0.097765 3.837907 0.000960134 6.283142 -0.006012196 
2.24057 0.0908 4.454942 -0.5426468 6.233851 -0.01537474 
2.379589 0.1154397 4.346566 1.987457 4.716359 0.01163391 
4.91544 0.09789 4.41855 2.897799 4.311831 0.05523434 
2.429779 0.04443 4.255708 2.256196 4.939766 0.06204779 
4.99926 -5.999953e-05 4.101548 1.987854 -0.6890283 -0.03757024 
4.935638 0.047245 4.09855 4.738947 3.654254 0.00586604 
1.17939 0.09542499 3.820329 0.0139254 6.283101 0.0180474 
4.91835 0.09804501 3.880517 2.628017 4.856745 0.1375337 
2.667931 0.075105 3.474862 -1.392991 6.101583 0.2210608 
2.42971 0.04648 3.888612 2.249435 5.291777 -0.02426108 
0.0007095337 -5.999953e-05 3.554673 -2.307077 -1.000459 0.04764749 
5 -0.003125001 3.164048 2.797282 -1.714164 0.02625765 
0.04979706 0.045545 3.822389 -3.336248 5.296472 -0.1872503 
0.1566086 0.095595 3.820802 -1.177269 6.049766 -0.06849572 
2.907997 0.09773999 3.568841 -0.1958418 6.275917 0.01307489 
2.558029 0.04232 3.631082 -0.8395816 6.122205 -0.04594111 
2.38459 0.09238663 3.882195 2.192878 5.396272 0.02870207 
4.868568 0.09817 3.58764 1.29812 6.00461 -0.0681145 
4.974709 0.04641 3.57129 4.229773 4.234715 -0.05036974 
3.587242 0.09820999 3.248368 0.009191843 6.282865 0.04933824 
0.1474686 0.09807 2.980508 -0.4844388 6.24388 -0.01650473 
0.0007095337 -0.003125001 2.792947 -3.038798 -2.435892 0.09724595 
0.0936203 0.08699 3.505868 -2.688486 5.351398 0.02724808 
0.0174408 0.03025 3.085923 -3.770865 4.432421 -0.01517725 
2.326653 0.095245 2.626283 0.7961113 5.646821 -1.36556 
1.134701 0.09956419 3.405412 0.007463437 6.282736 0.03534588 
3.856987 0.09532499 3.570382 0.01110644 6.282479 0.005039021 
2.420677 0.050355 3.31833 3.32399 2.978139 0.01101449 
2.557938 0.04232 3.222672 -1.438454 5.834651 0.1372028 
4.866322 0.1033275 3.305429 1.315053 5.977423 0.07386437 
2.648659 0.098175 3.24846 -1.774924 5.70672 0.3378078 
2.422169 0.09105501 3.31833 3.268997 3.066394 0.01426373 
4.976685 0.04232 3.102494 4.479491 4.171115 0.0682126 
4.886387 0.1022175 2.882867 2.037358 5.493133 -0.2104359 
1.02956 0.09811001 2.570497 -0.002249005 3.935887 -3.038829 
2.441277 0.04231 2.539071 0.3920749 6.196746 -0.2043594 
0.6964493 0.09748501 2.884957 -0.01527829 6.283123 -0.02132111 
0.099617 0.090675 2.96119 -2.981915 4.978316 -0.0595371 
0.07378006 0.045505 2.559472 -1.588769 5.566411 -1.198849 
0.4964981 0.097495 2.925401 0.0004501876 6.283083 -0.03550207 
2.621758 0.09515999 2.684503 -1.663247 5.303326 -0.990568 
2.557449 0.04232 2.596719 -0.5859369 6.149417 -0.4323438 
4.99942 0.037725 2.656228 4.278765 2.969746 -0.07230695 
0.4415703 0.09509499 2.557099 0.05591793 3.043002 -3.162839 
5 -0.002864998 2.382798 3.143796 -3.099048 -6.667283e-05 
0.09402847 0.085585 2.572137 -1.960755 3.173476 -1.932555 
0.2761192 0.09521 2.557076 -0.1062945 3.116725 -3.127631 
4.866295 0.0930125 2.580171 1.110048 5.728799 -1.104893 
4.927608 0.046425 2.473428 1.901312 5.623205 0.3727451 
3.72226 0.10868 2.572007 0.005409075 5.798683 -1.606124 
4.999519 0.037705 1.757829 3.492229 3.158574 -0.0324119 
0.0004997253 0.03776 2.480439 -3.590339 3.106312 0.2935246 
0.3497887 0.040095 2.55668 0.05022612 3.157024 -2.878606 
1.451378 0.047485 2.556428 0.1051654 4.849316 -2.644464 
1.066887 0.046745 2.478509 -0.004697103 3.437495 3.200218 
2.574509 0.0472 2.474473 -1.143197 4.592859 2.223238 
2.868439 0.04718 2.474328 0.117924 5.114098 2.053758 
0.4503403 0.045875 2.461663 -0.2593803 5.067508 2.640754 
3.6227 0.047225 2.474511 0.2558119 4.555414 0.8098263 
4.70517 0.09479 2.473001 0.09789297 3.443558 3.125382 
4.46344 0.09511 2.475427 -0.03915216 3.169517 3.154598 
4.686028 0.04525 2.478257 0.08000166 3.119722 1.691199 
3.82143 0.10818 2.393167 0.05530883 5.658785 1.832607 
3.579311 0.094395 2.447007 0.1271023 4.610161 3.404207 
4.897591 0.08755 2.462823 1.659568 3.311259 2.158993 
2.775799 0.08047999 2.465158 -0.09792075 3.953726 3.211201 
2.57402 0.095615 2.47268 -1.228695 1.693197 1.378955 
2.917561 0.09446999 2.423348 -0.05109727 5.510617 2.080062 
4.283791 0.04733 2.474008 -0.2649572 3.97119 1.382468 
1.886452 0.04768 2.436418 0.1883599 4.048325 3.070851 
4.530479 0.09794249 2.573747 0.04881052 5.911575 -1.499622 
2.141949 0.098855 2.404023 -0.04789855 5.240128 2.373971 
1.08123 0.09604 2.474999 0.04005189 3.268615 3.148677 
0.087677 0.087555 2.367829 -1.491815 5.589305 0.8726219 
1.612061 0.108225 2.368806 -0.007506828 6.242761 0.3145169 
0.2214203 0.09816 2.391953 -0.6999903 4.289713 2.805545 
0.4744186 0.09604999 2.425912 -0.2366662 5.005507 2.618474 
2.378914 0.095575 2.419557 0.2350306 5.224936 2.22718 
-1.144409e-05 0.028105 2.265611 -4.808631 2.58741 -0.1099199 
1.376617 0.09667 2.162271 0.004902802 6.279925 0.007437799 
2.528839 0.042475 2.201203 0.7481329 5.526853 0.1919764 
2.437344 0.09565 2.262788 1.411934 5.955941 0.03102043 
2.642262 0.09611499 2.128289 -1.438027 5.919076 0.2636746 
4.925667 0.0966 2.083352 2.80536 1.754725 0.1702353 
2.120449 0.098175 2.101708 0.03137906 6.282662 -0.06227387 
0.0007095337 -0.003125001 1.542947 -3.117382 -2.749993 -0.001475653 
1.157856 0.1246919 1.496591 0.1312569 6.27038 -0.008040572 
4.928829 0.045675 1.629594 2.598104 5.548698 -0.211288 
3.566238 0.1104932 1.501283 0.03040084 6.281534 -0.01355702 
2.494957 0.09576 1.939317 3.070622 3.833977 -0.1973522 
5 -0.002725001 1.093728 2.625908 -1.424057 0.1668299 
0.07170105 0.04716 1.673432 -3.303855 4.643976 0.02134693 
4.117477 0.09503999 1.739381 0.08680446 6.281418 -0.003940077 
2.57074 0.051405 1.632997 -2.952858 4.55092 0.1772632 
4.277328 -0.00324 0.3710796 0.001515419 -6.283045 -0.0228838 
1.62101 0.09535 1.888543 0.1043768 6.280555 0.02071904 
2.59161 0.098065 1.613649 -2.906348 4.399623 0.1435584 
0.09860992 0.089765 1.416947 -2.561309 5.103824 0.0600501 
4.85302 0.09814499 1.613587 1.654336 5.798447 -0.0285945 
2.480679 0.095405 1.654443 3.140259 3.261505 -0.1391554 
2.48222 0.047565 1.653627 3.023557 3.225738 -0.1244816 
0.005630493 0.03541 1.601564 -3.790992 3.497052 0.0745876 
2.070351 0.09528001 1.403657 0.004933606 6.283168 -0.00281749 
0.0741806 0.07685 0.9171077 -2.850568 5.551782 -0.03878226 
2.57431 0.09578501 0.5412837 -3.148715 3.154481 -0.03918246 
4.6689 0.098175 1.360437 0.07425304 6.27478 -0.1978923 
4.900711 0.088985 1.280923 2.726016 4.860332 -0.02254988 
2.460411 0.04231 0.9962627 2.779423 4.148382 -0.2119691 
1.428574 0.098175 0.9414378 0.1027917 6.281095 -0.09072348 
0.01882172 -0.003125001 1.289048 -0.4033518 -6.257112 -0.0260158 
4.080799 0.098175 1.225183 0.08053809 6.282405 0.005663331 
2.57378 0.04742 0.5798427 -3.150038 3.170056 0.000360593 
2.443169 0.09577499 1.004563 2.966613 4.111476 -0.2066624 
0.01882172 -0.003125001 1.113267 -0.04319722 -0.001190186 -0.06322074 
4.013832 0.098175 0.7514507 0.01935769 6.282863 -0.05347779 
4.999977 0.02807 0.8202983 3.947574 3.037912 -0.01195534 
0.0007095337 -5.999953e-05 1.210923 -3.574379 -2.434019 -0.05887416 
4.92823 0.047215 1.084848 3.252708 5.034273 -0.06901826 
0.2751007 0.098175 0.3842708 -0.02432521 6.282967 -0.01000275 
0.1408386 0.097785 0.3797694 -0.8925767 6.147212 -0.1300983 
4.87085 0.098175 0.671281 2.067405 5.485189 -0.03895536 
0.0115509 0.033545 0.7031337 -4.552613 3.708477 -0.08258381 
3.007797 -5.999953e-05 0.0007029772 0.006907179 -3.156899 -3.154277 
5 -3.725291e-09 0.4687282 1.811777 -0.5628465 -0.0104824 
1.7882 0.090545 0.1098567 -0.01616656 5.159439 -2.420116 
1.140961 0.098175 0.3016292 0.06808925 6.222681 -0.5618381 
4.928169 0.04715 0.5651866 3.467355 5.202623 -0.2169241 
2.426468 0.04752 0.5986339 3.138112 2.785868 -0.07130564 
0 -5.551115e-16 1.072884e-06 -0.7911255 -0.2146586 -0.5892808 
2.41671 0.087785 0.07910264 1.58833 2.112402 -1.801113 
4.85207 0.089165 0.1304637 1.100512 5.620507 -1.13111 
0.08136749 0.081725 0.3681422 -3.608486 4.186652 -0.21262 
2.304668 -0.003125001 1.072884e-06 0.004134235 -3.101337 -3.140108 
0.07083893 0.046955 0.07482255 -2.306214 5.568209 -0.9612499 
2.576851 0.09487 0.2228786 -3.102052 3.283536 -0.1325847 
2.574928 0.047155 0.05214798 -1.120927 5.773044 -1.547275 
0.2990685 0.09813 0.26217 -0.02753586 6.280873 -0.1032842 
0.8785515 0.095155 0.1151134 0.8784546 4.731527 -2.525633 
3.38393 0.09292001 0.1068584 0.2136112 5.938666 -1.436269 
0.1498566 0.09124 0.08001053 -0.6753479 3.042113 -2.731914 
4.984089 0.02144 0.01374161 2.12148 3.903518 -2.160187 
5 -5.551115e-16 1.072884e-06 0.9067497 -0.3787982 -0.8607846 
3.09066 0.09153999 0.05221665 0.008810822 3.329046 -3.202516 
2.630798 0.08945 0.05519211 -0.8330247 3.175936 -2.846858 
3.567169 0.0475 0.04954636 0.05548642 5.596335 -2.495115 
2.42569 0.0474 0.07369339 1.340881 5.209935 -1.746672 
0.8820686 0.047305 0.07390702 0.4814213 5.451213 -2.40414 
1.362213 0.08487999 0.1337291 -0.2072896 5.932116 -1.51406 
1.194458 0.047395 0.07369339 -0.1252572 5.816613 -2.22944 
2.031239 0.03773 0.0005503893 -3.079476e-05 3.156737 -3.552999 
3.053368 0.0475 0.04954636 -0.01250567 3.287209 -3.748225 
4.101559 0.037725 0.0005427599 -0.02880493 2.991818 -4.120036 
0.07820129 0.037705 0.0005885363 -0.6613908 3.071449 -3.135676 
1.015617 0.037755 0.0005275011 0.0661985 3.1527 -3.540131 
2.59766 0.037755 0.0004969835 -0.0198901 3.108285 -3.695879 
3.476559 0.037725 0.0005427599 9.308869e-06 3.067575 -3.756127 
0.9179611 -0.003125001 1.072884e-06 -0.006321496 -3.100631 -3.136853 
1.249989 -0.003125001 1.072884e-06 -0.4635803 -1.169951 -2.35037 
3.632797 -5.999953e-05 0.0007029772 -2.068596e-05 -3.154799 -3.168533 
1.328117 0.037755 0.0005275011 -0.2427433 3.119394 -3.509351 
3 0 1 2 
3 0 3 4 
3 5 6 7 
3 8 7 9 
3 10 11 12 
3 4 3 7 
3 6 4 7 
3 12 11 13 
3 14 12 15 
3 16 17 2 
3 0 2 3 
3 9 7 18 
3 12 13 15 
3 11 9 18 
3 13 11 18 
3 19 20 4 
3 6 19 4 
3 1 16 2 
3 8 9 11 
3 21 22 1 
3 23 20 19 
3 23 21 1 
3 22 16 1 
3 1 0 4 
3 8 5 7 
3 10 24 11 
3 25 18 7 
3 26 14 15 
3 27 28 16 
3 1 20 23 
3 29 19 6 
3 4 20 1 
3 30 24 10 
3 10 12 31 
3 14 31 12 
3 32 7 3 
3 32 25 7 
3 25 15 13 
3 22 27 16 
3 30 8 24 
3 11 24 8 
3 3 2 17 
3 13 18 25 
3 33 30 10 
3 33 10 31 
3 34 35 8 
3 35 5 8 
3 21 27 22 
3 30 34 8 
3 36 33 31 
3 34 37 35 
3 28 38 16 
3 35 39 5 
3 40 34 30 
3 41 31 14 
3 26 15 25 
3 5 39 6 
3 37 42 35 
3 41 14 26 
3 27 43 28 
3 36 44 33 
3 45 40 30 
3 35 42 39 
3 44 45 30 
3 33 44 30 
3 29 46 19 
3 34 40 37 
3 47 46 29 
3 43 38 28 
3 17 16 38 
3 48 44 36 
3 29 6 49 
3 36 31 48 
3 32 3 17 
3 40 42 37 
3 46 23 19 
3 47 29 49 
3 25 50 26 
3 39 49 6 
3 41 51 31 
3 41 26 50 
3 46 52 23 
3 48 31 51 
3 53 48 51 
3 50 51 41 
3 42 54 39 
3 52 21 23 
3 55 49 39 
3 56 32 17 
3 25 57 50 
3 43 58 38 
3 21 52 27 
3 47 49 55 
3 59 43 27 
3 60 42 40 
3 39 54 61 
3 39 61 55 
3 62 46 47 
3 63 45 44 
3 62 47 55 
3 38 56 17 
3 48 63 44 
3 59 58 43 
3 62 52 46 
3 56 38 58 
3 52 59 27 
3 53 63 48 
3 53 51 64 
3 60 54 42 
3 45 65 40 
3 50 64 51 
3 66 59 52 
3 60 40 65 
3 67 32 56 
3 66 68 59 
3 59 68 58 
3 69 56 58 
3 70 71 52 
3 63 72 45 
3 64 50 57 
3 71 66 52 
3 53 64 63 
3 61 73 55 
3 61 74 73 
3 54 74 61 
3 70 52 62 
3 64 75 63 
3 60 76 54 
3 70 62 77 
3 78 79 64 
3 69 67 56 
3 70 80 71 
3 65 76 60 
3 54 76 74 
3 74 81 73 
3 80 82 71 
3 57 78 64 
3 68 83 58 
3 66 83 68 
3 77 73 81 
3 69 58 84 
3 64 79 75 
3 85 66 71 
3 70 77 81 
3 58 83 84 
3 76 86 74 
3 87 81 74 
3 88 78 57 
3 82 85 71 
3 86 87 74 
3 82 89 85 
3 88 57 90 
3 25 90 57 
3 66 91 83 
3 85 92 66 
3 91 84 83 
3 78 93 79 
3 88 93 78 
3 89 92 85 
3 92 91 66 
3 88 94 93 
3 95 86 76 
3 95 76 65 
3 80 89 82 
3 96 88 90 
3 86 95 87 
3 69 97 67 
3 89 80 98 
3 80 70 99 
3 98 80 99 
3 99 70 81 
3 91 92 84 
3 92 89 98 
3 92 98 84 
3 100 98 99 
3 101 81 87 
3 95 102 87 
3 96 94 88 
3 97 69 84 
3 103 84 98 
3 104 102 95 
3 103 97 84 
3 102 101 87 
3 105 106 107 
3 108 109 104 
3 105 107 94 
3 110 105 94 
3 111 112 101 
3 111 101 102 
3 111 102 113 
3 106 108 114 
3 109 113 102 
3 104 109 102 
3 108 104 114 
3 106 114 107 
3 115 99 81 
3 95 114 104 
3 116 107 114 
3 116 93 107 
3 93 94 107 
3 117 118 115 
3 115 118 100 
3 103 119 97 
3 100 103 98 
3 99 115 100 
3 120 118 117 
3 121 119 103 
3 122 121 103 
3 118 122 103 
3 101 115 81 
3 123 117 115 
3 97 124 67 
3 123 115 101 
3 120 125 118 
3 112 126 101 
3 127 117 123 
3 111 126 112 
3 113 128 111 
3 127 120 117 
3 127 123 101 
3 124 97 119 
3 129 105 110 
3 127 101 126 
3 120 130 125 
3 128 126 111 
3 124 131 67 
3 122 132 121 
3 125 122 118 
3 129 110 133 
3 133 110 94 
3 134 128 113 
3 108 113 109 
3 135 127 126 
3 96 90 136 
3 130 120 127 
3 135 130 127 
3 124 119 137 
3 106 138 108 
3 128 139 126 
3 134 113 108 
3 96 133 94 
3 140 136 90 
3 130 141 125 
3 128 142 139 
3 121 143 119 
3 105 144 106 
3 25 140 90 
3 132 122 125 
3 145 130 135 
3 129 144 105 
3 119 143 137 
3 135 126 146 
3 146 126 139 
3 131 32 67 
3 147 124 137 
3 124 147 131 
3 134 142 128 
3 145 135 146 
3 141 130 145 
3 144 129 133 
3 148 141 145 
3 138 134 108 
3 138 106 144 
3 143 121 132 
3 137 143 149 
3 142 150 139 
3 151 138 144 
3 150 142 134 
3 152 144 133 
3 152 151 144 
3 139 153 146 
3 147 137 149 
3 148 154 141 
3 155 32 131 
3 156 134 138 
3 156 138 151 
3 157 153 139 
3 136 133 96 
3 145 158 148 
3 155 159 32 
3 134 160 150 
3 145 146 153 
3 150 157 139 
3 161 133 136 
3 147 162 131 
3 163 152 133 
3 162 155 131 
3 164 165 143 
3 132 164 143 
3 156 160 134 
3 152 156 151 
3 161 163 133 
3 162 159 155 
3 158 145 153 
3 165 149 143 
3 152 163 166 
3 162 32 159 
3 147 167 162 
3 168 140 25 
3 164 132 154 
3 149 167 147 
3 166 156 152 
3 161 136 169 
3 148 170 154 
3 171 164 154 
3 166 163 172 
3 157 173 153 
3 158 153 173 
3 174 32 162 
3 163 161 172 
3 172 161 169 
3 170 148 158 
3 175 158 173 
3 176 166 172 
3 160 156 166 
3 165 177 149 
3 167 174 162 
3 178 25 32 
3 140 169 136 
3 167 149 179 
3 150 180 157 
3 177 179 149 
3 157 180 181 
3 166 176 160 
3 178 168 25 
3 182 165 164 
3 181 173 157 
3 183 164 171 
3 183 182 164 
3 167 179 174 
3 184 180 150 
3 184 150 160 
3 185 165 182 
3 165 179 177 
3 176 172 186 
3 175 170 158 
3 176 184 160 
3 172 169 186 
3 187 169 140 
3 185 179 165 
3 188 180 184 
3 183 185 182 
3 188 189 180 
3 190 184 176 
3 191 175 173 
3 181 191 173 
3 190 188 184 
3 183 171 192 
3 185 183 179 
3 183 192 179 
3 175 191 170 
3 193 194 171 
3 193 170 194 
3 170 191 194 
3 180 189 181 
3 171 194 192 
3 195 194 191 
3 189 188 181 
3 188 196 181 
3 188 190 196 
3 190 176 197 
3 197 176 186 
3 198 174 179 
3 198 179 192 
3 199 198 192 
3 181 200 191 
3 201 196 190 
3 174 202 32 
3 202 203 32 
3 203 178 32 
3 168 204 140 
3 204 187 140 
3 199 192 194 
3 195 205 194 
3 197 201 190 
3 186 169 187 
3 203 199 194 
3 195 191 200 
3 200 181 196 
3 201 200 196 
3 200 201 168 
3 201 197 204 
3 199 203 202 
3 194 205 203 
3 205 195 203 
3 195 200 178 
3 168 201 204 
3 197 187 204 
3 198 202 174 
3 198 199 202 
3 197 186 187 
3 195 178 203 
3 178 200 168 
3 118 103 100 
3 141 154 132 
3 141 132 125 
3 171 154 193 
3 193 154 170 
3 45 72 65 
3 116 79 93 
3 95 116 114 
3 65 116 95 
3 75 72 63 
3 65 72 75 
3 65 75 116 
3 116 75 79 
3 55 73 77 
3 55 77 62 
