ply
format ascii 1.0
comment VCGLIB generated
element vertex 347
property float x
property float y
property float z
property float nx
property float ny
property float nz
element face 690
property list uchar int vertex_indices
end_header
5.028313 5.064722 0.2950516 1.70324 1.650564 2.081505 
3.967426 5.064761 0.2950974 -1.690279 1.567711 2.204767 
5.027576 4.539763 0.2941399 1.887501 -1.300527 1.754547 
4.039295 4.923871 0.2960052 -1.559378 -0.7846953 5.712892 
4.045921 4.526854 0.2415657 -3.337935 0.7420174 4.562315 
4.019936 4.450082 0.3012009 -2.313337 1.057405 2.242312 
4.021652 3.974389 0.2810516 -2.493032 -1.210129 3.102156 
4.63834 4.4554 0.2872429 1.494302 0.9783037 5.173931 
4.377609 3.876234 0.2867508 -0.01873182 2.49888 5.045808 
4.460417 3.420977 0.2890778 -0.0346556 -3.027588 3.914598 
5.02273 3.90662 0.2926025 1.726938 1.685371 2.16475 
5.025311 3.423009 0.2933197 1.840279 -1.606811 2.36983 
5.027733 2.78374 0.2942352 1.768871 1.627816 2.154941 
4.664652 2.794127 0.242691 -0.1002726 0.6137065 4.261448 
4.526688 2.763886 0.2715836 0.08300743 1.958866 5.8262 
3.968035 2.783736 0.2942505 -1.958128 1.360466 2.129362 
3.983669 2.313128 0.2978745 -2.04928 -1.401883 2.185757 
5.027733 2.300072 0.2942352 2.812102 -0.7924322 3.109045 
4.946815 1.677732 0.2443619 2.894145 -1.237779 4.744634 
4.428682 1.662169 0.287674 0.002426427 3.005411 3.980837 
5.025887 1.185817 0.2940979 2.810439 -0.4717139 3.276791 
4.079252 1.509804 0.2830048 -1.044203 -0.3052575 6.076707 
1.093937 5.044189 0.2761421 1.998565 1.475089 2.253479 
0.03564453 5.081955 0.2998543 -1.548881 1.809992 2.101821 
0.6639042 4.54006 0.2771378 -0.1795297 -0.1954167 6.26397 
0.01915932 4.560506 0.2894363 -2.008586 -1.72933 2.723037 
0.3197289 4.655572 0.2861786 0.1398476 -0.6437964 6.224214 
0.2681656 4.463888 0.2472534 -0.02024921 -0.4415942 6.150571 
0.5258198 4.479004 0.2460632 -0.764013 -0.514681 5.993427 
4.701248 4.526773 0.2412338 0.3378673 -2.450497 3.768422 
1.075937 4.475271 0.2755203 3.09272 0.1510209 3.661687 
0.5974903 4.446791 0.275589 -1.286771 0.3000954 5.974826 
0.6091995 3.973611 0.2742004 -0.2951037 -1.374341 5.920201 
-0.05238914 4.446553 0.2763519 -1.855867 1.451801 2.323843 
-0.03406715 3.963553 0.2789993 -1.76792 -1.566959 1.956756 
4.991007 4.460319 0.2810974 1.883943 1.33894 2.55355 
4.985033 3.980645 0.2797623 1.975036 -1.206468 2.566655 
4.642874 3.973988 0.2462769 0.1546828 -1.562673 5.981001 
1.085421 3.997711 0.275589 3.089069 0.07000405 3.853907 
4.986736 3.927847 0.2094345 2.903228 3.117669 2.094375 
3.963036 3.898014 0.2797165 -1.517621 1.519742 1.174691 
1.081869 3.896981 0.2798615 2.943799 0.0387582 3.94725 
0.01111221 3.938599 0.1986618 -2.616989 -4.001106 2.537059 
0.02137184 3.420628 0.2807388 -2.05886 -1.378674 2.38048 
3.96616 3.417553 0.2794037 -3.166665 -0.09267508 3.224545 
1.081682 3.420618 0.2806931 2.474618 -1.361164 3.332032 
4.949593 3.410792 0.2452087 0.9452807 -3.831749 3.425941 
0.9965763 3.33246 0.2449646 2.535526 -1.689019 4.823326 
0.3813782 3.315822 0.2779236 -0.6613811 2.234916 4.395264 
1.034729 2.839706 0.2789688 1.966424 -1.434929 2.483143 
4.307987 3.313769 0.2810669 0.1735088 0.3062681 6.249776 
4.355722 2.839701 0.2789536 -1.88038 -1.741261 2.4297 
3.989174 2.861502 0.2797241 -1.638527 -1.682741 1.961421 
4.351629 2.832351 0.2460556 -1.240479 -0.2818215 4.64791 
0.2979126 3.316505 0.2781601 2.00013 1.812056 2.846357 
0.03457832 2.793352 0.2993317 -2.777915 -0.1261069 3.876155 
0.3759232 2.831056 0.2457275 0.347554 1.840378 5.381256 
-0.008872986 3.318751 0.2811699 -1.976351 1.606293 2.689698 
0.7665138 2.790588 0.2452164 -0.3231182 2.611999 3.785557 
4.991421 2.839703 0.2789536 1.754764 -1.663772 2.499674 
0.6463623 2.773311 0.2868042 0.2870885 2.467966 4.969542 
1.077642 2.290382 0.2658997 3.219445 0.07316631 3.353315 
1.093048 2.764523 0.2777138 2.199012 1.230526 2.042396 
3.987406 2.281101 0.2169724 -4.958445 -1.692054 2.521839 
0.01906395 2.320615 0.2894287 -2.461145 -1.287648 2.722013 
4.357975 2.252246 0.2457581 0.1392833 -1.751404 5.439283 
4.985329 1.749059 0.2796593 2.530461 -1.053927 3.22961 
4.996262 2.223671 0.278656 2.884317 -1.049155 4.005727 
0.5974789 2.207326 0.275589 -1.250259 1.736358 5.096585 
1.083174 1.755676 0.275589 2.440166 -1.438639 3.016535 
4.350079 1.759586 0.2761917 0.01283737 -0.9561783 6.094508 
0.5212402 2.230446 0.2798386 1.373358 2.14915 2.751554 
-0.05433083 2.206433 0.2787704 -1.880514 1.473029 2.164302 
-0.03543663 1.72845 0.2800522 -2.061913 -1.27885 1.8734 
0.5416222 1.750274 0.2791519 -0.05226564 -1.685719 5.773984 
4.020802 2.211192 0.3006516 -1.949481 1.140757 3.172683 
4.064726 1.671285 0.2459412 -1.306332 3.595046 3.483575 
0.9816151 1.673329 0.2441788 1.663892 -1.468055 5.567699 
0.0214386 1.664362 0.2807007 -1.858902 1.583639 2.358962 
1.058735 1.482663 0.2282639 3.274474 0.1972682 4.310951 
0.9510803 1.185226 0.2815628 0.5623288 -2.36319 3.987272 
3.963547 1.660971 0.2783813 -1.871618 1.443627 2.174235 
1.084608 1.169109 0.2326508 3.859623 -0.4913657 2.737667 
3.959822 1.286139 0.1864319 -5.942706 0.3530502 1.345837 
3.965998 1.177843 0.2794189 -3.005924 0.02760426 3.154344 
0.02072906 1.185431 0.280098 -1.877776 -1.605973 2.285261 
3.989401 0.6254879 0.2806931 -2.012048 -1.575554 2.672676 
4.352667 1.107379 0.2393646 0.0006257873 -1.315962 5.787619 
1.035616 1.082453 0.2787552 2.440622 0.5667634 3.724103 
0.5455914 1.089857 0.2393723 -0.2453094 -0.8352717 6.009444 
0.6027966 0.6022527 0.279335 -1.001946 -0.9930782 5.718493 
4.354826 0.6045315 0.2780838 0.08719233 0.126954 6.273478 
4.991405 1.082998 0.2789497 2.887991 -0.6946761 4.072778 
4.992317 0.6045392 0.2780914 2.255852 -1.281841 3.912561 
-0.01974487 1.082168 0.2762375 -2.33681 1.044418 2.102716 
0.5190754 0.6047214 0.2779465 2.421601 -0.8611929 2.255048 
-0.01893234 0.5969562 0.2675476 -1.837059 -1.584873 2.005785 
1.073355 0.5289146 0.277977 3.124359 0.145504 3.320787 
4.348129 0.5216252 0.278717 0.04686517 0.09999961 6.262172 
3.967928 0.5217969 0.2788544 -1.92562 1.545096 2.746675 
5.027878 0.06531183 0.2799225 1.942934 -1.411085 2.481722 
4.935448 0.5429257 0.2356644 1.221327 -1.72046 5.564019 
0.01304245 0.4883859 0.2777557 -2.602428 1.06469 3.197421 
0.02973366 0.01341379 0.2787018 -1.741336 -1.690739 2.190333 
1.085997 0.05177974 0.2768936 1.864948 -1.599344 2.232032 
3.968218 0.03637049 0.2674561 -1.739071 -1.745156 1.973015 
5.007729 4.492881 0.1854553 5.56805 -0.5567828 1.872331 
3.985605 3.990389 0.09178543 -3.348399 -0.05730698 3.649949 
0.3020611 3.332058 0.2459183 0.5221952 0.6737716 5.106444 
1.043163 2.816648 0.2101746 4.251808 2.028944 2.352927 
0.004247665 1.143855 0.1382751 -6.102101 0.3428938 0.8803724 
0.09796143 1.169301 0.2334366 -0.4831829 -1.962725 3.825326 
1.056974 1.088476 0.102253 4.366614 -1.76427 2.061236 
1.080278 0.6044445 0.09197235 3.33976 0.1712472 3.305103 
0.1137638 0.5896965 0.2464218 -0.6129748 -2.402943 4.000024 
0.5061378 0.542344 0.2397003 -0.04073409 1.081516 4.955936 
5.041103 0.5306965 0.1734161 5.232274 -0.136322 2.715196 
1.108398 0.01124402 0.1135559 3.131958 -3.187351 0.9669655 
4.045258 3.911619 0.2455444 -2.488026 2.21682 3.040642 
3.956045 3.778179 0.05391693 -1.808111 0.315181 3.132705 
0.0005340576 3.394964 0.1235123 -5.039277 1.789654 2.022478 
1.056129 3.328383 0.102478 2.833234 -1.20207 3.34718 
1.0595 2.831132 0.09095764 3.190113 0.2523449 3.180802 
5.004776 3.359077 0.1378098 5.132104 -2.086619 1.905148 
3.965876 2.85232 0.1018906 -3.006164 0.06855474 3.839115 
0.5455322 2.236805 0.2395325 0.4815983 0.1974701 4.99113 
0.1200905 2.223732 0.2441864 -1.031883 2.133918 3.45468 
1.141558 1.748625 0.08591461 3.426603 -1.305695 4.20324 
0.01397514 1.686102 0.2193642 -3.779178 -2.302749 2.473447 
3.962978 3.332068 0.09031677 -3.554777 0.4839379 3.118783 
5.044722 2.82277 0.1352844 5.890081 0.6021996 0.8585695 
3.944244 1.727018 0.05324173 -2.210597 0.6355654 4.050957 
3.961792 1.103256 0.04250336 -2.873438 -0.05794538 3.216326 
5.016449 3.954625 -0.04020119 3.937715 3.136572 0.498797 
3.917526 0.6078808 0.08950806 -2.758774 0.3118787 4.591416 
5.04689 0.0002836734 0.1258926 2.866413 -3.094348 1.342502 
1.142691 3.914908 0.04521942 2.002062 0.5157954 3.634579 
5.066542 1.7025 -0.01623726 3.979154 2.794409 0.431203 
1.100361 1.093268 0.0534668 2.245887 -0.7199233 4.489247 
0.01205063 -0.02895167 0.1135712 -2.916024 -3.325455 1.263951 
3.94524 0.0868613 0.1013641 -4.054211 -2.017592 2.829288 
5.075449 3.942237 -0.061903 3.804399 3.097072 0.9573138 
5.016924 2.870431 -0.04090691 6.071116 1.127149 -0.4408598 
-0.03024864 2.290263 -0.04849815 -4.967069 2.627292 0.7880172 
0.002204895 1.670017 0.1030807 -6.133301 -0.6072107 0.7003998 
-0.09469414 4.49854 -0.04058075 -5.976279 0.04967752 0.1643547 
3.946671 4.496635 0.1004944 -2.675387 -0.2027836 4.945385 
0.07449913 4.521278 0.1276016 -1.168569 -0.356261 1.611782 
-0.1243687 2.817923 -0.2321682 -1.77823 -1.264299 -1.363634 
1.10424 5.093377 0.1381149 2.163867 3.836551 2.464037 
3.985331 2.231685 0.1027603 -3.01724 -0.9228851 3.060554 
-0.03917694 0.5586674 0.06817627 -6.094379 -0.0820988 1.157839 
1.082678 2.290837 0.05388641 2.478604 -0.2118991 2.950491 
1.171568 5.082162 0.1082993 1.056792 2.963336 4.182296 
1.491138 4.678675 0.106842 -0.294248 -0.4988351 6.230155 
1.936293 5.041416 0.1082993 2.07183 1.329537 2.187305 
3.91959 5.06175 0.09117126 -3.274197 3.39168 3.088681 
1.919254 4.523498 0.1082993 2.079139 -1.605722 2.844014 
1.087029 4.534674 0.0542984 2.310044 0.7868342 2.723229 
5.072157 4.517588 -0.05117989 5.265573 -1.867538 -0.007777572 
-0.007200241 3.920558 -0.05127716 -6.174745 -0.290517 0.5129728 
3.061005 3.934474 0.05334854 0.4475744 -0.9283466 5.657709 
3.906126 3.41507 0.1081085 1.018892 -2.232969 2.462893 
3.813486 3.89778 0.1082993 0.5642048 2.588521 3.922007 
3.05719 3.439293 0.1082993 -1.318488 -1.518172 4.327342 
1.102165 1.689027 0.05265808 1.553588 -0.3974607 0.6424381 
3.358433 1.070192 0.1072693 1.909165 1.41741 2.341929 
2.443356 1.112067 0.05457306 1.730951 0.04791587 4.600751 
3.216087 0.7666882 0.1071587 0.4032005 -0.8001924 6.049468 
2.483507 0.6102337 0.05339432 0.751947 0.3954337 5.843411 
3.037184 0.5907691 0.05370331 0.3097316 -0.09159739 6.022497 
5.118767 0.507015 -0.2297935 3.47676 0.1109659 -2.450054 
1.452633 0.08777585 0.1067238 -0.233872 -2.559623 4.580103 
1.182932 0.6039504 0.09012604 -0.1119678 0.05640199 6.274716 
1.140789 0.08239648 0.05264282 2.934121 -2.698024 3.565296 
5.086502 5.120476 -0.06324387 3.156311 3.066927 1.20314 
3.414968 4.49552 0.05834198 -0.665274 0.5539028 5.580889 
3.421049 4.453074 0.1122742 -2.257341 1.272013 2.929843 
3.414463 3.997363 0.1115417 -1.798389 -1.628156 2.494373 
1.162281 3.422607 0.088974 2.258565 -0.4219355 4.95962 
2.423149 0.6245758 0.09996033 1.018798 -2.282187 3.513079 
2.438194 1.105118 0.09077454 2.302664 1.479751 2.494266 
1.703333 0.6498175 0.09960175 -0.04410302 -0.2541518 6.26028 
1.719982 1.128923 0.0865593 -2.251531 1.495057 2.651478 
1.946512 0.5199065 0.08674622 0.03836216 -0.3310317 6.266848 
1.780792 0.2868938 0.08554077 0.4115152 -0.5219184 6.23735 
1.761909 0.03686104 0.05392456 -0.1078527 -3.474023 4.331666 
0.6875191 5.103552 -0.05155945 -0.2209598 6.114154 1.146439 
3.219551 5.06012 0.08992004 -0.06361188 2.924495 3.970156 
3.620058 4.717422 0.09146881 -0.07836393 -0.4210836 6.24879 
3.219549 4.539289 0.08991241 -1.303799 -2.022138 4.363988 
1.934841 5.120076 -0.06242752 0.1361322 5.679574 2.24158 
1.993736 5.063457 0.08862686 -1.697231 1.874899 3.022659 
3.169502 4.521921 0.0508194 -0.7420236 0.5905419 5.692472 
3.71785 4.522887 0.05664062 -0.5856533 1.20576 5.207665 
1.993732 4.535957 0.08860016 -1.315075 -1.862659 4.506549 
1.117855 4.477399 0.0899353 3.162062 2.128757 3.950048 
2.504612 4.469511 0.09012604 -1.124803 2.387392 3.639518 
2.502167 3.992783 0.08964539 -1.274437 -2.087445 4.280759 
3.356232 3.994002 0.08979416 1.350194 -1.999725 4.326601 
1.728615 4.469422 0.08931732 -0.08539481 -0.452737 6.242202 
1.726828 3.99291 0.08867645 0.02013839 -1.72564 5.756608 
3.401386 3.978415 0.05313873 -0.3164155 -1.9506 5.11954 
2.446518 4.469935 0.08738708 1.776555 1.705545 2.440149 
2.455326 3.975571 0.0534668 -0.6712228 0.7914862 5.586877 
2.217505 3.906683 0.08556366 1.113194 1.955129 4.547954 
1.20447 3.90616 0.08753204 -0.9541293 2.542399 3.604482 
3.012745 3.876416 0.09586334 1.745187 0.9578767 4.907963 
2.296951 3.930478 0.08453369 -1.901742 1.9513 2.918869 
2.990702 3.411887 0.08782959 1.843295 -1.704649 2.545552 
2.539762 3.434336 0.08705139 -0.1862368 -2.198184 5.305812 
2.217888 3.422211 0.08748627 1.997549 -1.561139 3.060429 
2.230156 3.397591 0.04519653 0.7756264 -0.9039882 5.622085 
3.956961 3.416589 0.05247498 -1.562881 -0.229018 2.65757 
3.347406 3.33475 0.08865356 -0.05304608 1.398525 5.94804 
3.418289 2.829434 0.08966827 -1.559927 0.6652627 5.606468 
2.455544 3.335608 0.05397034 -0.01573985 0.6212145 6.250201 
1.728102 3.333003 0.09072876 -2.331428 0.7707917 2.147108 
2.447786 2.851732 0.08853912 -0.08647968 0.2232519 6.273801 
1.655104 3.347458 0.08931351 1.1525 1.36697 5.483169 
1.727985 2.853936 0.09081268 -1.429516 -1.586802 3.579805 
1.926107 2.79357 0.04616165 0.07734238 2.567609 3.832175 
2.279537 2.806406 0.06108856 -1.208859 0.5777209 4.526193 
1.670929 2.871217 0.08839417 1.915419 -1.694227 3.936256 
2.998669 2.755113 0.08911896 0.02907319 0.02553559 6.281672 
2.279602 2.793678 0.09066772 -2.375643 1.506775 2.681297 
2.974323 2.277243 0.08982086 2.084814 -1.498664 2.807757 
2.217916 2.783933 0.08757019 0.6175233 2.18584 4.766703 
1.773964 2.783043 0.08837128 0.3148093 2.259548 5.294881 
1.162247 2.783537 0.08917999 0.08509674 0.2476719 6.252116 
1.162252 2.300274 0.08917999 -0.8438753 -2.469164 4.222103 
3.894411 2.332793 0.09849548 -2.228882 -0.542693 5.404832 
2.216831 2.299823 0.08733749 -0.1489079 -0.5976412 6.2229 
3.064844 2.293219 0.08519745 -0.8339894 -1.810489 5.294249 
1.673534 2.24614 0.04530334 -0.7437949 -1.220655 5.330505 
3.343548 2.212114 0.09142303 1.573838 1.686115 4.111979 
2.446291 2.228425 0.08720398 0.1562643 0.6115793 6.174474 
2.957979 2.047663 0.06958008 -0.03719821 -0.1417463 6.251634 
2.504589 1.747304 0.09035492 -1.305447 -1.803184 4.663054 
3.4119 2.20969 0.1109161 -1.795617 1.613954 3.506495 
3.414026 1.731619 0.08934021 -1.239486 -2.324423 2.67445 
1.673998 1.747812 0.05445099 -0.8553458 -0.6600361 6.0126 
1.729021 2.227936 0.08904266 -1.066758 2.203557 3.937847 
2.457001 1.710908 0.0454483 -0.6201747 1.130572 5.259857 
3.356106 1.747776 0.08997345 1.638459 -1.840574 3.232992 
1.728571 1.747309 0.09033966 -1.090805 -2.393672 3.479203 
2.229063 1.671908 0.05297852 -0.543537 0.265592 6.068252 
1.161125 1.185755 0.08834839 -1.082805 -0.7244486 5.665698 
3.038094 1.691304 0.04521942 0.126185 -0.7920166 6.039999 
3.060738 1.185907 0.08821869 -2.226826 -1.354265 2.700453 
3.914791 1.663888 0.0891037 1.829535 0.9095451 4.886534 
2.220039 1.184306 0.09011078 -0.0480275 0.098471 6.27495 
2.306976 1.663975 0.08981323 -0.8946493 2.41533 4.495295 
3.007057 1.185274 0.08889771 1.248374 -2.003003 4.2811 
5.077717 1.131515 -0.05096626 5.69373 -1.548055 0.5863085 
5.076128 1.08642 -0.2318783 4.671603 -0.3080998 -2.480398 
1.660107 1.082971 0.08937073 1.087352 1.44598 5.324079 
3.36244 1.092053 0.05357361 1.187146 0.6256694 5.222881 
3.404167 0.6268786 0.09054565 -1.534576 -1.351829 4.699417 
3.360218 0.5803422 0.04499817 -0.720507 0.3049598 5.656781 
3.466959 0.5256185 0.08966064 -0.3699814 1.675838 5.812339 
3.005177 0.5217674 0.08928299 1.871178 0.9075789 5.016532 
2.288456 0.5222997 0.08728027 0.1468696 0.6787782 6.199373 
2.286106 0.04177189 0.0892868 0.1012122 -2.824104 3.979249 
3.06329 0.3862552 0.09007263 -1.502759 0.5630646 5.770232 
2.209888 0.0152293 0.07820892 0.4946286 -3.122206 3.703372 
3.007051 0.0428674 0.08892822 0.04141502 -3.040821 3.948555 
2.995661 3.397858 0.05410767 0.3147019 -0.9610097 5.073104 
1.738808 3.397824 0.04554749 0.02313104 -1.323872 4.304585 
3.359249 2.858156 0.08685303 2.337231 -0.9960673 4.39091 
1.693773 2.840585 0.04530716 -0.1724509 0.001914412 4.669803 
-0.03792953 2.797763 -0.2289467 -5.03054 -1.737175 -0.9261713 
3.378252 2.246763 0.04501343 -0.1684561 -0.01361613 4.818131 
3.042936 -0.002484094 -0.07577515 0.0007057234 -5.906768 2.105955 
1.940678 4.508924 0.04521942 0.7279984 0.5590928 4.045138 
2.455351 4.476333 0.05382156 0.5855066 0.8461756 4.794554 
3.926594 3.911451 0.05351257 -1.343831 -0.1540401 4.80603 
5.07753 3.385123 -0.05184555 5.197683 -1.912366 -0.0008890182 
3.380119 1.729972 0.04560089 -0.2614594 -0.9679984 4.925584 
1.717339 1.151432 0.04529572 -0.74402 -0.5333575 4.045293 
2.211145 -0.05772989 -0.08565331 2.053007 -4.419074 0.8667849 
3.962742 0.001406875 -0.02875519 -0.5632863 -5.880695 1.944005 
3.203213 5.105171 -0.07722473 -0.03267248 5.908969 2.073062 
1.988304 3.933476 0.04549408 0.08733609 1.053837 4.461913 
2.280592 3.934685 0.04519653 -1.021405 1.126502 4.985258 
3.384094 2.812364 0.04651642 -0.4971462 1.201059 1.598547 
2.97929 2.244632 0.04117584 0.4545821 0.9954489 3.857052 
3.057472 1.170887 0.05361176 -0.7112949 -1.98932 4.968195 
-0.1505108 2.238624 -0.2311802 -2.125023 1.239008 -1.393534 
3.96323 5.132647 -0.0528965 -0.2483317 6.089402 1.211372 
2.27103 -0.0198061 -0.2426777 0.2335222 -5.954869 1.28942 
-0.05652046 -0.101143 -0.2300053 -1.94307 -2.326511 -0.7415937 
-0.0109539 5.119302 -0.03733444 -3.133383 3.439938 1.203187 
1.001446 -0.06200397 -0.2292042 0.2488382 -5.717572 -0.8083054 
-0.1245403 3.39999 -0.2320118 -4.798162 0.3522519 -1.560985 
4.986008 4.474387 -0.05100632 2.09514 -1.079928 -1.216838 
4.977312 3.342332 -0.0513134 2.123807 -1.290117 -1.574846 
5.118767 -0.06880693 -0.2311573 1.930156 -1.815053 -0.8718412 
-0.06450844 5.176249 -0.2411003 -1.754284 2.009428 -0.6163697 
1.115442 5.198667 -0.2422295 -0.03445383 4.721712 -1.596563 
5.016859 3.974955 -0.2544403 4.977863 1.417366 -2.22071 
5.126074 5.155545 -0.23209 1.971 1.724412 -0.8269826 
-0.06756401 4.585882 -0.2296448 -5.864721 0.109649 -1.666615 
5.101765 3.383709 -0.2409763 3.544404 -1.543925 -1.414838 
5.084059 2.224501 -0.2316875 3.614242 -0.07068397 -2.625079 
5.074682 1.68478 -0.2307568 4.770035 0.2306361 -2.385481 
4.570648 -0.06898081 -0.230938 -0.001141634 -5.512528 -0.8022107 
5.104984 4.533512 -0.2309113 4.537321 -0.636924 -1.578732 
5.016748 2.836067 -0.2544556 6.218166 0.2694497 -0.6752663 
5.119692 3.965992 -0.2409725 1.702987 1.402415 -1.057162 
-0.0364418 2.257312 -0.2429123 -4.701986 1.633074 -2.784181 
3.515724 5.176094 -0.2306786 -0.06467021 5.766872 -0.3071728 
-0.06646919 1.626774 -0.2565575 -3.232138 -0.2075429 -2.664932 
-0.07614899 0.4739437 -0.2314472 -5.834438 0.02255843 -1.078586 
1.944118 5.161134 -0.2306328 0.1400225 5.584381 -1.137515 
-0.04143715 1.076405 -0.2925644 -3.072726 0.1397771 -2.932549 
2.902815 -0.06904496 -0.2309456 -0.1797114 -5.330826 -0.4037434 
3.930662 5.145679 -0.2925682 0.1030432 3.151567 -3.077387 
-0.02379608 5.127517 -0.2976418 -1.408452 1.799598 -3.794852 
-0.04144096 3.679098 -0.2925606 -3.071984 0.5222371 -3.588325 
5.018257 3.318669 -0.2925758 2.851074 -0.9240705 -3.496153 
5.000273 5.127452 -0.2974854 0.8661162 2.353557 -4.233832 
-0.041502 2.557839 -0.2925415 -3.939491 -0.1406528 -2.799443 
5.014812 2.198415 -0.242466 3.517794 -0.03056608 -3.905474 
5.014112 0.8995588 -0.2426224 3.563142 0.01731031 -3.613337 
-0.04175949 -0.0248167 -0.2919483 -2.307626 -1.186232 -3.58098 
5.018631 -0.02486356 -0.2919807 1.075732 -1.940939 -4.638106 
2.073383 -0.02419928 -0.2926865 0.09055296 -3.103148 -3.678704 
3.575638 -0.02455602 -0.2925835 0.0005563624 -2.560763 -4.979434 
2.486233 5.145676 -0.2925835 -0.02917815 2.995624 -4.133539 
5.0002 4.059936 -0.2977524 2.626674 -0.2613964 -4.837606 
-0.04154778 2.898211 -0.2925282 -3.505083 -0.341585 -3.652725 
5.0002 1.256144 -0.2977524 2.071925 -0.03720566 -5.495369 
2.013895 5.106788 -0.2979469 -0.04644537 2.255569 -5.23755 
5.000202 2.257499 -0.2977524 3.030259 -0.01619624 -3.97051 
-0.002658844 2.457999 -0.2979469 -1.547394 -0.4425742 -5.824824 
-0.04157448 3.158709 -0.2925205 -1.918408 0.02792914 -5.678807 
0.7682533 4.440472 -0.2979469 0.001641321 0.001296483 -6.283183 
4.109753 3.519215 -0.2979469 0.006475303 0.004581144 -6.283157 
0.5507603 4.260223 -0.2979469 -0.01789901 -0.01131056 -6.283112 
0.6683826 4.220169 -0.2979469 0 0 -6.283185 
0.689476 4.200141 -0.2979469 0 0 -6.283185 
0.6681767 4.200141 -0.2979469 0 0 -6.283185 
0.7286987 4.019896 -0.2979469 -0.01413974 -0.002898803 -6.283146 
-0.002580643 2.778211 -0.2979469 -0.2580037 0.05441518 -6.272046 
-0.02373505 2.698095 -0.297657 -0.9118323 0.006289276 -6.160198 
-0.02365303 2.557904 -0.297657 -0.9598267 -0.09740271 -6.143819 
3 0 1 2 
3 1 3 2 
3 2 3 4 
3 5 6 7 
3 8 9 10 
3 11 10 9 
3 12 13 14 
3 14 15 16 
3 12 14 16 
3 12 16 17 
3 18 19 20 
3 20 19 21 
3 22 23 24 
3 23 25 26 
3 23 26 24 
3 26 25 27 
3 24 26 28 
3 4 29 2 
3 30 31 32 
3 33 34 27 
3 28 27 34 
3 28 34 32 
3 35 29 36 
3 36 29 37 
3 30 32 38 
3 39 8 10 
3 8 40 9 
3 41 42 43 
3 40 44 9 
3 45 41 43 
3 46 11 9 
3 47 48 49 
3 50 51 46 
3 50 52 53 
3 52 50 44 
3 54 55 56 
3 54 57 55 
3 49 48 58 
3 51 59 46 
3 51 13 59 
3 58 48 56 
3 60 61 62 
3 15 63 16 
3 60 55 64 
3 60 64 61 
3 65 66 67 
3 61 68 69 
3 66 65 70 
3 71 72 73 
3 71 73 74 
3 65 75 70 
3 69 68 74 
3 70 75 76 
3 77 78 79 
3 79 78 80 
3 19 81 21 
3 79 80 82 
3 21 83 84 
3 80 78 85 
3 21 84 20 
3 84 86 87 
3 88 89 90 
3 91 87 86 
3 87 91 92 
3 93 92 91 
3 89 94 95 
3 94 96 95 
3 88 90 97 
3 98 99 100 
3 101 98 100 
3 97 102 103 
3 104 97 103 
3 100 99 105 
3 22 24 30 
3 28 26 27 
3 29 106 2 
3 5 107 6 
3 7 6 37 
3 41 32 42 
3 44 46 9 
3 54 108 57 
3 55 60 56 
3 109 60 62 
3 78 110 85 
3 80 85 111 
3 112 88 97 
3 112 97 113 
3 95 96 114 
3 95 114 115 
3 116 101 100 
3 104 103 117 
3 34 42 32 
3 40 8 118 
3 119 44 40 
3 42 120 43 
3 47 45 43 
3 121 49 122 
3 122 49 109 
3 123 46 59 
3 52 124 53 
3 56 60 58 
3 53 15 14 
3 63 65 16 
3 125 68 61 
3 126 72 71 
3 127 61 69 
3 77 128 78 
3 127 77 79 
3 84 87 20 
3 4 5 7 
3 36 37 39 
3 39 118 8 
3 47 108 48 
3 48 108 56 
3 108 54 56 
3 52 44 129 
3 51 50 53 
3 58 109 49 
3 13 130 59 
3 53 14 13 
3 130 13 12 
3 58 60 109 
3 125 61 64 
3 65 17 16 
3 65 67 17 
3 125 126 71 
3 125 71 74 
3 75 131 76 
3 69 74 77 
3 77 127 69 
3 73 128 74 
3 76 131 81 
3 76 81 19 
3 76 19 18 
3 78 128 110 
3 111 82 80 
3 86 84 132 
3 115 89 95 
3 115 102 97 
3 24 28 31 
3 24 31 30 
3 4 7 29 
3 106 29 35 
3 29 7 37 
3 28 32 31 
3 106 35 133 
3 38 32 41 
3 37 6 118 
3 39 37 118 
3 43 108 47 
3 46 44 50 
3 51 53 13 
3 125 64 126 
3 75 65 63 
3 68 125 74 
3 66 70 18 
3 77 74 128 
3 70 76 18 
3 82 111 88 
3 20 87 92 
3 88 111 89 
3 111 94 89 
3 90 89 115 
3 91 86 98 
3 93 91 101 
3 114 102 115 
3 90 115 97 
3 98 101 91 
3 121 47 49 
3 123 59 130 
3 86 134 98 
3 116 100 135 
3 0 2 106 
3 30 38 136 
3 52 129 124 
3 15 53 124 
3 137 66 18 
3 127 79 138 
3 81 83 21 
3 138 79 82 
3 84 83 132 
3 102 139 103 
3 99 140 105 
3 5 4 107 
3 35 36 39 
3 41 136 38 
3 10 141 39 
3 121 45 47 
3 123 130 142 
3 62 122 109 
3 64 143 126 
3 137 18 20 
3 128 144 110 
3 81 131 83 
3 110 111 85 
3 101 116 93 
3 98 134 99 
3 25 23 145 
3 3 146 4 
3 25 147 27 
3 107 118 6 
3 10 11 141 
3 57 148 55 
3 64 55 143 
3 143 72 126 
3 82 88 112 
3 93 116 92 
3 149 23 22 
3 39 133 35 
3 123 11 46 
3 63 150 75 
3 114 151 102 
3 43 120 108 
3 17 130 12 
3 61 152 62 
3 73 144 128 
3 3 1 146 
3 145 147 25 
3 147 33 27 
3 133 39 141 
3 120 57 108 
3 75 150 131 
3 83 131 132 
3 111 110 94 
3 86 132 134 
3 151 114 96 
3 97 104 117 
3 103 139 117 
3 147 145 33 
3 4 146 107 
3 40 118 119 
3 124 63 15 
3 139 102 151 
3 149 22 30 
3 33 145 34 
3 136 41 45 
3 72 144 73 
3 94 110 96 
3 134 140 99 
3 105 135 100 
3 153 154 155 
3 1 156 146 
3 155 154 157 
3 153 158 154 
3 159 106 133 
3 34 160 42 
3 161 162 163 
3 162 161 164 
3 152 61 127 
3 165 127 138 
3 138 82 112 
3 166 167 168 
3 168 167 169 
3 168 169 170 
3 113 97 117 
3 171 116 135 
3 172 173 174 
3 175 1 0 
3 149 30 158 
3 176 177 146 
3 146 177 178 
3 146 178 107 
3 163 162 119 
3 45 121 179 
3 110 151 96 
3 180 181 182 
3 181 183 182 
3 173 172 184 
3 184 172 185 
3 185 172 186 
3 149 187 23 
3 156 188 189 
3 189 188 190 
3 155 157 191 
3 156 189 146 
3 188 192 193 
3 189 176 194 
3 193 192 195 
3 146 189 194 
3 189 190 176 
3 158 30 196 
3 197 198 199 
3 30 136 196 
3 176 197 199 
3 200 196 201 
3 178 176 202 
3 203 200 201 
3 203 201 204 
3 196 136 201 
3 205 206 179 
3 207 208 209 
3 208 210 209 
3 205 179 211 
3 208 212 210 
3 164 213 162 
3 129 214 215 
3 216 217 218 
3 121 122 219 
3 217 220 221 
3 217 221 218 
3 218 221 222 
3 219 122 223 
3 129 215 124 
3 122 62 152 
3 224 225 226 
3 227 221 228 
3 228 229 230 
3 231 124 215 
3 227 228 232 
3 215 233 231 
3 228 230 232 
3 225 232 226 
3 63 231 150 
3 234 152 127 
3 235 236 237 
3 236 238 237 
3 150 239 240 
3 241 234 127 
3 236 242 243 
3 235 237 244 
3 242 245 243 
3 150 240 131 
3 237 238 244 
3 246 165 247 
3 248 249 250 
3 246 247 251 
3 252 251 253 
3 248 252 253 
3 254 137 20 
3 255 92 116 
3 256 138 173 
3 132 257 134 
3 112 113 138 
3 173 138 113 
3 257 258 134 
3 256 173 182 
3 259 166 168 
3 169 180 182 
3 134 260 140 
3 261 262 263 
3 259 170 264 
3 259 264 260 
3 260 264 140 
3 265 184 185 
3 264 266 140 
3 261 263 266 
3 185 186 265 
3 196 200 158 
3 206 136 179 
3 205 211 212 
3 209 267 207 
3 119 213 44 
3 119 162 213 
3 268 211 179 
3 268 212 211 
3 267 209 210 
3 214 216 218 
3 214 218 269 
3 228 270 229 
3 148 271 55 
3 215 224 233 
3 227 232 222 
3 229 152 230 
3 225 222 232 
3 234 232 230 
3 234 242 236 
3 235 244 272 
3 246 243 245 
3 250 249 132 
3 257 167 166 
3 167 181 180 
3 259 168 170 
3 259 134 258 
3 184 182 173 
3 134 259 260 
3 262 184 265 
3 264 170 266 
3 174 186 172 
3 266 263 273 
3 188 191 192 
3 191 157 274 
3 158 200 154 
3 200 157 154 
3 193 275 197 
3 177 176 178 
3 275 203 204 
3 276 118 107 
3 276 161 163 
3 179 136 45 
3 141 11 277 
3 220 217 268 
3 268 219 223 
3 268 270 220 
3 122 270 223 
3 270 221 220 
3 225 218 222 
3 63 124 231 
3 239 272 278 
3 239 278 240 
3 241 165 246 
3 248 243 252 
3 278 248 250 
3 251 252 246 
3 247 279 251 
3 251 167 253 
3 251 183 181 
3 167 251 181 
3 183 279 182 
3 257 259 258 
3 279 256 182 
3 167 180 169 
3 170 262 261 
3 113 117 174 
3 174 280 186 
3 273 140 266 
3 140 281 105 
3 191 153 155 
3 282 188 156 
3 153 149 158 
3 190 188 193 
3 193 195 275 
3 190 193 176 
3 200 274 157 
3 194 176 146 
3 0 106 159 
3 274 200 203 
3 275 274 203 
3 176 193 197 
3 197 275 204 
3 197 204 198 
3 176 199 202 
3 204 161 198 
3 161 199 198 
3 161 202 199 
3 202 107 178 
3 283 136 206 
3 283 206 205 
3 208 204 284 
3 204 208 207 
3 207 161 204 
3 161 207 267 
3 284 205 212 
3 164 161 267 
3 208 284 212 
3 267 210 212 
3 267 213 164 
3 213 129 44 
3 217 216 268 
3 267 216 214 
3 214 269 285 
3 268 223 270 
3 285 224 215 
3 218 225 224 
3 286 224 226 
3 272 231 233 
3 272 150 231 
3 152 234 230 
3 286 226 232 
3 286 236 235 
3 272 286 235 
3 150 272 239 
3 242 234 245 
3 236 243 238 
3 272 244 278 
3 238 278 244 
3 278 131 240 
3 246 252 243 
3 131 278 250 
3 248 287 249 
3 248 253 287 
3 167 287 253 
3 251 279 183 
3 255 254 92 
3 254 20 92 
3 279 138 256 
3 259 257 166 
3 170 261 266 
3 191 274 192 
3 274 195 192 
3 195 274 275 
3 204 201 283 
3 202 161 276 
3 107 202 276 
3 34 145 160 
3 201 136 283 
3 204 283 284 
3 205 284 283 
3 268 179 219 
3 212 216 267 
3 213 267 214 
3 268 216 212 
3 129 213 214 
3 121 219 179 
3 215 214 285 
3 122 229 270 
3 269 218 224 
3 285 269 224 
3 122 152 229 
3 228 221 270 
3 221 227 222 
3 233 224 286 
3 232 234 236 
3 143 288 72 
3 232 236 286 
3 233 286 272 
3 245 234 241 
3 241 127 165 
3 246 245 241 
3 238 243 248 
3 278 238 248 
3 132 131 250 
3 165 138 247 
3 249 287 257 
3 249 257 132 
3 287 167 257 
3 247 138 279 
3 169 182 262 
3 169 262 170 
3 182 184 262 
3 174 173 113 
3 265 263 262 
3 289 156 1 
3 265 290 263 
3 273 281 140 
3 281 135 105 
3 42 160 120 
3 123 277 11 
3 72 288 144 
3 151 291 139 
3 187 292 23 
3 289 1 175 
3 282 191 188 
3 175 0 159 
3 23 292 145 
3 55 271 143 
3 291 117 139 
3 117 293 174 
3 57 294 148 
3 277 123 142 
3 290 273 263 
3 289 282 156 
3 295 159 133 
3 296 277 142 
3 293 280 174 
3 297 135 281 
3 280 265 186 
3 298 292 187 
3 299 187 149 
3 300 295 133 
3 120 294 57 
3 255 137 254 
3 297 171 135 
3 299 153 191 
3 175 301 289 
3 292 298 302 
3 292 302 145 
3 303 141 277 
3 296 303 277 
3 304 67 66 
3 145 302 160 
3 141 300 133 
3 304 130 17 
3 305 137 255 
3 306 297 281 
3 306 281 273 
3 307 159 295 
3 296 142 308 
3 130 308 142 
3 137 305 66 
3 309 300 141 
3 175 159 307 
3 271 310 143 
3 289 311 282 
3 149 153 299 
3 160 294 120 
3 144 312 110 
3 301 175 307 
3 151 313 291 
3 310 288 143 
3 304 66 305 
3 288 312 144 
3 282 314 191 
3 67 304 17 
3 315 313 110 
3 110 313 151 
3 290 316 273 
3 293 117 291 
3 314 299 191 
3 301 317 289 
3 318 298 187 
3 311 314 282 
3 317 311 289 
3 160 302 319 
3 141 303 309 
3 320 303 296 
3 320 296 308 
3 171 255 116 
3 306 273 316 
3 299 318 187 
3 307 295 300 
3 160 319 294 
3 321 301 307 
3 148 294 271 
3 271 322 310 
3 308 130 304 
3 323 304 305 
3 288 310 312 
3 110 312 315 
3 324 255 171 
3 313 315 325 
3 291 313 325 
3 324 171 297 
3 326 324 297 
3 290 327 316 
3 327 328 316 
3 328 306 316 
3 297 306 326 
3 325 293 291 
3 293 327 280 
3 280 290 265 
3 329 314 311 
3 317 329 311 
3 330 307 300 
3 300 309 303 
3 300 303 320 
3 294 331 271 
3 323 308 304 
3 332 323 305 
3 332 305 255 
3 324 332 255 
3 328 326 306 
3 327 290 280 
3 299 333 318 
3 299 314 333 
3 298 318 302 
3 330 321 307 
3 334 308 323 
3 310 322 335 
3 325 327 293 
3 319 336 294 
3 294 336 331 
3 271 331 322 
3 334 320 308 
3 334 323 332 
3 321 317 301 
3 302 318 319 
3 330 300 320 
3 310 335 312 
3 332 324 326 
3 314 329 333 
3 318 333 337 
3 333 329 337 
3 338 317 321 
3 329 317 338 
3 329 338 337 
3 318 337 339 
3 321 330 338 
3 339 337 340 
3 337 341 340 
3 339 340 342 
3 340 341 342 
3 339 342 343 
3 342 341 343 
3 341 337 343 
3 318 339 319 
3 330 320 338 
3 337 338 343 
3 319 339 343 
3 319 343 336 
3 336 343 344 
3 336 344 331 
3 343 338 335 
3 331 344 345 
3 331 345 322 
3 343 335 344 
3 320 334 338 
3 345 344 346 
3 344 335 346 
3 335 338 332 
3 322 345 346 
3 338 334 332 
3 346 335 322 
3 335 332 312 
3 312 332 315 
3 315 332 325 
3 332 326 328 
3 332 328 327 
3 332 327 325 
3 163 119 276 
3 118 276 119 
