ply
format ascii 1.0
comment VCGLIB generated
element vertex 499
property float x
property float y
property float z
property float nx
property float ny
property float nz
element face 1002
property list uchar int vertex_indices
end_header
0.8874378 2.604167 0.3911552 2.054563 -2.203133 3.728826 
1.17811 2.747419 0.3821373 0.2264584 -3.036328 3.980042 
1.221626 3.026699 0.3912945 -0.03606117 2.947447 3.170884 
3.575144 3.023071 0.3610649 -0.0736075 3.148114 2.928009 
3.913885 2.609071 0.4019547 -1.593799 -1.858584 3.602 
4.176279 2.798955 0.360918 2.47662 2.035113 2.704632 
3.641504 2.755821 0.4077091 -1.596465 -1.549735 2.794595 
1.731382 2.837729 0.3888893 2.117177 2.115747 2.792763 
0.6345387 2.798805 0.3911705 -2.22793 1.88389 3.559587 
3.079514 2.839156 0.3587494 -2.038593 2.290479 2.956663 
3.300327 2.618598 0.3606911 1.986782 -2.224679 3.771869 
3.586014 2.758765 0.2909374 0.5962238 -5.142194 1.858866 
1.509243 2.603714 0.3909893 -2.068131 -2.161983 3.545271 
2.874388 2.373358 0.3591232 -2.928972 0.8533704 3.132566 
0.4581947 2.379006 0.3907566 -3.012167 0.5554852 2.789234 
3.134787 2.32744 0.3320446 3.80371 -1.104723 2.866803 
1.963018 2.322465 0.3906898 2.803379 0.4309802 2.815443 
4.077166 2.32748 0.3603935 -1.247747 -2.464315 2.10891 
4.333904 2.362655 0.3657856 2.745795 0.7124356 3.78457 
0.7227516 2.330374 0.3907413 2.890317 -1.072945 3.473105 
1.700117 2.304244 0.3606262 -3.359617 -1.140825 3.711145 
1.963484 1.930384 0.3904362 1.847286 -1.525911 2.090152 
4.090071 2.278004 0.3603363 -2.250055 1.391426 2.065851 
4.366268 1.879039 0.3602085 2.980847 0.094263 4.120414 
0.7151527 2.260035 0.3908825 3.132238 -0.1047786 3.1186 
0.7104053 1.931369 0.390564 2.68426 0.1733977 3.150711 
3.120924 2.278235 0.3603382 2.851607 0.4009716 3.147445 
2.850828 1.930435 0.3601646 -1.603333 -1.735457 1.972647 
4.097111 1.878235 0.3601646 -3.137185 0.06036706 3.226265 
1.690502 1.878255 0.3904495 -3.005623 0.246549 3.219271 
0.4658031 1.901591 0.3009872 -2.730945 1.461985 4.276101 
3.116404 1.930666 0.3602905 3.060906 0.03762108 3.122744 
0.4464588 1.879411 0.38978 -2.0515 1.498308 1.869976 
0.7368755 1.377896 0.3900928 1.688363 1.457839 4.588503 
1.963728 1.879079 0.3903904 1.861447 1.62406 2.382209 
1.677732 1.69838 0.3903084 -3.066088 -0.1952833 3.043021 
4.072115 1.459462 0.359211 -2.674893 -0.1462328 3.055045 
2.850481 1.879059 0.360218 -2.233307 1.440573 2.777925 
3.139082 1.443362 0.3598824 3.063927 0.134548 3.063905 
1.966372 1.379222 0.3900948 2.522478 -0.1678202 3.530273 
4.366728 1.459723 0.3591709 1.722533 -1.700273 2.128621 
0.4440975 1.379584 0.3900948 -3.130542 -0.07803942 3.368526 
2.849627 1.444658 0.3598824 -1.968658 -1.427763 2.115898 
1.69293 1.426256 0.2893486 -3.129394 2.011327 3.729944 
1.169962 1.37879 0.3896961 -0.8218898 2.540281 2.842723 
1.226611 1.120998 0.3898697 -0.107397 -2.954228 3.275883 
1.596725 1.377474 0.3899155 0.9936316 2.289572 2.953439 
0.9543285 1.356148 0.2870159 1.359132 5.398087 2.447149 
0.8064899 1.377836 0.3900928 0.3109154 2.849393 2.936072 
4.381847 1.443 0.2616692 1.966648 -0.6633892 5.043382 
4.067976 1.377484 0.3598156 -0.7405682 1.481903 4.534169 
4.38398 1.160886 0.2916813 0.7103209 -2.537532 4.750333 
1.596648 1.122204 0.3898258 0.2157726 -2.823022 3.519954 
0.4449539 1.122375 0.3898487 -1.497182 -1.585445 1.584823 
3.576481 1.12138 0.3596096 0.0875287 -3.137238 3.227988 
3.559416 1.378881 0.3598156 -0.06182578 3.137767 3.096675 
3.144104 1.363384 0.3597908 1.5034 1.700068 4.657498 
0.7911835 1.130847 0.3699722 -0.1719352 -3.324475 4.075926 
4.020342 1.145691 0.3371162 0.3779252 -3.344774 3.833655 
2.848682 1.379765 0.3598328 -2.07145 1.307205 2.037199 
3.210699 1.120817 0.3595905 0.001057748 -3.130641 3.06895 
1.976015 1.097209 0.3145657 1.463513 -0.2377436 4.941065 
2.85066 1.121319 0.3300667 -2.023413 -1.913429 2.233228 
4.099962 2.310697 0.1703377 -5.285839 -1.987545 0.3149924 
0.7117519 1.933329 -0.111021 2.882783 0.1684152 -3.17719 
1.226937 3.060469 0.2570362 0.05394977 2.772984 4.544268 
3.372969 3.020487 0.2594891 -0.84373 2.660201 4.916862 
3.807974 3.015619 0.2582817 0.7837066 2.418287 5.006323 
1.703871 2.884501 0.22505 -0.08565035 1.954982 3.475882 
1.960878 2.360967 0.2601089 3.0255 0.7513446 3.734001 
0.7381039 2.343258 -0.1133995 2.480505 -1.260396 -3.212167 
4.38217 2.203342 0.2579117 3.051762 -0.05946226 4.148006 
1.982698 1.709737 0.2574005 3.455743 -0.0625907 3.542154 
0.4255104 1.620915 0.259264 -3.041151 -0.2347671 3.607223 
0.4418488 1.121611 0.2244034 -1.427319 -1.554291 4.735356 
0.7998447 1.076788 0.2145405 -0.1292646 -0.0782034 2.395025 
4.067533 1.118686 0.2269764 0.1852471 -1.716229 3.733879 
4.38806 2.284285 0.2711182 2.789844 -0.4678104 5.033731 
0.6977425 2.303169 0.1313171 5.165012 -1.024188 0.02770782 
1.686836 1.865341 0.1747627 -6.272757 0.2764732 -0.1273868 
1.983997 1.923148 0.2572098 3.050204 -0.04735739 3.997065 
2.832003 1.924033 0.2565556 -3.010993 -0.3325278 4.119453 
2.827707 1.665436 0.2168846 -2.791593 -0.1359472 3.846153 
2.851986 1.403111 0.2592106 -3.169837 0.2318882 3.780523 
2.830431 2.245593 0.2567921 -2.994146 0.3027302 4.24756 
3.648682 1.379273 0.1765385 -0.02766591 6.241757 -0.1595623 
1.753481 2.820653 0.2587128 2.566756 1.800307 3.608957 
1.4788 2.650467 0.1843891 -3.235093 -4.776989 0.1194618 
3.016573 2.802171 0.2484493 -2.25653 1.578827 4.494839 
0.5726624 2.721882 0.2572727 -3.381971 1.934778 3.519089 
4.17042 2.820663 0.2562313 2.042381 2.036681 4.131067 
3.111961 2.310576 0.1313438 5.497321 -1.27231 0.2736846 
0.7154675 2.258376 -0.1129723 2.663311 -0.2721582 -3.19221 
1.70225 1.104506 0.2504578 -1.058578 -3.739209 3.138867 
3.646803 1.116706 0.2245731 0.04963861 -1.053598 2.581603 
1.83774 4.935023 0.2517872 -0.4751264 3.308352 4.09438 
1.590475 4.680949 0.2709217 0.006065877 0.3553272 6.250885 
2.220381 4.923073 0.2704201 1.862276 1.730582 2.671172 
1.542968 4.853638 0.2326584 1.025456 2.056534 5.738333 
1.33105 4.963896 0.2692795 0.3622462 2.95817 3.907744 
2.203699 4.458482 0.2692337 1.233892 -2.39762 2.780251 
1.146124 4.963595 0.2699337 -1.841178 1.66908 2.351897 
1.1285 4.499677 0.2675476 -1.667453 -1.630281 4.169251 
0.6171989 4.94449 0.269783 -0.03368349 3.032235 3.945447 
0.009922028 4.815468 0.2542686 -2.186034 0.2143178 5.426902 
0.04797363 4.484733 0.2712498 -1.220838 -2.026612 4.311734 
1.056164 4.943867 0.2698765 1.117297 2.447366 3.472563 
1.055927 4.469255 0.2689323 1.669805 -1.936586 2.545722 
4.176634 4.398654 0.2548523 0.5468873 2.10723 5.259598 
3.458172 4.405629 0.2720757 -1.573214 1.688093 4.069559 
4.029169 3.927561 0.2564259 0.2272662 -1.810956 5.671887 
3.410841 3.919279 0.2255535 0.7328025 -0.9428972 6.033633 
1.032761 3.85711 0.2675018 1.721442 1.747782 2.735098 
0.5455608 3.840246 0.2694511 -0.1376049 2.91677 4.269681 
1.019461 3.465652 0.2637653 1.485092 -0.5412328 5.752281 
0.7614803 3.381222 0.2712498 0.2976205 -2.192001 5.312463 
-0.03155899 3.825312 0.2350254 -3.487656 -0.3454853 3.374172 
-0.009737015 3.345243 0.2687664 -1.950915 -1.538716 2.359327 
3.833254 3.830789 0.2573013 0.7102895 2.324306 4.647419 
3.070246 3.860035 0.2668629 -0.7827395 2.192572 1.564655 
3.503702 3.380469 0.2708569 0.194713 -2.707642 4.536468 
3.059351 3.385041 0.2687244 -1.258479 -1.686456 4.828043 
3.945086 3.362972 0.2149696 -0.6649805 -0.9952469 5.922824 
5.058365 3.824206 0.2700443 2.103514 1.405205 2.317435 
3.986113 3.86105 0.2693348 -0.9566778 2.474568 2.651172 
4.003874 3.385353 0.2695408 -1.296703 -2.182712 3.932766 
5.040396 3.350751 0.2689972 1.733326 -1.576881 1.581036 
1.122416 3.362861 0.2126236 0.07209847 0.3846093 5.964217 
4.815758 2.721661 0.2712498 0.05754942 0.4429332 6.248085 
5.056831 2.26313 0.2700272 1.829737 -1.638819 2.306346 
-0.01244926 2.806634 0.2561398 -1.901808 -0.8712972 5.190346 
-0.02288818 2.285813 0.2602844 -2.654999 -0.8937026 3.251125 
5.05625 2.738214 0.2689037 1.732376 1.661856 1.944829 
0.4339733 2.259221 0.2496262 -2.942561 0.1777731 3.898978 
4.409605 1.727736 0.2561398 3.675776 -2.141119 3.324249 
5.052809 1.634683 0.2691803 2.219003 1.256825 2.298306 
4.769255 1.222744 0.2667484 0.2154994 -1.122128 6.049988 
5.050352 1.24603 0.2390633 3.131823 -0.8290371 3.896693 
1.22313 1.377383 -0.1103706 -0.06829066 3.039648 -3.118088 
4.381651 1.106556 0.2145405 0.08128999 -0.9126873 4.566881 
2.826006 1.097109 0.2145576 -0.9642323 1.112565 3.759277 
2.500025 1.080888 0.2688293 -1.58939 1.999148 3.013008 
2.486174 0.6056135 0.2688141 -1.135349 -2.098876 4.132998 
3.363768 1.053914 0.2672291 1.765633 1.580201 2.333384 
3.354448 0.5632226 0.2241287 0.2718213 0.7184227 6.12466 
1.159287 0.5825689 0.2562504 -0.920244 -0.6014744 5.962662 
1.131212 0.08536524 0.2770329 -1.681391 -1.777099 3.054071 
2.233622 0.4791443 0.2451267 1.854079 1.391205 4.458461 
2.194046 0.005286843 0.2482033 1.297752 -2.513145 3.184592 
3.006342 4.943193 0.2561398 1.74629 1.62175 2.503263 
2.231733 4.943736 0.2148399 1.096037 4.385368 3.486172 
2.735533 4.470311 0.2554474 -0.09163453 -2.427611 4.981057 
2.278925 4.470451 0.2561398 -1.446046 -1.918861 2.814313 
5.066069 4.923888 0.2561398 1.94707 1.517994 2.353354 
3.994371 4.972871 0.2529755 -1.501668 2.117272 2.574264 
3.976421 4.502813 0.2558022 -1.984753 -1.232077 4.406147 
2.98744 4.621262 0.2559948 2.544853 -0.07404348 4.833198 
3.926733 4.943344 0.2561398 1.521536 2.174473 3.143448 
3.066753 4.943093 0.256094 -1.832035 1.682554 2.374249 
3.145283 4.544269 0.2553139 -0.7154571 -0.9440458 5.957972 
3.036989 4.42399 0.2101765 -0.09752249 2.287747 4.078307 
5.046579 4.459527 0.25564 1.844166 -1.491674 1.894839 
3.927069 4.470481 0.2561398 1.714842 -1.87667 2.772763 
-0.03082085 4.445236 0.2040882 -4.163458 -0.3900432 3.177272 
-0.03699493 3.927199 0.2561398 -2.906902 -0.2988899 3.257359 
0.4894943 4.401026 0.2560863 1.029534 2.050161 4.500787 
3.414793 4.441568 0.2164841 -0.6526647 -0.1662527 5.507522 
2.929327 4.40185 0.2569771 -0.01063243 2.859032 4.467118 
3.361074 4.318445 0.2573738 1.681804 0.5033695 5.55811 
2.497126 4.400272 0.2569008 -1.361913 2.078436 2.442648 
4.976728 4.400986 0.2561398 2.357921 0.9775992 3.312484 
4.366493 4.417247 0.2152023 0.1275437 -0.5898446 6.004992 
4.368557 4.199523 0.2493916 -3.111968 0.2269013 3.298347 
1.648185 4.393388 0.2560902 0.4965582 0.6042724 0.1478641 
0.577507 4.418674 0.2556858 -1.568509 2.063415 3.077207 
1.327088 4.200981 0.2558079 0.050028 -0.1344097 6.279446 
2.658253 4.120501 0.2461529 0.03214456 -0.06579898 6.27791 
0.8725357 4.241744 0.2493725 -0.0212594 -0.1750583 6.274145 
1.533739 3.957992 0.2401562 0.2842287 -0.9260025 6.141391 
1.685686 4.283039 0.221426 -0.3169583 -0.2672758 5.653951 
2.498491 3.930485 0.2485619 -1.492543 -2.143738 3.415361 
3.360249 3.92747 0.2573738 1.284325 -2.106758 4.416929 
0.5691147 3.945168 0.2561054 -0.9893109 -0.8794427 5.707097 
1.187724 3.928576 0.2502365 0.2267616 -1.964763 5.602308 
4.37356 3.928254 0.2546864 -1.815694 -1.703684 2.488152 
4.367584 3.919701 0.2262993 -1.097636 -2.036454 5.296576 
2.440722 4.400946 0.2561398 1.783988 2.032024 3.069096 
1.712137 4.400986 0.2561398 -1.976612 1.613561 2.769365 
2.436092 3.932334 0.2465878 1.421335 -2.182184 3.96768 
1.050512 3.87306 0.2197685 0.9611282 -0.1577612 5.188702 
1.818701 3.892516 0.2178173 -0.1158599 1.221926 5.890926 
4.976416 3.927108 0.2561398 2.492281 -1.144773 2.912574 
0.489296 3.927078 0.2561398 2.584442 -0.9975212 2.281301 
3.919401 3.858286 0.214283 -0.4767666 -0.1675767 5.361052 
3.932768 3.602513 0.2357483 -0.4632479 -0.4586773 6.218074 
1.474878 3.817433 0.2485199 -0.09059478 1.489879 5.999678 
1.139982 3.639347 0.2561398 -1.677048 -0.1800471 5.679682 
2.211473 3.84297 0.2557373 1.037652 1.376522 5.40912 
3.023268 3.843141 0.2253971 -0.3080518 1.485144 5.124975 
1.523937 3.370208 0.2553921 -0.2212884 -1.631692 5.809397 
2.211927 3.521319 0.2561398 2.946191 -0.742661 3.17254 
1.643881 3.303365 0.2262058 1.041047 0.8849387 5.008648 
2.17251 3.303737 0.2180538 -0.136406 0.3238127 6.104986 
2.076925 3.102948 0.2566776 0.04357079 0.4189454 6.253176 
2.440828 3.280612 0.2566776 0.9727762 1.164835 5.481169 
4.366179 3.298873 0.2151241 -0.01084826 3.416255 4.374216 
3.664408 3.261949 0.2557411 -0.1441651 2.678078 4.804138 
4.374544 3.280662 0.2561398 -0.08298068 2.862773 4.438142 
1.636703 3.294863 0.2554131 1.852536 1.8368 2.842541 
0.5085411 3.300159 0.2149925 1.071635 -0.4674871 4.759047 
0.6067352 2.875598 0.2556858 -2.647318 1.401533 5.079642 
3.394632 3.283345 0.2145576 0.8849003 1.009519 5.699544 
1.71203 3.280652 0.2566776 -0.7928259 2.017049 4.762859 
0.5048084 3.280531 0.2561398 1.987148 1.415527 2.455772 
-0.009382248 3.280743 0.2560902 -1.989398 1.399226 4.416123 
-0.08413696 2.801197 0.2277088 -2.211825 -1.990122 1.804985 
4.976709 3.280542 0.2561398 2.151572 0.860202 2.542344 
4.918125 3.064667 0.2255344 3.265022 -0.2028995 4.368158 
2.440536 2.806614 0.2566776 1.414619 -1.424862 5.126792 
4.979158 2.741058 0.2587223 1.315407 4.26621 3.620562 
0.5067921 2.783649 0.2146378 -0.1771609 1.503111 5.435997 
2.680479 2.723279 0.2556553 -0.2169539 1.50185 5.886221 
2.212496 2.737158 0.2566395 2.075669 1.784187 2.711178 
2.087679 2.262959 0.2566776 0.2957996 -0.4144799 6.246414 
2.276911 2.743751 0.2565556 -0.5675844 2.703285 2.852993 
2.25156 2.362524 0.2565556 0.002898566 0.01868012 6.282824 
-0.09563828 2.164358 0.2561398 -2.084758 1.401495 2.373049 
-0.07499504 1.693144 0.2561398 -2.143548 -1.619778 2.312299 
2.00802 2.181956 0.2561398 0.2907435 -0.001808375 6.272102 
2.440378 2.182107 0.2561398 2.403143 0.9283822 3.765686 
2.450689 2.246648 0.2141762 0.2277979 -1.996209 3.444489 
2.497616 1.965147 0.2561398 -2.040869 -0.1490405 5.360493 
5.029219 2.1848 0.2494564 1.988647 0.8255777 1.925273 
4.935286 1.920103 0.2486439 1.072913 0.3186831 6.093622 
5.013514 1.709435 0.2561398 1.794083 -1.49596 2.124399 
5.04077 2.227593 0.16189 3.91587 -2.937962 2.140592 
2.46567 1.76658 0.2221317 -0.01394218 -0.5970885 6.24209 
-0.01934052 1.623608 0.2580185 -2.013146 1.517944 2.692436 
-0.0195961 1.158153 0.2559662 -2.783225 0.4740091 3.931655 
2.259542 1.642663 0.2147217 -0.6308849 0.6043302 5.523546 
1.98955 1.162434 0.2580414 3.922462 -1.438456 3.193108 
2.211405 1.165097 0.2561398 1.595688 -0.8947097 5.158361 
2.277285 1.624945 0.2557945 -1.738936 1.704855 3.18364 
2.278955 1.162826 0.2561398 -2.117623 -0.9243939 4.425776 
1.98604 1.129972 0.214983 0.995706 0.1134284 1.521511 
4.896391 1.084717 0.2153721 -0.002638835 0.2724918 5.974203 
3.190746 1.127761 0.2270393 0.04891538 -3.462868 2.831299 
2.412148 0.603885 0.2666225 1.969805 -1.742931 2.933975 
2.431982 1.080165 0.2574196 1.628653 2.182416 3.551944 
3.373411 1.06321 0.2246227 0.3620167 1.662421 5.032157 
-0.05997658 1.057733 0.2561398 -2.879302 0.5171983 3.049639 
-0.0601635 0.5840764 0.2561398 -2.456484 -1.152753 2.695174 
4.377382 1.057743 0.2561398 -2.256498 0.9159921 2.448292 
4.377188 0.5841869 0.2561398 -0.9361449 -2.005511 4.528095 
1.645166 1.057884 0.2555866 1.781573 1.744714 3.266998 
0.6540127 1.058145 0.2554092 -0.1031709 1.920152 5.311482 
4.328207 1.045181 0.2560368 1.66404 0.9713752 5.162603 
3.424643 1.079139 0.2555828 -1.153424 2.442659 2.393459 
4.314316 0.6021061 0.2561207 2.41553 -1.124718 3.347875 
5.021355 1.043995 0.2561398 2.01733 0.9980161 3.571643 
0.4846268 0.5841769 0.2561398 2.515559 -0.5784762 2.813973 
0.6612568 0.5742877 0.2211018 -0.6488075 -0.1399611 6.180007 
0.7228584 0.643492 0.2529907 -1.013237 -0.9651146 5.865494 
1.686138 0.62901 0.2587013 -1.986135 -0.7528202 4.970877 
3.402546 0.5985082 0.2254143 -0.2496141 -0.2708389 6.267084 
3.777243 0.5924079 0.2560902 -0.182678 -3.016577 3.901402 
1.645325 0.5849809 0.2557106 2.366832 -1.094378 2.630053 
5.020853 0.5842171 0.2561398 2.013611 -1.401352 2.546135 
2.423216 0.5860462 0.2259712 0.4702498 -2.207808 5.286048 
1.047121 0.5156862 0.2541885 0.8577657 1.133868 5.688221 
-0.02756882 0.4785916 0.2543812 -2.056113 1.433513 2.398435 
0.1259022 0.007728992 0.2554111 -0.64264 -2.876139 3.711857 
1.060724 0.04357734 0.2560883 1.510173 -2.207094 2.759716 
5.057795 0.500973 0.2557316 1.871839 1.503715 2.359161 
3.986643 0.5015759 0.2560883 -1.785731 1.858257 2.912596 
4.490396 0.2036738 0.2381973 0.08297287 0.01658344 6.269448 
3.986841 0.02791944 0.2560692 -1.728652 -1.739535 2.726253 
3.006853 0.5016564 0.2561398 1.270522 2.215314 2.82781 
2.278662 0.5019377 0.2561398 -1.514756 1.894403 2.50925 
2.723581 0.04681344 0.2266827 -0.02706966 -2.965777 4.699579 
3.060513 0.04447179 0.2561398 -0.1595969 -2.831548 4.299814 
-0.002216339 0.06490345 0.2309341 -3.179268 -1.604788 2.877717 
4.989742 0.03071334 0.2334785 1.195497 -2.480971 3.778117 
3.934637 0.4959278 0.2556057 1.507253 2.061474 3.246036 
3.070166 0.5174248 0.2555866 -1.368586 2.306887 2.418902 
4.470747 0.03869304 0.250742 0.1392021 -2.491368 4.653558 
2.278955 0.02806014 0.2561398 -1.653847 -1.762257 2.464053 
3.920748 0.02286429 0.2560902 1.781567 -1.764669 2.378983 
2.702093 -0.001305958 0.1361065 -0.009533517 -5.936017 1.815411 
1.12846 5.014549 0.1074905 -2.644515 3.665958 0.9438782 
-0.01680565 4.951847 0.2340107 -1.850406 1.891088 1.667722 
1.078468 4.463367 0.2145576 0.6843632 -0.01179003 4.482298 
2.258194 4.461969 0.2148247 0.01872947 -0.2264545 4.475626 
2.46977 4.399016 0.2147217 0.236598 1.971228 4.757499 
0.4697247 3.858879 0.2147121 0.1950832 1.520304 3.941136 
4.935347 3.858115 0.2145119 1.009491 1.834439 4.085936 
2.991842 3.359876 0.2564964 1.851872 -1.679615 2.623058 
3.01689 3.821563 0.2591438 2.153743 1.291657 2.818517 
2.286789 3.864246 0.2487869 -2.275862 1.290954 3.28591 
2.996698 3.345434 0.2245827 0.4261808 -0.775779 5.114689 
2.262255 3.40083 0.2453327 -0.8054054 -0.6795987 5.904002 
2.491562 3.263075 0.2476845 -2.315702 0.380273 1.325626 
2.501469 2.792413 0.2456474 -2.321568 -1.159039 3.212128 
3.353367 3.281507 0.2544861 1.397737 2.373589 3.411334 
0.5875835 2.808343 0.2259445 -2.538152 0.0603722 3.699746 
2.217934 2.74558 0.2260551 0.8163435 0.66395 4.628291 
2.494745 2.760906 0.2150669 -0.151761 0.66167 4.806356 
0.009391785 2.185835 0.2155247 -1.756127 2.838281 2.736877 
4.38344 1.709375 0.2165565 1.422688 -0.7856641 1.031937 
0.7607918 1.363926 0.1414814 1.826692 4.504427 0.1984002 
2.471773 1.096526 0.2146549 -0.2538158 0.1765324 4.784235 
1.644519 0.5441076 0.2150879 0.6108199 1.406632 3.25693 
3.033361 0.5064703 0.2156258 -0.1820047 1.508636 4.881041 
3.644405 0.5139173 0.222002 0.08104534 2.849624 4.097179 
5.086842 4.972921 0.1086922 2.424726 1.862573 -0.4548429 
3.047064 4.987735 0.1082211 -0.02089813 5.759677 0.8061094 
3.967722 4.917365 0.2126083 -0.9408746 1.42013 3.722169 
1.138252 4.920621 0.2246933 -2.81279 1.677737 2.639389 
3.944426 4.460201 0.2139015 0.5875298 0.03354919 4.545505 
4.890413 4.445246 0.2158527 -0.2435791 -0.7899866 3.86204 
0.5512047 4.426644 0.2144794 -0.6526181 -0.3329921 4.775643 
4.982599 4.446563 0.2255726 2.026983 -3.656094 2.662368 
4.987749 3.899481 0.1475391 4.822856 2.212036 1.707958 
2.47032 3.922566 0.2150879 -0.09453035 -1.529734 5.416034 
2.282061 3.89939 0.2164097 -0.1588166 -0.7789896 4.902397 
2.511967 3.365353 0.2145786 -0.1312384 -1.730753 4.636728 
4.979204 3.330319 0.1931839 3.784563 -2.879616 1.272506 
1.695112 2.304224 0.0409565 -5.78998 -1.620945 0.2189995 
1.665319 1.457954 -0.112215 -2.629902 1.099374 -3.706483 
5.067221 1.136766 0.1710873 4.906305 -0.2859435 2.472661 
1.223858 1.119128 0.2267628 0.1062536 -3.988914 2.926687 
2.255503 1.095169 0.2152157 0.1317761 1.901279 3.248246 
0.4889336 0.5181484 0.2147503 0.3882717 1.926836 4.431618 
1.125324 0.5709209 0.2234688 -0.9988077 -1.778687 3.561421 
4.318956 0.5647904 0.2253227 0.1365421 0.005819216 5.510427 
1.097754 0.06780789 0.2147408 1.515832 -4.087491 3.08259 
0.07428741 -0.03413931 0.1187 -1.21304 -5.554729 1.412714 
3.939442 -0.02137581 0.1083355 0.2072952 -5.716772 0.5522649 
5.073256 -0.0009039584 0.1484985 2.606045 -2.507049 1.282869 
1.708519 4.418744 0.2150669 -1.328196 -0.1796465 4.665845 
2.721331 3.903441 0.2148762 -0.04560949 -1.96854 4.942749 
-0.01294136 3.329033 0.2227478 -4.376008 0.5565162 3.087346 
5.078201 2.779268 -0.0432663 1.673933 1.627048 -1.298661 
3.56093 2.73952 -0.1132374 0.3015238 -2.890456 -3.733389 
-0.03164673 1.662793 0.1830769 -3.687761 -3.154583 1.704648 
5.014711 1.69224 0.1999397 4.785817 1.204855 1.962478 
1.665899 1.077059 0.2151203 -0.5698631 -0.6326261 3.978118 
0.02309418 0.5021689 0.2146244 -1.265955 1.664931 4.058642 
2.261114 0.5079376 0.2145767 -0.598738 1.434041 5.167542 
3.964567 0.5066512 0.2155056 -0.2911706 1.058711 4.903037 
4.96916 0.5320877 0.160944 1.576852 3.614 2.999909 
5.068705 0.5282989 0.1721954 4.323608 2.196927 1.35912 
3.115679 1.930525 -0.1092968 1.592631 -1.466869 -1.73533 
-0.05066681 0.520882 0.09624863 -5.829001 -1.565157 1.110518 
2.263739 0.06783805 0.2154179 -2.004323 -1.507116 3.391323 
1.084118 0.002834642 -0.03472328 0.09966303 -5.373964 -1.649639 
3.022078 -0.01404936 0.1086578 -0.02568895 -6.060476 1.136132 
1.771872 4.990529 0.1072865 -0.09168819 5.873461 1.488589 
2.264219 4.987735 0.1084652 -0.007075773 6.042538 0.8428034 
3.945486 4.98666 0.119421 -0.623711 6.047023 1.394825 
-0.101635 3.32436 0.108469 -2.852981 2.387149 0.1970878 
-0.09635544 1.649286 -0.03441238 -1.266351 -1.718955 -1.089647 
5.038015 0.5568308 -0.03450394 2.472309 1.682068 -4.166185 
4.951328 0.5398162 0.1626148 0.8254908 0.1389486 0.22885 
4.991022 3.119772 -0.03533745 5.892006 -0.04264395 -0.9633287 
-0.1014786 2.764554 -0.03441238 -3.96756 -0.3315744 -2.359907 
1.163877 2.740565 -0.112812 0.1582657 -2.464099 -3.919114 
4.968805 0.5489717 0.1619473 1.447852 -4.044725 2.595292 
1.075439 4.986318 0.1176701 2.083427 4.931221 0.1459165 
3.86286 2.653974 -0.1115303 -1.778862 -2.347835 -3.744374 
-0.05557251 2.257763 0.07470703 -5.457167 1.909936 1.202954 
5.072233 2.245452 0.1628227 4.560919 -2.623041 0.7486793 
-0.0806675 1.098918 -0.03387642 -4.486698 0.2171103 -2.322882 
1.075932 4.959163 -0.06831932 -0.7510568 2.780321 -4.078466 
-0.05600548 4.445699 -0.03467941 -4.863927 0.07768269 -2.278585 
-0.05600548 3.881924 -0.03489494 -4.689603 -0.0832615 -2.455017 
2.264448 -0.01404936 0.1084919 -2.800021 -3.079999 0.438718 
1.510462 2.602307 -0.1123886 -1.909904 -2.23639 -3.69305 
4.095705 1.929731 -0.1098976 -3.0201 -0.0619697 -3.19039 
4.970997 0.5415046 0.1499825 0.8105654 -0.2428757 1.930097 
3.578005 1.377444 -0.109808 1.498464 1.988158 -2.027786 
2.201517 -0.03825981 0.1193123 2.321603 -4.51125 0.7734696 
5.035227 1.674411 -0.03664017 4.454019 0.1132662 -2.89812 
5.078201 0.5435145 -0.03363037 2.060209 1.502025 -1.687742 
5.078201 -0.01401921 -0.03372002 1.843568 -1.790304 -1.3667 
4.054312 2.36378 -0.03125381 -5.613623 -2.490279 0.3986915 
1.707575 1.898245 -0.08733368 -3.469286 0.125263 -3.45217 
0.7336311 1.443603 -0.1104088 2.755193 1.121435 -3.698173 
3.125645 1.381805 -0.1103535 1.6261 1.624714 -4.674144 
0.8858261 2.600719 -0.1131573 2.06423 -2.169315 -3.717137 
3.121603 2.258185 -0.1127815 2.835668 -0.7971666 -3.488642 
5.078201 2.221463 -0.04341125 3.564061 -0.280892 -2.719571 
-0.02832413 -0.03884271 -0.03395081 -1.854204 -2.08536 -1.123263 
2.264811 -0.01404936 -0.03435898 -1.980979 -3.471288 -1.334046 
4.051001 0.03373839 -0.06656647 0.1137761 -3.01296 -4.053535 
-0.01242065 4.957907 -0.06689262 -1.589566 1.712677 -1.672579 
-0.1208019 2.206418 -0.03478622 -2.274479 0.9830369 -1.987137 
2.240717 4.972932 -0.03325462 0.02489172 6.04884 -1.480108 
5.07938 3.86511 -0.04384613 3.56166 0.4775623 -2.134048 
3.572502 -0.01271271 -0.03378105 -0.005060316 -4.800025 -2.788749 
4.955645 4.539948 -0.06860733 1.336368 -0.5441061 -5.665556 
4.852404 -0.01404936 -0.0334568 -0.1646461 -4.925922 -2.0734 
1.599421 1.377444 -0.1098518 -0.793602 2.322702 -3.994241 
-0.03055573 3.321224 -0.04412651 -4.98531 0.6306601 -3.103477 
4.97893 2.78386 -0.05503082 2.09435 1.379936 -4.500159 
4.068613 1.381363 -0.1079159 -1.619035 1.727302 -4.634193 
2.189318 -0.05359611 -0.06266022 1.191003 -2.471281 -1.925235 
3.976244 5.014608 -0.03318024 -0.08988009 4.770244 -2.087036 
1.129118 5.014649 -0.04309082 -1.298639 3.827383 -2.048837 
3.115736 1.879692 -0.1092968 1.705554 1.623034 -1.806379 
5.080275 1.116546 -0.04607964 3.561595 0.05454693 -2.767517 
-0.07717705 0.5379971 -0.03451347 -3.383471 -0.241704 -2.659175 
-0.06232643 2.262657 -0.02807236 -4.744579 1.083974 -3.016253 
3.022638 -0.01285341 -0.03474236 0.01900111 -4.625009 -2.796668 
2.995892 4.959143 -0.0681591 0.01277134 3.099917 -3.658923 
4.98078 4.976067 -0.03416824 2.514531 3.306574 -1.6347 
5.06666 4.416975 -0.03562546 0.5820839 -1.001952 -0.6966446 
4.97617 3.380931 -0.06731415 3.041941 -0.4174371 -3.75909 
-0.03403664 1.677416 -0.0575943 -1.895348 -1.056265 -5.014984 
0.7025909 -0.01333581 -0.03331566 0.1562874 -4.953344 -2.440459 
-0.01249886 2.880521 -0.0662632 -1.210056 0.06268734 -6.051377 
0.8031673 1.377072 -0.1103745 1.002558 2.86808 -3.680474 
2.240049 0.03267309 -0.06868744 0.3983821 -2.032792 -4.999871 
4.599024 4.959193 -0.06848526 0.0853186 2.323488 -5.253452 
0.00280571 3.603488 -0.06868744 -1.678559 -0.02854005 -5.796432 
1.673132 2.326435 -0.1101551 -2.918122 -1.034114 -3.322211 
4.956991 2.523415 -0.06868744 0.7837263 0.1739824 -6.161841 
4.977102 0.8845111 -0.06757927 0.9585772 -0.1328665 -6.140409 
3.628607 1.377102 -0.1102562 -1.593666 1.610727 -1.526846 
-0.04160309 0.9073849 -0.03720665 -1.078418 -0.06376047 -6.162403 
-0.01420975 0.903988 -0.04424095 -3.301202 -0.816644 -1.406704 
-0.04164314 0.5832322 -0.03720665 -0.9281347 0.003480901 -6.196961 
4.993479 0.5610217 -0.03684235 2.819656 -0.1341744 -4.597114 
-0.01175308 0.3411779 -0.04333496 -3.700371 -0.03975248 -2.801428 
2.997179 0.05060229 -0.06864738 0.02341423 -1.464619 -5.920688 
1.647889 4.959203 -0.06856155 0.09128617 2.013806 -5.551259 
4.977232 4.958931 -0.06677628 2.063308 1.379834 -2.465499 
-0.01394463 0.8644714 -0.06708527 -3.141693 -0.1415901 -3.20895 
-0.01391411 0.6265275 -0.06685257 -3.143501 -0.01440832 -3.016959 
4.9778 0.03318564 -0.06737328 0.708948 -1.438347 -5.557405 
-0.01391411 0.03375849 -0.06689262 -2.508885 -0.6567716 -4.035382 
0.7335148 0.03316554 -0.06649017 0.04469616 -1.891003 -5.671269 
1.589001 0.03126609 -0.06518745 -0.1112056 -1.014396 -6.125525 
4.091459 2.279702 -0.1101074 -2.753373 -0.3897338 -4.543553 
1.247243 3.040889 -0.06882477 -0.008606669 0.4854296 -6.244543 
1.734125 2.861095 -0.06933784 1.236681 1.428085 -5.472309 
4.136076 2.859557 -0.06868744 1.113592 1.784645 -5.408364 
3.398132 3.381604 -0.06868744 0.001266258 0.002618695 -6.283185 
3.058428 2.822041 -0.06888962 -1.346442 1.636965 -5.060385 
3.546591 3.041985 -0.06890869 -0.427423 2.030883 -5.464365 
1.980389 2.379911 -0.06868744 2.325965 0.4936485 -5.104387 
0.6378517 2.823246 -0.06868744 -1.219555 1.009201 -5.809572 
4.370916 2.302888 -0.0735321 3.01297 0.280426 -4.059307 
3.301781 2.621402 -0.1108913 2.029882 -2.125695 -3.829567 
2.864912 2.379066 -0.1114006 -0.2964357 0.07561594 -6.249239 
0.4634533 2.360766 -0.07815933 -0.5063496 0.04432892 -6.254083 
2.658833 1.884999 -0.06868744 -0.2023526 -0.04633148 -6.272866 
2.851257 1.88736 -0.07524872 -1.367732 1.410352 -4.879569 
1.980143 1.879843 -0.06865883 2.238477 0.3472003 -4.949297 
0.4471855 1.888566 -0.07548332 -1.919982 1.426645 -4.800537 
4.386152 1.904375 -0.06916046 1.028551 -0.4347003 -5.976432 
2.850561 1.38283 -0.1105537 -1.4365 -0.203428 -5.928722 
0.4441185 1.1215 -0.07343102 -0.3480281 -0.3215921 -6.249381 
0.443903 1.439864 -0.1096172 -3.129813 -0.07560825 -3.005646 
4.369461 1.457361 -0.1117668 0.496515 0.1653719 -6.226138 
2.827471 1.110395 -0.06868744 -1.514073 -0.6007064 -5.522038 
1.980852 1.425543 -0.06868744 1.149836 0.6818449 -5.891329 
1.98258 1.110395 -0.06866455 0.374297 -0.3817765 -6.226175 
4.388699 1.106938 -0.06868744 0.9635078 -1.38808 -5.554829 
2.849783 1.122294 -0.1148415 -1.614011 -1.899677 -2.847648 
4.00139 1.121591 -0.1148415 -0.01064699 -2.959251 -3.947791 
3.616076 1.111892 -0.06944656 -0.2075329 -1.943887 -4.88917 
1.223916 1.120596 -0.07612419 -1.299611 -1.862147 -4.788665 
1.65132 1.111289 -0.06923485 -0.4130291 -1.994258 -4.98231 
1.814486 0.3304244 -0.06865883 -0.004039633 -0.04855472 -6.282844 
3.210711 1.121249 -0.1148415 0.2066638 -0.7113395 -6.174025 
1.727865 2.835819 -0.11022 1.846089 -0.132881 -1.369174 
3.082247 2.835548 -0.1102962 -1.898546 0.9232948 -1.990728 
0.7013607 2.822392 -0.1119499 -1.403174 2.325893 -4.440236 
1.769394 2.803177 -0.1098843 1.7867 1.857623 -2.498794 
4.175051 2.79989 -0.1103802 2.490792 1.476086 -2.135913 
1.952284 2.379931 -0.1110115 2.689421 0.6374063 -4.549748 
1.9636 1.928907 -0.1099606 2.162333 -1.139626 -3.867101 
4.357283 2.379469 -0.1104546 2.627802 0.9648801 -1.743457 
2.850786 1.881531 -0.1098289 -1.725384 1.538595 -1.799605 
4.370275 1.122807 -0.1148415 1.733028 -1.787562 -2.892227 
0.8071976 1.1215 -0.1148415 -0.03222023 -3.060079 -3.168643 
1.226611 1.12143 -0.1148415 -1.60102 -1.62955 -1.752889 
1.596639 1.122646 -0.1147976 1.10301 -2.312711 -3.492474 
3.627077 3.026086 -0.1080933 0.6345816 2.986832 -2.423939 
3.042524 2.80371 -0.1096764 -1.139402 1.868883 -1.747249 
4.343266 1.942264 -0.113884 1.534241 -1.648992 -4.543163 
0.4467735 1.881572 -0.1096706 -2.069743 1.479814 -2.048136 
1.964109 1.879853 -0.1100197 1.49953 1.858677 -2.255949 
1.662054 1.120234 -0.1146507 -1.618786 -1.714582 -2.306969 
1.967955 1.365655 -0.1138859 2.581013 0.7151887 -3.762675 
3.63014 1.121239 -0.1148415 -1.666129 -1.799894 -2.468199 
3.576481 1.121812 -0.1148415 1.297518 -2.177574 -3.19238 
3.514769 2.722762 0.3659096 1.791442 -2.22061 2.950568 
3 0 1 2 
3 3 4 5 
3 4 3 6 
3 2 1 7 
3 0 2 8 
3 3 9 10 
3 3 11 6 
3 7 1 12 
3 9 13 10 
3 8 14 0 
3 10 13 15 
3 16 7 12 
3 17 5 4 
3 18 5 17 
3 0 14 19 
3 12 20 16 
3 16 20 21 
3 18 22 23 
3 24 14 25 
3 26 13 27 
3 22 28 23 
3 21 20 29 
3 25 14 30 
3 26 27 31 
3 25 32 33 
3 34 29 35 
3 23 28 36 
3 31 37 38 
3 35 39 34 
3 40 23 36 
3 32 41 33 
3 38 37 42 
3 35 43 39 
3 44 45 46 
3 47 48 45 
3 49 50 51 
3 44 47 45 
3 52 46 45 
3 33 41 53 
3 54 55 56 
3 45 48 57 
3 39 43 52 
3 50 55 54 
3 50 54 58 
3 56 59 60 
3 61 39 52 
3 60 59 62 
3 33 53 57 
3 56 60 54 
3 50 58 51 
3 18 17 63 
3 64 24 25 
3 49 36 50 
3 7 65 2 
3 66 9 3 
3 67 3 5 
3 68 65 7 
3 69 7 16 
3 0 19 70 
3 14 24 19 
3 13 26 15 
3 63 22 18 
3 69 16 21 
3 71 18 23 
3 25 30 32 
3 72 34 39 
3 32 73 41 
3 48 33 57 
3 41 74 53 
3 75 45 57 
3 76 51 58 
3 5 18 77 
3 78 19 24 
3 20 79 29 
3 21 29 80 
3 31 27 81 
3 29 34 80 
3 37 31 81 
3 80 34 72 
3 37 81 82 
3 49 23 40 
3 42 37 83 
3 40 36 49 
3 42 83 38 
3 59 38 83 
3 59 56 38 
3 43 46 52 
3 77 18 71 
3 13 84 27 
3 50 85 55 
3 59 83 62 
3 2 65 8 
3 86 7 69 
3 87 12 1 
3 13 9 88 
3 89 14 8 
3 90 5 77 
3 13 88 84 
3 26 91 15 
3 78 24 92 
3 69 21 80 
3 32 30 73 
3 37 82 83 
3 52 93 61 
3 60 94 54 
3 95 96 97 
3 98 96 95 
3 98 99 96 
3 97 96 100 
3 99 101 102 
3 96 99 102 
3 103 104 105 
3 106 103 107 
3 96 102 100 
3 103 105 107 
3 108 109 110 
3 110 109 111 
3 112 113 114 
3 114 113 115 
3 113 116 117 
3 118 119 120 
3 119 121 120 
3 118 120 122 
3 123 124 125 
3 123 125 126 
3 113 117 115 
3 114 115 127 
3 86 68 7 
3 128 90 77 
3 128 77 129 
3 89 130 131 
3 132 128 129 
3 133 14 89 
3 27 84 81 
3 134 71 23 
3 29 79 35 
3 135 136 137 
3 138 47 44 
3 136 135 49 
3 136 51 139 
3 45 93 52 
3 140 60 62 
3 94 58 54 
3 94 76 58 
3 76 139 51 
3 141 142 143 
3 143 142 144 
3 145 146 147 
3 148 147 146 
3 149 150 151 
3 151 150 152 
3 153 154 155 
3 156 149 151 
3 157 158 159 
3 158 160 159 
3 161 153 155 
3 162 157 159 
3 160 156 151 
3 163 107 105 
3 163 164 165 
3 166 167 168 
3 167 169 168 
3 170 171 172 
3 173 174 175 
3 168 169 176 
3 174 177 175 
3 173 175 178 
3 179 173 178 
3 176 169 180 
3 168 176 181 
3 177 174 182 
3 177 183 175 
3 170 172 184 
3 184 172 185 
3 186 187 188 
3 177 182 183 
3 175 183 178 
3 178 183 189 
3 187 190 188 
3 181 176 180 
3 184 191 170 
3 165 164 192 
3 193 118 194 
3 195 189 196 
3 190 195 197 
3 189 112 114 
3 119 198 121 
3 195 196 197 
3 197 196 199 
3 194 118 122 
3 197 199 200 
3 199 196 127 
3 200 199 201 
3 122 126 125 
3 202 203 204 
3 205 206 207 
3 208 209 210 
3 206 211 66 
3 203 212 86 
3 208 210 65 
3 213 214 130 
3 206 66 67 
3 3 67 66 
3 214 215 130 
3 208 65 68 
3 206 67 207 
3 216 90 217 
3 8 65 210 
3 207 67 90 
3 88 9 66 
3 90 67 5 
3 217 90 128 
3 203 86 218 
3 204 203 218 
3 90 216 207 
3 219 217 128 
3 213 130 220 
3 132 219 128 
3 221 84 88 
3 222 86 69 
3 222 69 223 
3 224 225 221 
3 225 222 223 
3 89 131 133 
3 221 225 84 
3 19 78 70 
3 225 223 84 
3 133 226 227 
3 69 80 228 
3 229 228 80 
3 84 230 231 
3 84 231 81 
3 232 71 134 
3 133 227 30 
3 14 133 30 
3 232 134 233 
3 81 231 82 
3 233 134 234 
3 235 233 234 
3 23 49 134 
3 229 80 236 
3 80 72 236 
3 237 238 73 
3 239 72 240 
3 72 39 240 
3 239 240 241 
3 82 242 243 
3 82 243 83 
3 41 73 74 
3 83 243 140 
3 39 61 240 
3 49 51 136 
3 62 83 140 
3 73 238 74 
3 61 244 240 
3 245 137 136 
3 74 57 53 
3 140 246 60 
3 61 247 248 
3 249 141 143 
3 250 251 74 
3 245 252 253 
3 254 255 145 
3 256 257 258 
3 245 253 259 
3 260 74 251 
3 249 143 144 
3 255 261 262 
3 255 262 145 
3 263 247 93 
3 257 264 265 
3 257 265 258 
3 254 145 266 
3 259 253 267 
3 268 144 142 
3 269 270 271 
3 269 271 272 
3 273 274 275 
3 275 274 276 
3 277 278 279 
3 280 277 279 
3 270 281 271 
3 273 275 282 
3 283 284 280 
3 275 276 285 
3 278 286 279 
3 275 285 282 
3 283 280 287 
3 279 286 288 
3 289 101 99 
3 104 103 290 
3 100 102 291 
3 292 187 186 
3 160 293 169 
3 187 179 190 
3 166 168 181 
3 169 293 180 
3 108 110 185 
3 171 108 185 
3 198 119 118 
3 112 294 113 
3 295 193 124 
3 296 297 298 
3 299 297 296 
3 298 300 296 
3 201 202 200 
3 202 212 203 
3 301 302 303 
3 88 303 302 
3 66 303 88 
3 210 304 8 
3 221 305 224 
3 89 8 304 
3 88 306 221 
3 305 222 225 
3 77 235 129 
3 133 307 226 
3 30 227 73 
3 308 134 49 
3 236 82 231 
3 309 33 48 
3 140 310 141 
3 75 255 254 
3 93 247 61 
3 268 248 247 
3 311 247 263 
3 247 311 268 
3 312 278 277 
3 313 284 283 
3 314 154 153 
3 158 157 315 
3 154 316 155 
3 317 106 291 
3 101 317 102 
3 158 315 160 
3 291 106 107 
3 318 171 155 
3 318 109 108 
3 171 318 108 
3 167 160 169 
3 319 171 170 
3 320 165 192 
3 321 170 322 
3 109 166 111 
3 323 186 188 
3 111 193 110 
3 198 324 298 
3 198 298 297 
3 197 324 190 
3 324 197 200 
3 297 299 198 
3 124 194 122 
3 189 114 127 
3 124 122 125 
3 300 325 296 
3 209 115 117 
3 299 120 121 
3 299 301 303 
3 326 207 216 
3 86 212 68 
3 211 303 66 
3 301 325 302 
3 305 218 86 
3 305 86 222 
3 228 223 69 
3 77 71 235 
3 20 327 79 
3 308 234 134 
3 82 239 242 
3 43 35 328 
3 137 245 329 
3 74 75 57 
3 75 330 45 
3 330 93 45 
3 331 244 61 
3 246 94 60 
3 61 248 331 
3 76 257 256 
3 139 252 245 
3 332 74 260 
3 253 252 139 
3 141 310 142 
3 251 332 260 
3 261 145 262 
3 261 333 145 
3 258 265 334 
3 147 311 145 
3 334 274 273 
3 312 277 280 
3 335 148 146 
3 336 272 271 
3 337 287 280 
3 338 282 285 
3 101 289 317 
3 150 95 97 
3 155 316 318 
3 157 162 318 
3 104 163 105 
3 317 291 102 
3 292 97 100 
3 320 107 163 
3 291 339 100 
3 292 151 152 
3 159 166 162 
3 319 155 171 
3 319 161 155 
3 161 319 321 
3 339 292 100 
3 318 166 109 
3 320 163 165 
3 292 339 187 
3 186 293 292 
3 160 167 166 
3 321 319 170 
3 187 339 179 
3 293 186 323 
3 174 320 182 
3 180 293 323 
3 182 320 294 
3 294 189 182 
3 189 183 182 
3 323 340 180 
3 340 181 180 
3 185 191 184 
3 185 295 191 
3 189 294 112 
3 190 189 195 
3 193 198 118 
3 124 193 194 
3 294 116 113 
3 295 124 123 
3 324 200 202 
3 298 324 300 
3 209 127 115 
3 299 296 325 
3 299 122 120 
3 209 117 341 
3 326 126 122 
3 213 209 214 
3 127 209 208 
3 208 201 127 
3 202 201 212 
3 303 211 299 
3 326 205 207 
3 206 205 211 
3 201 208 68 
3 212 201 68 
3 220 209 213 
3 325 204 218 
3 210 209 220 
3 220 304 210 
3 325 218 306 
3 305 306 218 
3 305 221 306 
3 342 219 132 
3 11 343 6 
3 224 305 225 
3 230 84 223 
3 230 228 229 
3 235 71 232 
3 230 229 236 
3 344 73 227 
3 239 82 236 
3 308 345 234 
3 308 49 135 
3 345 308 135 
3 242 331 243 
3 240 331 241 
3 331 310 243 
3 310 140 243 
3 331 248 310 
3 94 249 257 
3 346 75 254 
3 140 141 249 
3 257 249 264 
3 257 76 94 
3 139 76 256 
3 139 256 334 
3 334 256 258 
3 310 248 268 
3 311 254 266 
3 142 310 268 
3 263 93 311 
3 251 347 332 
3 266 145 311 
3 267 253 334 
3 313 144 284 
3 332 347 270 
3 270 269 332 
3 312 348 278 
3 280 284 312 
3 349 274 334 
3 273 350 334 
3 273 351 350 
3 348 311 147 
3 145 333 146 
3 348 147 148 
3 146 333 335 
3 269 272 335 
3 278 348 286 
3 274 349 337 
3 274 337 276 
3 149 156 315 
3 156 160 315 
3 97 292 150 
3 152 150 292 
3 157 318 316 
3 291 107 320 
3 159 160 166 
3 162 166 318 
3 174 291 320 
3 174 173 291 
3 292 293 160 
3 151 292 160 
3 179 291 173 
3 339 291 179 
3 172 171 185 
3 192 294 320 
3 111 166 181 
3 178 190 179 
3 192 164 116 
3 192 116 294 
3 178 189 190 
3 188 190 324 
3 323 188 324 
3 181 340 198 
3 198 111 181 
3 185 110 193 
3 340 323 324 
3 198 340 324 
3 198 193 111 
3 193 295 185 
3 196 189 127 
3 198 299 121 
3 300 324 202 
3 325 300 202 
3 199 127 201 
3 299 211 122 
3 122 211 205 
3 122 205 326 
3 214 209 341 
3 202 204 325 
3 301 299 325 
3 302 325 306 
3 88 302 306 
3 130 89 220 
3 89 304 220 
3 12 327 20 
3 223 228 230 
3 131 307 133 
3 231 230 236 
3 26 31 352 
3 345 235 234 
3 236 72 239 
3 237 73 344 
3 241 331 239 
3 242 239 331 
3 135 137 329 
3 240 244 331 
3 136 139 245 
3 74 238 250 
3 75 74 255 
3 93 330 346 
3 246 140 249 
3 94 246 249 
3 330 75 346 
3 329 245 259 
3 254 311 346 
3 255 74 261 
3 261 74 332 
3 253 139 334 
3 93 346 311 
3 249 144 264 
3 265 264 334 
3 333 261 269 
3 264 144 313 
3 334 264 313 
3 334 313 349 
3 332 269 261 
3 268 311 348 
3 312 268 348 
3 144 268 312 
3 334 350 267 
3 283 349 313 
3 347 353 270 
3 269 335 333 
3 283 287 349 
3 348 148 354 
3 287 337 349 
3 286 348 354 
3 272 355 335 
3 337 280 356 
3 357 95 358 
3 149 358 150 
3 95 150 358 
3 154 359 316 
3 170 191 322 
3 341 360 214 
3 91 10 15 
3 235 232 233 
3 226 361 227 
3 361 344 227 
3 237 344 238 
3 329 259 362 
3 251 353 347 
3 350 363 267 
3 338 273 282 
3 359 315 157 
3 359 157 316 
3 116 341 117 
3 214 360 215 
3 216 217 364 
3 215 360 365 
3 364 217 219 
3 366 1 0 
3 367 267 363 
3 336 355 272 
3 288 280 279 
3 288 356 280 
3 98 95 357 
3 368 106 317 
3 104 290 163 
3 295 322 191 
3 6 369 4 
3 130 370 131 
3 92 24 64 
3 259 267 362 
3 357 99 98 
3 103 368 290 
3 153 161 314 
3 123 322 295 
3 342 132 371 
3 235 371 129 
3 238 372 250 
3 315 358 149 
3 317 289 373 
3 163 374 164 
3 375 116 164 
3 132 129 371 
3 131 370 307 
3 370 226 307 
3 35 79 328 
3 47 138 48 
3 362 267 351 
3 351 267 367 
3 270 353 281 
3 376 288 286 
3 337 338 276 
3 336 271 281 
3 368 103 106 
3 216 364 326 
3 365 130 215 
3 87 377 12 
3 22 378 28 
3 250 372 251 
3 367 363 350 
3 367 350 379 
3 351 367 379 
3 350 351 379 
3 351 273 338 
3 276 338 285 
3 368 317 373 
3 164 374 375 
3 116 375 341 
3 380 56 55 
3 355 148 335 
3 381 354 148 
3 289 99 357 
3 290 374 163 
3 382 345 135 
3 286 354 376 
3 329 382 135 
3 351 383 362 
3 351 338 384 
3 381 148 355 
3 4 385 17 
3 79 386 328 
3 309 387 33 
3 56 388 38 
3 383 351 384 
3 0 389 366 
3 389 0 70 
3 4 369 385 
3 91 390 10 
3 91 26 390 
3 63 378 22 
3 235 391 371 
3 327 386 79 
3 353 392 281 
3 393 288 376 
3 394 338 337 
3 392 336 281 
3 395 290 368 
3 12 377 327 
3 352 390 26 
3 226 396 361 
3 85 380 55 
3 397 289 357 
3 123 398 322 
3 123 126 398 
3 399 337 356 
3 321 322 400 
3 342 371 391 
3 17 385 63 
3 401 384 338 
3 400 322 398 
3 1 377 87 
3 402 138 44 
3 46 402 44 
3 341 375 403 
3 342 404 219 
3 343 369 6 
3 36 405 50 
3 406 381 355 
3 407 154 314 
3 289 408 373 
3 360 341 403 
3 396 226 370 
3 409 31 38 
3 382 329 410 
3 393 356 288 
3 399 394 337 
3 397 357 358 
3 364 219 404 
3 78 92 70 
3 28 405 36 
3 380 388 56 
3 251 411 353 
3 354 393 376 
3 130 365 370 
3 396 370 412 
3 64 25 33 
3 393 413 356 
3 414 315 359 
3 407 359 154 
3 415 314 161 
3 321 416 161 
3 365 412 370 
3 64 33 387 
3 328 46 43 
3 410 329 362 
3 397 358 315 
3 414 397 315 
3 407 414 359 
3 415 407 314 
3 326 417 126 
3 360 403 365 
3 63 385 378 
3 391 235 345 
3 344 418 238 
3 353 411 392 
3 392 419 336 
3 419 355 336 
3 394 401 338 
3 397 408 289 
3 373 395 368 
3 415 161 416 
3 290 395 374 
3 400 416 321 
3 398 126 417 
3 417 326 364 
3 412 365 420 
3 366 377 1 
3 391 345 382 
3 361 418 344 
3 421 48 138 
3 402 46 328 
3 251 372 411 
3 354 422 393 
3 413 399 356 
3 423 414 407 
3 423 407 415 
3 415 416 400 
3 375 374 424 
3 403 420 365 
3 377 425 327 
3 426 391 382 
3 427 426 382 
3 396 412 361 
3 361 412 418 
3 428 85 50 
3 421 309 48 
3 238 418 372 
3 427 410 362 
3 429 372 430 
3 372 429 411 
3 431 429 430 
3 427 362 432 
3 411 429 431 
3 431 430 433 
3 362 383 432 
3 411 431 433 
3 383 384 432 
3 392 411 433 
3 413 393 422 
3 434 399 413 
3 435 408 397 
3 436 423 415 
3 374 395 424 
3 403 375 424 
3 404 342 391 
3 404 391 426 
3 327 425 386 
3 405 428 50 
3 427 382 410 
3 372 437 430 
3 430 437 438 
3 430 438 433 
3 427 432 439 
3 433 438 440 
3 433 440 392 
3 439 432 384 
3 440 419 392 
3 440 441 419 
3 441 355 419 
3 441 442 355 
3 394 399 434 
3 439 384 401 
3 355 442 406 
3 406 354 381 
3 373 408 435 
3 414 435 397 
3 436 415 400 
3 417 400 398 
3 404 417 364 
3 385 443 378 
3 412 420 418 
3 372 418 437 
3 422 354 406 
3 413 422 434 
3 401 394 439 
3 395 373 424 
3 373 435 444 
3 373 444 424 
3 435 414 445 
3 423 400 414 
3 423 436 400 
3 435 445 444 
3 400 417 446 
3 400 446 414 
3 445 414 447 
3 414 446 447 
3 403 424 420 
3 448 447 449 
3 447 446 449 
3 447 448 450 
3 420 424 451 
3 424 444 451 
3 446 417 452 
3 447 450 445 
3 417 404 452 
3 10 453 343 
3 452 404 426 
3 448 454 450 
3 451 455 420 
3 456 450 457 
3 450 454 457 
3 452 426 427 
3 450 456 458 
3 420 455 459 
3 460 452 427 
3 378 405 28 
3 456 457 461 
3 459 462 420 
3 462 459 463 
3 460 427 464 
3 418 420 462 
3 456 461 465 
3 458 456 466 
3 456 465 467 
3 464 427 468 
3 466 456 467 
3 465 461 469 
3 462 437 418 
3 470 468 471 
3 462 472 437 
3 473 474 472 
3 473 467 474 
3 465 474 467 
3 465 475 474 
3 475 471 474 
3 437 472 474 
3 471 468 474 
3 437 474 438 
3 468 427 439 
3 438 474 440 
3 474 422 406 
3 440 474 441 
3 474 442 441 
3 474 468 434 
3 468 439 394 
3 422 474 434 
3 468 394 434 
3 442 474 406 
3 445 476 444 
3 477 448 449 
3 451 444 478 
3 479 445 450 
3 452 480 446 
3 443 385 369 
3 481 450 482 
3 483 452 460 
3 450 458 482 
3 457 484 461 
3 409 38 388 
3 421 387 309 
3 485 464 468 
3 486 472 462 
3 487 473 472 
3 487 488 473 
3 470 485 468 
3 489 477 449 
3 489 449 446 
3 480 489 446 
3 448 490 454 
3 451 478 455 
3 479 450 481 
3 453 10 390 
3 386 482 458 
3 352 31 457 
3 378 491 460 
3 64 492 459 
3 493 386 458 
3 409 457 31 
3 380 85 471 
3 471 85 428 
3 473 402 328 
3 473 328 494 
3 494 467 473 
3 377 445 479 
3 377 476 445 
3 453 490 448 
3 448 477 453 
3 452 483 480 
3 92 455 70 
3 483 460 491 
3 484 457 409 
3 459 492 463 
3 493 458 466 
3 495 328 466 
3 485 405 464 
3 387 421 486 
3 471 428 496 
3 497 380 471 
3 488 402 473 
3 472 138 487 
3 495 466 467 
3 469 475 465 
3 475 497 471 
3 496 470 471 
3 444 476 366 
3 444 366 478 
3 477 489 343 
3 478 366 389 
3 343 489 369 
3 489 480 369 
3 480 443 369 
3 366 476 377 
3 453 477 343 
3 478 389 70 
3 377 479 425 
3 490 453 390 
3 479 481 425 
3 443 480 483 
3 455 478 70 
3 490 390 454 
3 481 482 425 
3 455 92 459 
3 454 390 457 
3 443 483 491 
3 459 92 64 
3 386 425 482 
3 378 443 491 
3 457 390 352 
3 386 493 328 
3 378 460 464 
3 378 464 405 
3 463 492 64 
3 463 64 387 
3 328 493 466 
3 484 409 388 
3 484 388 461 
3 421 138 486 
3 388 380 475 
3 380 497 475 
3 428 405 470 
3 463 387 486 
3 328 495 494 
3 388 469 461 
3 388 475 469 
3 428 470 496 
3 138 402 487 
3 405 485 470 
3 487 402 488 
3 462 463 486 
3 486 138 472 
3 494 495 467 
3 3 10 498 
3 10 343 498 
3 3 498 11 
3 498 343 11 
3 312 284 144 
