ply
format ascii 1.0
comment VCGLIB generated
element vertex 346
property float x
property float y
property float z
property float nx
property float ny
property float nz
element face 688
property list uchar int vertex_indices
end_header
0.852684 5.029882 0.2647438 1.28948 2.306151 3.350822 
0.01066589 5.027741 0.2617149 -1.797639 1.655811 2.205492 
0.08641052 4.546607 0.2647133 -0.8249788 -1.741614 5.215539 
1.533546 5.027171 0.2389069 0.02583431 3.24195 4.023003 
0.9506531 5.051779 0.2640991 -1.566773 1.741848 2.239914 
0.9677505 4.582888 0.2491531 -1.169852 -1.426713 5.376605 
2.214058 5.013684 0.2648735 1.773228 1.57238 2.128979 
0.804184 4.592776 0.2629623 1.256204 -1.59516 5.114916 
2.196632 4.53365 0.2648888 1.947087 -1.560456 2.286848 
1.054321 3.927719 0.2646866 0.9434881 2.333484 2.630889 
0.1444244 3.891774 0.265377 -0.610366 2.842835 3.916817 
0.7510681 3.434953 0.265316 0.3085448 -2.981824 3.849619 
3.921631 3.914619 0.1963882 0.8318681 -0.06067605 5.198219 
3.937363 3.447114 0.2650108 -1.756947 -1.668049 2.334335 
4.24205 3.915832 0.2663841 -0.2042863 3.056365 3.039116 
4.967178 3.893619 0.264843 1.806437 1.80615 2.54245 
4.996758 3.411986 0.2658348 1.893262 -1.578353 2.252639 
3.873367 3.903956 0.2639122 1.596003 2.149682 3.213398 
3.891525 3.423138 0.2658463 1.441215 -1.954776 1.982731 
3.051376 3.928565 0.2644577 -2.036895 1.519755 2.350584 
3.040863 3.508106 0.2643166 -2.545032 -0.913756 3.09056 
0.009414673 3.885525 0.2288818 -2.498886 2.040444 2.591694 
0.01313782 3.405216 0.2645531 -1.819243 -1.606519 2.111885 
1.07917 3.4332 0.202282 0.01283455 0.1820372 6.049154 
3.032867 3.433403 0.2032089 0.4172158 -0.681244 5.39202 
5.010857 2.789937 0.2649956 2.592772 1.231559 2.91495 
4.549179 2.782006 0.2666283 -0.3389813 1.84 5.602373 
4.863457 2.308915 0.2624207 0.3760171 -2.807061 4.275894 
3.983749 2.390264 0.2456207 -1.13675 -1.719499 5.094157 
5.008247 2.325949 0.2348289 2.797275 -1.727242 2.963919 
4.946396 1.684043 0.2190399 3.312245 0.4699303 4.815941 
4.817017 1.669608 0.2615051 0.5089921 2.568711 4.613282 
5.008408 1.187648 0.2639389 1.727326 -1.493348 1.838809 
3.342003 1.080721 0.2658463 1.985439 1.360283 2.591766 
2.490517 1.11058 0.2647591 -1.855621 1.568289 2.353718 
2.644928 0.6278962 0.2515755 0.01828808 -2.608575 5.0193 
2.495232 0.6742287 0.2572441 -2.360576 -0.9119868 4.353493 
3.31601 0.5883563 0.2002029 -0.393389 1.360257 5.201291 
1.479874 0.5645089 0.2602921 0.2739961 2.522739 4.544286 
1.398941 0.5967938 0.2361221 -0.3579351 0.1961864 6.210992 
1.364349 0.09903283 0.2724609 -1.903047 -1.40428 2.454303 
1.69574 4.48586 0.1966095 -0.4724352 -0.005090058 4.05383 
4.285408 3.998191 0.2383881 -0.01221735 -1.384802 5.984113 
3.134308 4.487756 0.2717781 -1.63502 0.9865451 1.923144 
3.43277 4.036338 0.2637825 -0.7983705 -2.098002 5.151881 
3.343903 3.982645 0.1969414 0.15996 0.7499145 4.621783 
3.048325 3.95401 0.196312 -0.736037 0.2008482 4.249073 
0.01959229 2.805963 0.2684898 -2.664245 -0.2901908 4.390114 
0.02449799 2.368979 0.2479591 -2.57747 -0.9898999 3.795119 
1.02758 2.770966 0.2456131 1.406738 1.901601 4.204263 
3.944305 2.805004 0.2025146 0.3653857 0.0982042 5.993488 
3.868217 2.806095 0.2442818 0.7932078 2.569412 3.026952 
3.690956 2.359226 0.2401962 0.4476927 -2.176815 5.290208 
3.910851 2.375707 0.2146111 -0.3017547 -0.8647264 6.140838 
3.948311 1.604844 0.2470779 -2.591999 0.7226884 3.285168 
2.406311 0.6273865 0.2635231 1.541316 -1.761895 4.069236 
2.422379 1.092129 0.2498703 1.928992 1.121475 5.051936 
1.604118 0.6522807 0.2557755 -2.310707 -0.6642501 3.749823 
1.860901 0.01938577 0.2413521 1.667308 -1.675896 1.96807 
5.020485 5.013602 0.2472115 1.850351 1.565777 2.155794 
3.803116 5.054909 0.2476501 -0.5803626 2.972547 3.085284 
4.564491 4.549685 0.2474632 -0.1642902 -2.965533 4.157589 
3.147644 4.546556 0.2403488 -0.3496713 -2.453632 5.044096 
3.739677 5.029494 0.2477989 -0.4457799 2.846465 3.944804 
2.877411 5.029494 0.2477989 -0.1032209 2.830719 3.818532 
2.97142 4.608716 0.2249184 -1.055967 -1.383021 5.916935 
3.810234 4.559574 0.2296638 0.07184502 -2.621721 5.080911 
5.003242 4.533905 0.2476501 1.896182 -1.675879 2.311666 
2.278259 5.024632 0.2420959 -1.278198 2.370673 3.157346 
2.90303 4.571664 0.2008247 -0.3392006 -0.8034326 6.182291 
2.269943 4.547596 0.247921 -1.099768 -1.734465 4.671857 
4.255569 4.548819 0.1959419 -0.1016827 -1.978255 3.229403 
3.111504 4.508776 0.196682 -0.6148283 0.075683 4.548781 
2.473053 4.499286 0.1963997 0.01533619 0.4251195 4.566946 
4.225235 4.463188 0.2409096 1.856529 1.147293 5.019219 
0.8862534 4.508776 0.1952896 0.1112569 1.75423 3.997943 
0.5936432 4.495096 0.247921 -1.891253 1.504776 2.621876 
1.651039 4.469345 0.247921 1.408705 2.059938 3.521185 
0.5056305 4.478785 0.2476692 0.8896046 1.863101 4.63918 
0.004257202 4.481089 0.214077 -3.620544 -0.4170221 3.810501 
0.460701 4.002595 0.2388878 0.9891924 -2.403541 4.417007 
1.292068 3.996825 0.2475815 0.223843 -1.96454 5.541782 
1.695679 3.982788 0.1967773 -0.9259147 0.1697948 4.929793 
4.969757 4.476665 0.2468605 1.950885 1.561156 2.215793 
4.336823 4.479723 0.2467422 -1.06772 1.453893 5.354589 
4.969269 3.996825 0.247921 2.476116 -1.273949 2.872669 
2.432068 4.476818 0.2470016 1.560627 1.797519 3.660203 
1.710556 4.476818 0.2470016 -1.724082 1.782461 2.454791 
2.116539 3.992758 0.2324104 0.05334822 -2.639024 4.949028 
3.06945 4.477654 0.2457619 1.091668 2.33123 4.414942 
2.486115 4.477225 0.2479897 -1.852573 1.736218 2.925653 
2.759468 4.033259 0.2404366 -0.1921855 -1.719324 5.774913 
3.299988 3.995836 0.24823 1.679746 -1.36127 3.052356 
1.711327 3.996856 0.247921 -1.684914 -1.749654 2.59618 
2.429489 3.990637 0.2047195 -0.2147875 0.8791664 5.944728 
-0.004936218 4.038815 0.2176704 -2.462745 -1.48991 2.816695 
0.568924 4.007121 0.1936493 0.5048745 -0.5732574 6.09681 
4.899887 3.912754 0.2030067 1.277512 2.121817 3.258181 
1.394165 3.912835 0.2475967 -0.3058584 2.327899 5.099671 
1.138824 3.924691 0.2027397 0.3300312 -0.3725847 5.680262 
1.146103 3.586642 0.247921 -1.891716 -0.1867095 5.345409 
1.682396 3.441783 0.2292213 -0.05161598 -2.926298 4.869716 
1.722717 3.525523 0.2416649 -0.1725215 -0.4825241 6.235975 
2.998077 3.899063 0.2527962 1.772964 1.309013 4.514192 
2.459396 3.92726 0.2402534 -0.4556044 1.487994 5.807001 
2.973068 3.416175 0.2483788 0.660431 -2.224485 1.584401 
5.066756 3.386311 -0.1256711 2.736036 -1.541442 -1.367372 
2.25795 3.461774 0.234314 -0.03356452 0.4193012 6.260215 
3.202324 3.376102 0.1885529 0.009768721 0.8254339 5.020685 
1.649139 3.416471 0.1931038 -0.4132485 -1.736384 4.793544 
1.241776 3.323663 0.2419548 0.09767662 1.190054 6.045653 
1.651527 2.872908 0.2469521 1.426542 -0.9270232 5.272352 
0.5255356 3.365908 0.1968307 1.134006 -0.279174 4.829512 
0.5944214 2.839063 0.247921 -1.653304 -1.91448 2.830001 
4.342743 3.339199 0.244503 -1.299938 2.051729 3.565546 
4.932709 2.862499 0.2472725 2.446879 1.884708 4.363931 
4.932373 3.341442 0.247921 1.800899 1.586269 2.103529 
4.275818 3.349373 0.2478828 1.918198 1.886143 2.69591 
3.386795 3.316466 0.2477036 -0.1442801 1.801051 5.630207 
4.28051 2.866964 0.2478752 1.540395 -1.844972 4.150719 
1.710838 3.341778 0.2478256 -1.890443 0.8951109 4.989852 
1.710503 2.862407 0.2468224 -2.302874 -0.8658674 1.953898 
2.431816 3.341809 0.24786 0.1634849 0.474073 6.228044 
-0.05517578 3.341432 0.247921 -2.041872 1.581474 2.586561 
0.5220032 2.86252 0.2472649 1.786664 -1.558374 4.427505 
0.5216675 3.341432 0.247921 2.030378 1.470149 2.446569 
4.328384 2.839461 0.1964226 0.5684351 1.16345 5.033696 
2.491081 2.844619 0.233757 0.07204265 0.2636452 6.258934 
3.403107 2.834078 0.247921 -1.734454 -1.594177 2.379602 
0.5733871 2.828216 0.1962509 -0.3771097 0.6186931 3.750865 
2.205185 2.789927 0.2470512 1.444349 1.543357 4.5203 
1.148476 2.789387 0.2452774 -1.045924 2.449532 3.288814 
2.137878 2.311137 0.2414703 0.915977 -2.738211 3.455368 
1.302399 2.314614 0.2480469 -0.3104912 -2.123378 5.291064 
3.028412 2.77802 0.2256393 0.1704908 0.6642061 6.217739 
2.261681 2.784249 0.2473145 -2.520556 1.105373 3.216826 
2.942619 2.287614 0.2473145 1.639991 -1.966434 3.148399 
2.284805 2.320995 0.2426224 -1.6311 -2.006824 4.449222 
2.225037 2.312799 0.1954498 -0.3017043 -1.229161 5.668875 
-0.08725574 2.301975 -0.1030241 -4.78378 0.995476 -1.90632 
1.025803 2.295244 0.2298393 1.632918 -1.894188 3.944188 
1.04982 2.272073 0.1963463 0.3731467 0.04911249 5.652849 
4.974884 2.230206 0.2424278 1.836312 1.709022 2.385448 
4.344757 2.270993 0.1943855 0.2125644 -0.671901 5.439766 
4.343758 2.050014 0.2450409 -2.769845 0.3546284 4.128502 
0.4781113 2.195709 0.237175 1.227777 1.179121 5.530956 
-0.05186462 2.210735 0.2377281 -1.944585 1.613697 2.469893 
0.09434509 1.73795 0.2453651 -0.4903386 -2.710519 3.895871 
2.431061 2.230186 0.2460136 1.156945 2.408188 2.439592 
1.710838 2.164912 0.247921 -1.724781 0.7594935 5.238299 
1.710785 1.754097 0.2473145 -1.993083 -1.556149 2.280717 
3.313332 2.233223 0.2470245 1.158374 2.250974 4.069465 
2.492714 2.224416 0.2410164 -1.618833 2.033938 2.409678 
3.340141 1.75005 0.2456398 1.245333 -1.448535 4.933303 
4.769958 1.756228 0.2473946 -0.05706528 -1.544736 5.78751 
0.5244293 1.756136 0.247921 1.129267 -1.22181 5.259346 
3.395676 2.213192 0.2696571 -1.892991 1.286026 2.557895 
3.404343 1.682677 0.1958618 -0.2896395 1.312215 3.585093 
3.398331 1.735381 0.247467 -2.226369 -1.02502 2.352604 
2.486816 1.780398 0.247921 0.1373419 -1.589582 5.817142 
3.941437 1.686255 0.1937447 0.2053764 1.056065 5.748241 
1.06485 1.664093 0.2505074 0.9018165 2.363201 3.816787 
0.02098846 1.724932 0.2108269 -3.60252 -0.9579002 4.138314 
0.9988098 1.232023 0.2463722 0.5613511 -1.509967 5.699975 
2.258904 1.675531 0.1964226 -1.230464 0.106767 4.815954 
1.144913 1.664552 0.2478447 -2.002178 1.382644 2.058931 
2.090279 1.231463 0.2446632 0.4940309 0.4438252 6.199138 
3.009453 1.73218 0.1893768 0.01459784 -1.42333 4.200122 
3.057259 1.215223 0.2389069 -2.21555 -1.238055 4.071384 
3.098328 1.664073 0.247921 -0.9144514 1.740098 5.001564 
3.871887 1.666662 0.2430534 1.021994 2.330859 3.942035 
0.004119873 1.1862 0.2494926 -2.765306 0.4574787 3.680564 
5.03392 1.711934 0.07237244 5.882369 0.3170595 1.671836 
2.23587 1.247998 0.1978226 0.08849104 0.7820571 5.422915 
3.831841 1.187118 0.2472267 0.5828249 -2.449149 4.308433 
2.990639 1.651136 0.2468147 2.321337 1.117962 3.99178 
2.269493 1.664593 0.2473869 -1.835807 1.767962 2.467776 
2.982826 1.186649 0.2465096 1.386643 -1.987994 4.19288 
3.943054 1.159104 0.196785 0.3863441 1.168326 5.544206 
2.326355 1.243013 0.2434235 -1.408262 -2.093028 4.804214 
1.195282 1.231677 0.2426949 -1.535847 -1.270474 5.351219 
2.485184 1.138247 0.1946297 -0.354118 0.5967342 4.694008 
1.702942 1.134832 0.2408295 -0.06786843 -0.002264959 6.278383 
0.5836258 1.106859 0.1929359 0.08329124 -0.9545323 5.883555 
-0.03501892 1.086033 0.2478409 -2.869705 0.6300812 3.007254 
0.492981 0.7770064 0.2411728 1.956898 -0.5195668 5.37946 
0.5861282 0.6035933 0.2475815 -1.125133 -1.214599 4.95454 
1.182724 1.086277 0.2473679 0.2347399 1.678463 5.719834 
1.564796 0.6037055 0.2475891 1.868311 -1.891363 2.831866 
4.976898 1.079804 0.2423058 2.571219 1.360252 2.780784 
4.291306 1.078968 0.247921 -0.02352877 1.567392 5.863144 
4.97364 0.6047555 0.247921 2.7516 0.3037899 4.346094 
4.45871 0.6041133 0.247921 -0.2342491 -0.09340535 6.267901 
-0.03651428 0.6020438 0.2427025 -2.95987 -0.436135 2.922791 
2.463478 0.58084 0.192894 0.04007893 -0.3447055 5.395667 
0.5518265 0.718502 0.1833 -1.003467 -0.1313471 4.290941 
0.4380112 0.5434069 0.1904564 -0.1460046 2.271321 3.923267 
3.978363 0.591656 0.1966896 0.0003652759 1.064429 5.645063 
3.401245 1.104484 0.2476654 -1.293841 2.285495 2.715283 
3.386459 0.6261632 0.2476578 -0.9849886 -1.801316 4.689301 
1.566177 0.5784137 0.1964226 0.9316031 0.5391794 3.228173 
3.104568 0.5242827 0.2450142 2.443899 0.8936772 2.674107 
1.900421 0.5202458 0.1965904 0.2477424 0.5079756 6.234669 
3.103828 0.04185372 0.247921 1.712978 -1.609253 2.090947 
4.065292 0.5172793 0.247921 1.502978 2.083075 4.547273 
3.166153 0.541674 0.245575 -1.24079 1.643334 4.983296 
3.154625 0.05523866 0.2477379 -1.439806 -2.284726 3.033981 
4.410614 0.5208269 0.2474136 -0.6448417 0.3644359 6.193116 
5.010765 0.0422309 0.247921 1.784472 -1.648672 2.329582 
5.011314 0.5255569 0.2399254 3.179256 0.529741 3.200671 
-0.00188446 0.495423 0.2478943 -2.768217 -0.1981668 3.723347 
1.299522 0.05609497 0.2476578 1.347778 -2.420437 3.183884 
1.936279 0.04186391 0.247921 -1.107725 -2.226739 3.053251 
4.152466 0.511754 0.1928482 0.4151651 0.2162737 5.745996 
4.119415 0.03357605 0.2477913 0.02903401 -3.000555 3.781081 
0.008758545 0.0005775182 0.1858711 -2.199614 -2.270112 2.33235 
0.2274246 0.02329013 0.2472878 -0.2274215 -2.92929 3.879041 
2.222328 5.013266 0.1952629 3.082119 2.308103 1.891349 
2.282082 3.96139 0.1965446 -0.1176164 -1.277815 5.636036 
3.30159 2.911513 0.2392769 0.6539197 -1.008582 5.986699 
3.396912 2.820703 0.2025604 -1.085154 0.456001 4.244003 
1.724258 2.800794 0.2003441 -0.1004206 1.631306 3.454275 
0.04437256 2.241623 0.1940498 -1.87699 2.503749 4.129656 
2.957123 2.268964 0.2055817 0.9352276 0.7994915 4.664011 
1.644226 2.257027 0.197937 0.949605 -0.01084602 4.244208 
4.991379 2.25772 0.1321869 4.869312 -1.529318 2.35673 
0.535553 2.293267 0.1911545 -0.00505992 -1.623433 4.972367 
0.583374 2.106561 0.2405205 -2.124362 0.4020349 5.132823 
1.638885 2.249697 0.2345123 1.724751 1.808892 2.349075 
4.286224 2.222958 0.2550316 1.411425 1.50663 4.2054 
4.300919 1.742568 0.1957664 -0.3374102 0.6753886 5.993539 
0.5941544 1.732669 0.2411232 -2.18595 -1.106666 1.738065 
1.706833 1.742028 0.2023125 -1.248704 -0.7514887 4.996212 
0.6190872 1.682555 0.1956863 -0.06211124 1.316208 1.891362 
3.038544 1.156484 0.1928215 0.188867 0.458034 4.942559 
1.147568 1.182011 0.2028465 -0.2181974 0.06759238 5.808979 
1.293068 1.121039 0.188755 -0.2536798 1.3076 3.888176 
0.9257812 5.099304 0.04912186 -2.850327 3.991511 1.586692 
0.9352188 4.999034 0.203289 -2.198607 1.877163 2.711157 
2.198532 4.508878 0.196312 0.6033633 0.5648003 3.552907 
0.004043579 3.386969 0.17033 -3.724725 2.450248 2.194651 
3.921814 3.434056 0.1964226 0.2303813 -1.01488 3.784316 
3.121208 3.318379 0.2436218 0.2572074 1.553585 5.837566 
1.087601 2.79743 0.1940956 -0.1577323 -1.102198 4.400485 
2.258522 2.839114 0.1968575 -0.3605922 -1.268061 3.249627 
3.384911 2.25509 0.1911888 -0.133065 0.4867308 4.927154 
1.147171 1.681953 0.1953964 -0.5357723 0.8026834 4.518895 
3.100449 0.5937763 0.1965904 -0.10554 -1.450647 3.758674 
3.117401 -0.001522481 0.04108047 3.087652 -3.726984 1.276837 
3.136429 0.01394208 0.06423569 -1.227247 -5.766934 1.950193 
4.161224 -0.001522481 0.06428909 2.799072 -4.007349 1.545532 
0.2258682 3.921215 0.1936913 -0.7473434 2.007127 3.943887 
2.472771 2.224446 0.1967773 -0.2001499 0.9638261 4.34444 
3.881615 2.242337 0.2020302 -0.02980614 2.671611 4.296059 
3.358894 1.101028 0.1964226 0.06927044 2.313598 4.647532 
0.586113 4.519776 0.1967316 -0.3445851 -0.5339637 4.295608 
-0.07696533 2.816941 0.06422424 -3.230756 -3.20687 1.013936 
1.863556 -0.03228849 0.04940414 2.680306 -2.041395 0.3010969 
2.232994 5.055633 0.08033752 3.216428 3.536845 1.370968 
4.975952 4.498857 0.1642113 4.731116 -1.925688 1.697942 
5.034492 3.979588 -0.1141083 3.966547 1.747006 -2.920588 
4.292572 3.355592 0.1954651 0.5680816 1.002333 4.605064 
4.940811 3.369945 0.1334457 3.875217 -2.755463 1.527762 
4.899834 1.172714 0.2024612 1.385474 -2.433706 2.987743 
1.349716 0.07889934 0.2019768 0.9420621 -4.435333 3.198698 
3.109695 0.07827749 0.2030945 1.712464 -1.69578 2.2971 
-0.08382308 3.982313 -0.1127967 -4.504831 -0.1264898 -1.701333 
2.934608 3.32662 0.2365036 -0.01710563 0.9456005 6.164034 
4.997154 1.14365 -0.03676224 4.389835 -1.774794 3.640918 
1.865768 0.06839934 0.1942978 2.301005 -1.96259 2.036741 
1.320297 0.01419693 0.07173538 0.0752383 -6.00891 1.733777 
-0.1478917 2.247372 -0.1128084 -1.885733 0.9758465 -1.364046 
-0.1233805 1.669988 -0.1129679 -0.8726765 -1.198995 -0.7001435 
5.031876 0.5661297 0.06425095 6.081707 0.2170842 1.517254 
5.041901 5.056897 0.06428528 3.111839 3.233904 1.545118 
2.89119 5.070608 0.07243347 2.856765 1.9519 0.5290353 
0.8947747 5.151289 -0.1256711 0.1269752 3.176773 -2.147159 
-0.1272724 2.823509 -0.1140616 -4.09523 -0.3372646 -1.941347 
5.081903 2.836717 -0.1256711 1.776679 1.527614 -1.37211 
3.810073 5.096613 -0.1132131 -0.5856052 6.144124 0.3277214 
2.243607 5.017343 0.05505371 0.1337334 1.593679 0.797483 
5.083662 2.259364 -0.1208568 3.589237 -0.3576382 -2.132 
-0.03945528 1.096139 -0.1203898 -2.429318 1.732211 -4.427417 
4.948257 1.143293 -0.00598526 1.705887 -0.3177595 1.021657 
-0.0151825 5.071719 0.07326508 -3.140163 3.191625 1.454324 
-0.03680101 0.5159363 -0.1122946 -6.164159 0.02150252 0.9384398 
2.916702 5.071199 0.06425095 -1.052249 5.975427 0.9261724 
-0.08382308 4.559885 -0.1125982 -3.347093 0.1291294 -2.250089 
1.841373 -0.01972147 -0.1496142 1.562497 -1.698185 -4.495848 
5.036539 4.535183 -0.1138903 4.938395 -0.2905583 -2.184003 
5.082922 0.5258582 -0.1133883 4.125395 0.05487464 -2.04886 
5.082035 -0.0527431 -0.1125749 1.706253 -1.665622 -0.8720242 
-0.1253731 3.402099 -0.1131392 -3.174558 1.468037 -1.312877 
-0.04863242 1.705017 -0.1147855 -3.629799 -1.629501 -3.250371 
4.990456 1.127095 -0.0363884 4.491686 0.4756882 3.596098 
-0.1075015 1.098999 -0.1129952 -1.558894 1.279023 -1.071644 
0.6805794 -0.05225427 -0.1124231 0.1083789 -3.200798 -2.377746 
5.08381 3.964965 -0.1207673 1.559058 1.190361 -1.103225 
4.195777 -0.0527431 -0.1125749 -0.007194595 -4.687592 -1.830866 
-0.05334163 -0.07945162 -0.1125554 -1.246315 -1.391006 -0.9553922 
2.251744 5.122656 -0.1132443 -0.08817979 3.109114 -2.181324 
1.837178 -0.0933051 -0.1447999 1.098246 -1.655895 -1.133233 
2.897311 5.093462 -0.1517197 -0.009629569 3.093561 -2.861374 
5.093524 1.693014 -0.1271462 1.30482 0.8486053 -1.137275 
-0.06377974 5.121918 -0.1256711 -1.395753 1.361743 -0.964506 
5.094699 1.115609 -0.1261265 2.586148 0.06101098 -0.7455173 
3.130327 -0.0527431 -0.1128006 -0.07120161 -3.648997 -1.975647 
5.093859 5.107544 -0.1125632 1.696492 1.505938 -0.7747604 
5.0345 1.703415 -0.1130185 1.698357 1.888276 -4.509032 
-0.05824543 0.01386179 -0.1129134 -3.120053 -0.1904995 -2.443665 
-0.01158142 3.500613 -0.154697 -2.822272 0.6338706 -3.797509 
3.777241 5.093566 -0.151673 -0.1850799 3.13942 -2.879234 
4.982846 2.844434 -0.1200785 4.507576 2.002021 -1.796165 
4.984574 3.348204 -0.1517975 2.524218 -1.262884 -3.819401 
-0.03962653 2.892973 -0.1518092 -1.365648 -0.08449332 -6.01543 
1.296723 -0.01982547 -0.1124231 -0.2111631 -3.454877 -2.709812 
4.984512 5.093317 -0.1511826 0.6055416 2.558842 -4.124897 
-0.02643295 2.20629 -0.154697 -2.114011 -0.06860875 -5.460716 
4.974766 2.644318 -0.154697 0.827288 -0.01131506 -6.153005 
4.984411 0.9318943 -0.1515601 0.8419753 -0.005749916 -6.167124 
4.255167 0.01546347 -0.154697 -0.06317072 -1.560501 -5.862131 
4.44995 -0.003455069 -0.1518365 0.01605494 -1.987285 -5.598013 
4.984559 -0.0039335 -0.1517002 0.7468309 -1.609097 -5.437062 
4.559951 5.093628 -0.1518442 -0.01481643 3.072026 -3.87519 
-0.03955648 0.7025006 -0.1518248 -3.090009 -0.06419846 -2.977578 
0.4990218 5.084383 -0.154588 -0.07288953 1.400741 -5.914912 
4.984403 4.157728 -0.1515601 1.889407 -0.002912065 -5.667605 
-0.02644851 3.24189 -0.154697 -1.135024 0.05896717 -6.070379 
-0.03962653 3.131915 -0.1518092 -1.964201 0.008516322 -5.932363 
-0.02605933 1.369694 -0.154697 -2.137707 -0.3751365 -4.390207 
2.482947 2.8142 -0.1575731 0.001585868 0.01860994 -6.282962 
3.847 4.586354 -0.154697 -0.001084479 0.01038289 -6.28313 
1.618195 2.30991 -0.154697 -0.0148302 -0.0058417 -6.283157 
4.435846 4.765617 -0.154697 -0.001012179 0.02802995 -6.283058 
4.621303 4.75478 -0.154697 0.09377433 0.04641962 -6.281215 
4.543387 4.705804 -0.154697 0 0 -6.283185 
4.533284 4.695549 -0.154697 0 0 -6.283185 
4.543309 4.695008 -0.154697 0 0 -6.283185 
4.513139 4.646126 -0.154697 0.008735929 -0.007343391 -6.283161 
3.278228 3.181629 -0.1511203 0.01851314 0.002115014 -6.282707 
-0.02643295 3.002907 -0.154697 -0.6688374 -0.01669893 -6.210379 
3.483363 2.634593 -0.154697 0.02107717 0.000827931 -6.283 
0.5092964 2.254808 -0.1546698 -0.0004171375 -0.0120308 -6.283112 
1.610941 0.2852944 -0.154697 -0.113709 -0.2295283 -6.271822 
1.337565 1.883916 -0.1528678 -0.02156896 -0.006747218 -6.283103 
0.8756732 1.680503 -0.1516185 -0.006632981 -0.001263034 -6.28306 
3 0 1 2 
3 3 4 5 
3 3 5 6 
3 0 2 7 
3 6 5 8 
3 9 10 11 
3 12 13 14 
3 15 14 16 
3 12 17 18 
3 17 19 20 
3 14 13 16 
3 21 22 10 
3 17 20 18 
3 9 11 23 
3 18 20 24 
3 10 22 11 
3 25 26 27 
3 27 26 28 
3 25 27 29 
3 30 31 32 
3 33 34 35 
3 35 34 36 
3 37 33 35 
3 38 39 40 
3 41 8 5 
3 42 43 44 
3 42 44 12 
3 45 19 17 
3 19 46 20 
3 47 48 49 
3 26 50 28 
3 51 52 53 
3 31 54 32 
3 55 56 57 
3 38 40 58 
3 59 60 61 
3 62 63 64 
3 64 65 62 
3 60 66 61 
3 59 61 67 
3 63 62 66 
3 68 69 64 
3 69 68 70 
3 61 66 71 
3 62 72 66 
3 73 69 70 
3 72 43 74 
3 75 76 77 
3 78 79 80 
3 77 76 81 
3 82 77 81 
3 83 84 85 
3 74 43 42 
3 86 87 88 
3 89 90 91 
3 89 91 92 
3 87 93 88 
3 86 88 94 
3 85 84 42 
3 90 94 91 
3 80 79 95 
3 81 76 96 
3 97 14 15 
3 98 99 100 
3 98 100 101 
3 102 98 101 
3 103 104 105 
3 15 16 106 
3 107 102 101 
3 100 23 101 
3 18 24 108 
3 22 23 11 
3 109 110 111 
3 110 112 113 
3 114 115 116 
3 111 110 113 
3 117 118 119 
3 120 121 122 
3 123 47 124 
3 125 123 124 
3 126 117 119 
3 122 121 127 
3 114 126 115 
3 119 118 50 
3 50 118 128 
3 47 49 129 
3 115 26 25 
3 130 131 132 
3 131 133 132 
3 134 135 136 
3 137 135 138 
3 47 139 48 
3 136 135 137 
3 138 130 132 
3 48 140 49 
3 133 131 141 
3 142 143 144 
3 145 146 147 
3 148 149 150 
3 151 152 153 
3 142 144 154 
3 145 147 155 
3 156 157 158 
3 152 159 153 
3 156 158 160 
3 142 154 30 
3 148 150 159 
3 161 162 163 
3 164 165 166 
3 167 168 169 
3 170 169 168 
3 162 171 163 
3 30 32 172 
3 164 166 173 
3 174 170 168 
3 175 176 177 
3 178 170 174 
3 176 173 179 
3 174 168 178 
3 176 179 177 
3 166 165 180 
3 32 54 178 
3 34 33 181 
3 56 182 57 
3 183 184 185 
3 183 186 187 
3 182 187 188 
3 189 190 191 
3 191 190 192 
3 187 186 39 
3 185 184 193 
3 188 187 39 
3 36 34 194 
3 195 185 196 
3 197 198 199 
3 185 193 196 
3 190 198 192 
3 55 57 200 
3 198 197 192 
3 201 202 203 
3 204 205 206 
3 207 208 209 
3 39 210 211 
3 202 212 203 
3 213 204 214 
3 204 206 214 
3 210 215 216 
3 207 213 214 
3 207 214 208 
3 211 210 216 
3 217 6 8 
3 64 69 65 
3 72 62 65 
3 44 43 45 
3 78 80 96 
3 87 41 93 
3 103 94 104 
3 218 107 104 
3 105 104 107 
3 219 118 127 
3 118 219 220 
3 219 127 220 
3 221 131 130 
3 51 134 52 
3 49 140 141 
3 139 222 48 
3 134 223 52 
3 224 133 141 
3 224 132 133 
3 143 27 28 
3 143 225 27 
3 223 152 151 
3 141 226 227 
3 141 227 228 
3 229 156 230 
3 228 227 231 
3 228 231 232 
3 230 156 160 
3 153 159 167 
3 233 162 161 
3 176 175 167 
3 168 167 234 
3 160 170 178 
3 173 176 164 
3 235 161 163 
3 183 163 171 
3 236 235 187 
3 56 55 194 
3 202 201 194 
3 3 237 4 
3 4 238 75 
3 239 87 86 
3 72 73 90 
3 72 90 89 
3 46 94 103 
3 12 45 17 
3 22 21 240 
3 18 108 241 
3 240 123 125 
3 241 118 117 
3 118 242 127 
3 243 131 221 
3 127 135 134 
3 135 244 138 
3 226 140 48 
3 136 137 223 
3 27 225 29 
3 224 149 148 
3 146 145 222 
3 245 151 153 
3 227 226 231 
3 226 145 155 
3 147 146 162 
3 149 232 150 
3 164 159 150 
3 232 165 164 
3 170 157 169 
3 160 157 170 
3 167 175 234 
3 165 246 235 
3 234 175 177 
3 235 183 187 
3 178 198 190 
3 198 37 199 
3 182 200 57 
3 35 36 194 
3 194 247 35 
3 196 210 39 
3 213 197 204 
3 202 38 58 
3 205 247 206 
3 248 203 212 
3 249 214 206 
3 250 208 214 
3 1 79 2 
3 4 75 5 
3 7 75 238 
3 71 74 42 
3 45 89 92 
3 41 82 93 
3 80 95 251 
3 92 91 46 
3 103 105 46 
3 107 24 105 
3 23 22 112 
3 243 113 129 
3 226 141 140 
3 245 52 223 
3 223 252 152 
3 245 223 151 
3 253 156 229 
3 144 230 154 
3 230 30 154 
3 160 54 31 
3 54 160 178 
3 165 235 180 
3 181 177 179 
3 254 234 33 
3 185 195 183 
3 200 182 188 
3 200 39 38 
3 37 247 205 
3 70 68 239 
3 239 8 41 
3 76 255 96 
3 43 72 45 
3 99 82 81 
3 82 88 93 
3 94 218 104 
3 123 256 47 
3 111 113 221 
3 49 243 129 
3 244 135 127 
3 243 49 141 
3 163 183 235 
3 186 195 196 
3 257 58 40 
3 3 6 258 
3 258 6 217 
3 0 7 238 
3 65 69 72 
3 79 255 2 
3 255 7 2 
3 71 84 83 
3 77 82 41 
3 73 86 94 
3 90 73 94 
3 259 85 260 
3 96 99 81 
3 44 45 12 
3 46 45 92 
3 42 97 85 
3 251 10 9 
3 99 251 9 
3 251 21 10 
3 20 46 24 
3 12 18 241 
3 16 13 241 
3 112 22 240 
3 261 262 16 
3 116 261 114 
3 112 110 23 
3 242 118 108 
3 112 125 124 
3 118 220 128 
3 220 50 128 
3 220 134 51 
3 51 50 220 
3 50 53 28 
3 243 141 131 
3 53 50 51 
3 222 226 48 
3 53 143 28 
3 142 225 143 
3 253 245 156 
3 152 252 159 
3 252 148 159 
3 245 157 156 
3 143 229 230 
3 226 233 231 
3 224 228 232 
3 149 224 232 
3 234 178 168 
3 178 263 32 
3 33 234 181 
3 182 236 187 
3 34 181 194 
3 186 183 195 
3 37 254 33 
3 194 181 56 
3 200 194 55 
3 39 186 196 
3 188 39 200 
3 247 37 35 
3 39 264 40 
3 200 38 202 
3 197 37 205 
3 204 197 205 
3 191 207 209 
3 39 211 264 
3 203 265 201 
3 247 265 206 
3 4 237 238 
3 217 8 239 
3 75 41 5 
3 239 73 70 
3 71 259 61 
3 67 61 259 
3 255 76 75 
3 71 72 74 
3 255 79 78 
3 239 41 87 
3 73 239 86 
3 259 71 83 
3 96 255 78 
3 84 71 42 
3 45 46 19 
3 14 97 12 
3 98 102 107 
3 251 266 21 
3 13 12 241 
3 24 46 105 
3 99 9 23 
3 23 109 101 
3 261 16 241 
3 112 240 125 
3 109 23 110 
3 261 241 117 
3 242 108 24 
3 267 242 24 
3 261 117 126 
3 261 126 114 
3 120 221 121 
3 112 124 129 
3 243 221 113 
3 221 244 121 
3 244 127 121 
3 50 126 119 
3 113 112 129 
3 223 134 136 
3 244 130 138 
3 245 53 52 
3 224 138 132 
3 252 224 148 
3 145 226 222 
3 143 230 144 
3 246 232 231 
3 232 164 150 
3 162 155 147 
3 246 233 161 
3 232 246 165 
3 167 164 176 
3 173 181 179 
3 263 268 32 
3 178 254 198 
3 198 254 37 
3 37 197 199 
3 247 194 201 
3 192 213 207 
3 191 192 207 
3 269 202 58 
3 216 270 211 
3 60 63 66 
3 68 217 239 
3 7 255 75 
3 69 73 72 
3 72 71 66 
3 77 41 75 
3 89 45 72 
3 259 83 85 
3 80 251 96 
3 88 82 218 
3 94 88 218 
3 91 94 46 
3 99 96 251 
3 218 82 98 
3 42 12 97 
3 99 98 82 
3 98 107 218 
3 100 99 23 
3 101 109 107 
3 24 107 122 
3 107 109 120 
3 241 108 118 
3 107 120 122 
3 261 116 262 
3 24 122 267 
3 109 111 221 
3 120 109 221 
3 124 47 129 
3 115 126 26 
3 126 50 26 
3 130 244 221 
3 220 127 134 
3 137 138 252 
3 223 137 252 
3 53 245 253 
3 224 141 228 
3 143 53 253 
3 224 252 138 
3 229 143 253 
3 245 153 157 
3 233 226 155 
3 146 271 272 
3 172 142 30 
3 160 158 157 
3 30 230 31 
3 155 162 233 
3 159 164 167 
3 153 167 157 
3 231 233 246 
3 230 160 31 
3 169 157 167 
3 161 235 246 
3 180 235 236 
3 180 236 182 
3 166 180 182 
3 166 182 56 
3 177 181 234 
3 178 234 254 
3 173 166 56 
3 263 178 190 
3 181 173 56 
3 183 171 184 
3 190 189 263 
3 192 197 213 
3 193 210 196 
3 194 200 202 
3 191 209 273 
3 202 269 212 
3 247 201 265 
3 146 272 162 
3 269 58 257 
3 274 60 59 
3 260 85 97 
3 262 116 115 
3 275 68 64 
3 276 0 238 
3 59 67 274 
3 256 277 47 
3 206 265 249 
3 278 115 25 
3 63 60 279 
3 225 142 172 
3 172 32 268 
3 273 209 208 
3 280 217 68 
3 21 266 240 
3 281 25 29 
3 225 281 29 
3 222 271 146 
3 79 266 95 
3 47 277 139 
3 171 282 184 
3 283 263 189 
3 189 191 273 
3 251 95 266 
3 270 264 211 
3 0 284 1 
3 278 25 281 
3 162 282 171 
3 193 184 285 
3 264 257 40 
3 286 64 63 
3 262 106 16 
3 193 285 210 
3 264 270 257 
3 258 237 3 
3 266 79 287 
3 15 260 97 
3 269 288 212 
3 265 203 248 
3 215 270 216 
3 288 248 212 
3 67 259 289 
3 276 284 0 
3 1 284 79 
3 279 60 274 
3 258 217 280 
3 189 273 290 
3 291 273 208 
3 250 291 208 
3 292 123 240 
3 123 277 256 
3 162 293 282 
3 290 294 189 
3 184 295 285 
3 296 270 215 
3 237 276 238 
3 272 293 162 
3 294 283 189 
3 297 15 106 
3 283 268 263 
3 214 298 250 
3 299 296 215 
3 298 214 249 
3 297 260 15 
3 68 300 280 
3 270 301 257 
3 302 275 64 
3 303 172 268 
3 79 284 304 
3 303 268 305 
3 269 257 301 
3 139 271 222 
3 306 298 249 
3 276 237 258 
3 300 68 275 
3 307 274 67 
3 268 283 294 
3 268 294 305 
3 306 248 288 
3 274 307 279 
3 280 300 258 
3 304 287 79 
3 308 225 172 
3 210 309 215 
3 215 309 299 
3 286 302 64 
3 266 310 240 
3 303 308 172 
3 265 306 249 
3 292 240 310 
3 295 184 282 
3 298 291 250 
3 289 259 260 
3 300 276 258 
3 311 302 286 
3 311 286 63 
3 123 292 277 
3 312 262 115 
3 265 248 306 
3 302 300 275 
3 311 63 279 
3 313 262 312 
3 139 277 314 
3 290 273 291 
3 307 67 289 
3 262 313 106 
3 278 312 115 
3 281 225 308 
3 305 294 290 
3 210 285 309 
3 288 269 301 
3 315 270 296 
3 315 301 270 
3 276 304 284 
3 316 307 289 
3 266 287 310 
3 277 292 314 
3 314 317 139 
3 318 281 308 
3 271 139 293 
3 271 293 272 
3 305 290 319 
3 295 282 285 
3 319 290 291 
3 298 306 320 
3 296 299 309 
3 321 291 298 
3 321 322 291 
3 307 323 279 
3 307 316 323 
3 139 317 293 
3 282 324 285 
3 285 324 309 
3 322 319 291 
3 325 304 276 
3 316 289 326 
3 260 297 313 
3 313 297 106 
3 310 327 292 
3 292 327 328 
3 312 278 318 
3 318 278 281 
3 308 303 305 
3 305 319 308 
3 326 289 260 
3 326 260 313 
3 292 328 314 
3 313 312 318 
3 321 298 320 
3 323 311 279 
3 293 329 282 
3 276 330 325 
3 276 300 330 
3 302 311 331 
3 325 332 310 
3 325 330 332 
3 300 302 330 
3 311 333 331 
3 311 323 333 
3 323 334 333 
3 323 326 334 
3 323 316 326 
3 304 325 287 
3 302 331 330 
3 287 325 310 
3 333 334 335 
3 333 335 336 
3 335 337 336 
3 335 334 337 
3 336 337 338 
3 337 334 338 
3 334 326 338 
3 336 338 333 
3 338 331 333 
3 330 331 339 
3 326 313 338 
3 327 310 332 
3 331 338 339 
3 328 327 340 
3 339 338 341 
3 328 340 314 
3 332 340 327 
3 330 339 341 
3 338 313 341 
3 314 340 342 
3 330 341 343 
3 332 330 343 
3 314 342 317 
3 341 313 318 
3 340 332 342 
3 332 343 344 
3 342 332 345 
3 345 332 344 
3 341 318 308 
3 341 308 319 
3 317 342 329 
3 293 317 329 
3 345 344 324 
3 344 343 324 
3 342 345 324 
3 320 341 319 
3 329 342 282 
3 282 342 324 
3 320 319 321 
3 341 320 343 
3 321 319 322 
3 288 343 306 
3 324 315 296 
3 309 324 296 
3 324 343 315 
3 343 288 301 
3 343 320 306 
3 343 301 315 
3 267 122 127 
3 242 267 127 
