ply
format ascii 1.0
comment VCGLIB generated
element vertex 487
property float x
property float y
property float z
property float nx
property float ny
property float nz
element face 970
property list uchar int vertex_indices
end_header
-1.735912 4.967021 -0.2460442 2.671967 3.452842 3.422542 
-2.006569 5.009613 0.1995087 3.204458 3.465414 1.454369 
-1.712299 4.568971 -0.2262459 5.00375 -1.594575 2.692933 
-0.9369049 5.001132 -0.8719482 2.005725 3.36914 3.806322 
-1.620377 5.02103 -0.3137741 1.63803 2.844946 3.004128 
-1.007526 4.525756 -0.8058434 3.243678 -0.5425744 5.331139 
-2.165791 4.999212 0.7428589 4.180045 3.058676 0.9040275 
-2.173595 4.522852 0.7770195 6.144531 -0.2788653 1.245835 
-1.322754 4.537425 -0.593544 3.669643 -0.3570113 5.0548 
-2.230392 4.524429 1.139469 3.86266 -2.51673 1.515244 
-2.085205 4.527164 0.4588814 5.566305 -1.371443 2.172485 
-2.234203 4.997332 1.214787 2.615883 1.789964 2.122375 
-0.3572693 4.983474 -1.026226 2.368552 1.903828 4.071622 
-0.7125626 4.52046 -0.9314842 1.39964 -2.966546 4.011228 
-0.381443 4.495335 -1.0695 0.9858773 -0.501097 5.979506 
-1.958359 4.518178 0.1438026 5.624826 0.08021681 2.75179 
-1.690922 4.536067 -0.3101578 4.426989 0.5666723 3.540741 
-1.869068 4.485918 -0.06721497 4.83742 -1.340588 2.817722 
1.490257 4.450924 -0.4496078 -3.332196 2.706187 3.444467 
1.212883 4.464984 -0.6682892 -3.122366 1.764508 1.495817 
1.216484 3.971298 -0.7365303 -3.028 1.142697 4.860917 
1.195782 3.894144 -0.6959381 -3.050714 1.734539 4.99268 
0.7803001 3.913701 -0.9070053 -2.400139 0.6925447 5.678216 
0.7673531 3.433623 -0.9309311 -2.884747 -1.668947 4.848465 
2.129162 3.896636 0.6051064 -5.499352 1.83812 1.575965 
1.958763 3.922405 0.08619308 -5.367081 0.06643062 3.093142 
2.195366 3.424296 0.7930565 -5.824655 0.9544261 1.242844 
-1.948448 3.899892 0.1632156 5.434611 1.171061 2.783742 
-2.178493 3.885139 0.7994995 5.661166 1.804947 1.529487 
-2.050228 3.419 0.3817101 5.889973 -0.8342434 1.927027 
1.767857 3.902636 -0.2060699 -4.695489 -0.7510747 3.706588 
1.917473 3.436628 0.09192276 -5.613786 -0.1611655 2.78715 
2.234989 3.87925 1.322849 -2.088214 1.650858 2.031971 
1.580715 3.893692 -0.3592873 -3.175583 2.521827 3.624126 
1.760029 3.389765 -0.2253914 -4.717464 0.7138093 3.586197 
1.771618 3.736399 -0.1403275 -5.010346 0.7076197 2.663061 
1.085415 3.437361 -0.7676811 -2.708035 -2.718197 4.203932 
2.234119 3.404428 1.302219 -2.672211 -1.421878 2.705003 
-2.278271 3.883119 1.239361 2.306619 1.721375 2.809378 
-2.23201 3.397754 1.211262 1.923148 -1.884463 1.822112 
1.522865 3.418327 -0.4345284 -4.115079 -0.560276 4.704895 
-1.71804 3.912867 -0.1956749 3.191423 1.854449 0.1777273 
-1.725601 3.453029 -0.2220573 4.977654 0.399609 3.69309 
2.109856 2.782664 0.5195427 -4.411878 2.285134 2.700318 
1.769302 2.791176 -0.127327 -5.356471 1.091839 2.339036 
1.994209 2.322324 0.2403297 -5.580439 -0.3334887 2.821331 
2.162731 2.806543 0.5622406 -5.260381 -0.3104363 1.903235 
2.184635 2.245713 0.7700424 -6.117052 -0.1527177 1.372809 
2.234879 2.791176 1.323021 -2.627808 1.545599 2.420505 
2.264118 2.319902 1.325958 -2.88991 -1.482051 2.783099 
1.775532 2.338806 -0.2020683 -4.637801 1.010323 3.49199 
2.377708 1.72867 1.359169 -1.160037 2.7914 3.053698 
2.206272 1.687013 0.9155312 -6.058587 0.7554318 1.36142 
2.235676 1.631135 1.316509 -3.409329 1.428015 2.44138 
2.24036 1.21008 1.323105 -2.372737 -1.808578 1.978199 
2.188232 1.21799 0.7875595 -6.105143 0.02316548 1.305615 
0.2504387 1.14364 -1.089542 -0.547242 -0.06303293 5.869464 
0.02279663 1.135569 -1.05695 -0.2410741 2.725287 4.266616 
0.5588264 0.6411397 -1.000481 -1.715468 -1.4355 5.782993 
0.9815521 1.111037 -0.8146591 -2.532673 0.805985 5.573131 
1.18417 1.206975 -0.7306328 -3.564937 -0.0342272 5.069694 
1.169571 0.6106581 -0.7648277 -2.739008 1.625202 4.674839 
-0.07158279 1.117379 -1.067219 0.2681929 1.956213 5.590328 
-0.4183922 0.6674205 -1.01659 0.8226354 -2.807453 4.783675 
-0.08633804 0.6372504 -1.103031 0.1790509 0.2000548 6.068906 
-1.421051 0.6280345 -0.5391541 4.025887 0.1864954 4.769598 
-1.62413 0.6290496 -0.3404808 4.330216 -0.06742381 4.535918 
-1.638123 0.1383282 -0.2841759 3.157265 -2.520077 3.010299 
-1.093971 0.09779656 -0.7609634 1.823672 -3.268944 3.531548 
2.080063 4.469225 0.3333931 -5.52903 -0.4587371 2.704659 
1.69595 3.994734 -0.2461052 -4.715478 -1.153277 3.946769 
-1.992683 3.410709 0.146019 3.095813 -1.149115 1.656327 
-2.0942 2.826683 0.3701782 5.749457 -0.2374486 2.091673 
-2.193127 2.801779 0.8646431 6.140368 -0.03005247 1.321741 
-2.165752 2.32358 0.6946068 6.065335 -0.7580559 1.317815 
-2.276596 2.830794 1.215515 4.657194 -1.029095 3.126767 
-2.242989 2.376172 1.193779 3.978991 -0.6137884 3.216469 
1.840893 2.220567 -0.0306015 -5.20092 0.6298208 3.379976 
1.437702 2.228638 -0.4979515 -4.176875 0.3745537 4.663749 
1.748756 1.830115 -0.1861763 -4.716464 -0.842954 4.01991 
1.202789 2.222588 -0.677166 -4.097403 0.813836 4.518206 
1.214443 1.751534 -0.6893044 -3.714735 0.8039847 4.848302 
1.953201 1.673154 0.12957 -5.571046 0.9723889 2.625354 
2.102867 1.217085 0.4810066 -5.883537 0.2878343 1.879367 
-1.049427 1.164504 -0.8307076 3.022545 0.08203314 5.315003 
-0.610363 0.6530792 -1.015186 1.355191 -0.4069415 5.8082 
-0.7353973 0.5165298 -0.9440994 2.452935 0.6631719 5.732847 
-0.3865013 0.05980755 -1.039181 1.343575 -3.098762 2.984027 
1.730984 4.999061 -0.1996002 -3.461893 2.932152 2.58955 
1.145294 4.946077 -0.7381401 -3.104492 2.453136 4.318732 
1.753574 4.472119 -0.224987 -2.943696 2.477078 2.185531 
0.7041092 4.999061 -0.9490814 -0.7916371 2.881793 3.710344 
0.09355927 4.924189 -1.070332 -0.1578948 -0.08583863 6.251432 
0.7492752 4.546991 -0.9713058 -1.942284 1.466871 5.136429 
0.7778511 5.001895 -0.9324379 -1.423274 3.233085 3.37185 
1.239124 4.525646 -0.6749458 -3.282618 -1.793857 4.803607 
2.030716 5.012467 0.3029518 -3.599054 3.150846 1.711578 
1.78587 5.024116 -0.1260033 -2.80617 3.223886 1.649553 
1.771976 4.604287 -0.1510658 -5.570354 -0.4801074 2.751175 
-0.2714996 4.994267 -1.056789 -0.5814224 2.309316 3.916405 
-0.2824478 4.523977 -1.050854 -0.1338904 -1.152415 5.966774 
2.247589 4.983393 1.337261 -2.003049 1.524184 1.723878 
2.23069 4.991795 1.039211 -3.645664 3.216349 0.7313808 
2.27914 4.646215 1.326588 -3.378682 -0.06117594 3.762065 
2.230732 4.518912 1.041546 -6.049531 -1.095201 0.7845988 
0.04438782 4.511546 -1.10376 -0.04855681 1.115351 5.689943 
2.109451 4.521867 0.4092293 -5.830036 -0.1514422 1.987774 
1.146439 4.455024 -0.7356987 -2.1236 -0.4881615 5.80406 
2.247196 4.51048 1.311668 -2.267256 -1.424066 1.810248 
-2.061153 4.472219 0.3763885 5.497012 -0.7058935 2.901223 
-1.744984 3.925289 -0.2346916 4.961576 0.9226462 2.38315 
0.01680374 4.454602 -1.069813 -0.2232647 1.509549 5.843126 
0.3303795 4.442623 -1.043232 -1.233523 0.3542557 6.131246 
2.240597 4.466843 0.8865356 -5.457567 -0.9884983 0.7947028 
2.080013 3.956484 0.3244324 -5.120872 1.844706 1.956138 
-2.321381 4.495194 1.236958 3.251121 0.1147959 4.796136 
-2.271568 4.303018 1.253384 3.313535 0.2569904 3.555732 
-2.133774 4.465466 0.4769478 5.153644 -1.459543 2.056362 
-2.193287 4.024894 0.8086014 6.01599 -0.9801048 1.21827 
-1.093552 4.446833 -0.7661057 3.502894 -0.5689846 5.143866 
-1.51141 4.453306 -0.4455605 4.066784 0.2311168 4.76747 
-1.498566 3.980996 -0.4577637 4.012198 -1.598389 4.351339 
-0.05821228 4.4542 -1.06982 0.3569764 0.6248263 6.134586 
-0.0683136 3.927188 -1.104115 -0.2554652 -0.03131899 6.218765 
0.8518867 3.981408 -0.9049072 -2.217265 0.8154146 5.587432 
0.01411057 3.984664 -1.090496 -0.930198 -0.0748206 6.209764 
1.188614 4.118219 -0.7410736 -2.132526 -0.2595745 5.882917 
0.4785233 4.017076 -1.024155 -1.332081 0.6814904 5.95052 
-1.107124 3.96983 -0.7625465 2.34872 -3.002687 2.575486 
-2.132523 3.96788 0.4586716 5.000199 1.774113 1.891238 
-0.2840462 3.968956 -1.085217 1.077538 -0.1251371 6.15732 
-1.020973 4.4542 -0.8082924 2.936222 -0.4048195 5.51299 
-0.7935486 3.898083 -0.9153252 2.221365 -0.1586207 5.869206 
2.249146 4.457476 1.205742 -1.557891 1.72515 1.735777 
-1.039379 3.968996 -0.83564 2.751419 1.308468 4.704572 
-2.300526 3.974272 1.24918 2.513779 -1.81962 2.909711 
2.209206 3.957087 0.7145462 -5.271957 1.239641 1.37962 
2.243988 3.980996 1.206375 -2.787457 -0.9963071 2.885222 
1.394318 3.928304 -0.6053619 -2.73396 0.9453581 3.014626 
2.27317 3.898114 1.155964 -3.006693 2.613287 1.755153 
-1.276196 3.962836 -0.6895027 2.183921 -2.640197 3.145107 
-0.7153702 3.367544 -0.9926224 1.261174 2.525817 3.695162 
-0.3692513 3.910375 -1.071606 1.763507 -0.6997213 5.862483 
-0.3139648 3.442085 -1.08252 0.939173 0.5426754 6.070187 
-1.679054 3.924043 -0.3220406 4.006023 -1.884918 3.426482 
-1.409859 3.426246 -0.5384827 4.0617 -0.002404604 4.779219 
0.08452988 3.433221 -1.073704 -0.7996795 0.08597566 6.217366 
0.7135811 3.884616 -0.9416924 -2.224303 -0.3734652 5.803865 
0.5214157 3.325766 -1.009148 -1.515724 0.06253558 6.053376 
0.6816025 3.408558 -0.9564133 1.345132 -1.568776 3.828994 
-1.64378 3.426045 -0.305706 4.391753 -0.33567 4.426339 
2.243999 3.334882 1.206562 -4.206693 -1.824942 2.910748 
2.057102 3.33267 0.3592186 -5.776931 -0.8903987 2.015851 
2.244484 2.862712 1.207031 -3.953443 1.946765 3.059229 
-0.03621292 3.360036 -1.108944 -0.6371148 -0.4307926 5.691035 
-1.020359 3.335213 -0.8079224 1.259012 2.137514 4.819464 
-0.6121292 2.865094 -0.9804077 1.836031 -1.634971 5.689013 
-1.538769 3.322268 -0.4286194 4.501232 -0.2571642 4.304104 
-2.073738 3.31248 0.3958092 5.809134 -0.3642901 2.167981 
-1.906242 2.844371 0.06016922 5.312629 0.06637055 3.292389 
-2.189781 3.335052 0.7948914 5.946608 0.7743946 1.729273 
-2.246685 3.334871 1.311932 2.353425 1.565424 2.098248 
2.015564 3.3427 0.2703056 -5.57389 -0.6260375 2.768806 
1.736851 3.276752 -0.1937218 -4.924615 0.764193 3.716608 
1.738728 2.827708 -0.2327499 -4.934709 0.07532502 3.628286 
-2.099125 2.862732 0.4746323 5.976233 -0.9890741 1.025595 
-1.104401 3.359644 -0.8044319 2.062142 -1.9205 4.302905 
-1.376358 2.864943 -0.5666351 3.949809 0.9653225 4.698248 
-1.02269 2.858411 -0.8119926 0.8959961 -2.595057 4.331565 
-1.675617 2.805488 -0.3234024 3.122378 2.209723 3.164132 
-0.06036377 2.903475 -1.082741 0.3760085 0.1186495 6.254749 
1.21048 3.321696 -0.7341232 -3.164868 -0.03050852 5.113241 
2.074039 2.915113 0.3655281 -6.072049 -0.7351704 0.6440768 
-2.284611 2.942278 1.314564 3.227454 -0.9960573 3.51913 
2.080219 2.839999 0.3245964 -4.621355 1.750034 2.103175 
1.916195 2.86423 0.07645798 -5.294188 0.2926334 3.344439 
-1.098156 2.862582 -0.8020935 2.568181 1.480683 4.722906 
1.206028 2.804231 -0.7417526 -1.768256 2.678969 2.645098 
-0.3509445 2.839617 -1.079933 0.5156875 -1.645002 5.009013 
-0.8430328 2.8019 -0.9334984 2.369421 -1.491264 5.085138 
-0.3707275 2.301088 -1.075089 0.7009865 1.379431 5.673547 
0.7609787 2.783046 -0.9642601 -2.074995 -1.621998 5.043847 
0.1771355 2.784765 -1.062618 -0.6000507 0.02984166 6.234715 
0.1273499 2.318254 -1.071453 -0.6049623 0.2607941 6.193784 
-0.2938766 2.785568 -1.04974 -0.9338138 1.07501 5.634102 
-1.642185 2.790634 -0.3099899 2.802405 2.784065 3.727046 
-1.252193 2.31546 -0.6644325 3.928947 -0.6328179 4.84014 
-1.71912 2.7697 -0.22855 5.022262 0.899764 3.55945 
-1.764965 2.298385 -0.1835938 5.051102 -0.09767923 3.675217 
-2.043968 2.312254 0.3233337 5.595237 -0.5350574 2.729737 
-1.650131 2.22707 -0.3098679 4.429549 -0.2381502 4.44553 
1.416027 2.380875 -0.536026 -3.873621 0.01836449 4.874608 
-0.6342697 2.303852 -1.007992 1.973117 1.404098 5.433038 
0.6023483 2.237803 -0.9838676 -1.479789 0.2473148 6.071994 
2.334206 2.254898 1.296803 -2.731637 -2.444796 4.373752 
2.248646 2.048964 1.27063 -3.42602 -0.07091509 3.000615 
1.144695 2.219975 -0.7349815 -3.547207 -0.09697334 5.095926 
0.8336334 1.765011 -0.9027901 -2.533764 0.02805764 5.724654 
-2.280872 2.240095 1.178532 5.293249 0.7170438 2.003254 
-2.253918 2.220166 1.306938 2.45962 1.584377 1.52401 
-2.265469 1.715997 1.183636 5.093743 -1.015078 2.524019 
0.5584106 1.800297 -0.9999847 -1.523489 0.1661607 6.053003 
-0.05962372 2.239341 -1.070538 0.3830974 0.01140647 6.254541 
-0.4933014 2.234165 -1.016464 1.482149 1.26319 5.868773 
-0.05854034 1.765071 -1.073208 1.841035 -1.767594 2.275634 
0.02602005 2.233653 -1.075043 -0.2483797 -0.3227404 6.238026 
-2.133659 2.253883 0.4589157 5.359207 -1.379559 1.861111 
-2.097485 1.771996 0.4714508 4.042963 -0.6020801 -1.742088 
2.017311 2.232215 0.2865562 -4.778709 0.03995456 3.815255 
2.056988 1.752408 0.2739983 -5.212141 1.440255 2.125843 
-1.019398 2.196478 -0.809391 1.721556 0.5013006 5.841316 
-1.086006 1.770911 -0.8157806 2.691651 1.457125 4.971146 
2.090244 2.274305 0.3542976 -4.105689 -2.203357 1.789775 
2.301159 1.749263 1.244511 -3.80705 -1.327037 3.016578 
-0.05315399 1.758338 -1.104454 1.134702 0.3529885 4.511985 
1.146374 1.765996 -0.7358513 -3.336009 0.1811048 5.289923 
-0.2715416 1.752971 -1.09267 0.5009838 -0.4775324 6.08412 
-2.28487 1.809613 1.3186 3.501662 -0.7877961 3.487154 
-2.131901 1.699234 0.4559059 5.877085 -0.4633837 1.384978 
-2.181435 1.255657 0.7607765 5.841493 -1.17959 1.539513 
-2.007248 1.698621 0.1663513 5.06029 -1.396414 2.732397 
-1.993431 1.221246 0.2079277 5.581557 0.6034611 2.755626 
-0.3693275 1.693958 -1.072472 1.937361 -0.524769 5.83826 
-0.8249054 1.685646 -0.9032364 2.307139 0.1674941 5.821937 
-0.3915215 1.440245 -1.039852 2.658806 -0.00544399 5.554373 
0.2631607 1.68233 -1.055832 -0.9282031 -0.04350813 6.197583 
-0.3077087 1.216191 -1.085964 0.6907547 0.8310146 5.951501 
1.557655 1.686088 -0.401516 -4.063416 -0.6915334 4.684561 
1.012802 1.679908 -0.8121147 -3.078982 -0.03543683 5.45134 
1.536633 1.221055 -0.4386139 -4.107811 0.5381497 4.613875 
0.7768822 1.655637 -0.9218407 -2.508258 -0.1012897 5.752435 
-1.43026 1.67844 -0.5310936 3.879771 0.7478706 4.793283 
-1.712273 1.752057 -0.2761307 4.806564 -0.1755883 3.972311 
-1.686207 1.309646 -0.3152885 4.679292 -0.163582 4.173787 
-1.737167 1.694118 -0.2459679 5.104855 -0.1937003 3.635532 
-1.733173 1.207106 -0.2585335 4.856089 1.131706 3.519705 
-1.579849 1.183749 -0.4395866 3.928062 1.6738 3.877116 
-1.297867 1.19804 -0.6707458 3.43486 1.17502 4.715091 
1.79874 1.712801 -0.175457 -4.797022 -0.7545108 3.632029 
1.796085 1.22018 -0.1675224 -4.819268 1.253298 3.325884 
0.2009239 1.254732 -1.063549 -0.667323 -0.8731759 6.148209 
0.705143 1.668481 -0.9495087 -1.925123 -0.1413177 5.971634 
0.7816696 1.19396 -0.961792 -1.888571 1.618662 5.027988 
-2.243351 1.21012 1.224033 2.202577 -1.566724 1.910817 
-0.5340004 1.165187 -1.042492 1.284885 2.283716 3.778315 
-0.06521606 1.157981 -1.107685 0.06361972 1.242959 4.777276 
1.61908 1.117851 -0.3335266 -4.6417 0.4350601 4.16371 
1.217766 1.12956 -0.6868362 -4.397253 0.2018177 4.354895 
1.589684 0.5712118 -0.4226799 -3.271612 2.209732 3.343292 
-1.815262 1.111379 -0.08366013 5.265452 0.5095729 3.33408 
-2.065884 1.104143 0.3861618 5.084023 0.7576116 3.334989 
-1.748306 0.5832317 -0.2346115 4.630974 -0.06000371 4.020598 
-1.385612 1.103992 -0.5586052 3.8882 0.6982175 4.840826 
2.024952 1.104405 0.2909851 -5.691855 -0.1508395 2.554547 
2.048332 0.6195523 0.2648468 -5.307726 0.9157223 2.023371 
2.372215 1.15182 1.290215 -0.6697892 2.275053 1.651283 
2.240963 1.111359 1.154957 -5.044636 1.192686 2.513961 
2.246273 0.6368986 1.26775 -1.925289 -1.684684 1.784295 
2.156174 1.111349 0.6560287 -5.9262 -0.004975542 1.844069 
2.231564 0.6360041 1.050606 -5.898521 0.9532912 1.194377 
-2.140846 1.130826 0.4791298 5.40835 -0.8821723 2.261195 
-2.246326 1.111369 1.282021 2.347179 1.577574 2.158702 
-2.273094 0.6243663 1.159462 5.362444 -0.004644513 1.547715 
-1.099064 1.111349 -0.7631111 3.97954 0.9802341 4.33304 
-1.071201 0.6675813 -0.8189011 3.131641 1.303823 4.837637 
-2.140274 0.8175172 0.4770699 5.792593 0.04605184 2.126079 
1.729321 0.6444161 -0.2028999 -5.128898 -0.7608476 3.504635 
-2.246254 0.6367781 1.281292 2.163884 -1.413132 1.504637 
-2.096817 0.6238437 0.3780785 5.552732 0.9531704 2.187572 
2.05315 0.6362655 0.3561249 -5.991476 -1.04525 0.9361331 
1.16634 0.5627397 -0.7210159 -3.10463 1.999405 4.715066 
0.7863655 0.5747092 -0.9199753 -3.015108 -0.8296087 5.378807 
0.7745781 0.1283988 -0.9592171 -3.068831 -2.156886 1.812651 
-2.00214 0.5701868 0.1637306 5.131076 -1.102859 2.660585 
-1.96513 0.08403809 0.1674271 3.365891 -3.139905 1.45375 
0.7224426 0.5713023 -0.9813728 -2.28997 -1.934936 4.209821 
0.4637489 0.5546093 -1.019142 -0.7532127 2.87742 4.877405 
0.7041779 0.08195775 -0.9489594 1.312918 -1.692268 2.484883 
-0.3414078 0.5389011 -1.077721 0.8775692 0.02045611 6.08619 
-0.2841949 0.08045026 -1.05447 0.1747159 -3.133522 3.598 
1.790455 0.5194141 -0.1649475 -4.990375 -0.3261327 3.56107 
1.352123 0.1042889 -0.6000328 -3.083444 -3.093979 3.382005 
2.247456 0.5554032 1.325062 -2.314073 1.663258 2.450511 
2.098331 0.554157 0.4718361 -5.949715 -0.3671145 1.762785 
2.172802 0.08233964 0.7188835 -3.589941 -3.364572 0.7866995 
2.049969 0.0822693 0.3479004 -3.595653 -3.194578 1.63535 
-2.181374 0.5402679 0.756546 6.086607 0.2940851 1.485823 
-2.283661 0.04441095 1.214725 1.878711 -1.976431 2.130734 
2.251301 0.07974675 1.324799 -2.043119 -1.804915 1.955847 
1.779041 0.08199795 -0.1351738 -3.092008 -3.015606 2.139937 
1.72578 0.07379715 -0.2063026 -2.604999 -3.074028 2.434887 
-2.248619 0.5324691 1.236271 2.488529 1.088179 2.870846 
-1.710819 0.0959976 -0.2250404 2.833236 -3.163888 1.73463 
1.524525 4.477214 -0.4799461 -2.073915 -0.008887254 2.086534 
1.140701 3.312389 -0.7440834 -1.544487 1.444284 5.483494 
0.5008774 2.853878 -1.016865 -1.369982 0.1099627 6.06901 
0.008682251 3.321314 -1.077229 -2.237578 0.3524413 5.574646 
0.02380753 2.845085 -1.080616 -0.2435071 1.012806 6.066463 
0.7908859 2.291299 -0.9537468 -2.039566 1.633563 5.030332 
-1.119305 2.265803 -0.794426 2.442427 -1.812271 4.598421 
-1.448761 1.759192 -0.5487289 4.007014 0.7819569 4.5449 
-2.095085 2.223643 0.3850746 5.456718 -0.4189452 3.049663 
-2.094173 1.739263 0.3701897 5.669471 -0.2123481 2.682944 
2.280178 1.195246 1.170673 -3.182545 -3.241475 2.011875 
0.3499947 0.5822568 -1.086594 -0.5448603 0.6878411 3.697071 
-1.479092 0.05154645 -0.8411751 -1.527749 -4.179907 -1.818441 
0.6642151 5.038577 -1.080761 -0.0588102 5.96974 1.089091 
1.115452 5.04098 -0.9131165 -0.6727645 5.910511 1.282546 
-2.30164 3.928776 1.152004 4.62925 0.8579257 2.001594 
0.7089806 3.450738 -0.9870796 0.174988 -0.2095727 4.051733 
0.6985664 3.395694 -0.9876862 -0.2479274 0.1407571 4.401566 
1.088047 3.40698 -0.8205376 -1.99352 -1.217037 3.870826 
-1.770248 0.08484209 -0.3739281 1.048247 -6.150785 0.5341511 
-1.018799 5.044296 -0.9579811 0.6054962 6.126804 0.672363 
-0.7135849 4.501104 -0.9875755 0.6983263 -0.193907 2.349586 
-2.370216 3.390579 1.233883 1.353947 2.78361 3.99204 
-2.381073 1.166071 1.247429 1.190656 1.830268 5.276167 
2.505241 0.5982966 1.355446 1.308962 1.428168 1.635322 
0.8331757 0.05598855 -1.193764 -1.382436 -3.427606 -1.562405 
0.804718 0.039195 -1.203693 1.79299 -2.007431 -0.9389304 
1.375973 0.04258185 -0.763092 -0.9043366 -6.023906 0.8512055 
1.223553 4.482752 -0.7235603 -1.761289 -1.096519 3.152502 
-2.49725 2.314555 1.27874 -1.263943 -0.9335933 1.301979 
-0.05381775 1.924273 -1.103355 2.130099 -0.04498924 3.494789 
-0.3196754 5.026105 -1.091045 0.8696191 4.697896 2.190764 
2.496983 4.443939 1.214695 2.529897 -1.509078 4.681343 
-2.372093 1.703455 1.33646 0.2765302 -2.371518 2.57558 
-2.370171 5.040688 1.248161 0.1092638 2.686151 2.634874 
2.504967 1.137972 1.28812 3.778017 -1.409581 2.841719 
2.513927 3.362348 1.32922 1.561485 -1.395698 1.600093 
2.371765 2.832603 1.355354 0.2682684 2.146971 2.085126 
-0.4414673 0.0701088 -1.327629 0.4197648 -1.667626 -4.894189 
-0.3354187 0.039195 -1.321468 -0.7239938 -4.447407 -1.924006 
-1.846069 5.067873 -0.4861794 -1.987613 3.674838 -0.9938776 
2.431694 5.041431 0.7129707 2.22606 4.669604 -0.3476777 
2.497124 3.936947 1.2174 2.859081 1.632967 4.369592 
-2.504261 2.261793 1.3769 -1.070546 1.110619 1.37396 
2.504829 0.6094923 1.290993 3.959122 1.561437 2.015427 
2.43597 0.039195 0.7088623 2.335313 -4.349037 -0.5587705 
-2.102928 5.039563 -0.139576 -2.402341 3.238358 -1.456965 
-2.499527 2.817849 1.345722 -1.197792 -1.316195 1.536539 
-2.273533 0.03657195 0.2098045 -2.428256 -3.077092 -1.184352 
1.842766 5.039251 -0.2652359 -0.002041638 6.113684 -0.008058324 
-2.502357 0.0133866 1.223644 -1.340222 -1.564109 1.355106 
-1.902344 5.039904 -0.4241219 -2.300301 4.530628 -0.8729488 
-2.487839 2.794905 1.253971 -3.820902 -1.793619 2.095844 
-2.5065 0.5666692 1.197735 -5.604019 0.1231484 0.4085867 
0.8158684 0.0893244 -1.205959 0.275606 -4.300191 -1.808235 
-2.503838 4.49637 1.273033 -2.587902 0.05127507 3.592162 
2.503578 2.841899 1.215443 3.800401 0.5863194 4.007363 
2.504532 1.736168 1.276932 4.458039 1.68516 2.066949 
-0.450882 0 -1.326176 0.9398815 -1.692308 -1.594705 
2.51046 2.27338 1.356689 1.406067 -1.167872 1.428959 
2.504684 0.039195 1.354008 1.193005 -1.451679 1.408466 
2.499683 4.474944 1.339634 1.475885 -1.532255 1.760458 
1.939495 0.03389865 -0.3632851 2.010421 -4.152751 -1.46061 
-2.499336 3.369393 1.345722 -1.448441 1.457037 1.902204 
-2.498867 3.938243 1.273151 -1.438483 -1.493408 1.85999 
-2.50351 0.5728098 1.256794 -1.082829 1.409624 1.306527 
2.50362 3.347745 1.215302 3.460539 -1.670529 4.035128 
-2.474163 2.3094 1.194885 -5.898609 -0.07606377 0.3884668 
0.8054085 5.040155 -1.203773 0.6905194 4.787095 -2.264619 
-2.446976 5.04098 0.7339516 -2.676634 4.67223 -0.4985436 
1.174992 5.040768 -1.033077 1.558969 3.701251 -2.667226 
2.504997 3.9215 1.356792 1.226323 1.327341 1.483994 
-2.50927 3.914666 1.258823 -1.482022 1.40669 1.611302 
-2.504753 0.5963569 1.311417 -1.394167 -1.443199 1.80758 
2.234032 0.039195 0.1219177 2.303314 -4.248983 -1.098412 
-2.504658 1.152122 1.311417 -1.368988 1.372959 1.56951 
-0.3669739 5.00688 -1.335621 -0.4615608 3.011084 -3.358155 
2.504467 5.025573 1.373165 1.082219 1.323425 1.326921 
2.265343 5.004282 0.1403923 3.160326 2.995073 -1.574606 
-1.886032 0.07100325 -0.4291763 -2.152552 -3.178961 -1.960572 
-2.503391 1.691968 1.24342 -3.712332 -1.008099 2.625595 
-1.032429 0.0272154 -1.125828 -1.351546 -3.197945 -2.801747 
2.503345 5.01228 0.9860573 3.201614 3.046308 -0.1780281 
0.03788376 5.004062 -1.368881 -0.03548291 2.97982 -3.204814 
-2.497791 1.166664 1.244083 -4.279629 1.547004 1.977509 
-1.211521 5.047904 -1.022392 -1.401461 4.347747 -2.518872 
-2.501385 3.922646 1.196434 -5.734126 0.4375398 1.040436 
2.513718 2.277833 1.297729 4.872463 -1.161322 1.767405 
2.514679 1.726117 1.372791 1.522752 1.360806 1.544828 
1.559265 0.0401598 -0.7636299 2.055183 -2.70509 -2.301625 
2.513939 1.168172 1.374691 1.368584 -1.262752 1.665889 
-2.502819 3.390659 1.228363 -4.458256 1.209095 2.916031 
-2.506969 3.336399 1.197639 -6.271708 -0.1464092 0.1176743 
2.502968 3.106043 1.213238 2.518283 -0.3593393 4.898593 
0.0308342 0.08911335 -1.351299 0.230111 -5.645892 -1.529032 
2.021824 5.003171 -0.3009949 3.081015 2.892515 -2.126596 
1.704578 5.003181 -0.6724129 2.741611 2.923197 -2.661277 
2.400574 5.012125 0.4708748 4.008371 2.73479 -1.391091 
2.503582 5.004569 1.213295 6.276934 0.02878102 0.07896028 
2.528824 4.694847 1.194538 4.880827 0.0591226 2.26224 
2.528839 4.040603 1.194469 4.938188 0.01131046 2.279488 
2.528824 3.174232 1.194538 5.011312 -0.0595838 2.293283 
2.506824 3.048245 1.191422 2.793325 -0.09138772 3.677056 
2.506786 3.000377 1.191269 2.932044 0.2115886 2.536646 
2.512676 2.924208 1.191494 2.322338 0.1435169 4.237762 
2.517727 2.347157 1.193859 6.27271 0.04845238 0.3495549 
2.517838 1.404859 1.19418 6.234 0.1613379 0.5280197 
2.506622 0.09046005 1.192616 6.069159 -1.049908 -0.3366124 
2.528816 1.231115 1.194538 5.962636 0.3527043 1.095556 
-0.06003189 0.08664105 -1.374168 0.02149041 -2.90671 -4.101461 
0.7123718 0.08665109 -1.265636 0.871049 -3.41172 -2.721201 
0.441391 0.0890631 -1.309753 0.5125997 -2.930258 -4.917743 
-2.430779 0.09519361 0.5676689 -4.867738 -2.283095 -1.423843 
-2.098244 0.09518355 -0.1863136 -4.112103 -2.317676 -2.680614 
-2.487942 0.09519361 0.8191299 -5.230106 -2.06506 -0.9059753 
1.156712 0.08913345 -1.049549 0.9014798 -5.371817 -1.598233 
1.44651 0.08913345 -0.8611031 2.117798 -4.238191 -3.059058 
1.861839 0.0890832 -0.4677734 2.578566 -3.904577 -2.730761 
0.8957977 5.003191 -1.202003 2.10319 1.981735 -4.92401 
0.4115257 5.003171 -1.34095 0.6349548 2.747741 -4.117405 
1.48954 5.003191 -0.8595009 2.726328 2.637793 -3.607533 
2.512711 2.991071 1.191509 -0.708411 -0.003578244 6.226492 
1.049622 0.09519361 -1.133606 2.11139 -2.646132 -4.165105 
1.285347 0.0866712 -1.000309 1.514898 -3.788457 -2.359218 
1.665722 0.08681191 -0.7066879 2.018135 -3.053515 -2.155186 
2.16819 0.09519361 -0.07008362 4.876787 -1.713785 -2.835181 
2.350391 0.09519361 0.3195152 5.22463 -1.835177 -1.906976 
2.477768 0.09519361 0.7640648 5.633195 -1.604281 -0.8895264 
-1.660629 5.012136 -0.7112274 -3.523673 2.166317 -3.926173 
-2.517422 5.003201 1.024586 -4.11152 2.844523 -0.2854121 
-2.276505 5.003191 0.1428566 -4.362235 2.493606 -2.029921 
-2.378929 5.003201 0.3997307 -4.51625 2.564719 -1.618402 
-0.7880135 5.003201 -1.242489 -1.283803 2.721415 -4.074974 
-2.528675 5.012076 1.200756 -2.446219 1.930172 1.385255 
-1.939743 4.993443 -0.410778 -4.765682 1.195923 -3.545023 
-2.5177 3.71242 1.20018 -6.028571 0.4640941 1.523719 
2.528751 3.761353 1.194229 5.028381 0.01082091 2.215511 
-2.517548 3.567669 1.200169 -3.050619 -0.06654035 4.112949 
-2.528851 3.509962 1.199661 -4.421829 -0.08792348 1.319902 
2.528824 2.885616 1.194538 4.212348 0.1839766 2.710686 
2.51783 1.289757 1.194233 3.373667 0.15317 3.536619 
-1.531452 0.09518355 -0.8259621 -3.846146 -1.502861 -4.26769 
-1.175396 0.09526394 -1.067715 -3.01084 -1.126366 -5.15986 
0.5934143 0.0867516 -1.299484 0.6802835 -3.724549 -2.785021 
0.5588875 0.09519361 -1.310207 0.6426509 -2.063706 -5.225791 
0.8556023 0.08664105 -1.215755 1.488687 -2.301879 -4.865703 
1.089153 0.0867717 -1.11166 0.06964231 -2.906012 -1.13469 
1.345352 0.09519361 -0.9635963 2.932189 -2.527204 -3.910606 
1.826424 0.09520365 -0.5457726 3.016717 -2.930569 -2.705132 
1.901466 0.09519361 -0.4586067 3.566225 -2.334735 -3.49798 
-2.460819 5.003181 0.6867409 -5.545952 1.702613 -1.323868 
-1.189075 5.003201 -1.059963 -2.756465 1.407694 -5.161143 
-1.456867 5.011895 -0.8815994 -3.059232 2.425007 -3.947617 
-2.528744 3.645869 1.200298 -3.099337 0.06509284 2.987703 
2.523659 1.347212 1.193565 -0.1630696 -0.006802502 6.223147 
2.523624 1.298611 1.19355 -0.1785099 0.01565333 6.212372 
0.1830063 0.09519361 -1.369823 0.484154 -2.932292 -3.659728 
1.220043 0.08634961 -1.040287 1.407268 -3.496302 -2.354379 
1.534016 0.09519361 -0.8241463 2.558488 -2.865169 -3.262526 
2.528847 1.365564 1.194416 2.550274 0.544192 1.95586 
0.07234192 0.0867516 -1.37373 0.05274722 -3.857727 -2.778536 
0.1144371 0.08650035 -1.372276 0.4168348 -3.183455 -1.593793 
1.132118 0.08664105 -1.089352 1.276194 -3.785625 -2.416224 
2.445969 4.108088 0.6236115 6.035231 0.01048297 -1.67255 
-2.077282 2.289229 -0.2190132 -5.146319 0.02081298 -3.55325 
-0.6639824 2.578267 -1.282257 -1.654641 0.003871466 -6.020419 
1.16983 3.083099 -1.069244 2.915822 -0.008148193 -5.52466 
1.549721 2.529826 -0.8113708 3.943844 0.001045195 -4.865705 
2.184231 3.049692 -0.04150009 5.461037 -0.01081127 -3.061412 
2.501793 4.310063 0.9003029 6.194124 0.05299402 -0.9702029 
0.5569496 3.290119 -1.310089 1.499698 -0.006225375 -6.051313 
-2.522839 3.944193 1.079376 -6.211172 0.08763311 0.1398554 
-2.384518 2.308786 0.4159355 -5.959913 -0.009287367 -1.944146 
-1.396015 2.298927 -0.9286079 -3.650324 0.00312796 -5.101409 
-2.49226 3.097631 0.843235 -6.191028 -0.07687599 -0.813907 
-2.265919 2.279712 0.1198082 -5.663889 -0.01161546 -2.689572 
2.523373 2.702998 1.081814 6.221108 -0.01840356 -0.1530102 
-0.01765823 3.38074 -1.3769 -0.07640496 0.00694498 -6.232297 
1.840122 1.221447 -0.5305328 4.741571 0.004870351 -4.080516 
-1.621849 1.954454 -0.7471123 -4.284076 0.06308152 -4.571805 
1.13607 0.7500617 -1.089508 2.842447 0.02795165 -5.585708 
0.313633 0.7593378 -1.356155 0.9533087 -0.01170497 -6.191654 
-0.7013588 0.2685762 -1.271072 -1.929689 -0.2016883 -5.933671 
0.7909927 0.09519361 -1.241562 2.006792 -0.9306526 -5.746264 
-1.838585 1.712218 -0.5318565 -4.698292 0.06907543 -4.141986 
2.518978 1.173006 1.035538 6.239715 -0.01407238 -0.6457903 
0.07236481 0.09518355 -1.375782 0.1982872 -0.7010576 -6.186244 
-0.1523628 1.462104 -1.372055 -0.7020458 -0.03483779 -6.217995 
-0.07704163 0.586116 -1.37571 -0.3786471 0.02204707 -6.252073 
1.284058 0.09519361 -1.003376 3.292823 -0.6470553 -5.253651 
1.183495 0.09519361 -1.06332 3.04629 -0.7639711 -5.374943 
0.6470413 0.09519361 -1.287121 1.709843 -0.7934371 -5.87654 
0.01251984 0.09519361 -1.37685 -0.01140521 -0.9644537 -6.110775 
1.135479 0.09519361 -1.089733 2.918888 -0.6836888 -5.470476 
3 0 1 2 
3 3 4 5 
3 1 6 7 
3 5 4 8 
3 6 9 7 
3 1 7 10 
3 6 11 9 
3 12 3 13 
3 12 13 14 
3 2 1 15 
3 4 16 8 
3 13 3 5 
3 1 10 15 
3 2 15 17 
3 18 19 20 
3 21 22 23 
3 24 25 26 
3 27 28 29 
3 25 30 31 
3 32 24 26 
3 30 33 34 
3 26 25 31 
3 30 35 31 
3 21 23 36 
3 32 26 37 
3 28 38 39 
3 21 36 40 
3 33 21 40 
3 28 39 29 
3 41 27 42 
3 27 29 42 
3 31 35 34 
3 34 33 40 
3 43 44 45 
3 46 43 47 
3 48 46 49 
3 49 46 47 
3 47 43 45 
3 44 50 45 
3 51 52 53 
3 53 52 54 
3 54 52 55 
3 56 57 58 
3 59 56 58 
3 60 59 61 
3 62 63 64 
3 58 57 64 
3 61 59 58 
3 65 66 67 
3 68 65 67 
3 17 16 2 
3 69 18 70 
3 70 18 20 
3 42 29 71 
3 72 73 74 
3 73 75 76 
3 73 76 74 
3 77 78 79 
3 78 80 81 
3 52 82 55 
3 55 82 83 
3 63 84 85 
3 86 65 68 
3 86 68 87 
3 88 89 90 
3 91 92 93 
3 89 94 95 
3 96 97 98 
3 92 99 100 
3 101 102 103 
3 102 104 103 
3 93 92 105 
3 102 96 104 
3 90 89 95 
3 104 96 106 
3 94 93 107 
3 106 96 98 
3 103 104 108 
3 94 107 95 
3 92 100 105 
3 15 109 110 
3 105 111 112 
3 113 69 114 
3 115 116 7 
3 117 7 118 
3 119 120 121 
3 122 14 123 
3 107 112 124 
3 120 17 121 
3 112 111 125 
3 17 15 110 
3 107 124 126 
3 127 112 125 
3 128 119 121 
3 117 118 129 
3 123 14 130 
3 124 112 127 
3 14 131 132 
3 118 7 116 
3 133 113 114 
3 131 134 132 
3 130 14 132 
3 69 70 25 
3 121 17 110 
3 116 135 118 
3 133 114 136 
3 109 129 110 
3 126 124 20 
3 70 30 25 
3 133 136 137 
3 41 110 27 
3 20 22 21 
3 138 21 33 
3 139 24 32 
3 132 140 141 
3 142 132 143 
3 140 144 145 
3 125 123 146 
3 147 125 148 
3 147 148 149 
3 140 145 141 
3 132 141 143 
3 148 125 146 
3 145 144 150 
3 151 152 153 
3 154 155 156 
3 157 158 159 
3 75 160 161 
3 162 163 164 
3 158 160 165 
3 166 157 167 
3 155 168 156 
3 157 159 169 
3 170 154 156 
3 163 171 164 
3 165 160 75 
3 152 172 153 
3 161 173 75 
3 157 169 167 
3 174 162 175 
3 158 72 159 
3 166 167 176 
3 162 164 175 
3 153 172 46 
3 171 177 164 
3 174 44 43 
3 46 174 43 
3 178 179 180 
3 181 182 183 
3 182 184 183 
3 179 185 186 
3 187 72 188 
3 188 72 189 
3 185 190 186 
3 50 164 191 
3 179 192 180 
3 183 184 180 
3 193 181 183 
3 189 72 74 
3 192 179 186 
3 194 47 195 
3 196 193 197 
3 198 199 200 
3 193 201 197 
3 202 203 204 
3 193 205 201 
3 206 198 207 
3 208 77 209 
3 203 210 211 
3 47 212 213 
3 195 47 213 
3 201 205 214 
3 213 212 209 
3 215 196 197 
3 198 200 207 
3 203 211 216 
3 78 81 79 
3 199 217 200 
3 203 216 204 
3 218 200 219 
3 220 218 221 
3 222 223 224 
3 225 216 226 
3 227 228 229 
3 223 84 224 
3 228 230 60 
3 231 232 233 
3 234 220 235 
3 231 233 236 
3 223 231 237 
3 238 227 229 
3 238 239 82 
3 240 225 226 
3 241 225 242 
3 84 223 237 
3 238 229 239 
3 229 228 60 
3 220 221 235 
3 219 200 243 
3 231 236 237 
3 224 244 226 
3 218 219 221 
3 224 84 244 
3 242 225 240 
3 82 239 83 
3 60 230 242 
3 56 245 57 
3 244 84 62 
3 246 247 248 
3 249 250 251 
3 252 249 66 
3 253 246 254 
3 255 256 257 
3 256 258 259 
3 247 61 248 
3 260 261 262 
3 263 252 65 
3 85 84 264 
3 63 62 84 
3 257 256 259 
3 265 260 262 
3 249 251 66 
3 266 246 248 
3 261 267 262 
3 258 253 259 
3 246 266 254 
3 251 250 268 
3 268 265 262 
3 65 252 66 
3 263 65 264 
3 253 269 259 
3 270 271 272 
3 251 273 274 
3 275 276 277 
3 276 278 279 
3 280 270 281 
3 282 283 284 
3 283 280 285 
3 273 286 287 
3 282 284 288 
3 289 280 290 
3 286 291 287 
3 251 274 292 
3 290 280 281 
3 283 285 284 
3 270 272 281 
3 273 287 274 
3 285 280 289 
3 276 279 277 
3 113 108 104 
3 19 18 293 
3 119 8 120 
3 69 25 114 
3 121 140 128 
3 138 20 21 
3 123 130 143 
3 123 143 146 
3 141 145 166 
3 294 148 295 
3 148 296 297 
3 148 297 295 
3 177 294 295 
3 181 298 191 
3 212 47 45 
3 299 190 300 
3 211 299 300 
3 188 301 302 
3 77 79 209 
3 190 188 232 
3 232 188 302 
3 190 232 300 
3 209 79 238 
3 225 241 201 
3 303 54 55 
3 236 249 252 
3 276 304 278 
3 276 275 304 
3 248 270 280 
3 283 254 280 
3 87 278 86 
3 67 305 68 
3 87 68 305 
3 306 99 92 
3 307 94 89 
3 307 89 88 
3 9 11 115 
3 293 90 95 
3 30 138 33 
3 308 38 28 
3 309 147 149 
3 309 149 310 
3 23 311 36 
3 36 311 40 
3 141 155 154 
3 311 148 294 
3 151 26 152 
3 156 178 170 
3 174 46 172 
3 164 181 191 
3 298 193 196 
3 220 232 302 
3 211 231 223 
3 249 221 250 
3 61 271 270 
3 268 286 273 
3 292 274 312 
3 4 3 313 
3 314 131 14 
3 118 135 308 
3 38 315 39 
3 315 29 39 
3 71 158 157 
3 75 73 165 
3 178 297 170 
3 295 297 182 
3 206 189 74 
3 203 299 210 
3 202 180 203 
3 206 207 218 
3 209 52 213 
3 235 236 233 
3 260 316 261 
3 250 265 268 
3 282 288 317 
3 318 281 272 
3 306 92 91 
3 118 308 129 
3 148 310 149 
3 171 311 294 
3 179 156 168 
3 179 178 156 
3 177 181 164 
3 46 48 153 
3 200 316 243 
3 277 319 275 
3 320 290 281 
3 12 313 3 
3 115 7 9 
3 14 13 314 
3 18 90 293 
3 18 69 90 
3 19 321 20 
3 127 22 124 
3 75 322 76 
3 198 74 76 
3 323 202 204 
3 323 204 214 
3 85 64 63 
3 262 291 286 
3 99 324 100 
3 119 5 8 
3 5 314 13 
3 113 325 108 
3 293 321 19 
3 114 25 24 
3 110 41 42 
3 311 23 310 
3 315 161 160 
3 179 176 185 
3 184 182 297 
3 189 206 301 
3 47 194 49 
3 214 204 216 
3 252 263 236 
3 324 12 100 
3 0 2 4 
3 91 93 94 
3 4 2 16 
3 100 12 14 
3 88 98 97 
3 88 90 98 
3 106 98 69 
3 10 7 117 
3 10 117 109 
3 15 10 109 
3 105 100 122 
3 93 105 112 
3 95 107 321 
3 95 321 293 
3 104 106 113 
3 8 16 120 
3 100 14 122 
3 69 98 90 
3 17 120 16 
3 93 112 107 
3 131 314 5 
3 69 113 106 
3 105 122 111 
3 109 117 129 
3 5 119 131 
3 122 123 111 
3 321 107 126 
3 131 119 134 
3 134 119 128 
3 20 321 126 
3 111 123 125 
3 121 110 144 
3 140 121 144 
3 130 132 142 
3 70 20 138 
3 136 114 24 
3 129 27 110 
3 20 124 22 
3 129 308 28 
3 134 128 140 
3 30 70 138 
3 28 27 129 
3 132 134 140 
3 127 125 147 
3 22 127 147 
3 24 139 136 
3 137 136 139 
3 22 147 23 
3 30 34 35 
3 23 147 309 
3 150 144 110 
3 130 142 143 
3 110 42 150 
3 23 309 310 
3 42 71 157 
3 40 311 171 
3 150 42 157 
3 145 150 157 
3 166 145 157 
3 146 143 154 
3 148 146 296 
3 71 29 158 
3 40 171 34 
3 31 34 162 
3 37 26 151 
3 29 315 160 
3 34 163 162 
3 31 162 152 
3 146 154 296 
3 160 158 29 
3 155 141 166 
3 141 154 143 
3 148 311 310 
3 152 26 31 
3 163 34 171 
3 177 171 294 
3 297 296 154 
3 152 162 174 
3 72 158 165 
3 172 152 174 
3 166 176 168 
3 166 168 155 
3 170 297 154 
3 165 73 72 
3 159 72 187 
3 169 159 187 
3 167 169 185 
3 297 178 184 
3 185 176 167 
3 179 168 176 
3 295 181 177 
3 44 175 164 
3 44 174 175 
3 182 181 295 
3 178 180 184 
3 185 169 187 
3 164 50 44 
3 190 185 187 
3 298 181 193 
3 188 189 301 
3 192 186 299 
3 192 299 203 
3 190 187 188 
3 191 298 196 
3 50 208 45 
3 180 192 203 
3 183 180 202 
3 205 183 202 
3 191 196 80 
3 191 80 78 
3 191 78 50 
3 45 208 212 
3 206 74 198 
3 299 186 190 
3 205 193 183 
3 78 77 50 
3 77 208 50 
3 202 323 205 
3 196 215 80 
3 212 208 209 
3 205 323 214 
3 301 206 218 
3 217 199 326 
3 210 299 211 
3 301 218 302 
3 80 215 81 
3 207 200 218 
3 300 232 231 
3 216 211 223 
3 225 214 216 
3 201 214 225 
3 197 201 241 
3 215 197 228 
3 302 218 220 
3 232 220 234 
3 197 241 230 
3 81 215 228 
3 227 81 228 
3 227 79 81 
3 209 238 82 
3 211 300 231 
3 216 223 222 
3 228 197 230 
3 238 79 227 
3 52 209 82 
3 52 51 213 
3 232 234 233 
3 230 241 242 
3 235 233 234 
3 216 222 226 
3 224 226 222 
3 219 243 316 
3 219 260 221 
3 240 226 245 
3 242 59 60 
3 229 60 247 
3 239 229 246 
3 55 256 303 
3 84 237 263 
3 246 229 247 
3 235 249 236 
3 56 240 245 
3 242 240 56 
3 235 221 249 
3 62 226 244 
3 62 245 226 
3 239 253 83 
3 55 83 253 
3 242 56 59 
3 316 260 219 
3 221 260 250 
3 236 263 237 
3 253 239 246 
3 253 258 55 
3 256 55 258 
3 84 263 264 
3 245 62 57 
3 260 265 250 
3 269 253 254 
3 57 62 64 
3 85 264 86 
3 247 60 61 
3 58 64 304 
3 64 85 278 
3 64 278 304 
3 58 275 271 
3 254 266 280 
3 66 251 67 
3 85 86 278 
3 58 271 61 
3 269 254 283 
3 86 264 65 
3 266 248 280 
3 259 269 283 
3 273 251 268 
3 58 304 275 
3 259 283 282 
3 270 248 61 
3 286 268 262 
3 271 275 272 
3 251 292 67 
3 279 278 87 
3 275 319 272 
3 6 327 11 
3 303 256 328 
3 32 37 329 
3 330 48 49 
3 87 331 279 
3 332 277 279 
3 313 333 4 
3 102 334 96 
3 335 137 139 
3 322 198 76 
3 199 336 326 
3 255 257 337 
3 317 337 282 
3 284 285 338 
3 6 339 327 
3 113 133 325 
3 340 75 173 
3 341 274 287 
3 12 324 313 
3 307 88 342 
3 291 343 287 
3 341 312 274 
3 339 6 1 
3 344 1 0 
3 340 345 75 
3 75 345 322 
3 337 257 259 
3 337 259 282 
3 346 291 262 
3 319 347 272 
3 344 339 1 
3 97 342 88 
3 115 348 116 
3 153 48 349 
3 51 350 213 
3 312 67 292 
3 318 320 281 
3 87 305 351 
3 195 213 350 
3 101 334 102 
3 329 37 151 
3 49 194 352 
3 326 200 217 
3 272 347 318 
3 353 284 338 
3 343 341 287 
3 333 0 4 
3 11 327 115 
3 354 103 108 
3 108 325 354 
3 320 355 290 
3 284 353 288 
3 96 334 97 
3 315 356 161 
3 51 53 54 
3 256 255 328 
3 116 357 135 
3 325 133 137 
3 151 153 349 
3 358 291 346 
3 291 358 343 
3 289 338 285 
3 357 116 348 
3 359 329 151 
3 161 356 173 
3 336 199 198 
3 267 346 262 
3 325 137 335 
3 32 335 139 
3 330 349 48 
3 330 49 352 
3 322 360 198 
3 290 355 289 
3 312 305 67 
3 332 319 277 
3 331 87 351 
3 328 54 303 
3 317 288 353 
3 361 306 91 
3 327 348 115 
3 357 308 135 
3 194 195 350 
3 362 327 339 
3 306 361 99 
3 363 307 342 
3 32 364 335 
3 38 365 315 
3 261 366 267 
3 328 255 337 
3 367 338 289 
3 94 361 91 
3 261 368 366 
3 369 313 324 
3 101 103 370 
3 334 371 97 
3 308 365 38 
3 173 356 340 
3 372 312 341 
3 200 373 316 
3 366 346 267 
3 305 374 351 
3 375 334 101 
3 331 332 279 
3 32 329 364 
3 376 324 99 
3 333 344 0 
3 377 368 261 
3 377 261 316 
3 378 333 313 
3 379 365 308 
3 194 380 352 
3 381 350 51 
3 318 382 320 
3 355 367 289 
3 326 373 200 
3 51 54 383 
3 365 384 315 
3 380 194 350 
3 328 383 54 
3 371 342 97 
3 370 103 354 
3 340 385 345 
3 381 51 383 
3 372 305 312 
3 376 369 324 
3 361 376 99 
3 307 361 94 
3 363 361 307 
3 375 101 370 
3 359 151 386 
3 386 151 349 
3 345 385 360 
3 322 345 360 
3 387 319 332 
3 382 355 320 
3 357 379 308 
3 384 356 315 
3 360 336 198 
3 369 378 313 
3 342 371 388 
3 363 342 389 
3 334 375 390 
3 334 390 371 
3 370 391 375 
3 354 391 370 
3 392 391 325 
3 325 391 354 
3 393 392 325 
3 393 325 335 
3 348 379 357 
3 356 384 385 
3 385 340 356 
3 394 359 386 
3 395 394 386 
3 396 395 386 
3 397 396 386 
3 397 386 349 
3 336 360 373 
3 336 373 326 
3 398 380 350 
3 399 398 350 
3 400 401 328 
3 368 377 346 
3 400 328 337 
3 366 368 346 
3 400 337 353 
3 358 346 343 
3 337 317 353 
3 332 402 387 
3 403 347 404 
3 405 406 341 
3 407 405 341 
3 404 347 319 
3 318 408 382 
3 409 382 408 
3 409 410 382 
3 406 372 341 
3 410 355 382 
3 400 353 338 
3 404 319 387 
3 407 341 343 
3 361 411 412 
3 363 413 411 
3 414 395 396 
3 414 396 397 
3 331 402 332 
3 415 408 318 
3 416 409 408 
3 417 410 409 
3 418 367 355 
3 419 338 367 
3 419 420 338 
3 333 378 421 
3 327 362 422 
3 362 423 424 
3 362 339 423 
3 378 369 425 
3 426 327 422 
3 427 423 339 
3 427 339 344 
3 348 327 426 
3 348 426 379 
3 335 364 359 
3 365 379 428 
3 429 335 359 
3 365 428 430 
3 364 329 359 
3 365 430 384 
3 394 429 359 
3 384 430 431 
3 384 431 385 
3 394 395 414 
3 414 397 432 
3 432 397 349 
3 349 330 380 
3 380 330 352 
3 349 380 398 
3 350 381 383 
3 399 350 328 
3 350 383 328 
3 433 399 328 
3 316 373 377 
3 401 433 328 
3 434 305 372 
3 434 435 305 
3 436 404 437 
3 436 403 404 
3 347 438 318 
3 438 415 318 
3 415 439 408 
3 440 409 416 
3 441 442 410 
3 435 374 305 
3 443 422 362 
3 444 445 378 
3 444 378 425 
3 361 412 376 
3 411 361 363 
3 388 389 342 
3 393 335 429 
3 428 446 430 
3 447 399 433 
3 447 433 448 
3 448 433 401 
3 387 449 404 
3 416 408 450 
3 409 440 451 
3 410 417 441 
3 400 338 420 
3 333 427 344 
3 430 446 431 
3 394 414 432 
3 452 399 447 
3 452 447 448 
3 452 448 401 
3 402 453 387 
3 453 454 387 
3 449 387 454 
3 403 438 347 
3 455 408 439 
3 455 450 408 
3 451 417 409 
3 442 355 410 
3 442 418 355 
3 419 367 418 
3 362 424 443 
3 333 421 427 
3 378 445 421 
3 363 389 413 
3 390 375 456 
3 423 427 457 
3 425 369 458 
3 411 413 459 
3 375 391 392 
3 413 389 460 
3 388 371 461 
3 375 392 462 
3 426 422 379 
3 413 460 459 
3 425 458 435 
3 463 412 411 
3 462 392 393 
3 422 464 379 
3 443 424 465 
3 371 390 456 
3 445 444 466 
3 464 422 467 
3 422 443 467 
3 423 457 468 
3 376 412 463 
3 462 393 429 
3 375 462 456 
3 444 425 435 
3 379 464 428 
3 456 462 469 
3 428 464 446 
3 421 445 466 
3 369 376 470 
3 389 388 471 
3 423 468 424 
3 462 429 394 
3 431 446 464 
3 411 459 463 
3 470 376 463 
3 431 464 385 
3 462 394 469 
3 427 421 472 
3 394 432 469 
3 385 464 467 
3 469 420 456 
3 469 432 349 
3 421 466 472 
3 458 369 470 
3 463 459 473 
3 461 371 419 
3 470 463 474 
3 465 424 468 
3 469 349 398 
3 467 443 465 
3 360 385 467 
3 427 472 457 
3 444 435 466 
3 459 460 440 
3 389 471 460 
3 360 467 373 
3 459 440 473 
3 458 475 435 
3 460 471 451 
3 469 398 399 
3 467 465 407 
3 474 463 476 
3 463 473 476 
3 371 456 419 
3 457 472 477 
3 469 399 478 
3 461 419 418 
3 469 478 420 
3 451 471 417 
3 470 474 479 
3 457 477 406 
3 373 467 407 
3 466 434 472 
3 465 468 405 
3 478 399 452 
3 480 470 479 
3 388 461 471 
3 331 458 481 
3 458 470 480 
3 377 373 407 
3 458 331 475 
3 452 401 478 
3 478 401 400 
3 458 480 481 
3 473 440 482 
3 479 474 449 
3 456 420 419 
3 377 407 346 
3 480 479 481 
3 441 471 442 
3 473 482 483 
3 471 441 417 
3 471 461 418 
3 478 400 420 
3 477 472 434 
3 468 457 406 
3 442 471 418 
3 468 406 405 
3 435 475 374 
3 474 476 484 
3 474 484 437 
3 481 479 485 
3 460 451 440 
3 481 485 402 
3 346 407 343 
3 407 465 405 
3 474 404 449 
3 473 483 486 
3 351 475 331 
3 434 466 435 
3 374 475 351 
3 415 473 486 
3 406 477 372 
3 477 434 372 
3 481 402 331 
3 485 453 402 
3 485 479 453 
3 479 454 453 
3 479 449 454 
3 474 437 404 
3 437 484 436 
3 484 403 436 
3 484 476 403 
3 476 438 403 
3 476 473 438 
3 473 415 438 
3 415 486 439 
3 486 455 439 
3 486 483 455 
3 483 450 455 
3 483 482 450 
3 482 416 450 
3 482 440 416 
