ply
format ascii 1.0
comment VCGLIB generated
element vertex 346
property float x
property float y
property float z
property float nx
property float ny
property float nz
element face 688
property list uchar int vertex_indices
end_header
0.890011 0.2578187 5.029882 2.621444 -2.564569 2.375257 
0.1478294 -0.1210833 5.027741 -0.3817955 -3.018526 1.778738 
0.2126568 -0.08343887 4.546607 1.934572 -5.051699 -1.758447 
1.532751 0.4814639 5.027171 0.796753 -4.162652 3.688978 
0.9808627 0.2932296 5.051779 -0.7598236 -2.764261 1.840056 
0.9911815 0.3130417 4.582888 0.5058006 -5.667345 -1.34543 
2.213297 0.5502763 5.013684 2.133186 -2.006167 1.698578 
0.8444981 0.2414608 4.592776 3.293933 -4.191515 -1.665732 
2.195862 0.5491793 4.53365 2.357085 -2.131389 -1.698528 
1.078416 0.327261 3.927719 1.846572 -2.114552 2.389677 
0.2618386 -0.0540216 3.891774 1.385267 -3.765822 2.94723 
0.7967243 0.2190228 3.434953 2.384366 -4.293584 -2.693437 
3.92037 0.3818519 3.914619 -0.9128394 -4.912438 -0.4419277 
3.91007 0.3122749 3.447114 -2.61775 -1.507428 -1.695856 
4.191447 0.1998863 3.915832 -1.464634 -2.622681 3.26531 
4.822264 -0.1404183 3.893619 0.1478614 -3.28598 1.959816 
4.845932 -0.1573665 3.411986 0.4010208 -3.135374 -1.722001 
3.85017 0.3341126 3.903956 0.6268989 -3.680097 2.262052 
3.866623 0.3264797 3.423138 0.8401351 -2.404502 -2.079969 
3.05088 0.5198407 3.928565 -2.510394 -2.002912 1.601261 
3.04046 0.5213714 3.508106 -3.21557 -2.688658 -0.9271431 
0.1271737 -0.09468269 3.885525 -0.6214139 -3.650211 2.106869 
0.1515697 -0.1220973 3.405216 -0.4380942 -2.925384 -1.713527 
1.079882 0.3940287 3.4332 1.961608 -5.578089 0.4105866 
3.041303 0.5829508 3.433403 -0.383487 -5.321871 -0.6797304 
4.85797 -0.1644323 2.789937 0.5173499 -4.079803 1.279242 
4.465848 0.06792665 2.782006 -2.989119 -4.951445 1.775479 
4.737599 -0.08312416 2.308915 -1.855352 -3.965292 -2.8636 
3.960931 0.3147278 2.390264 -3.032542 -4.396071 -1.703663 
4.874317 -0.1384194 2.325949 0.5977064 -4.15696 -1.786455 
4.832594 -0.09146786 1.684043 0.09643514 -5.925775 0.4553887 
4.699086 -0.05826426 1.669608 -1.859311 -4.502859 2.648515 
4.856617 -0.1622223 1.187648 0.5126975 -2.676529 -1.628695 
3.337437 0.470035 1.080721 1.583785 -3.036711 1.448855 
2.49034 0.5581463 1.11058 -2.051948 -2.383646 1.623062 
2.645713 0.5679442 0.6278962 -0.356868 -5.224591 -2.55738 
2.495111 0.5656399 0.6742287 -2.425469 -4.374337 -0.9126465 
3.326103 0.5394096 0.5883563 -1.372317 -4.657812 1.556289 
1.485497 0.448714 0.5645089 1.256909 -4.398593 2.583172 
1.400203 0.4528505 0.5967938 1.443348 -6.004065 0.2158418 
1.376756 0.4091236 0.09903282 -1.296885 -2.963474 -1.463263 
1.684453 0.5552509 4.48586 0.2206616 -3.460061 -0.5269518 
4.243478 0.2077768 3.998191 -2.558897 -5.665344 -0.7237881 
3.131856 0.5007567 4.487756 -2.13529 -1.630551 1.028442 
3.42668 0.4529846 4.036338 -2.222134 -4.85427 -2.330774 
3.354645 0.5370109 3.982645 -0.785669 -4.245519 0.9503925 
3.057916 0.587723 3.95401 -1.218247 -3.913031 0.03073081 
0.1592566 -0.1218903 2.805963 0.05505908 -5.386243 -0.2278752 
0.1511153 -0.1022983 2.368979 -0.1941146 -4.860194 -1.091051 
1.04626 0.336463 2.770966 2.980931 -3.458168 1.965167 
3.939781 0.3684766 2.805004 -1.735448 -5.636381 -0.1312656 
3.852225 0.3542523 2.806095 -0.1142544 -3.17837 2.648329 
3.683816 0.4111778 2.359226 -1.034799 -5.487039 -2.03672 
3.90343 0.3683312 2.375707 -2.284714 -5.699334 -0.7883618 
3.927021 0.3254104 1.604844 -3.845331 -2.036799 0.7572706 
2.405883 0.5588945 0.6273865 1.858943 -4.172821 -1.786133 
2.421819 0.5727662 1.092129 2.169443 -5.059467 1.180529 
1.606011 0.4797429 0.6522807 -1.746538 -4.335098 -0.6414145 
1.857582 0.5379425 0.01938576 2.019643 -1.681635 -1.712765 
4.876763 -0.1552896 5.013602 0.4219847 -3.056825 1.676617 
3.789059 0.3713388 5.054909 -1.677083 -2.689293 3.069382 
4.489142 0.07757521 4.549685 -2.142149 -3.820955 -3.165001 
3.150467 0.5297112 4.546556 -1.327689 -4.993072 -2.521212 
3.728297 0.3900414 5.029494 -1.41215 -3.685991 2.942631 
2.879415 0.5561628 5.029494 -0.4753035 -3.823426 2.954732 
2.976451 0.5690279 4.608716 -1.764441 -5.766824 -1.38179 
3.801941 0.3862062 4.559574 -1.863247 -5.948374 0.07340267 
4.862355 -0.1460991 4.533905 0.2815832 -3.135369 -1.782659 
2.276429 0.5764065 5.024632 -1.256806 -3.262431 2.454431 
2.910277 0.6003983 4.571664 -0.7817741 -6.10663 -0.3752841 
2.268357 0.5702026 4.547596 -0.9960337 -4.794551 -1.786508 
4.235096 0.2583828 4.548819 -1.253867 -2.806244 -1.89585 
3.121619 0.5783553 4.508776 -1.298545 -4.321558 0.05745491 
2.472822 0.6265395 4.499286 -0.07840016 -4.326039 0.1269573 
4.18728 0.2297144 4.463188 0.03198454 -5.594152 1.142075 
0.8934161 0.3342872 4.508776 1.34204 -3.350005 1.827139 
0.6457623 0.17103 4.495096 -0.7023215 -3.336291 1.626921 
1.650515 0.4965913 4.469345 2.2748 -3.218259 2.095014 
0.5665941 0.1332836 4.478785 3.06451 -3.782391 1.819458 
0.1140082 -0.08528423 4.481089 -0.9385338 -5.360456 -0.3738982 
0.5222015 0.1210246 4.002595 2.996705 -3.482507 -2.441812 
1.299755 0.4140825 3.996825 1.782967 -5.419941 -1.985094 
1.684426 0.5550749 3.982788 -0.1562194 -4.570409 0.7166103 
4.835254 -0.1270719 4.476665 0.4703349 -3.114754 1.672844 
4.286374 0.1789618 4.479723 -3.51645 -4.387547 1.361799 
4.834209 -0.1276751 3.996825 0.5407877 -4.006789 -1.354637 
2.431541 0.5757387 4.476818 1.716365 -3.687382 1.844729 
1.709157 0.5084045 4.476818 -1.373939 -2.79588 1.857017 
2.112806 0.5756609 3.992758 0.5608435 -5.226526 -2.512315 
3.071682 0.5358889 4.477654 0.5822765 -4.656847 2.364579 
2.485981 0.5749309 4.477225 -1.997846 -2.968237 1.772467 
2.761597 0.5729666 4.033259 -0.5903872 -5.956552 -1.443971 
3.299944 0.4954846 3.995836 1.136772 -3.414312 -1.431315 
1.7101 0.5076368 3.996856 -1.274341 -2.929937 -1.813096 
2.428465 0.6179929 3.990637 -0.1935189 -5.901468 0.8719599 
0.1084789 -0.09325981 4.038815 -0.5298105 -3.902921 -1.571436 
0.5977798 0.2090423 4.007121 2.834148 -5.195973 0.1464961 
4.803047 -0.05301809 3.912754 -0.5138537 -3.412519 1.955961 
1.3987 0.4405849 3.912835 0.9294769 -5.280937 2.225586 
1.137477 0.4124053 3.924691 2.064089 -5.105057 -0.6492342 
1.159695 0.3718145 3.586642 -0.2856128 -5.772565 -0.1265465 
1.677695 0.5207922 3.441783 0.8125901 -4.89111 -2.945251 
1.720172 0.5157819 3.525523 0.6778932 -6.20985 -0.6722722 
2.999486 0.5381956 3.899063 1.359453 -4.82741 1.293873 
2.459045 0.5826628 3.92726 -0.5861958 -5.867509 1.497949 
2.975094 0.5455496 3.416175 0.4872184 -1.51619 -2.231823 
5.147463 0.119463 3.386311 2.880968 -0.4287421 -1.498823 
2.255538 0.5832064 3.461774 0.3666794 -6.190523 0.5628048 
3.214516 0.5717888 3.376102 -0.9189084 -4.578087 0.3753613 
1.637071 0.5499415 3.416471 0.54653 -4.647264 -1.747141 
1.24952 0.4055383 3.323663 1.845967 -5.83058 1.221815 
1.650793 0.4976337 2.872908 2.798735 -4.982303 -0.6930887 
0.5598202 0.1872129 3.365908 2.690428 -3.191482 -0.869205 
0.6464651 0.1713586 2.839063 -0.4129353 -3.407793 -2.034398 
4.292773 0.1784878 3.339199 -2.873209 -2.636329 2.077134 
4.804306 -0.1073217 2.862499 -0.247114 -5.15937 1.927501 
4.803639 -0.107676 3.341442 0.4129508 -2.910547 1.700227 
4.230452 0.2030993 3.349373 0.7906541 -3.39175 2.01863 
3.38552 0.4785566 3.316466 -1.467777 -5.622377 1.679908 
4.23473 0.2011986 2.866964 -0.1842385 -4.557465 -1.933701 
1.709598 0.5076444 3.341778 -1.169865 -5.375656 0.8719763 
1.709069 0.5085711 2.862407 -2.129008 -2.423724 -0.9254862 
2.431297 0.574878 3.341809 0.1865489 -6.26715 0.2712094 
0.08520515 -0.1456249 3.341432 -0.2699844 -3.468899 1.687005 
0.5810385 0.1408284 2.86252 3.768625 -3.107847 -1.533079 
0.5810556 0.1400986 3.341432 2.994797 -1.155464 1.49301 
4.301982 0.22774 2.839461 -1.532758 -4.555301 1.327233 
2.491048 0.5891457 2.844619 -0.05452893 -6.091955 0.7851624 
3.401483 0.4748757 2.834078 -2.336286 -1.90238 -1.635556 
0.6030847 0.2086475 2.828216 1.110907 -3.085269 0.8920085 
2.203186 0.5675182 2.789927 1.968282 -4.495271 1.575907 
1.161073 0.3750405 2.789387 -0.1423888 -3.558355 2.550954 
2.135088 0.5683554 2.311137 1.375325 -3.409894 -2.874862 
1.309872 0.416425 2.314614 1.014938 -5.450677 -2.064954 
3.033607 0.5613086 2.77802 -0.6134084 -6.137527 -0.5366226 
2.260013 0.5704093 2.784249 -2.533693 -3.376132 1.16867 
2.944775 0.5500312 2.287614 1.441847 -3.402012 -2.058309 
2.28305 0.5761732 2.320995 -1.583853 -4.569658 -2.073235 
2.219842 0.6202176 2.312799 0.1521309 -5.577073 -0.5741809 
-0.1579368 0.1211886 2.301975 -4.933403 -1.083593 1.058668 
1.038815 0.3506761 2.295244 3.097332 -3.097914 -1.964096 
1.049593 0.3900648 2.272073 1.976456 -4.869931 0.6514511 
4.842172 -0.1262405 2.230206 0.2471164 -3.168546 1.803962 
4.31794 0.222621 2.270993 -2.065579 -4.643964 -0.9912914 
4.29344 0.1775782 2.050014 -4.424551 -2.375949 0.3485703 
0.5368691 0.1303561 2.195709 3.7642 -4.321089 1.156041 
0.08170271 -0.1354814 2.210735 -0.235225 -3.291547 1.709504 
0.2080956 -0.06312299 1.73795 1.608555 -3.708217 -2.754385 
2.430516 0.5767169 2.230186 1.291558 -2.408866 2.513042 
1.709616 0.5075507 2.164912 -1.00479 -5.605822 0.6799749 
1.709445 0.5081373 1.754097 -1.724054 -2.682365 -1.650195 
3.313364 0.4940953 2.233223 0.4971234 -4.330844 2.341427 
2.492662 0.5818794 2.224416 -1.79351 -2.406937 2.139747 
3.340094 0.4901624 1.75005 0.3846041 -5.197146 -1.496125 
4.667152 -0.02232516 1.756228 -2.977403 -5.198318 -1.293646 
0.5835279 0.1413052 1.756136 3.532669 -4.224934 -1.120389 
3.389065 0.4552757 2.213192 -2.579019 -2.034076 1.331899 
3.415082 0.5253317 1.682677 -1.033249 -3.14236 1.327503 
3.396903 0.4763401 1.735381 -2.821958 -1.750207 -1.050022 
2.486688 0.5749973 1.780398 0.02485853 -5.993916 -1.407016 
3.940292 0.377661 1.686255 -1.818317 -5.323365 0.8258715 
1.083304 0.3439918 1.664093 2.306239 -3.317516 2.436976 
0.1260963 -0.07350528 1.724932 -0.8084139 -5.621577 -0.8457061 
1.019372 0.326176 1.232023 2.710225 -5.206199 -1.462037 
2.254406 0.6210938 1.675531 -0.7945818 -4.647422 -0.1238979 
1.158533 0.3715254 1.664552 -1.47923 -2.719424 1.498812 
2.087571 0.5611947 1.231463 1.244567 -6.093216 0.6432931 
3.01957 0.5996746 1.73218 -0.3818464 -3.817683 -1.517286 
3.060552 0.5443434 1.215223 -3.044343 -3.741154 -1.227906 
3.100112 0.5296652 1.664073 -1.816159 -4.868854 1.787226 
3.856145 0.3542389 1.666662 -0.1698166 -4.203927 2.404772 
0.1350969 -0.1145356 1.1862 -0.4420093 -4.89657 0.4512782 
4.995789 -0.02097261 1.711934 3.724453 -4.8692 0.3216512 
2.231025 0.6184692 1.247998 0.4000313 -5.345972 0.8421638 
3.816592 0.3629141 1.187118 -0.6447695 -4.632646 -2.420077 
2.992859 0.5450277 1.651136 2.04827 -4.362907 1.127549 
2.267876 0.5707146 1.664593 -1.882469 -2.598439 1.842355 
2.985091 0.5462616 1.186649 1.03301 -4.449732 -2.035279 
3.940712 0.3742656 1.159104 -1.458682 -4.922158 1.46153 
2.324947 0.5769971 1.243013 -1.394979 -4.905014 -2.162957 
1.205047 0.3914475 1.231677 -0.09372396 -5.651324 -1.37493 
2.485206 0.6282932 1.138247 -0.494495 -4.527949 0.4049963 
1.700402 0.5131169 1.134832 0.9898791 -6.077849 -0.5596004 
0.6108756 0.2160293 1.106859 2.457203 -4.936173 -1.341828 
0.1017411 -0.1344756 1.086033 -0.7906348 -4.344693 0.6547911 
0.5521153 0.1334465 0.7770064 4.334976 -3.816765 -0.5702218 
0.6388202 0.168155 0.6035933 0.9651918 -5.398007 -0.9136927 
1.194529 0.3833071 1.086277 1.997566 -5.391405 1.796177 
1.565514 0.4796741 0.6037055 2.48029 -2.323492 -1.925999 
4.84391 -0.1272436 1.079804 0.6854758 -3.973087 1.454412 
4.244535 0.1967507 1.078968 -2.51583 -5.600987 1.112495 
4.83782 -0.1300618 0.6047555 -0.03130639 -5.361452 0.3324423 
4.395287 0.125305 0.6041133 -3.052114 -5.4718 -0.1330279 
0.09738819 -0.1310911 0.6020438 -0.9024906 -4.306667 -0.4631104 
2.463043 0.6300337 0.58084 0.09021827 -4.539498 0.7374631 
0.5772494 0.2108341 0.718502 1.050617 -4.27664 -0.1422302 
0.4776573 0.1533205 0.5434069 1.472641 -3.140167 2.262579 
3.974426 0.3622438 0.591656 -1.777458 -5.053072 0.8608248 
3.399717 0.4755237 1.104484 -2.008672 -2.328661 2.368664 
3.385201 0.478672 0.6261632 -2.169634 -4.474366 -1.764516 
1.555002 0.5298809 0.5784137 1.42267 -2.85228 0.5357671 
3.106795 0.531629 0.5242827 2.337233 -3.117393 0.9916735 
1.890444 0.5877087 0.5202458 0.8255176 -5.952299 -0.4453196 
3.105587 0.5288649 0.04185373 1.643016 -2.416239 -1.759846 
4.036363 0.2838461 0.5172793 -0.06628022 -4.91149 2.181675 
3.167955 0.5216236 0.541674 -2.222454 -4.716355 1.72721 
3.156123 0.521326 0.05523866 -2.114396 -2.748473 -2.382578 
4.352537 0.1468794 0.5208269 -3.370255 -5.268223 0.4265829 
4.868363 -0.1504778 0.0422309 0.2252218 -3.131071 -1.770776 
4.873716 -0.1442717 0.5255569 0.9166052 -4.663228 0.5638281 
0.1291603 -0.1164675 0.495423 -0.425913 -4.925073 -0.1686763 
1.306977 0.4160242 0.05609497 2.455751 -2.613663 -2.601099 
1.933783 0.5414969 0.04186392 -0.9484398 -3.262769 -2.391765 
4.140429 0.3020555 0.511754 -1.855263 -5.353734 0.03472418 
4.086725 0.2641011 0.03357607 -1.344091 -3.572599 -3.145852 
0.1009173 -0.05957719 0.0005775094 -0.5481291 -3.290261 -2.35172 
0.3224631 0.003153125 0.02329016 1.661826 -3.924694 -3.108508 
2.217071 0.620245 5.013266 3.201535 -1.684068 2.277317 
2.278034 0.6220803 3.96139 0.2541586 -5.482888 -1.322977 
3.303423 0.5039492 2.911513 -0.1844159 -6.146938 -0.8543442 
3.40611 0.5204134 2.820703 -1.771287 -3.285849 0.8621389 
1.713766 0.5566819 2.800794 0.4514221 -3.063227 1.608241 
0.1358753 -0.04696202 2.241623 0.5304322 -4.470029 2.479171 
2.964477 0.5898687 2.268964 0.4087634 -4.240801 1.12672 
1.633181 0.5442549 2.257027 1.562696 -3.568536 -0.3468126 
4.922919 -0.04522467 2.25772 2.576209 -4.791235 -1.562976 
0.5661821 0.1966846 2.293267 1.875815 -3.949139 -1.909141 
0.6330159 0.1733098 2.106561 0.06302059 -5.717754 0.4534156 
1.63566 0.5073957 2.249697 2.360469 -1.904387 1.933526 
4.236697 0.1924019 2.222958 -0.3116442 -4.583041 1.597354 
4.277038 0.2398585 1.742568 -2.540151 -4.930977 1.252303 
0.643045 0.1773412 1.732669 -1.467741 -2.724087 -1.239012 
1.696692 0.5516548 1.742028 -0.2948577 -4.552176 0.2695833 
0.6446475 0.2286826 1.682555 0.7674925 -1.954889 1.286631 
3.048539 0.5924907 1.156484 -0.406578 -4.497332 0.7894667 
1.145955 0.4149939 1.182011 1.648152 -5.516103 0.1617312 
1.283067 0.4707558 1.121039 0.6805658 -3.674848 1.233714 
0.873909 0.4844098 5.099304 -2.071987 -2.686965 4.083295 
0.9429009 0.3444567 4.999034 -1.032177 -3.356294 1.877264 
2.192907 0.6177232 4.508878 0.8529639 -3.203481 0.7034807 
0.08763798 -0.04936075 3.386969 -1.882412 -3.952942 2.480197 
3.920532 0.3817585 3.434056 -0.993091 -3.354557 -0.594376 
3.123593 0.5305359 3.318379 -0.6719852 -5.79027 1.956009 
1.085113 0.4044576 2.79743 0.9506484 -3.424226 -1.538886 
2.254042 0.62064 2.839114 -0.1666735 -3.033473 -1.295469 
3.396839 0.5340755 2.25509 -1.069684 -4.486122 0.07338634 
1.14307 0.4219356 1.681953 0.6217141 -3.740887 -0.2138359 
3.110488 0.5800881 0.5937763 -0.5191805 -3.315137 -1.497908 
3.153288 0.7311512 -0.001522481 2.908123 -1.872537 -3.841763 
3.169269 0.7052644 0.01394208 -1.586196 -1.728809 -5.770356 
4.202996 0.416478 -0.001522481 2.024659 -2.529848 -3.482701 
0.2916065 0.04811263 3.921215 1.207576 -3.686254 1.854082 
2.472534 0.6261618 2.224446 -0.2678023 -4.205798 0.6586587 
3.879985 0.389744 2.242337 -1.27666 -3.774678 2.651517 
3.369708 0.5344381 1.101028 -0.9310426 -4.366975 1.142947 
0.6149332 0.2136989 4.519776 1.486107 -3.785941 -0.7110621 
-0.04577792 -0.008447886 2.816941 -2.000867 -2.802372 -3.24539 
1.830166 0.7281451 -0.03228848 2.690026 0.1773689 -1.952906 
2.22082 0.73559 5.055633 3.401164 -1.227219 3.553442 
4.890433 -0.06274986 4.498857 2.902845 -4.178579 -1.952272 
5.11153 0.1299167 3.979588 4.828063 0.1967564 1.795411 
4.269486 0.2436023 3.355592 -1.299605 -3.919918 0.08176599 
4.879138 -0.01788855 3.369945 2.336753 -3.500371 -2.755844 
4.803324 -0.05253673 1.172714 -0.2263325 -3.219044 -2.270126 
1.34249 0.4732425 0.07889935 1.709617 -2.850967 -4.429979 
3.118749 0.5722907 0.0782775 1.34366 -2.559132 -1.70068 
-0.1609131 0.1312046 3.982313 -4.559522 -1.131082 -0.130294 
2.93804 0.5616391 3.32662 -0.5594231 -6.164532 0.9645925 
5.030904 0.08940339 1.14365 1.35958 -5.550129 -1.759703 
1.855095 0.5851699 0.06839934 2.552658 -1.643358 -1.97114 
1.275458 0.5905759 0.01419693 0.5306672 -1.604045 -6.019569 
-0.2177898 0.09179592 2.247372 -2.223932 -0.007247068 0.9546598 
-0.1962106 0.1071044 1.669988 -1.127057 0.05287582 -1.174873 
4.999059 -0.01319218 0.5661297 3.902745 -4.902446 0.189369 
5.007606 -0.01908112 5.056897 1.61895 -3.242187 3.256929 
2.912076 0.7293024 5.070608 2.847443 -0.8417989 2.002677 
0.7740682 0.6348214 5.151289 -0.6122875 2.1127 2.654096 
-0.2003445 0.105583 2.823509 -4.318771 -0.7601461 -0.3313166 
5.160921 0.1100791 2.836717 2.164505 0.06671217 1.472557 
3.917846 0.7110486 5.096613 -0.5985385 -0.09128614 6.16042 
2.230451 0.7614393 5.017343 0.1839291 -0.8059483 1.638243 
5.159457 0.1051164 2.259364 4.001265 -0.3469373 -0.3651448 
-0.1257677 0.1642154 1.096139 -4.260733 2.442792 1.775635 
4.969137 0.09272647 1.143293 0.7671327 -1.793592 -0.3031246 
0.01288614 0.01971054 5.071719 -1.75239 -3.120993 3.210659 
-0.1184583 0.1591857 0.5159363 -4.366706 -4.441965 0.0298821 
2.939709 0.7347708 5.071199 -1.154992 -0.7942418 5.995279 
-0.16079 0.1310434 4.559885 -3.751213 0.02854383 0.1391511 
1.774663 0.9214449 -0.01972147 1.156718 4.676346 -1.204708 
5.113221 0.1284914 4.535183 5.19 -1.031135 -0.302105 
5.154111 0.09957096 0.5258582 4.381135 -0.7148895 0.05198031 
5.152814 0.09946654 -0.05274308 1.866565 -0.2573969 -1.599091 
-0.198082 0.1060128 3.402099 -3.192136 -0.7070662 1.44269 
-0.1306138 0.1541196 1.705017 -4.805329 0.5789561 -1.681962 
5.024765 0.09305227 1.127095 1.466254 -5.554523 0.4756057 
-0.1821294 0.1168951 1.098999 -1.827363 -0.03475797 1.210501 
0.5633973 0.5333446 -0.05225426 -0.8484216 2.355116 -2.715457 
5.159531 0.1049526 3.964965 1.835723 -0.02023839 1.155582 
4.312554 0.5640002 -0.05274311 0.5837784 1.975523 -4.40126 
-0.1334816 0.1494647 -0.07945162 -1.460997 0.1351295 -1.26456 
2.229426 0.9299397 5.122656 -0.3179544 2.211679 2.859534 
1.77085 0.9160091 -0.0933051 0.8846191 1.316765 -1.655332 
2.942935 0.9516315 5.093462 0.3319473 2.834064 2.885216 
5.172152 0.1040312 1.693014 1.632627 0.1203073 0.8050494 
-0.1508806 0.1538467 5.121918 -1.595301 0.0479182 1.246797 
5.172549 0.1024803 1.115609 2.387387 -0.8433094 0.06122068 
3.19277 0.8810071 -0.0527431 0.2623737 1.233681 -0.7996958 
5.163254 0.09212208 5.107544 1.823788 -0.3441584 1.439506 
5.110863 0.1290281 1.703415 3.441435 3.004007 1.926847 
-0.1380996 0.1468003 0.01386178 -3.616703 0.3325737 -0.1913486 
-0.1212414 0.2090623 3.500613 -3.925593 1.798845 0.5913406 
3.896293 0.7584076 5.093566 0.6534423 2.810423 2.943666 
5.068859 0.1660113 2.844434 4.656677 -1.168906 2.035901 
5.089688 0.1909208 3.348204 3.722681 1.965355 -1.384484 
-0.1450233 0.1898053 2.892973 -4.310321 4.36327 -0.102 
1.196547 0.7606032 -0.01982547 -1.060466 2.536933 -2.990179 
5.089258 0.1904554 5.093317 2.589227 3.022094 2.56734 
-0.1347803 0.2001357 2.20629 -4.60289 3.499855 -0.07066807 
5.08253 0.1992161 2.644318 3.582317 4.933448 -0.02089788 
5.089396 0.1908253 0.9318943 3.751032 4.874681 0.08419375 
4.390746 0.5765511 0.01546347 1.907856 5.430385 -1.319699 
4.58335 0.4833268 -0.003455073 2.379805 4.533174 -2.273651 
5.089615 0.1908505 -0.003933489 3.328508 4.067341 -1.776978 
4.690763 0.428329 5.093628 1.567221 3.083728 3.040131 
-0.1449695 0.1898604 0.7025006 -3.687419 0.8621002 -0.05487548 
0.3637937 0.4868197 5.084383 -2.339245 4.708876 1.965432 
5.089388 0.1908302 4.157728 4.556824 3.786853 -0.006449826 
-0.1347943 0.2001264 3.24189 -3.769552 4.725456 0.04211018 
-0.1450233 0.1898053 3.131915 -4.885684 3.891698 0.01003599 
-0.1344395 0.2003609 1.369694 -4.053456 2.475991 -0.376599 
2.483789 0.9805007 2.8142 -0.02992279 6.211481 -0.03529883 
3.970687 0.7377322 4.586354 1.887425 5.94568 -0.1495486 
1.530012 0.8841047 2.30991 -1.310119 6.090274 0.2158349 
4.570858 0.4927201 4.765617 2.574351 5.717935 0.003132999 
4.751489 0.3989401 4.75478 3.214118 5.384645 0.05833176 
4.676149 0.4392824 4.705804 2.916787 5.564229 0.05329236 
4.66632 0.4444137 4.695549 2.879359 5.584399 0.0170118 
4.676073 0.439322 4.695008 2.970184 5.535913 -0.04746684 
4.646684 0.454577 4.646126 2.751664 5.633388 -0.1688585 
3.360784 0.8912587 3.181629 1.035704 6.147108 0.1904924 
-0.1347803 0.2001357 3.002907 -3.471811 5.095879 0.05516876 
3.583817 0.84738 2.634593 1.551126 6.002202 -0.1697511 
0.373874 0.4918884 2.254808 -2.5081 5.693074 0.334888 
1.522129 0.8825172 0.2852944 -1.126759 6.043585 -0.03469624 
1.228004 0.8113483 1.883916 -1.919541 5.954327 0.1073179 
0.744137 0.6512785 1.680503 -1.892346 5.8329 -0.658877 
3 0 1 2 
3 3 4 5 
3 3 5 6 
3 0 2 7 
3 6 5 8 
3 9 10 11 
3 12 13 14 
3 15 14 16 
3 12 17 18 
3 17 19 20 
3 14 13 16 
3 21 22 10 
3 17 20 18 
3 9 11 23 
3 18 20 24 
3 10 22 11 
3 25 26 27 
3 27 26 28 
3 25 27 29 
3 30 31 32 
3 33 34 35 
3 35 34 36 
3 37 33 35 
3 38 39 40 
3 41 8 5 
3 42 43 44 
3 42 44 12 
3 45 19 17 
3 19 46 20 
3 47 48 49 
3 26 50 28 
3 51 52 53 
3 31 54 32 
3 55 56 57 
3 38 40 58 
3 59 60 61 
3 62 63 64 
3 64 65 62 
3 60 66 61 
3 59 61 67 
3 63 62 66 
3 68 69 64 
3 69 68 70 
3 61 66 71 
3 62 72 66 
3 73 69 70 
3 72 43 74 
3 75 76 77 
3 78 79 80 
3 77 76 81 
3 82 77 81 
3 83 84 85 
3 74 43 42 
3 86 87 88 
3 89 90 91 
3 89 91 92 
3 87 93 88 
3 86 88 94 
3 85 84 42 
3 90 94 91 
3 80 79 95 
3 81 76 96 
3 97 14 15 
3 98 99 100 
3 98 100 101 
3 102 98 101 
3 103 104 105 
3 15 16 106 
3 107 102 101 
3 100 23 101 
3 18 24 108 
3 22 23 11 
3 109 110 111 
3 110 112 113 
3 114 115 116 
3 111 110 113 
3 117 118 119 
3 120 121 122 
3 123 47 124 
3 125 123 124 
3 126 117 119 
3 122 121 127 
3 114 126 115 
3 119 118 50 
3 50 118 128 
3 47 49 129 
3 115 26 25 
3 130 131 132 
3 131 133 132 
3 134 135 136 
3 137 135 138 
3 47 139 48 
3 136 135 137 
3 138 130 132 
3 48 140 49 
3 133 131 141 
3 142 143 144 
3 145 146 147 
3 148 149 150 
3 151 152 153 
3 142 144 154 
3 145 147 155 
3 156 157 158 
3 152 159 153 
3 156 158 160 
3 142 154 30 
3 148 150 159 
3 161 162 163 
3 164 165 166 
3 167 168 169 
3 170 169 168 
3 162 171 163 
3 30 32 172 
3 164 166 173 
3 174 170 168 
3 175 176 177 
3 178 170 174 
3 176 173 179 
3 174 168 178 
3 176 179 177 
3 166 165 180 
3 32 54 178 
3 34 33 181 
3 56 182 57 
3 183 184 185 
3 183 186 187 
3 182 187 188 
3 189 190 191 
3 191 190 192 
3 187 186 39 
3 185 184 193 
3 188 187 39 
3 36 34 194 
3 195 185 196 
3 197 198 199 
3 185 193 196 
3 190 198 192 
3 55 57 200 
3 198 197 192 
3 201 202 203 
3 204 205 206 
3 207 208 209 
3 39 210 211 
3 202 212 203 
3 213 204 214 
3 204 206 214 
3 210 215 216 
3 207 213 214 
3 207 214 208 
3 211 210 216 
3 217 6 8 
3 64 69 65 
3 72 62 65 
3 44 43 45 
3 78 80 96 
3 87 41 93 
3 103 94 104 
3 218 107 104 
3 105 104 107 
3 219 118 127 
3 118 219 220 
3 219 127 220 
3 221 131 130 
3 51 134 52 
3 49 140 141 
3 139 222 48 
3 134 223 52 
3 224 133 141 
3 224 132 133 
3 143 27 28 
3 143 225 27 
3 223 152 151 
3 141 226 227 
3 141 227 228 
3 229 156 230 
3 228 227 231 
3 228 231 232 
3 230 156 160 
3 153 159 167 
3 233 162 161 
3 176 175 167 
3 168 167 234 
3 160 170 178 
3 173 176 164 
3 235 161 163 
3 183 163 171 
3 236 235 187 
3 56 55 194 
3 202 201 194 
3 3 237 4 
3 4 238 75 
3 239 87 86 
3 72 73 90 
3 72 90 89 
3 46 94 103 
3 12 45 17 
3 22 21 240 
3 18 108 241 
3 240 123 125 
3 241 118 117 
3 118 242 127 
3 243 131 221 
3 127 135 134 
3 135 244 138 
3 226 140 48 
3 136 137 223 
3 27 225 29 
3 224 149 148 
3 146 145 222 
3 245 151 153 
3 227 226 231 
3 226 145 155 
3 147 146 162 
3 149 232 150 
3 164 159 150 
3 232 165 164 
3 170 157 169 
3 160 157 170 
3 167 175 234 
3 165 246 235 
3 234 175 177 
3 235 183 187 
3 178 198 190 
3 198 37 199 
3 182 200 57 
3 35 36 194 
3 194 247 35 
3 196 210 39 
3 213 197 204 
3 202 38 58 
3 205 247 206 
3 248 203 212 
3 249 214 206 
3 250 208 214 
3 1 79 2 
3 4 75 5 
3 7 75 238 
3 71 74 42 
3 45 89 92 
3 41 82 93 
3 80 95 251 
3 92 91 46 
3 103 105 46 
3 107 24 105 
3 23 22 112 
3 243 113 129 
3 226 141 140 
3 245 52 223 
3 223 252 152 
3 245 223 151 
3 253 156 229 
3 144 230 154 
3 230 30 154 
3 160 54 31 
3 54 160 178 
3 165 235 180 
3 181 177 179 
3 254 234 33 
3 185 195 183 
3 200 182 188 
3 200 39 38 
3 37 247 205 
3 70 68 239 
3 239 8 41 
3 76 255 96 
3 43 72 45 
3 99 82 81 
3 82 88 93 
3 94 218 104 
3 123 256 47 
3 111 113 221 
3 49 243 129 
3 244 135 127 
3 243 49 141 
3 163 183 235 
3 186 195 196 
3 257 58 40 
3 3 6 258 
3 258 6 217 
3 0 7 238 
3 65 69 72 
3 79 255 2 
3 255 7 2 
3 71 84 83 
3 77 82 41 
3 73 86 94 
3 90 73 94 
3 259 85 260 
3 96 99 81 
3 44 45 12 
3 46 45 92 
3 42 97 85 
3 251 10 9 
3 99 251 9 
3 251 21 10 
3 20 46 24 
3 12 18 241 
3 16 13 241 
3 112 22 240 
3 261 262 16 
3 116 261 114 
3 112 110 23 
3 242 118 108 
3 112 125 124 
3 118 220 128 
3 220 50 128 
3 220 134 51 
3 51 50 220 
3 50 53 28 
3 243 141 131 
3 53 50 51 
3 222 226 48 
3 53 143 28 
3 142 225 143 
3 253 245 156 
3 152 252 159 
3 252 148 159 
3 245 157 156 
3 143 229 230 
3 226 233 231 
3 224 228 232 
3 149 224 232 
3 234 178 168 
3 178 263 32 
3 33 234 181 
3 182 236 187 
3 34 181 194 
3 186 183 195 
3 37 254 33 
3 194 181 56 
3 200 194 55 
3 39 186 196 
3 188 39 200 
3 247 37 35 
3 39 264 40 
3 200 38 202 
3 197 37 205 
3 204 197 205 
3 191 207 209 
3 39 211 264 
3 203 265 201 
3 247 265 206 
3 4 237 238 
3 217 8 239 
3 75 41 5 
3 239 73 70 
3 71 259 61 
3 67 61 259 
3 255 76 75 
3 71 72 74 
3 255 79 78 
3 239 41 87 
3 73 239 86 
3 259 71 83 
3 96 255 78 
3 84 71 42 
3 45 46 19 
3 14 97 12 
3 98 102 107 
3 251 266 21 
3 13 12 241 
3 24 46 105 
3 99 9 23 
3 23 109 101 
3 261 16 241 
3 112 240 125 
3 109 23 110 
3 261 241 117 
3 242 108 24 
3 267 242 24 
3 261 117 126 
3 261 126 114 
3 120 221 121 
3 112 124 129 
3 243 221 113 
3 221 244 121 
3 244 127 121 
3 50 126 119 
3 113 112 129 
3 223 134 136 
3 244 130 138 
3 245 53 52 
3 224 138 132 
3 252 224 148 
3 145 226 222 
3 143 230 144 
3 246 232 231 
3 232 164 150 
3 162 155 147 
3 246 233 161 
3 232 246 165 
3 167 164 176 
3 173 181 179 
3 263 268 32 
3 178 254 198 
3 198 254 37 
3 37 197 199 
3 247 194 201 
3 192 213 207 
3 191 192 207 
3 269 202 58 
3 216 270 211 
3 60 63 66 
3 68 217 239 
3 7 255 75 
3 69 73 72 
3 72 71 66 
3 77 41 75 
3 89 45 72 
3 259 83 85 
3 80 251 96 
3 88 82 218 
3 94 88 218 
3 91 94 46 
3 99 96 251 
3 218 82 98 
3 42 12 97 
3 99 98 82 
3 98 107 218 
3 100 99 23 
3 101 109 107 
3 24 107 122 
3 107 109 120 
3 241 108 118 
3 107 120 122 
3 261 116 262 
3 24 122 267 
3 109 111 221 
3 120 109 221 
3 124 47 129 
3 115 126 26 
3 126 50 26 
3 130 244 221 
3 220 127 134 
3 137 138 252 
3 223 137 252 
3 53 245 253 
3 224 141 228 
3 143 53 253 
3 224 252 138 
3 229 143 253 
3 245 153 157 
3 233 226 155 
3 146 271 272 
3 172 142 30 
3 160 158 157 
3 30 230 31 
3 155 162 233 
3 159 164 167 
3 153 167 157 
3 231 233 246 
3 230 160 31 
3 169 157 167 
3 161 235 246 
3 180 235 236 
3 180 236 182 
3 166 180 182 
3 166 182 56 
3 177 181 234 
3 178 234 254 
3 173 166 56 
3 263 178 190 
3 181 173 56 
3 183 171 184 
3 190 189 263 
3 192 197 213 
3 193 210 196 
3 194 200 202 
3 191 209 273 
3 202 269 212 
3 247 201 265 
3 146 272 162 
3 269 58 257 
3 274 60 59 
3 260 85 97 
3 262 116 115 
3 275 68 64 
3 276 0 238 
3 59 67 274 
3 256 277 47 
3 206 265 249 
3 278 115 25 
3 63 60 279 
3 225 142 172 
3 172 32 268 
3 273 209 208 
3 280 217 68 
3 21 266 240 
3 281 25 29 
3 225 281 29 
3 222 271 146 
3 79 266 95 
3 47 277 139 
3 171 282 184 
3 283 263 189 
3 189 191 273 
3 251 95 266 
3 270 264 211 
3 0 284 1 
3 278 25 281 
3 162 282 171 
3 193 184 285 
3 264 257 40 
3 286 64 63 
3 262 106 16 
3 193 285 210 
3 264 270 257 
3 258 237 3 
3 266 79 287 
3 15 260 97 
3 269 288 212 
3 265 203 248 
3 215 270 216 
3 288 248 212 
3 67 259 289 
3 276 284 0 
3 1 284 79 
3 279 60 274 
3 258 217 280 
3 189 273 290 
3 291 273 208 
3 250 291 208 
3 292 123 240 
3 123 277 256 
3 162 293 282 
3 290 294 189 
3 184 295 285 
3 296 270 215 
3 237 276 238 
3 272 293 162 
3 294 283 189 
3 297 15 106 
3 283 268 263 
3 214 298 250 
3 299 296 215 
3 298 214 249 
3 297 260 15 
3 68 300 280 
3 270 301 257 
3 302 275 64 
3 303 172 268 
3 79 284 304 
3 303 268 305 
3 269 257 301 
3 139 271 222 
3 306 298 249 
3 276 237 258 
3 300 68 275 
3 307 274 67 
3 268 283 294 
3 268 294 305 
3 306 248 288 
3 274 307 279 
3 280 300 258 
3 304 287 79 
3 308 225 172 
3 210 309 215 
3 215 309 299 
3 286 302 64 
3 266 310 240 
3 303 308 172 
3 265 306 249 
3 292 240 310 
3 295 184 282 
3 298 291 250 
3 289 259 260 
3 300 276 258 
3 311 302 286 
3 311 286 63 
3 123 292 277 
3 312 262 115 
3 265 248 306 
3 302 300 275 
3 311 63 279 
3 313 262 312 
3 139 277 314 
3 290 273 291 
3 307 67 289 
3 262 313 106 
3 278 312 115 
3 281 225 308 
3 305 294 290 
3 210 285 309 
3 288 269 301 
3 315 270 296 
3 315 301 270 
3 276 304 284 
3 316 307 289 
3 266 287 310 
3 277 292 314 
3 314 317 139 
3 318 281 308 
3 271 139 293 
3 271 293 272 
3 305 290 319 
3 295 282 285 
3 319 290 291 
3 298 306 320 
3 296 299 309 
3 321 291 298 
3 321 322 291 
3 307 323 279 
3 307 316 323 
3 139 317 293 
3 282 324 285 
3 285 324 309 
3 322 319 291 
3 325 304 276 
3 316 289 326 
3 260 297 313 
3 313 297 106 
3 310 327 292 
3 292 327 328 
3 312 278 318 
3 318 278 281 
3 308 303 305 
3 305 319 308 
3 326 289 260 
3 326 260 313 
3 292 328 314 
3 313 312 318 
3 321 298 320 
3 323 311 279 
3 293 329 282 
3 276 330 325 
3 276 300 330 
3 302 311 331 
3 325 332 310 
3 325 330 332 
3 300 302 330 
3 311 333 331 
3 311 323 333 
3 323 334 333 
3 323 326 334 
3 323 316 326 
3 304 325 287 
3 302 331 330 
3 287 325 310 
3 333 334 335 
3 333 335 336 
3 335 337 336 
3 335 334 337 
3 336 337 338 
3 337 334 338 
3 334 326 338 
3 336 338 333 
3 338 331 333 
3 330 331 339 
3 326 313 338 
3 327 310 332 
3 331 338 339 
3 328 327 340 
3 339 338 341 
3 328 340 314 
3 332 340 327 
3 330 339 341 
3 338 313 341 
3 314 340 342 
3 330 341 343 
3 332 330 343 
3 314 342 317 
3 341 313 318 
3 340 332 342 
3 332 343 344 
3 342 332 345 
3 345 332 344 
3 341 318 308 
3 341 308 319 
3 317 342 329 
3 293 317 329 
3 345 344 324 
3 344 343 324 
3 342 345 324 
3 320 341 319 
3 329 342 282 
3 282 342 324 
3 320 319 321 
3 341 320 343 
3 321 319 322 
3 288 343 306 
3 324 315 296 
3 309 324 296 
3 324 343 315 
3 343 288 301 
3 343 320 306 
3 343 301 315 
3 267 122 127 
3 242 267 127 
