ply
format ascii 1.0
comment VCGLIB generated
element vertex 228
property float x
property float y
property float z
property float nx
property float ny
property float nz
element face 416
property list uchar int vertex_indices
end_header
-5.735016 0.1449306 -6.343826 0.3848981 -5.671926 2.438535 
-4.295898 0.01273654 -7.324158 0.05093976 -2.465901 0.4072967 
-2.366089 0.1530357 -6.586746 -0.3950697 -1.330339 2.841287 
-14.65387 0.1280932 -4.518188 0.01038404 -0.004723072 -0.05759038 
-17.28934 0.0007424206 -6.578156 0.01505685 -1.413564 0.06881961 
-13.40335 0.1290925 -4.378098 -0.1561356 -2.461481 3.24999 
-10.43744 0.002004966 -5.594177 0.1265965 -3.50899 0.5374729 
-7.308167 0.6345608 -5.487625 1.251618 -2.893869 5.341652 
-10.44589 0.1181266 -4.883362 0.6622953 -2.754264 3.550029 
2.807617 23.91798 -4.070435 -3.307955 -2.580273 4.523538 
-1.20575 22.71042 -7.025864 -0.7451941 -3.207174 5.164242 
3.727402 21.37816 -6.133087 -2.891623 -3.604187 3.788148 
5.555573 18.32357 -7.556564 -3.93319 -4.553243 -0.1174407 
2.035538 21.47939 -6.579727 -1.801898 -3.625718 4.394833 
3.842636 19.85746 -8.637024 -2.686205 -4.87128 1.822697 
-2.387589 22.40249 -7.050888 1.267224 -1.965466 5.74973 
-6.132294 20.91737 -5.699738 1.76613 -1.828302 5.360369 
-2.310501 20.51323 -8.022964 2.596577 -3.994661 3.744914 
-1.636627 18.10898 -13.09734 0.4211989 -4.570907 3.879793 
-4.379578 17.54605 -12.95279 1.704334 -2.815218 4.220381 
-10.80415 21.9508 -4.704468 0.05492314 -1.440202 5.927241 
-9.303131 19.47525 -5.802979 0.4029573 -4.055136 3.763521 
-13.53319 23.02664 -4.771927 -1.049928 -3.027206 5.269867 
-15.85245 22.86281 -5.322556 -2.101427 -2.249161 4.629199 
-15.91142 17.54605 -10.78519 -2.077145 -3.913455 4.18932 
-1.357788 7.878014 -12.4129 0.3657033 4.625926 4.041109 
-4.055634 7.438206 -10.20639 1.295085 4.830523 3.350209 
-1.809387 5.895813 -10.60262 0.2216107 4.008504 3.163685 
2.981049 7.566784 -6.684174 -1.287481 2.107704 4.08582 
1.47757 7.585917 -7.932632 -3.691061 2.988655 3.255343 
4.297562 3.677912 -5.903748 -1.738298 3.358161 4.467906 
-15.90836 1.738349 -5.062546 -2.291503 1.339894 4.947694 
-17.28162 0.0204061 -5.985352 -1.079599 -2.129917 1.48863 
-10.66513 1.73661 -5.02681 0.2746572 1.321685 6.022678 
-2.347198 0.6321529 -6.423065 -0.6573639 -1.823542 5.83374 
-3.117126 2.018868 -5.876511 -0.7032017 -0.5361086 5.838 
0.2082825 4.427852 -6.680969 -1.140603 3.268601 4.89976 
-0.2554932 1.736985 -5.857193 -1.205747 1.360078 5.900406 
2.631531 0.1360125 -3.929749 -2.309327 -2.092585 2.867166 
0.7098083 0.02205999 -5.13945 -1.428095 -3.002538 2.25498 
11.76791 9.467539 -11.42271 -1.591978 1.950212 3.237172 
7.242294 13.01464 -12.82109 -2.993709 1.512892 4.610476 
2.725586 9.581009 -9.498276 -1.88923 4.651423 2.468308 
-4.188934 9.279839 -13.33479 2.040159 1.634447 4.357258 
-13.66032 9.828127 -12.02524 -0.3336626 3.074517 5.268138 
-15.91412 9.294649 -12.6163 -2.368825 2.827774 5.027852 
-17.50827 7.566783 -12.05194 -1.132741 1.953794 2.046731 
8.065338 17.16723 -10.28824 -1.607799 -3.22669 3.439044 
11.40242 11.65923 -10.91864 -3.098202 -2.064222 5.03602 
5.441772 17.84554 -10.36803 -1.875082 -4.273601 4.15826 
7.571945 14.59024 -12.37885 -3.683859 -2.802288 3.670201 
-13.66032 18.10907 -10.0482 -0.5508255 -4.718263 4.026683 
3.319199 24.99361 -3.442444 -2.286945 -0.1150937 2.10134 
-1.295776 24.9904 -6.322418 -0.9931919 2.984142 2.175834 
-0.2504578 23.79499 -5.788101 -2.956933 -1.710541 5.021563 
-7.598175 22.85918 -5.155823 1.463228 0.0541698 6.015143 
-16.47403 24.91269 -5.383789 -1.551102 2.32394 2.832722 
-17.37004 23.9107 -6.033203 -4.280495 -0.3863795 2.791925 
-13.6111 23.91534 -4.36911 -0.8677531 -0.2584504 5.553975 
-15.91283 15.45129 -12.56467 -2.163215 -3.01633 4.850669 
-17.44418 15.71087 -13.79216 -5.257401 -1.342908 2.217103 
-15.91283 11.30236 -13.27875 -2.477383 1.238904 5.617667 
-15.81371 13.36738 -13.42542 -2.341375 -0.6956363 5.636517 
-17.33835 13.62664 -14.48792 -4.917706 -0.5013125 3.673921 
-10.71062 23.47101 -4.559204 0.7246385 -0.1035504 6.138251 
-10.66391 17.54605 -10.70892 0.3704167 -4.587046 3.938888 
-10.64874 9.267489 -12.52542 -0.03316811 2.10112 5.250749 
-10.42896 13.14644 -12.80217 -1.01657 -0.03040719 6.065081 
-13.66031 11.84683 -12.69063 -0.6707787 1.517081 5.986314 
-13.65668 2.188556 -4.549438 -0.2436968 2.130218 5.158273 
-3.980011 14.79924 -12.95319 2.709989 0.09640812 5.575021 
-7.057755 15.37839 -11.96579 1.016712 -0.2861256 6.047878 
-7.443756 18.10907 -11.77087 1.141418 -3.169447 3.549433 
-1.844131 11.60003 -13.8681 2.757164 -0.8407836 5.452753 
-4.005341 12.9654 -12.9787 2.656966 0.5267861 5.661222 
-6.761993 10.73426 -11.35165 0.6601665 -0.2914756 5.426406 
-7.355972 7.867317 -11.314 -0.08055572 4.093871 4.367702 
-7.012497 9.182585 -11.69124 1.033366 -0.01977628 5.921541 
-7.119812 4.062355 -4.863571 0.08977896 2.680232 4.446002 
-4.258362 1.788132 -6.137939 1.086925 -1.052178 5.886735 
-7.257584 2.262242 -4.644882 0.6887934 -0.9688036 5.511845 
-0.9351196 21.06515 -8.387421 0.6522965 -4.776645 3.689562 
5.126633 15.45129 -14.44891 -2.431748 -3.58622 3.498881 
3.497742 17.54605 -11.81467 -2.009302 -4.820659 3.468274 
1.879883 15.72882 -15.0434 -0.6991395 -3.375699 4.820662 
-1.123657 15.9286 -14.8587 1.462713 -1.381834 5.1199 
4.390823 11.30236 -14.3522 -2.797979 4.614262 2.430077 
5.843597 13.36738 -15.53635 -2.400733 0.0896551 3.130751 
2.241501 11.56905 -15.80113 -0.09801058 1.992621 4.647765 
0.857193 9.5597 -13.60133 -2.176588 5.060842 2.966251 
-1.062164 9.826567 -15.08244 0.7497177 1.412614 3.941698 
12.11601 14.61234 -9.013123 -2.556258 -2.790306 4.972462 
3.188293 1.947064 -4.655869 -3.041526 3.660198 3.931574 
12.46649 11.84684 8.581238 -4.984782 3.629685 0.6748345 
14.11662 13.9231 8.580139 -5.241673 0.7480497 -0.01646915 
12.04933 11.30235 5.17366 -5.333338 2.512933 -1.389148 
12.60043 11.56095 16.55862 -2.734848 -0.5582746 2.406112 
12.92479 13.64464 16.63199 -0.1246577 -0.01945456 2.694362 
12.19527 13.66496 16.58307 -3.083656 -0.7687421 2.382454 
5.188339 0 -1.340576 -0.6491748 -2.757747 0.2990767 
4.635574 0.1262989 -1.390869 -3.628702 -2.457915 1.648649 
11.59232 15.45129 16.47696 -3.031095 -0.6598669 -0.3043655 
12.65004 15.45129 12.90926 -5.634933 -2.411273 -1.214719 
13.43494 13.36738 12.91122 -5.903488 -0.8113735 -0.8384689 
13.51572 11.30236 12.91139 -5.897955 0.5650363 0.2426386 
5.585815 0.1388546 9.76535 -3.432729 -2.648578 -0.3197142 
6.569656 0.001593798 14.40927 -0.5727417 -3.281329 0.09930461 
5.590195 0.1385455 13.22968 -3.21877 -1.69736 0.1473357 
14.80585 15.38486 0.8059692 -3.982106 -4.227831 -1.171836 
14.82234 15.63603 -1.6978 -4.078823 -2.997281 1.149648 
15.87219 13.92309 0.2821045 -4.505378 0.1511481 -0.5453942 
4.884262 23.9194 -1.365509 -5.164873 -2.00311 2.890785 
3.421204 24.04716 -3.404877 -4.628917 -1.855037 3.601168 
7.483429 20.85376 0.08061218 -4.533379 -3.876377 1.630348 
8.208313 17.86131 -2.289062 -2.284951 -4.044955 3.106366 
4.977737 20.42814 -5.354721 -4.719949 -3.30205 2.455619 
6.415588 17.07651 -5.726105 -3.145751 -3.874234 0.6294476 
10.28583 7.025479 -4.048416 -3.849269 4.856492 0.8066403 
9.543198 7.543374 -7.552673 -1.49034 5.186877 2.689096 
9.004623 5.458795 -2.294205 -4.39544 3.875925 -0.6903116 
6.0672 2.183615 8.362289 -5.497648 2.428903 -0.6840943 
11.23535 7.30291 5.223755 -5.052925 2.332746 -0.3101237 
7.005646 3.207114 5.473999 -4.724197 3.343575 1.705135 
12.63197 6.352602 15.79974 -2.071084 1.754916 1.357361 
11.59171 6.915069 13.82146 -3.859033 4.315796 2.302839 
7.501709 3.66987 15.72662 -3.775785 3.648649 2.393333 
6.578766 3.442295 12.92542 -4.641431 3.89546 0.6092628 
4.967285 3.03193 2.985077 -3.86716 0.9427214 0.8017547 
5.747711 2.937311 0.4680939 -5.249332 3.186532 -0.7565013 
5.279175 1.60026 1.52359 -5.860795 -0.8536967 0.624254 
6.433777 1.669747 5.071472 -5.896948 0.7622537 0.9189965 
6.414734 0.1137045 3.255066 -4.022285 -4.261032 0.785975 
6.329514 1.943373 15.52457 -4.993435 1.419187 2.512335 
13.84048 9.121643 16.32422 -0.6435652 -0.3697831 2.411693 
12.98309 9.27845 15.45926 -6.008578 0.01273942 1.06192 
12.88695 9.249886 12.88062 -5.489987 2.298527 1.442474 
10.60333 9.828132 8.581238 -4.838813 1.790951 0.7956219 
10.52765 7.830656 8.581238 -5.473017 2.511778 0.1566865 
11.35323 9.294649 5.223755 -5.732049 1.581657 -1.619956 
10.96205 7.219289 1.767975 -4.000922 4.715891 -0.1888715 
13.7744 9.222899 -1.424042 -4.489544 3.846203 0.6757779 
9.285095 6.407779 -1.5513 -4.132955 4.360033 -0.6629655 
12.62689 9.53808 -10.38123 -3.954076 2.368213 1.337138 
10.33081 20.02383 18.08086 -1.796893 -1.816127 0.6085429 
5.901062 22.2907 13.30417 -4.712558 -3.037556 0.6639885 
11.56352 17.82779 14.61107 -5.109778 -3.012743 0.3002462 
6.064087 23.0791 8.596832 -5.176545 -3.462087 -0.1352877 
7.617813 19.92653 5.498245 -4.745015 -3.650534 0.99707 
13.51654 15.87752 8.627182 -4.831735 -3.032257 0.2833662 
12.56136 16.68203 -0.3083496 -3.370097 -5.235338 -0.594135 
9.558472 16.19278 -5.593216 -0.3597795 -5.50361 1.349886 
13.2894 15.71648 -8.015472 -2.776676 -2.73618 1.710248 
10.19052 16.38964 -8.372543 -2.605057 -5.571021 -0.1381809 
4.668991 24.9903 -1.3246 -2.700438 -0.4368464 1.475234 
13.69044 15.45129 -4.098923 -4.979203 -2.992511 1.391091 
12.30833 16.84999 -2.581528 -2.586232 -5.40088 1.366565 
13.3817 15.46871 -6.087234 -4.558649 -3.664901 0.3459073 
12.81871 10.99499 -10.27928 -4.540987 -0.2847396 2.598808 
13.82414 13.64344 -6.845993 -5.889737 0.29823 0.6298373 
5.258362 2.188499 -1.783859 -5.027945 3.252395 1.451096 
11.84795 15.79096 5.494125 -3.730303 -4.606311 0.4373948 
14.86568 11.55159 -2.10408 -5.418734 1.584579 1.044308 
13.1492 13.36127 5.175842 -5.606346 2.310848 -0.6984265 
14.07855 9.569855 0.7271729 -4.661148 2.03412 -1.307716 
5.59256 2.955027 4.26564 -3.877274 1.192747 2.609222 
6.314728 -0.003236681 2.064407 -2.539414 -1.666749 0.678776 
5.641098 1.61015 3.828018 -5.070477 -1.797251 2.111189 
5.655746 23.09255 13.49641 -5.528267 -1.080129 1.466238 
5.471802 1.735746 12.47568 -5.548626 1.263011 0.3479095 
7.096313 0.001990721 4.666718 -0.4193205 -2.767563 -0.01199558 
6.97551 23.4764 16.38203 -2.657884 0.8313382 1.329586 
8.356766 22.47592 18.1273 -2.119833 -0.9063916 1.168028 
7.780838 23.54563 17.28842 -1.765985 0.8887036 1.501202 
6.891724 0.03029463 16.65152 -1.530667 -0.199557 1.071992 
7.215561 1.968615 16.84525 -2.356908 0.9117393 4.132786 
5.829376 0.6155908 14.51289 -5.610857 -0.7021508 1.826801 
8.71611 3.669908 16.92104 -1.533532 2.050884 1.723007 
11.72797 17.80838 16.65599 -3.159689 -1.053376 0.2440908 
7.696762 23.55886 16.3593 -0.2167088 3.11403 0.3719382 
11.43375 17.54605 12.17386 -4.701181 -4.099573 -0.1797258 
5.537704 24.04173 8.586975 -5.885133 -1.631689 -0.3227282 
5.606583 24.16687 13.41125 -2.553171 2.520474 0.9799171 
5.466019 24.9903 8.495895 -1.819509 2.467967 0.2247029 
6.736282 24.92246 5.202362 0.2297641 3.237311 0.02996123 
13.37636 14.66725 5.479889 -5.26767 -2.212892 -0.2475508 
7.645691 19.72658 4.059875 -4.754543 -3.635733 -0.4368886 
6.51828 22.1938 2.670349 -5.654374 -2.53109 -0.2415631 
6.207108 24.91064 2.428925 -2.70876 3.581701 0.2248245 
6.18782 23.6819 2.542282 -6.17029 -0.6793795 0.5203151 
6.77562 24.8493 2.448364 0.2825584 2.598745 -0.06326911 
6.739273 3.927059 -2.720245 -3.622918 4.956314 1.124195 
12.37917 9.828126 -8.079956 -5.68935 2.53006 -0.04015537 
13.74187 13.36737 -4.720245 -6.024907 0.2747812 1.369902 
13.62793 11.30235 -4.609406 -5.79639 1.196861 1.998339 
5.656723 23.78053 0.4998322 -5.594201 -2.025901 1.672969 
8.891434 21.48178 18.12883 -2.326675 -1.874157 1.112768 
9.869263 16.68077 -9.219666 -2.986874 -4.369154 1.510394 
7.823349 20.56742 1.342468 -4.685625 -4.065104 -0.668931 
6.771423 7.566782 -7.202805 0.3501383 3.542837 4.512142 
13.42442 8.985301 16.17178 -3.501315 -0.5537263 4.887882 
5.005035 3.59262 -4.987579 -3.378523 4.719277 2.379863 
6.8461 5.607002 -6.886093 -0.7315056 2.761405 4.567767 
8.531143 5.579448 -6.42894 -2.287703 3.465334 2.559675 
2.786774 0.001992851 -4.706085 -0.2183291 -2.501068 0.3420008 
-1.336578 0.1390281 -6.177948 -1.28679 -1.53656 2.460915 
-2.898575 3.803928 -6.146835 0.8892701 2.879367 4.943179 
0.886322 8.554455 -11.16168 -3.781543 4.567426 1.908545 
2.23999 13.64387 -15.80113 0.5222407 -0.8439336 5.774984 
-0.2146759 19.85078 -10.58592 -0.5312231 -5.115062 3.306791 
-3.347626 24.39399 -6.57309 0.6906899 2.368437 5.02072 
-1.278656 23.88802 -6.506714 -2.401352 -1.512219 5.509787 
-2.366272 24.8606 -7.376968 -0.4322428 2.14835 0.4875153 
1.902985 25.00379 -4.936569 -0.02346577 2.847932 0.02664312 
-4.617813 19.25569 -7.405701 1.773323 -4.28847 2.98288 
-7.444168 24.13954 -5.407715 0.8403282 0.6274777 3.298242 
-12.03809 24.91801 -4.458679 0.1368728 0.4771563 2.966064 
-13.66031 3.927059 -5.939514 -0.5421594 4.098625 4.363567 
-10.59962 3.469757 -5.818054 -0.8113335 3.784768 4.807502 
-10.66537 7.302907 -10.82745 0.5655697 4.498572 4.058243 
-10.84261 19.7975 -5.537598 -1.077438 -3.582496 3.996583 
-17.50839 1.954188 -6.248718 -4.213551 0.8088658 2.010602 
-17.50827 3.684678 -7.595551 -1.347187 2.101603 2.063337 
-17.44412 9.543645 -13.66589 -1.720469 1.100836 2.349808 
-17.44217 17.80516 -12.02115 -2.099041 -1.702968 1.857105 
-17.50827 21.4685 -7.910889 -4.271628 -1.841335 1.742902 
-17.34103 24.99199 -6.540497 -1.994972 0.9569798 0.7354887 
-17.49771 15.72972 -14.47668 -2.406398 -0.174581 0.2483135 
-17.50171 11.57395 -15.10834 -2.353115 0.09352474 0.310158 
3 0 1 2 
3 3 4 5 
3 5 4 6 
3 7 8 0 
3 9 10 11 
3 12 13 14 
3 15 16 17 
3 18 17 19 
3 16 20 21 
3 22 23 24 
3 25 26 27 
3 28 29 30 
3 5 31 32 
3 7 33 8 
3 34 35 2 
3 30 36 37 
3 38 37 39 
3 40 41 42 
3 28 42 29 
3 25 43 26 
3 44 45 46 
3 12 14 47 
3 48 49 50 
3 22 24 51 
3 52 53 9 
3 9 54 10 
3 16 55 20 
3 56 57 58 
3 59 24 60 
3 61 62 63 
3 20 64 22 
3 59 65 51 
3 66 67 68 
3 68 67 62 
3 8 33 5 
3 5 33 69 
3 5 6 8 
3 70 19 71 
3 71 19 72 
3 73 74 75 
3 76 43 77 
3 78 26 76 
3 7 79 80 
3 18 81 17 
3 82 83 84 
3 85 84 18 
3 86 87 88 
3 25 89 90 
3 39 37 34 
3 34 37 35 
3 48 91 47 
3 38 92 37 
3 93 94 95 
3 96 97 98 
3 38 99 100 
3 101 102 98 
3 96 103 104 
3 105 106 107 
3 108 109 110 
3 111 112 113 
3 114 115 116 
3 117 118 119 
3 120 121 122 
3 123 124 125 
3 125 124 126 
3 100 92 38 
3 127 128 129 
3 105 130 131 
3 125 126 132 
3 96 133 97 
3 96 104 134 
3 123 135 124 
3 93 95 136 
3 137 138 121 
3 139 140 141 
3 117 142 118 
3 143 144 145 
3 101 145 102 
3 146 147 148 
3 108 149 109 
3 114 116 150 
3 151 152 91 
3 153 112 111 
3 154 155 156 
3 151 114 150 
3 157 158 151 
3 141 140 117 
3 100 129 159 
3 108 160 149 
3 161 162 110 
3 139 138 163 
3 127 164 139 
3 165 166 129 
3 144 167 146 
3 104 103 93 
3 93 103 94 
3 124 135 137 
3 137 135 136 
3 105 168 120 
3 131 169 105 
3 170 171 172 
3 173 174 175 
3 107 106 173 
3 175 107 173 
3 125 132 176 
3 132 174 176 
3 175 174 132 
3 123 125 176 
3 177 145 101 
3 143 145 177 
3 172 178 170 
3 105 169 106 
3 120 168 126 
3 126 137 120 
3 137 126 124 
3 93 135 104 
3 136 135 93 
3 94 102 148 
3 94 103 102 
3 148 179 146 
3 102 179 148 
3 179 144 146 
3 180 181 182 
3 180 167 181 
3 146 167 180 
3 183 182 181 
3 131 165 169 
3 129 164 127 
3 164 166 122 
3 129 166 164 
3 131 166 165 
3 166 130 122 
3 131 130 166 
3 139 164 121 
3 164 122 121 
3 163 95 161 
3 163 138 95 
3 121 138 139 
3 110 184 108 
3 110 162 184 
3 95 162 161 
3 185 160 147 
3 149 160 185 
3 184 160 108 
3 185 147 186 
3 187 188 182 
3 183 189 187 
3 159 128 190 
3 159 129 128 
3 117 119 141 
3 128 119 190 
3 119 128 141 
3 191 192 157 
3 192 191 193 
3 191 140 193 
3 117 140 191 
3 156 158 154 
3 151 158 156 
3 192 158 157 
3 158 192 154 
3 156 114 151 
3 114 155 113 
3 156 155 114 
3 113 194 111 
3 111 187 153 
3 111 194 187 
3 189 153 187 
3 194 188 187 
3 186 188 194 
3 146 188 186 
3 188 180 182 
3 146 180 188 
3 195 167 144 
3 167 171 181 
3 195 171 167 
3 171 170 181 
3 196 152 12 
3 91 152 196 
3 150 152 151 
3 152 116 12 
3 150 116 152 
3 109 155 154 
3 155 149 113 
3 109 149 155 
3 149 197 113 
3 148 160 184 
3 148 147 160 
3 102 145 179 
3 145 144 179 
3 118 40 198 
3 118 142 40 
3 191 142 117 
3 142 157 40 
3 191 157 142 
3 163 140 139 
3 140 161 193 
3 163 161 140 
3 136 138 137 
3 136 95 138 
3 134 135 123 
3 134 104 135 
3 199 134 123 
3 96 134 199 
3 199 133 96 
3 199 123 133 
3 174 173 176 
3 175 168 105 
3 132 168 175 
3 132 126 168 
3 120 130 105 
3 120 122 130 
3 165 129 100 
3 159 92 100 
3 92 190 200 
3 159 190 92 
3 137 121 120 
3 128 127 141 
3 139 141 127 
3 190 201 200 
3 201 202 198 
3 190 202 201 
3 119 202 190 
3 202 118 198 
3 119 118 202 
3 116 115 12 
3 113 115 114 
3 113 112 115 
3 113 197 194 
3 185 197 149 
3 197 186 194 
3 185 186 197 
3 147 146 186 
3 143 195 144 
3 107 175 105 
3 100 99 165 
3 161 192 193 
3 192 110 154 
3 161 110 192 
3 110 109 154 
3 170 178 181 
3 178 183 181 
3 98 103 96 
3 98 102 103 
3 203 99 38 
3 157 48 40 
3 48 157 91 
3 151 91 157 
3 98 97 101 
3 183 187 182 
3 162 94 184 
3 95 94 162 
3 94 148 184 
3 30 92 200 
3 37 92 30 
3 28 201 198 
3 30 201 28 
3 201 30 200 
3 40 28 198 
3 42 28 40 
3 47 196 12 
3 47 91 196 
3 9 115 112 
3 11 115 9 
3 11 12 115 
3 52 112 153 
3 52 9 112 
3 34 204 39 
3 2 204 34 
3 35 37 205 
3 27 36 206 
3 205 36 27 
3 90 88 73 
3 88 89 86 
3 90 89 88 
3 27 89 25 
3 89 206 86 
3 27 206 89 
3 207 84 85 
3 84 207 82 
3 88 207 73 
3 207 87 82 
3 88 87 207 
3 18 84 208 
3 84 83 208 
3 17 10 15 
3 17 81 10 
3 208 81 18 
3 81 13 10 
3 208 13 81 
3 15 53 209 
3 15 210 53 
3 10 210 15 
3 210 54 53 
3 10 54 210 
3 53 211 209 
3 212 211 53 
3 0 2 7 
3 80 205 78 
3 80 79 205 
3 2 79 7 
3 205 26 78 
3 75 43 73 
3 77 43 75 
3 26 43 76 
3 71 74 70 
3 75 74 71 
3 72 213 21 
3 72 19 213 
3 21 213 16 
3 55 214 215 
3 214 55 209 
3 55 15 209 
3 16 15 55 
3 8 6 0 
3 216 33 217 
3 69 33 216 
3 44 216 218 
3 216 217 218 
3 44 66 68 
3 218 66 44 
3 62 71 59 
3 62 67 71 
3 51 219 22 
3 51 65 219 
3 71 65 59 
3 22 219 20 
3 58 64 215 
3 22 64 58 
3 32 4 3 
3 220 31 221 
3 32 31 220 
3 63 222 61 
3 222 45 61 
3 46 45 222 
3 60 63 59 
3 63 62 59 
3 223 23 224 
3 23 223 24 
3 60 24 223 
3 224 23 57 
3 58 57 23 
3 225 57 56 
3 22 58 23 
3 56 58 215 
3 64 55 215 
3 20 55 64 
3 9 53 54 
3 223 226 60 
3 59 51 24 
3 72 65 71 
3 65 21 219 
3 72 21 65 
3 85 19 70 
3 18 19 85 
3 50 83 82 
3 83 49 208 
3 50 49 83 
3 47 49 48 
3 49 14 208 
3 47 14 49 
3 227 222 63 
3 45 68 61 
3 44 68 45 
3 76 66 218 
3 77 66 76 
3 77 75 66 
3 90 43 25 
3 90 73 43 
3 206 42 86 
3 29 42 206 
3 42 41 86 
3 37 36 205 
3 79 35 205 
3 2 35 79 
3 80 33 7 
3 33 78 217 
3 80 78 33 
3 69 31 5 
3 31 216 221 
3 69 216 31 
3 221 32 220 
3 36 29 206 
3 30 29 36 
3 27 26 205 
3 217 78 218 
3 78 76 218 
3 221 216 46 
3 44 46 216 
3 225 224 57 
3 225 223 224 
3 219 21 20 
3 213 17 16 
3 19 17 213 
3 14 13 208 
3 11 13 12 
3 11 10 13 
3 32 3 5 
3 0 6 1 
3 75 67 66 
3 75 71 67 
3 39 203 38 
3 39 204 203 
3 212 53 52 
3 41 87 86 
3 87 41 82 
3 48 41 40 
3 41 50 82 
3 48 50 41 
3 68 62 61 
3 215 225 56 
3 226 63 60 
3 226 227 63 
3 211 214 209 
3 207 74 73 
3 74 85 70 
3 207 85 74 
