ply
format ascii 1.0
comment VCGLIB generated
element vertex 242
property float x
property float y
property float z
property float nx
property float ny
property float nz
element face 430
property list uchar int vertex_indices
end_header
1.652164 2.703858 4.289749 -0.9911234 -6.067701 0.7613884 
0.9638462 2.703858 4.289749 1.312067 -5.868719 1.071827 
1.211424 2.652995 3.75 0.7863529 -6.179606 -0.05484388 
1.63961 2.652995 3.75 -1.482185 -5.980616 0.03781672 
0.3921318 0 4.289749 2.184884 5.409828 0.5834214 
0.4335728 0 3.75 1.589464 5.926042 -0.5639518 
0.2322044 0.2463598 4.045576 5.429079 2.627738 -0.2603954 
0.1278076 0.08737217 3.75 3.383489 2.727884 -1.005337 
2.583206 1.668944 3.75 -6.194902 -0.8083602 0.06258871 
2.638393 1.704599 4.289749 -6.216794 -0.1672926 0.8276048 
2.423286 2.236793 3.574516 -4.526887 -3.544243 -0.5511316 
2.638393 2.431653 4.289749 -3.680737 -2.826177 1.170677 
0.07262039 1.740896 4.289749 6.180234 -0.4738442 0.8573749 
0.1278076 1.704481 3.75 6.240635 -0.3293945 -0.2350159 
0.2322044 2.281183 4.045576 4.548104 -3.481643 -0.0125449 
0.1278076 2.38079 3.75 3.545607 -2.782422 -1.28946 
2.583206 1.668944 1 -6.248225 -0.2364743 0.05251023 
2.642963 1.707551 1.701342 -6.189609 -0.4925875 0.7935002 
2.583206 2.38079 1 -3.501246 -2.800076 0.7302418 
2.519289 2.320848 1.786575 -4.258509 -3.747427 0.713347 
0.3282928 0 1.701342 2.224861 5.503213 0.2169279 
0.4335728 0 1 2.243606 5.485242 0.2313801 
0.2206097 0.1889065 1 5.103703 2.959681 0.6938002 
0.1004467 0.1889065 1.701342 5.01001 2.876169 0.831785 
0.1278076 1.704481 1 6.186526 -0.8565856 -0.150216 
0.2803688 2.236793 1.174488 4.74529 -3.396018 0.1878438 
0.06805038 1.743912 1.701342 6.177522 -0.5025416 0.9644794 
0.06805038 2.435865 1.701342 3.563082 -2.712769 1.246891 
1.467598 2.708071 1.701342 -0.9415784 -6.113462 0.5901827 
0.9624329 2.708071 1.701342 1.190772 -6.002961 0.7400822 
0.9809036 2.652995 1 1.342561 -6.011657 -0.372296 
1.63961 2.652995 1 -1.210976 -6.092588 -0.1944992 
2.651485 1.713056 3.082218 -6.080652 -0.2490267 -1.468631 
2.651485 2.443718 3.082218 -3.471269 -2.804203 -1.627594 
0.3823013 0 3.082218 2.25493 5.469672 0.1473185 
0.1603737 0.2463598 2.991718 5.35206 2.800154 -0.8842838 
0.05953026 1.749533 3.082218 6.198138 -0.257917 -0.9146476 
0.05953026 2.443718 3.082218 3.920197 -3.014279 -0.5936888 
0.9598007 2.715923 3.082218 1.017539 -6.059557 -0.7606291 
1.65514 2.715923 3.082218 -1.014849 -6.033411 -0.9330884 
2.711014 1.751517 0 -3.116244 0 -0.3982799 
2.653189 1.714157 0.4524384 -6.163845 -0.3973259 -1.025358 
2.711014 2.498583 0 -1.675438 -1.318663 -0.7329911 
2.484364 2.293083 0.6966114 -4.523926 -3.468198 -0.2780159 
0.2192917 0.2463598 0.6966114 5.498222 2.59459 -0.8421989 
0.3810196 0 0.4524384 2.006667 5.535151 -0.6876058 
0 0.08737217 0 1.839298 1.322596 -0.5418124 
0.3375969 0 0 0.4676061 3.084179 -0.0391705 
0.05782509 1.750658 0.4524384 6.19646 -0.1548104 -0.9772508 
0 1.788813 0 3.116244 0 -0.3982799 
0 2.498583 0 1.849913 -1.408158 -0.4023045 
0.05782509 2.445289 0.4524384 3.880189 -2.799885 -1.211836 
1.655529 2.717494 0.4524384 -1.078647 -6.013846 -0.9184309 
0.9592743 2.717494 0.4524384 0.9012244 -6.104567 -0.7546742 
0.9414005 2.770788 0 0.4466505 -3.018493 -0.384197 
1.668682 2.770788 0 -0.3936066 -3.038549 -0.3693618 
1.668682 2.770788 5 -0.4072168 -3.047745 0.3087561 
0.9414005 2.770788 5 0.4353357 -3.03813 0.300052 
0 2.498583 5 1.822522 -1.385298 0.5359875 
0 1.788813 5 3.125299 0 0.3195497 
0.3375969 0 5 0.4571585 3.085731 0.03510183 
0 0.08737217 5 1.899098 1.387129 0.3706826 
2.711014 1.751517 5 -3.125299 0 0.3195497 
2.711014 2.498583 5 -1.845186 -1.437961 0.324168 
0.2771912 0 2.5 1.377484 5.922359 -0.3349847 
-0.06040573 0.08737217 2.5 3.248286 2.633427 -0.508109 
-0.06078339 1.788813 2.5 6.139149 -0.4752578 -0.1351527 
0.004179001 2.457589 2.483595 3.976658 -2.996775 -0.02204782 
0.9414005 2.770788 2.5 1.083362 -6.041589 -0.08479388 
1.668682 2.800622 2.5 -0.8854179 -5.951245 0.1067294 
2.711014 2.498583 2.5 -3.553375 -3.12478 0.4682098 
2.823931 1.751517 2.5 -5.981961 -0.3421375 -0.02647001 
0 0.8463857 5 3.125299 0 0.3195496 
0.07262039 0.8237135 4.289749 6.208195 0.4367338 0.6836362 
0.09386063 0.8064839 3.75 6.239109 0.4127483 -0.3185959 
-0.000875473 0.8278005 3.082218 6.080767 0.7106452 -0.982644 
-0.1092911 0.8463857 2.5 6.07569 0.257827 -0.2232241 
0.007644653 0.8251405 1.701342 6.173865 0.3058201 0.9188275 
0.1278076 0.8064839 1 6.216189 0.5627421 0.2117499 
0.05782509 0.8283326 0.4524384 6.176122 0.3694038 -0.9811052 
0 0.8463858 0 3.116244 0 -0.3982799 
2.711014 0.952473 0 -3.116244 0 -0.3982798 
2.653189 0.932157 0.4524384 -6.232488 0 -0.7965595 
2.583206 0.9075699 1 -6.24655 0.1854804 -0.3300503 
2.642963 0.9285648 1.701342 -6.1376 0.8118836 0.8722261 
2.807762 0.952473 2.5 -6.040037 0.3892996 -0.006716378 
2.651485 0.9315583 3.082218 -6.114938 0.2331173 -1.340599 
2.583206 0.9075699 3.75 -6.225046 0.5201814 0.2357421 
2.638393 0.926959 4.289749 -6.248998 0.0375196 0.6519812 
2.711014 0.9524729 5 -3.125299 0 0.3195496 
2.653189 0.08737217 0.4524384 -3.689173 3.08832 -0.4579232 
2.711014 0.08737217 0 -1.811022 1.42299 -0.2314624 
2.583206 0.08737217 1 -3.728532 3.064898 -0.5333907 
2.475439 0.2463598 1.786575 -5.063699 3.196737 0.2750567 
2.711014 0.1327015 2.5 -3.670167 2.997569 0.6527649 
2.651485 0.08737217 3.082218 -3.152656 2.869193 -1.138052 
2.423286 0.2463598 3.574516 -4.964803 3.291266 -0.3496735 
2.626595 0.2267672 4.289749 -4.483393 2.81725 0.8112335 
2.711014 0.08737217 5 -1.624705 1.445906 0.4652398 
2.219397 0 5 -0.5081913 3.063003 0.2379892 
2.173115 0 4.289749 -1.560846 5.945611 0.04969668 
1.20993 -0.02952089 4.289749 0.09061117 6.269073 -0.2983898 
1.315563 -0.02952089 5 -0.008620378 3.139854 0.005741443 
2.137941 0 3.75 -2.005397 5.712852 0.2566076 
1.116585 -0.09093468 3.75 0.1750526 6.18717 -0.1405386 
2.181458 0 3.082218 -1.065144 6.085423 -0.4087302 
1.317316 -0.02952089 3.082218 -0.08361982 6.275294 0.1985181 
2.219395 0 2.5 -1.210946 6.07732 0.2168677 
1.475889 -0.02952089 2.5 -0.02051056 6.278134 -0.1614488 
2.176027 0 1.701342 -1.965713 5.738398 -0.1828944 
1.406513 -0.07963753 1.701342 -0.1110369 6.222611 0.09478653 
2.137941 0 1 -0.6701628 6.228854 -0.01514168 
1.153362 -0.02952089 1 0.01308548 6.277206 0.1742787 
2.182543 0 0.4524384 -0.6698412 6.228567 -0.05752288 
1.18446 -0.02952089 0.4524384 0.0280353 6.279808 -0.0008403631 
1.315563 -0.02952089 0 -0.01736647 3.140037 -0.001763095 
2.219397 0 0 -0.3438843 3.112683 -0.03447206 
0.0735817 1.703191 2.403009 1.306703 -0.8717515 -0.6086467 
0.5791416 2.460995 2.403009 1.306705 -0.8717526 -0.7741098 
0.5791416 2.460995 2.571508 1.30669 -0.8717424 0.7741094 
0.0735817 1.703191 2.571508 1.306692 -0.8717438 0.6086482 
0.3585091 2.414347 2.571507 -1.306721 0.8717627 2.367483 
0.06797981 1.978861 2.571507 -1.306723 0.8717638 2.532946 
0.3585091 2.414347 2.403008 -1.306674 0.8717309 -2.367483 
0.06797981 1.978861 2.403008 -1.306672 0.8717298 -2.532946 
2.624197 1.703191 2.403009 -1.306703 -0.8717515 -0.6086467 
2.624197 1.703191 2.571508 -1.306692 -0.8717438 0.6086482 
2.118637 2.460995 2.571508 -1.30669 -0.8717424 0.7741094 
2.118637 2.460995 2.403009 -1.306705 -0.8717526 -0.7741098 
2.629799 1.978861 2.571507 1.306723 0.8717638 2.532946 
2.33927 2.414347 2.571507 1.306721 0.8717627 2.367483 
2.629799 1.978861 2.403008 1.306672 0.8717298 -2.532946 
2.33927 2.414347 2.403008 1.306674 0.8717309 -2.367483 
1.662584 2.623034 2.694773 -0.3374169 -2.056835 5.477785 
0.985136 2.633888 2.694773 0.2791385 -2.050027 5.492254 
0.9862194 2.59997 2.660437 0.884933 -5.410532 2.362344 
1.66398 2.602236 2.673735 -0.9390415 -5.438967 2.280936 
2.740204 2.382956 2.361803 2.480925 -2.741405 -0.8112354 
2.598372 2.388109 2.305225 -0.05379821 -2.992973 -2.830912 
2.740204 2.449112 2.305225 2.680016 -0.6910421 -2.899816 
0.09211349 2.642427 2.305225 0.03236342 3.125602 -2.97677 
-0.07784462 2.588747 2.305225 -2.660382 0.9955318 -2.917923 
-0.07784462 2.647583 2.361803 -2.538874 2.872846 -0.9835252 
2.253328 2.566294 2.305225 0.5250286 1.72784 -5.622881 
2.181295 2.636335 2.305225 1.225102 2.857316 -3.149748 
2.253328 2.617321 2.361803 1.050975 5.69646 -1.713789 
2.714725 2.405769 2.694775 1.592721 -1.79688 1.885735 
2.253328 2.413218 2.694775 -0.5569174 -3.062432 2.881702 
2.253328 2.413218 2.305225 -0.5641847 -3.041087 -2.886386 
2.740204 2.647585 2.638197 2.490541 2.602117 0.9108349 
2.598372 2.642427 2.694775 -0.04483956 3.101636 2.833113 
2.740204 2.581427 2.694775 2.70469 0.4494494 2.358487 
2.253328 2.617321 2.694775 0.3829112 3.062789 3.506576 
0.4244747 2.626965 2.305225 -0.4427026 3.056166 -3.509779 
-0.08753204 2.647583 2.694773 -1.507286 1.540452 1.485934 
0.4244728 2.626965 2.694773 -0.4418669 3.056906 3.509194 
-0.08753204 2.598633 2.694773 -1.909364 -1.504495 1.760586 
0.4244747 2.403574 2.305225 0.580508 -3.053362 -2.846499 
-0.08363533 2.381023 2.305225 -1.492699 -1.565537 -1.528623 
2.740204 2.64085 2.315067 1.549461 1.638151 -1.551411 
1.673264 2.819569 2.305225 0.5459622 3.03861 -2.731511 
1.659117 2.813532 2.694773 0.512489 3.062206 2.868865 
1.677223 2.602291 2.305225 -0.4882754 -3.061976 -3.473589 
0.2690334 2.39842 2.694773 0.2268497 -3.121874 3.142289 
-0.08599281 2.390085 2.694773 -1.555034 -1.655097 1.63331 
0.4244747 2.403574 2.638197 1.237544 -5.27081 1.812339 
0.001337051 2.580145 2.694773 -0.6079693 -0.002860427 5.960544 
0.4244728 2.459421 2.694773 0.7378238 -2.13634 5.322737 
-0.0954628 2.556349 2.694773 -2.009306 1.408973 1.83306 
0.9849529 2.819569 2.305225 -0.5060089 3.054445 -2.786741 
0.9902954 2.599987 2.305225 0.5189179 -3.055216 -3.468443 
0.9805756 2.815802 2.694773 -0.511224 3.058706 2.834507 
2.60523 1.964372 2.575102 -5.546225 -0.4025476 1.992781 
2.613886 0.6276293 2.625887 -3.140536 0.04576077 3.18778 
2.655359 1.964374 2.625887 -2.000946 -0.3185439 5.521691 
2.586721 -0.03916986 2.411356 -2.719045 -2.489483 -0.7410091 
2.591349 0.0881428 2.360573 -3.008128 -0.02821465 -3.074588 
2.646105 -0.03916986 2.360573 -0.691044 -2.680038 -2.899829 
2.81963 2.382943 2.360573 3.130697 0.005065285 -3.102992 
2.771444 2.535502 2.360573 0.8983492 2.660079 -2.771626 
2.824257 2.535502 2.411356 2.900645 2.554658 -1.011877 
2.751291 0.6276293 2.360573 2.135633 -0.1799188 -5.411302 
2.80575 0.846715 2.360573 3.134547 -0.09416868 -3.043258 
2.797094 0.6276293 2.411356 5.617568 -0.1647419 -1.982566 
2.607201 -0.01629598 2.625887 -1.814032 -1.622165 1.984957 
2.613886 0.6276293 2.360573 -3.127355 0.03643988 -3.18868 
2.824259 -0.03916986 2.575102 2.627314 -2.524235 0.9232948 
2.81963 0.0881428 2.625887 3.119198 -0.03940336 3.076769 
2.764874 -0.03916986 2.625887 0.4493863 -2.704668 2.358393 
2.797094 0.6276293 2.625887 3.139853 0.03105341 3.212797 
2.80575 1.964372 2.360573 3.140782 -0.05042613 -3.173539 
2.824257 2.544198 2.625887 1.529505 1.520025 1.476723 
2.80575 1.964374 2.625887 3.14079 -0.05162096 3.173384 
2.780319 2.544198 2.625887 -1.491649 1.914877 1.752436 
2.60523 1.964372 2.360573 -3.140624 -0.06436111 -3.169107 
2.584988 2.5407 2.360573 -1.482893 1.500272 -1.444185 
2.818214 -0.03916986 2.369406 1.638342 -1.586778 -1.581852 
2.600603 2.103899 2.625887 -3.122252 -0.2164218 3.129648 
2.593122 2.551856 2.625887 -1.220986 1.535464 1.332557 
2.763723 2.464426 2.625887 -0.03646529 0.7244728 5.918472 
2.742363 2.52247 2.625887 1.688818 2.19772 2.290473 
0.07731628 0.6918573 2.411356 5.297301 0.3860922 -2.267457 
0.0819664 0.439908 2.360573 3.136885 0.117535 -3.158447 
-0.006097794 0.8190022 2.360573 1.490818 -0.006296501 -5.903211 
-0.1428833 2.537848 2.411356 -2.761344 2.571659 -0.959973 
-0.08318329 2.537845 2.360573 -0.7883919 2.77764 -2.905819 
-0.1382313 2.410532 2.360573 -3.119916 0.07762399 -3.185724 
0.07731628 2.028599 2.575102 6.020031 -0.07157454 1.251114 
0.04937553 2.065008 2.625887 2.320147 -0.4273623 5.177645 
0.07731628 1.809517 2.625887 3.140685 0.02481154 3.139699 
0.09127045 0.1157316 2.625887 3.124866 -0.04776804 3.138112 
0.03621864 -0.02379186 2.625887 0.8081841 -2.755625 2.896834 
0.09592247 -0.02379376 2.575102 2.749188 -2.544136 0.979342 
-0.1382313 0.1157316 2.360573 -3.12483 -0.05193814 -3.159722 
-0.08318329 -0.02379186 2.360573 -0.8082079 -2.755598 -2.89672 
-0.1428833 -0.02379186 2.411356 -2.749454 -2.5513 -0.9833565 
-0.08318329 2.537845 2.625887 -0.7884365 2.777629 2.905777 
-0.1428833 2.537845 2.575102 -2.761115 2.555664 0.9548414 
-0.1382313 2.410536 2.625887 -3.120639 0.08711986 3.154299 
-0.124279 0.6918573 2.625887 -3.14108 0.0409316 3.166007 
-0.124279 0.6918573 2.360573 -3.141132 0.03802942 -3.165805 
-0.1428833 -0.02379186 2.625887 -1.570266 -1.529975 1.544806 
-0.01712036 2.524532 2.625887 -0.388878 1.567483 5.207623 
-0.01853371 2.528906 2.360573 -0.6096487 1.963645 -4.845046 
-0.03268623 2.537845 2.360573 0.8481193 2.892892 -2.562138 
-0.0302639 2.537845 2.625887 1.122326 2.669761 2.339567 
0.07731628 0.6918573 2.625887 3.141229 0.03365898 3.161354 
-0.06058121 -0.02379186 2.625887 1.370829 -2.222986 2.307364 
-0.03738213 0.08974402 2.625887 -0.004015148 -0.141733 6.264203 
-0.04205132 -0.02379376 2.578405 0.04405518 -5.863632 0.9449514 
0.09592247 2.552403 2.625887 1.569807 1.515066 1.535291 
0.0819664 2.155912 2.625887 3.123083 -0.2271465 3.116005 
0.07731628 2.028599 2.360573 3.140542 -0.05837585 -3.177066 
0.09592247 2.552403 2.360573 1.569806 1.515035 -1.53529 
-0.08375931 1.762 2.625887 -2.356591 -0.04126479 5.209705 
-0.124279 1.841732 2.575102 -5.979713 -0.4485608 1.27846 
-0.124279 1.91537 2.360573 -3.140552 -0.05517821 -3.189623 
-0.128931 1.969047 2.625887 -3.133202 -0.1617482 3.083627 
0.09592247 -0.02379186 2.360573 1.570094 -1.523541 -1.540721 
-0.008403778 2.552403 2.625887 -1.496143 2.049158 1.88861 
-0.008241653 2.552403 2.360573 -1.438605 2.201523 -1.984509 
-0.0194397 -0.02379186 2.625887 -1.343973 -2.227631 2.367649 
3 0 1 2 
3 0 2 3 
3 4 5 6 
3 6 5 7 
3 8 9 10 
3 10 9 11 
3 12 13 14 
3 14 13 15 
3 16 17 18 
3 18 17 19 
3 20 21 22 
3 20 22 23 
3 24 25 26 
3 26 25 27 
3 28 29 30 
3 28 30 31 
3 8 10 32 
3 32 10 33 
3 5 34 7 
3 7 34 35 
3 13 36 37 
3 13 37 15 
3 3 2 38 
3 3 38 39 
3 40 41 42 
3 42 41 43 
3 44 45 46 
3 46 45 47 
3 48 49 50 
3 48 50 51 
3 52 53 54 
3 52 54 55 
3 43 52 42 
3 42 52 55 
3 28 31 19 
3 19 31 18 
3 3 39 10 
3 10 39 33 
3 11 0 10 
3 10 0 3 
3 1 14 2 
3 2 14 15 
3 37 38 2 
3 37 2 15 
3 30 29 25 
3 25 29 27 
3 54 53 51 
3 54 51 50 
3 56 57 1 
3 56 1 0 
3 14 1 58 
3 58 1 57 
3 59 12 58 
3 58 12 14 
3 60 4 61 
3 61 4 6 
3 9 62 63 
3 9 63 11 
3 56 0 11 
3 56 11 63 
3 34 64 35 
3 35 64 65 
3 66 67 36 
3 36 67 37 
3 68 38 67 
3 67 38 37 
3 39 38 68 
3 39 68 69 
3 33 39 69 
3 33 69 70 
3 71 32 33 
3 71 33 70 
3 69 68 29 
3 69 29 28 
3 27 29 67 
3 67 29 68 
3 66 26 67 
3 67 26 27 
3 64 20 23 
3 64 23 65 
3 17 71 19 
3 19 71 70 
3 70 69 19 
3 19 69 28 
3 31 30 53 
3 31 53 52 
3 53 30 51 
3 51 30 25 
3 24 48 25 
3 25 48 51 
3 45 44 21 
3 21 44 22 
3 41 16 43 
3 43 16 18 
3 18 31 43 
3 43 31 52 
3 72 73 12 
3 72 12 59 
3 73 74 13 
3 73 13 12 
3 74 75 36 
3 74 36 13 
3 75 76 66 
3 75 66 36 
3 76 77 26 
3 76 26 66 
3 77 78 24 
3 77 24 26 
3 78 79 48 
3 78 48 24 
3 79 80 49 
3 79 49 48 
3 6 73 61 
3 61 73 72 
3 7 74 6 
3 6 74 73 
3 75 74 35 
3 35 74 7 
3 65 76 35 
3 35 76 75 
3 23 77 76 
3 23 76 65 
3 22 78 77 
3 22 77 23 
3 79 78 44 
3 44 78 22 
3 80 79 46 
3 46 79 44 
3 81 82 41 
3 81 41 40 
3 82 83 16 
3 82 16 41 
3 83 84 17 
3 83 17 16 
3 84 85 71 
3 84 71 17 
3 85 86 32 
3 85 32 71 
3 86 87 8 
3 86 8 32 
3 87 88 9 
3 87 9 8 
3 88 89 62 
3 88 62 9 
3 90 82 81 
3 90 81 91 
3 92 83 82 
3 92 82 90 
3 84 83 93 
3 93 83 92 
3 94 85 93 
3 93 85 84 
3 95 86 85 
3 95 85 94 
3 87 86 96 
3 96 86 95 
3 88 87 97 
3 97 87 96 
3 98 89 88 
3 98 88 97 
3 99 100 101 
3 99 101 102 
3 100 103 104 
3 100 104 101 
3 103 105 106 
3 103 106 104 
3 105 107 108 
3 105 108 106 
3 107 109 110 
3 107 110 108 
3 109 111 112 
3 109 112 110 
3 111 113 114 
3 111 114 112 
3 115 114 113 
3 115 113 116 
3 97 100 99 
3 97 99 98 
3 96 103 97 
3 97 103 100 
3 95 105 96 
3 96 105 103 
3 94 107 105 
3 94 105 95 
3 109 107 93 
3 93 107 94 
3 111 109 92 
3 92 109 93 
3 90 113 111 
3 90 111 92 
3 116 113 90 
3 116 90 91 
3 117 118 119 
3 117 119 120 
3 120 119 121 
3 120 121 122 
3 122 121 123 
3 122 123 124 
3 124 123 118 
3 124 118 117 
3 125 126 127 
3 125 127 128 
3 126 129 130 
3 126 130 127 
3 129 131 132 
3 129 132 130 
3 131 125 128 
3 131 128 132 
3 133 134 135 
3 133 135 136 
3 137 138 139 
3 140 141 142 
3 143 144 145 
3 137 146 147 
3 137 147 148 
3 137 148 138 
3 149 150 151 
3 146 151 150 
3 146 150 152 
3 146 152 147 
3 149 151 146 
3 149 146 137 
3 153 140 142 
3 153 142 154 
3 153 154 155 
3 156 154 142 
3 156 142 141 
3 157 158 141 
3 157 141 140 
3 157 140 153 
3 159 139 138 
3 159 138 148 
3 159 148 143 
3 149 159 145 
3 149 145 152 
3 149 152 150 
3 144 160 161 
3 144 161 152 
3 144 152 145 
3 148 162 160 
3 148 160 144 
3 148 144 143 
3 163 164 158 
3 163 158 157 
3 163 157 165 
3 155 166 167 
3 152 161 133 
3 152 133 147 
3 147 136 162 
3 147 162 148 
3 165 167 163 
3 143 145 159 
3 159 149 137 
3 159 137 139 
3 168 163 167 
3 168 167 166 
3 141 166 156 
3 166 141 168 
3 168 164 163 
3 158 164 168 
3 158 168 141 
3 155 154 156 
3 155 156 166 
3 169 170 157 
3 169 157 153 
3 171 169 153 
3 171 153 155 
3 134 171 155 
3 134 155 167 
3 165 135 134 
3 165 134 167 
3 170 135 165 
3 170 165 157 
3 171 161 160 
3 171 160 169 
3 169 160 162 
3 169 162 170 
3 133 161 171 
3 133 171 134 
3 170 162 136 
3 170 136 135 
3 133 136 147 
3 172 173 174 
3 175 176 177 
3 178 179 180 
3 181 182 183 
3 175 184 173 
3 175 173 185 
3 175 185 176 
3 186 187 188 
3 184 188 187 
3 184 187 189 
3 184 189 173 
3 186 188 184 
3 186 184 175 
3 190 178 180 
3 190 180 191 
3 190 191 192 
3 193 191 180 
3 193 180 179 
3 194 195 179 
3 194 179 178 
3 194 178 190 
3 196 177 176 
3 196 176 185 
3 196 185 181 
3 186 196 183 
3 186 183 189 
3 186 189 187 
3 182 190 192 
3 182 192 189 
3 182 189 183 
3 185 194 190 
3 185 190 182 
3 185 182 181 
3 197 198 195 
3 197 195 194 
3 197 194 172 
3 192 199 174 
3 189 192 174 
3 189 174 173 
3 173 172 194 
3 173 194 185 
3 172 174 197 
3 181 183 196 
3 196 186 175 
3 196 175 177 
3 200 197 174 
3 200 174 199 
3 179 199 193 
3 199 179 200 
3 200 198 197 
3 195 198 200 
3 195 200 179 
3 192 191 193 
3 192 193 199 
3 201 202 203 
3 204 205 206 
3 207 208 209 
3 210 211 212 
3 213 214 215 
3 216 217 218 
3 219 220 213 
3 219 213 215 
3 219 215 221 
3 222 223 224 
3 222 224 225 
3 226 219 221 
3 226 221 227 
3 226 227 228 
3 215 214 229 
3 215 229 227 
3 215 227 221 
3 230 231 207 
3 230 207 232 
3 230 232 233 
3 234 235 219 
3 204 206 236 
3 204 236 235 
3 204 235 237 
3 204 237 218 
3 204 218 217 
3 219 235 236 
3 219 236 220 
3 209 208 234 
3 209 234 219 
3 209 219 226 
3 202 201 226 
3 202 226 210 
3 202 210 212 
3 202 212 238 
3 220 203 202 
3 220 202 238 
3 220 238 214 
3 220 214 213 
3 236 232 203 
3 236 203 220 
3 232 207 209 
3 232 209 226 
3 232 226 201 
3 207 231 208 
3 234 237 235 
3 201 203 232 
3 216 205 204 
3 216 204 217 
3 239 240 223 
3 239 223 222 
3 239 222 208 
3 239 208 231 
3 239 231 230 
3 233 240 239 
3 233 239 230 
3 233 232 236 
3 233 236 223 
3 233 223 240 
3 224 223 206 
3 224 206 205 
3 225 224 205 
3 225 205 216 
3 222 218 237 
3 222 237 234 
3 222 234 208 
3 216 218 222 
3 216 222 225 
3 206 223 236 
3 227 229 228 
3 228 229 241 
3 229 214 238 
3 229 238 212 
3 229 212 211 
3 229 211 241 
3 226 228 241 
3 226 241 211 
3 226 211 210 
3 47 45 114 
3 47 114 115 
3 112 114 45 
3 112 45 21 
3 110 112 21 
3 110 21 20 
3 108 110 20 
3 108 20 64 
3 106 108 64 
3 106 64 34 
3 104 106 34 
3 104 34 5 
3 101 104 5 
3 101 5 4 
3 102 101 4 
3 102 4 60 
