ply
format ascii 1.0
comment VCGLIB generated
element vertex 501
property float x
property float y
property float z
property float nx
property float ny
property float nz
element face 998
property list uchar int vertex_indices
end_header
-0.07531357 5.25009 0.6633053 -0.2850292 2.961803 3.456059 
0.8703461 4.81272 0.6627855 -1.259206 -2.24932 4.2805 
0.7973957 5.24859 0.6617661 1.037103 2.738241 2.601191 
0.962616 5.11721 0.6238852 0.9384661 3.042357 4.878149 
0.8143349 5.25029 0.5225954 1.295826 5.746191 1.739437 
-0.2401352 5.1695 0.6568155 -0.4903638 1.609158 5.717408 
-0.7978992 5.192193 0.6490955 -0.6748657 2.668396 4.349379 
1.017906 5.13939 0.6005859 -0.875841 5.166376 1.515409 
1.154875 5.08575 0.6626158 1.635886 2.331291 3.112903 
-0.8534756 5.012227 0.6629553 0.8817648 -0.9596609 5.76156 
-1.014135 4.96014 0.6627855 0.4060168 0.829806 5.869558 
-0.680584 4.92697 0.5912056 -2.416209 -2.722298 4.247982 
-0.9086246 4.85892 0.5899353 3.23819 -1.769884 4.368913 
-0.6111736 4.89534 0.6632957 -1.298448 -2.311805 3.99728 
-0.5371742 4.81628 0.5187054 -0.3497212 -5.435303 3.112333 
-0.9139652 4.68275 0.6629953 2.827733 -0.660306 2.222291 
1.342066 4.04872 0.6624355 -2.669289 -1.669377 3.222317 
-1.172724 5.00793 0.6624861 -1.846454 2.235271 3.1887 
1.431965 4.70329 0.6629953 2.544117 1.821225 3.339629 
-1.643005 4.38399 0.662796 -2.498994 1.896338 3.293729 
-1.488115 3.83297 0.662466 2.60486 -1.760886 3.238464 
-2.155144 3.70193 0.6632957 -2.681257 1.533369 3.154852 
1.768286 3.3634 0.6631861 -1.489891 -2.067143 2.964052 
-1.853905 3.29447 0.6629953 2.816734 -0.7904943 4.054315 
2.000183 3.826927 0.6235466 2.296808 2.193206 4.705177 
1.950775 3.97636 0.6632757 2.764551 1.307845 3.313571 
1.932501 3.660205 0.636466 0.3417797 -0.0530314 5.997712 
2.079826 3.78695 0.6632957 1.350345 2.112964 3.187014 
1.986588 3.458949 0.6633053 -0.8956746 -0.946425 5.715898 
2.276276 3.44633 0.6505556 2.629811 -0.3356064 2.886118 
1.932695 3.40401 0.6379251 -0.19413 -0.241976 6.161043 
-2.199594 3.48328 0.6572161 -1.532206 1.710135 5.260622 
1.809406 3.29295 0.5869455 -4.545985 -0.2339128 3.276451 
2.247175 3.34667 0.5954952 4.118804 -0.1710078 3.621865 
2.270115 3.2724 0.6630955 2.595957 1.083606 2.652905 
1.810856 3.19227 0.662776 -2.938248 0.4867476 3.638023 
-2.270504 3.4647 0.663146 -2.14756 1.486005 2.463717 
2.269686 2.95591 0.6627655 2.89533 -0.6016318 2.70612 
2.209015 2.95637 0.6633053 0.2499503 -0.4184684 6.234042 
2.101946 2.50912 0.6633053 1.975972 -0.1127809 5.562487 
1.810665 1.45902 0.6627655 -3.130527 -0.03859448 3.105952 
2.207695 2.5347 0.5625858 4.831765 -0.2325595 3.974552 
2.141365 2.355885 0.6447353 2.929731 0.09257188 5.256125 
2.142786 2.12534 0.6622553 1.960816 0.3644105 5.08573 
-2.270365 1.89199 0.6630554 -3.119461 -0.05955175 3.219505 
2.186766 1.62882 0.6633053 2.338814 0.3210014 5.205176 
-1.856115 1.05269 0.6587954 2.674371 -0.8600414 3.142361 
2.314636 2.10652 0.4498758 2.458736 0.1614577 5.084469 
2.276236 1.59212 0.5646152 5.466041 0.3012869 2.699346 
2.269686 1.15783 0.6631155 2.943559 -0.05183427 3.45592 
2.014956 1.24328 0.6633053 -0.1929951 -0.5252547 6.230123 
-2.207985 1.25177 0.6607161 -2.118639 -0.2457955 5.357514 
-2.260874 1.22663 0.6013556 -5.610608 0.1831721 2.441395 
1.818615 1.12464 0.6391058 -3.386779 -0.09515937 3.088773 
2.018755 1.10001 0.6359453 -0.1329792 -0.215773 6.179122 
-2.268484 1.09897 0.6275759 -3.49364 -0.008838326 2.913443 
-1.922575 0.9146399 0.6265955 2.497736 -0.7193164 4.908442 
2.270315 0.82514 0.6630955 3.067468 0.0474641 3.441885 
-1.908234 0.74244 0.622776 2.89453 -0.1794166 4.710215 
1.810556 0.97597 0.6628952 -2.874498 0.4233919 2.834103 
-2.270145 0.7733901 0.6631155 -2.497599 -0.418375 2.810563 
-2.226564 0.59966 0.6102152 -3.231116 0.8084984 4.311603 
-1.979504 0.6022201 0.622776 1.851772 -0.4349078 5.726265 
-1.980114 0.45174 0.6442261 1.754506 2.852196 5.116714 
-2.269875 0.49779 0.6630354 -2.452825 0.9542551 2.862821 
-1.857725 0.48377 0.4981956 4.664342 0.3101463 3.810337 
-1.854084 0.38912 0.6626358 2.539992 1.143539 2.576308 
2.270355 0.03534 0.6630459 1.600641 -1.602273 1.669479 
-1.853615 0.0345 0.6627254 1.605778 -1.574533 1.616787 
1.810005 0.03445 0.6628456 -1.597305 -1.577527 1.623972 
-2.251774 0.03216 0.6632853 -1.575028 -1.717481 1.697446 
-0.2620049 5.24949 0.585906 -0.3981998 5.310905 2.798109 
-0.0586338 5.27754 0.4518156 -0.07298455 3.357815 3.580026 
1.222786 5.02289 0.4508753 2.613912 1.716383 3.342307 
0.2211647 4.81284 0.5007153 -0.02252727 -5.979969 1.394842 
0.6951561 4.79182 0.4564552 -0.1186469 -3.159335 3.572163 
1.059675 4.48959 0.4597054 -2.76105 -1.712982 3.274669 
-1.755035 4.25451 0.4548159 -2.558496 1.93341 3.322143 
1.842855 4.16819 0.4505854 2.623107 1.777291 3.481433 
1.603966 3.62412 0.4790859 -3.116948 -1.971076 3.118447 
-1.439884 3.89255 0.4604254 2.658773 -1.823917 3.249251 
2.277346 3.21699 0.4782658 5.853681 0.2210175 1.784336 
1.807716 2.06573 0.4785957 -4.22353 -0.1602237 2.996427 
-2.291655 2.90902 0.4515953 -3.213609 -0.02507585 3.453666 
-1.851324 1.96607 0.4793653 3.785088 0.1125132 3.13909 
-2.265814 1.47976 0.585536 -6.223217 -0.05790586 0.7055342 
-2.273495 0.80194 0.4700851 -4.125881 -0.1309087 3.197168 
2.276236 0.13886 0.4778852 4.8726 -1.383547 1.771515 
-2.276184 0.13886 0.4778852 -5.099164 -2.390878 1.494043 
-0.9333801 5.2486 0.5209455 -1.728277 4.365457 3.411384 
-0.992115 5.27783 0.4517756 -0.9743509 2.116299 5.425723 
-0.9672947 4.59749 0.4759655 4.433639 -2.0916 2.704512 
1.807905 1.26631 0.4788952 -3.805662 -0.1290837 3.222082 
-2.275604 0.5884 0.4776859 -4.855807 0.3969845 3.282948 
-0.8229446 4.82334 0.5152159 2.424964 -4.026397 4.003427 
2.029766 3.92322 0.4129858 2.106427 1.354025 3.702874 
2.291445 3.54813 0.4501457 2.69577 1.018347 4.324155 
-2.291655 3.5277 0.4520559 -3.628419 1.245426 4.170621 
2.292286 1.14344 0.451746 3.138318 0.01029006 3.481086 
1.142315 5.17344 0.4502153 1.141836 3.611037 4.280087 
-2.291874 1.22479 0.451746 -3.189318 -0.1962985 3.797519 
1.808575 0.09387 0.4786959 -5.221644 -1.307959 1.526371 
-2.210014 0.023 0.3109255 -2.530841 -4.872369 0.1375537 
0.8630562 5.27693 0.4519358 1.66485 3.37053 4.518205 
-1.526224 4.55292 0.4561853 -2.605692 1.960011 3.265063 
1.833605 0.9931901 0.4643354 -3.579437 -0.002232539 2.579514 
1.816336 0.89133 0.4597855 -3.139657 0.1089054 3.121686 
1.612366 4.46978 0.4562359 2.640412 1.948214 3.157316 
-0.7503738 4.78995 0.4338055 0.7511646 -4.648446 3.756725 
2.296175 3.29182 0.4313354 2.993385 -0.2986895 3.945209 
1.762466 3.33754 0.4601355 -3.087436 -1.103592 3.167016 
2.292086 2.48149 0.4517155 2.546878 0.04057217 5.011874 
1.817566 1.65407 0.4643955 -4.153859 -0.06675312 2.783124 
-1.826405 1.01959 0.4571152 3.653673 -0.6463017 3.89811 
-0.5648136 5.27752 0.4518251 -0.0668829 3.283149 3.955123 
0.2918053 5.25274 0.4785051 0.2358992 3.770027 2.386494 
0.8678951 4.81058 0.4782457 -1.414298 -2.744929 2.014072 
1.312166 4.0861 0.4594755 -2.734832 -1.700851 3.228003 
-2.056404 3.84887 0.4554853 -2.604176 1.91789 3.268593 
-1.824385 3.3152 0.4600353 3.242691 -1.1164 2.855548 
-1.851274 2.54292 0.4795656 5.207664 -0.03296657 2.409554 
-1.826405 2.69732 0.4574261 3.213383 -0.2052014 4.349612 
2.292225 0.84746 0.4520655 3.123027 0.0185004 3.481048 
-1.852625 0.0939 0.4786253 4.954404 -1.422718 1.603829 
1.809746 0.02008 0.1644554 -3.0924 -3.589033 0.1626921 
1.028326 5.44512 0.2230053 1.531773 5.321104 2.040963 
1.220875 5.38169 0.2222252 1.985541 5.043118 2.35314 
0.221056 5.46124 0.436676 -0.03953546 3.645963 3.070869 
-1.079355 5.46105 0.4370461 -1.219853 2.795007 2.347033 
0.9044456 5.4613 0.4365253 1.495037 1.957453 2.188203 
1.237385 5.31783 0.4491959 0.0675084 2.003677 1.713854 
-1.498764 4.91318 0.4497061 -2.54746 1.963177 3.308543 
-0.4754944 4.76702 0.4557753 -0.7578684 -3.445875 4.898417 
-0.2714844 4.7921 0.4568453 0.04143116 -2.984533 4.33908 
0.785965 4.64575 0.4520855 -1.624868 -2.721689 4.130603 
-0.3943138 4.64747 0.4532356 -0.4641191 -3.044195 3.092854 
1.676535 4.70457 0.4501057 2.647222 1.815883 3.545437 
-0.8662148 4.5105 0.3267155 5.59139 -1.95903 1.392932 
-0.8166199 4.638729 0.3117352 4.461839 -2.451272 3.072423 
1.000805 4.29793 0.4553156 -2.756809 -1.681439 3.140931 
-0.8942337 4.42911 0.4543953 3.200248 -0.8192924 2.588321 
2.102156 4.12481 0.4492655 2.4105 1.370912 3.20921 
-2.306755 3.84686 0.4496355 -2.794249 1.407428 3.146437 
-1.301325 3.81136 0.4552956 2.701412 -1.826509 3.127464 
1.426306 3.59591 0.4555454 -3.006866 -1.789809 3.130592 
2.218126 3.97307 0.4351254 1.889978 2.230536 3.462204 
-2.326054 3.65647 0.4407759 -3.668583 0.6113937 4.555268 
2.625054 3.61281 0.4501953 2.683708 0.7744616 2.462352 
2.483585 3.38529 0.4501858 1.568565 -1.355989 5.370816 
1.587986 3.33601 0.4553452 -2.657526 -1.758224 3.472215 
-2.444754 3.49178 0.3739452 -3.064098 4.016836 3.090251 
-1.681015 3.24092 0.4342957 3.452617 -1.083313 3.662183 
-2.628546 3.38419 0.4501657 -2.516406 1.193777 2.572134 
1.664835 3.19613 0.4373055 -4.065214 0.4031736 4.452012 
2.447666 3.22011 0.3964052 3.028719 1.88244 3.778014 
2.630178 3.08651 0.4502153 2.542642 1.152416 2.517701 
1.653255 3.10132 0.4555655 -3.059932 0.03917951 3.276556 
2.335745 2.78318 0.4499054 0.7785025 -0.04094727 6.183897 
2.641346 2.57712 0.4502153 3.1459 0.04170815 3.137262 
-2.641079 2.63189 0.4362259 -3.310732 0.03636599 3.110903 
-1.678724 1.76651 0.4548159 3.499757 0.00188153 3.14142 
1.631296 2.3097 0.4341755 -3.873175 -0.03167197 3.039697 
-1.825405 2.26637 0.4576254 2.090031 0.02102925 5.54169 
-2.647369 1.13714 0.4500751 -2.736421 -0.8128294 2.885643 
1.637285 1.95192 0.4057255 -4.344035 -0.1529163 2.977499 
2.647603 1.24375 0.4502153 3.151906 0.01195271 3.154431 
1.677765 1.57734 0.4113159 -3.519491 -0.3308051 4.752082 
1.633886 1.40276 0.4550257 -2.868093 0.7528394 2.759354 
-1.669725 0.9833601 0.4364557 2.793059 -0.9432046 2.889867 
1.633165 1.08327 0.4550257 -3.122151 -0.4610476 2.715875 
2.648396 0.88951 0.4499655 3.160263 0.02215513 3.148252 
-2.438824 0.94414 0.4066858 -2.224822 -0.4193218 5.629031 
1.624355 0.85886 0.3919659 -4.572793 0.2145949 2.736919 
-2.471754 0.79969 0.4106054 -1.218694 1.17148 5.966254 
-2.635236 0.81797 0.3524456 -3.762826 2.631468 1.681671 
-1.670435 0.83384 0.3483753 4.48454 -1.377801 2.159092 
-1.742655 0.70803 0.3723955 4.795616 0.9194872 3.383548 
1.696966 0.71718 0.4514656 -2.230228 0.2698174 5.608395 
-2.314804 0.58402 0.4502153 -1.775275 0.2935729 5.715894 
2.649073 0.69959 0.4502153 3.215253 0.05205139 3.161833 
-2.648841 0.69985 0.4502153 -2.540449 0.7279659 2.769741 
-1.803785 0.57207 0.4549656 3.096384 0.41386 4.914201 
-1.692694 0.66365 0.3679352 4.034347 2.569586 2.115855 
-1.675615 0.56595 0.4547653 2.459421 1.105306 2.71168 
-1.673904 0.09935001 0.4549255 1.852359 -1.6588 1.675144 
2.658664 0.15561 0.4363852 1.914156 -1.669079 1.668021 
1.620966 0.0994 0.4132156 -2.226903 -1.917972 1.562369 
-2.652322 0.1228 0.1828756 -2.733521 -2.526713 0.7412123 
-0.7638435 4.64236 0.2560654 2.486203 -4.872563 1.872695 
0.7762756 4.64482 -0.4560947 -1.362264 -2.530205 -4.118046 
-2.637354 2.29611 -0.3729649 -6.27573 0.01814393 0.1687725 
1.649166 1.00518 0.4087954 -5.488259 0.675027 -1.410543 
-1.852604 0.07519 0.07334518 3.332609 -3.193066 0.1397783 
-1.176815 5.38249 0.2478952 -3.549815 4.87412 0.9656481 
1.610376 4.85451 0.2476254 2.531682 1.776307 3.6692 
-2.214794 3.97431 0.2681656 -3.148869 2.142668 3.088722 
-2.397814 3.7815 0.2152958 -3.985641 1.37332 4.004673 
2.517936 3.78504 0.2507858 4.560781 2.655907 2.576349 
1.627535 1.57188 0.3701754 -3.57851 -1.967084 2.018152 
2.650026 1.44772 -0.1816645 6.282621 0.007992018 -0.01508603 
2.65046 0.10128 -0.4502144 1.531328 -1.571387 -1.505607 
-0.730444 5.46158 -0.267334 -0.07399224 6.279752 -0.1058886 
1.831835 4.51163 0.2640152 3.081069 2.17243 3.25407 
1.044226 4.23137 -0.4560947 -2.964297 -1.790264 -3.151103 
-1.189365 3.98661 -0.4546347 2.717838 -1.725385 -3.133575 
-1.682444 3.23844 -0.4538641 2.842422 -0.9049553 -3.730726 
1.634396 3.24471 0.3713255 -5.784283 -2.165026 0.3329285 
2.628526 3.29755 0.2871256 4.580729 -1.860787 1.967827 
1.633776 2.97203 0.01403522 -6.173288 0.7747166 -0.165686 
-1.680254 2.35044 -0.4548044 3.191417 0.02434196 -3.143631 
1.620966 0.07027 -0.4524641 -1.606803 -1.579571 -1.530563 
-1.668634 0.56331 0.07317543 6.075026 1.062293 -0.1800351 
1.627996 1.63137 -0.4350147 -3.486875 -0.1745951 -3.005232 
2.018005 5.03284 0.3482456 -0.4902153 2.911223 3.111462 
2.250416 4.64166 0.3556051 1.706664 -1.734692 2.263412 
2.259676 4.9987 0.3505955 1.981749 1.664483 2.600697 
1.847616 5.04495 0.2481756 -0.8890929 0.8629642 5.96868 
1.868586 4.64166 0.3557959 -1.735744 -1.506045 1.967429 
-1.870054 5.03509 0.354496 1.840532 1.540918 2.021651 
-2.140154 5.03445 0.3542252 -0.7361785 3.038987 2.761969 
-2.257414 4.93973 0.3560057 -2.807639 0.8932453 3.232771 
-1.867325 4.64166 0.3554354 1.580443 -1.5465 1.56323 
-2.253614 4.64166 0.3553753 -1.545189 -1.767058 1.860488 
1.646666 1.39026 0.01476574 -6.258796 0.09457899 -0.004674606 
-2.65554 0.60789 0.05600548 -6.033995 0.3318301 -0.9772963 
-2.274954 5.00459 0.2488651 -1.781844 1.531936 5.168304 
-1.868454 4.64031 0.2634258 1.851377 -1.800623 4.687666 
1.866446 4.62 0.2476254 -1.023187 -1.274118 4.976805 
2.288765 5.0236 0.2450657 2.404898 2.632225 4.814795 
1.377165 5.13318 0.2640753 2.680528 2.330266 2.880841 
-0.8882046 4.48676 -0.3824348 5.369978 -3.177286 0.3819162 
2.174156 4.01239 0.2492056 2.472819 2.218214 2.68908 
2.101696 4.14878 0.2500658 3.064626 1.770787 3.452339 
2.582499 3.67522 0.07574558 6.103937 1.180825 0.1815062 
-2.620151 0.8426 0.1391354 -5.912245 -0.2880639 1.02094 
-2.291054 0.10941 -0.1409445 -3.024233 -3.967028 0.2047227 
-1.534344 4.87181 0.2673559 -2.731449 2.185022 2.967461 
-1.868105 5.06439 0.2476254 1.238877 1.588407 5.154666 
2.270876 4.62077 0.2476254 1.607375 -1.759102 5.172373 
-1.716354 4.68272 0.2493553 -2.2914 1.695043 4.0216 
-2.273464 4.64174 0.2484655 -1.627743 -1.391924 4.993118 
-1.884024 4.42373 0.2489252 -2.503984 1.745303 3.42034 
2.63816 3.20257 0.1181154 6.132894 0.185691 0.5350587 
-2.644203 2.1021 -0.449954 -3.156881 0.05962159 -3.063473 
-2.634465 3.55649 0.1181555 -5.24823 1.599804 1.329057 
1.674755 5.26871 0.2437658 0.822256 3.134002 3.128801 
2.124065 5.15179 0.2440557 0.8127187 3.078283 3.22329 
-1.652994 5.26905 0.244256 -0.8276206 3.162257 3.124561 
-2.125324 5.1509 0.2434654 -0.7250363 3.175669 3.232591 
-2.496063 4.9618 0.2440758 -2.906833 0.7829794 2.998768 
2.526215 5.08778 0.1165352 2.810225 2.71618 0.9225389 
2.536217 4.88973 0.2443056 2.905365 0.6253142 2.954625 
2.53373 4.48926 0.2366552 2.208117 -1.332967 2.54343 
-2.317654 4.17042 0.2476254 -1.211679 -0.0005373359 6.096311 
2.350775 4.43938 0.1921253 0.7037263 -0.5538856 5.711442 
2.556838 4.36066 0.2445154 1.821236 1.421376 1.81292 
2.573999 3.9202 0.2018156 3.910506 0.1771896 2.992762 
-2.548835 4.18926 0.1620455 -4.294358 0.04854172 2.920232 
2.605777 2.89692 0.09909534 5.7854 0.9830055 -0.6793839 
2.641515 2.70744 -0.07644463 6.08717 0.525883 -0.6899899 
-2.653202 0.9362299 0.1180954 -6.09829 -0.8279941 0.5855924 
1.626106 1.2441 0.01390553 -6.197446 0.5527259 0.1163142 
2.653731 0.90335 -0.09838486 6.252755 0.2813898 0.2070793 
2.315056 0.10065 -0.4502144 4.378551 -2.598642 -1.99711 
-0.04800415 5.45175 -0.4501343 0.0633183 3.315515 -3.187644 
0.9042053 5.46105 0.09847546 0.2593792 6.266263 -0.0444013 
1.141485 5.452 0.09826565 2.043676 5.316641 0.1931614 
-1.134094 5.40091 -0.2467442 -2.74346 5.380911 -0.7816301 
1.674776 5.26878 -0.2438145 0.8189927 3.195673 -3.130918 
-1.461945 5.31557 -0.2460642 -0.7991008 3.177221 -3.135148 
-2.488251 5.09276 0.1563559 -2.876046 2.749075 1.217781 
2.580022 3.76581 -0.09684467 5.593142 1.042153 -1.599619 
1.663586 3.09688 0.01239586 -6.153916 0.08431172 -0.1647298 
-2.270245 0.01973 0.08279514 -2.808089 -1.964227 0.6764934 
-2.640857 2.44457 -0.4502144 -3.152751 -0.0008795919 -3.105141 
-1.668964 0.81429 -0.3282242 3.964017 -1.368575 -2.434674 
-2.583313 3.67564 0.09734535 -5.199365 1.635704 2.390593 
-1.954105 5.19471 -0.2451448 -0.7422788 3.185837 -3.1527 
2.537921 4.36015 0.03085518 6.042525 0.2823033 -0.1591245 
2.636698 0.97146 -0.05531406 6.07819 0.5049499 0.6494673 
2.630824 3.4727 -0.1181641 6.009212 -0.3405225 -0.5129573 
-2.608572 0.11435 0.001085281 -2.771764 -4.223352 0.5177167 
-2.533813 4.43061 -0.2445545 -3.185483 0.2347323 -3.129441 
2.622366 2.78896 -0.2670641 5.506565 -2.274784 -0.4290508 
-2.620882 0.6567301 -0.05492401 -6.120234 0.1516625 -0.4710164 
1.178276 5.4024 -0.2466345 2.793695 5.287192 -0.8224037 
-2.481338 5.08953 -0.2159748 -2.267788 2.265225 -1.799676 
2.165045 5.14399 -0.2445946 1.040823 3.155534 -3.137682 
1.640026 3.23221 -0.3282948 -5.686517 -1.236589 -1.66299 
1.637156 2.82292 -0.4544945 -1.909177 1.522878 -2.233135 
-1.721344 0.66719 -0.2404747 5.811733 -0.6879718 -1.700921 
2.533613 4.95507 -0.1614943 4.482724 2.520106 -1.482613 
-2.497483 4.96344 -0.2456846 -3.014394 0.5378766 -3.050897 
-2.583493 3.6754 -0.2674341 -5.024783 3.298522 -0.8545718 
2.60438 3.41881 -0.181674 5.936419 0.3529272 -0.7369055 
-2.63096 3.61581 -0.4366446 -2.810977 1.141663 -2.398107 
-2.658664 0.16656 -0.03375435 -4.247335 -1.051591 2.125844 
1.784056 0.06838 -0.4573145 -3.562421 -2.343507 -3.444897 
-0.9514046 5.45293 -0.390914 -0.9354136 4.391691 -2.633216 
2.55342 4.44827 -0.2444143 2.482429 -1.155385 -2.297435 
2.520793 4.27718 -0.2379742 2.185833 1.625915 -2.498713 
1.652655 1.36242 -0.2020445 -6.256924 -0.08865178 -0.2204792 
2.535878 4.8896 -0.2440443 2.832872 0.8992722 -2.821903 
-2.65317 0.58698 -0.1817045 -5.33394 2.130794 0.0145729 
-2.650405 0.10128 -0.4502144 -1.597066 -1.579441 -1.561952 
-0.7086754 4.64744 -0.4547844 0.355821 -3.564386 -3.364616 
2.611938 3.58704 -0.3070145 4.095376 0.7442077 -2.271264 
-1.729065 0.47431 -0.3636847 1.974276 3.745684 -4.122442 
-2.274784 0.006170001 -0.6502943 -1.594651 -1.643601 -1.559532 
2.628421 3.41912 -0.4502144 1.754256 1.564307 -1.741294 
-1.676615 0.96217 -0.4549341 1.466388 -1.376139 -2.153478 
-1.673784 0.06808 -0.4549246 2.108313 -1.502828 -1.70491 
2.288885 5.05978 -0.2435646 2.676195 3.199363 -4.21907 
2.365305 3.78429 -0.2663145 3.545142 2.548716 -2.713916 
1.321566 3.77 -0.4551144 -2.671175 -1.77511 -3.136074 
-1.667974 0.46592 -0.3710346 2.519017 2.114114 -1.832039 
-1.074575 5.44873 -0.3890343 -1.041407 3.118616 -1.753336 
-0.9034748 4.43137 -0.4560747 2.672134 -1.592282 -2.405163 
2.344736 4.32337 -0.2109241 0.7953479 0.6145201 -5.529902 
1.674376 2.99838 -0.3400841 -5.466927 -0.10537 -2.435619 
-2.648394 0.78312 -0.4502144 -2.486717 -1.385177 -2.250376 
1.809406 0.01228 -0.4796848 -3.135756 -3.598251 -0.4146563 
2.270206 0.0002500005 -0.6628141 1.513679 -1.70526 -1.727093 
1.649605 3.11955 -0.3680544 -4.943653 -0.7462425 -2.312916 
2.648396 0.86689 -0.4500542 3.156647 0.00902585 -3.188697 
-2.65555 0.59194 -0.4371843 -2.388824 1.437663 -2.096035 
1.640665 2.8939 -0.3450747 -4.830751 1.751607 -2.228842 
1.098516 5.45189 -0.4501543 1.286663 2.841929 -2.347015 
-1.868555 5.01725 -0.2531147 1.631716 1.662232 -4.772763 
1.554686 4.89015 -0.2652645 2.806513 2.011418 -3.297317 
1.868895 5.03881 -0.2637844 -1.815258 1.792405 -4.727826 
-2.226225 5.06374 -0.2476645 -1.414108 2.186077 -5.241066 
-1.465414 4.96408 -0.2657242 -2.641773 2.050901 -3.190968 
-1.874554 5.01224 -0.334754 2.258296 2.021331 -1.896194 
1.821285 4.55453 -0.2475748 2.344963 1.65238 -3.727098 
-1.716164 4.64096 -0.2496748 -2.513585 1.865336 -3.25985 
2.260246 4.78922 -0.2974348 4.542514 -0.2788884 -4.166165 
2.294016 4.64085 -0.2485743 1.094468 -0.8605568 -5.871147 
-1.847534 4.64018 -0.248024 1.482888 -1.323762 -5.031768 
1.868216 4.64205 -0.2641439 -2.383451 -2.014863 -4.478862 
-2.251564 4.61924 -0.2483845 -1.352749 -1.458024 -5.074042 
-0.8066444 4.6208 -0.4405041 2.105659 -3.292812 -3.681334 
-2.251644 3.93492 -0.2502747 -1.932551 2.258185 -2.240621 
-2.013695 4.25653 -0.2498846 -2.542134 1.914372 -3.362758 
1.967665 4.36071 -0.2397642 3.050958 0.5060567 -4.511205 
1.832275 4.508 -0.352334 5.22533 3.260133 -1.063974 
1.995466 4.32242 -0.2080345 1.795436 0.2414628 -3.176021 
2.161285 4.06514 -0.2631245 2.694559 2.278839 -3.226404 
2.449915 3.4561 -0.425334 1.37662 0.8276388 -5.648882 
-1.853615 0.01237 -0.4796944 2.30781 -4.394858 -1.050472 
2.640774 2.81366 -0.4372845 2.685956 -1.236461 -2.251094 
-2.471855 0.70929 -0.3841047 -2.439993 -1.585865 -1.786557 
-1.810455 0.74639 -0.3693447 4.578767 -0.8951426 -3.468846 
-1.257824 5.22684 -0.4271545 -2.559101 2.265724 -3.249894 
1.823875 4.50784 -0.4499741 2.839108 1.414881 -3.074081 
-1.707834 4.63928 -0.449934 -2.500878 1.966852 -3.260495 
-2.222054 5.0284 -0.3349648 -2.222342 2.029019 -2.334926 
1.868586 4.64166 -0.3684139 -1.563346 -1.567531 -1.567577 
-2.079634 4.14593 -0.4500446 -2.496184 2.017744 -3.371073 
2.386545 3.74268 -0.4477444 2.457981 1.827352 -3.601743 
-2.036224 5.02369 -0.3686342 0.1668451 2.937578 -2.746051 
-2.253614 4.64166 -0.3679943 -1.679057 -1.392124 -1.701814 
2.142225 4.64198 -0.3686342 0.8741555 -2.623588 -2.884115 
1.898516 4.30981 -0.4073944 2.706587 2.543734 -4.506752 
2.015165 4.25219 -0.4501047 1.682831 2.480952 -2.990668 
2.419025 2.62047 -0.3929939 2.496654 1.007073 -4.798827 
-0.3718948 5.46158 -0.4357243 -0.03291402 3.874449 -2.823311 
2.208166 5.03509 -0.3675146 1.366786 2.100737 -2.858975 
-1.867325 4.64166 -0.3680544 1.564449 -1.624991 -1.796017 
1.656525 1.48227 -0.4472246 -3.475229 -0.1482194 -3.528461 
-1.717705 0.92189 -0.3661146 -0.656489 -2.423033 -4.193584 
-2.276934 0.07542 -0.4580545 -4.966951 -1.706512 -1.302703 
1.869286 5.03509 -0.3671846 -1.611344 1.582219 -1.6354 
2.643167 2.45916 -0.4500542 2.807532 1.040207 -2.726134 
1.718485 3.42776 -0.4602346 -4.547995 -2.222939 -2.705223 
-1.813414 0.55373 -0.3544645 2.275931 0.2978802 -4.031546 
1.459995 3.55606 -0.4553347 -1.0148 -0.9974425 -3.20965 
-1.826225 0.36881 -0.4573345 3.122491 0.947715 -5.263155 
-0.8846149 5.40815 -0.4421148 -0.8166507 2.29872 -5.208106 
1.037985 5.25415 -0.4764347 1.847576 2.866986 -4.163427 
-1.068054 5.18778 -0.4424143 -1.928691 2.562866 -4.774956 
-0.6043949 5.25217 -0.4783049 -0.1977668 3.984231 -2.848243 
0.2014561 5.27759 -0.4517746 -0.05660012 3.000395 -3.541924 
-0.8851147 5.27781 -0.4521141 -0.7998973 3.182113 -4.037388 
1.222885 5.02294 -0.4510441 2.503438 1.873175 -3.568673 
-1.005404 5.20818 -0.4819746 -3.229675 5.125562 -1.513402 
1.523886 4.5963 -0.4558945 2.636334 1.934813 -3.326486 
-1.524294 4.57544 -0.4517946 -2.537757 1.819999 -3.756501 
-0.828064 4.81403 -0.6621847 1.064806 -2.251831 -4.886272 
-0.410944 4.81108 -0.4798746 0.3555218 -4.160253 -3.006029 
-0.9069443 4.683 -0.460124 2.168059 -2.494141 -3.128336 
-0.04738426 4.81166 -0.479414 -0.02623363 -5.500792 -2.112722 
-0.2514744 4.79241 -0.4566345 0.04699071 -2.455862 -5.13343 
0.1654758 4.79141 -0.4572744 -0.1627007 -3.033427 -4.098045 
0.8646946 4.80867 -0.4790144 -1.510373 -3.31348 -2.106015 
0.9076157 4.74702 -0.4601946 -2.485156 -1.900496 -3.090619 
-1.670315 4.36216 -0.4552546 -2.573382 1.914031 -3.504129 
1.757536 4.27641 -0.4560347 3.212245 2.02595 -3.314688 
-1.186094 4.23767 -0.4572945 2.589106 -1.675507 -3.94861 
1.325075 4.08037 -0.4793043 -3.198217 -2.12447 -3.061187 
1.902876 4.06453 -0.4750242 2.86273 2.305117 -3.187293 
2.077936 3.84812 -0.4501448 2.115096 1.267455 -4.423613 
-1.402735 3.94108 -0.4586143 2.603491 -1.724997 -3.440141 
1.535946 3.74487 -0.4617348 -3.130304 -2.348088 -2.983105 
-2.056404 3.84887 -0.4554844 -2.60186 1.967557 -3.365897 
-1.567554 3.72037 -0.4654646 2.780644 -1.86578 -3.044247 
2.291496 3.54822 -0.4501448 2.991823 0.6118037 -4.610029 
-2.291025 3.5478 -0.4501448 -2.864502 0.9050978 -4.118457 
1.586075 3.54076 -0.3970642 -0.9583877 -1.347634 -5.047486 
-1.838984 3.225921 -0.4507942 2.800261 -0.5477753 -4.069423 
2.328865 3.37635 -0.4184341 1.42346 0.3300839 -5.371256 
2.291876 3.22838 -0.4517145 3.189317 0.4177329 -3.676789 
1.846775 2.85884 -0.4826441 -4.621816 0.5864724 -2.489705 
1.830585 3.27534 -0.4909143 -3.721655 -1.128843 -2.214974 
2.291895 2.73909 -0.451704 3.446579 -0.7062487 -3.943276 
-2.358164 2.80844 -0.4502144 -0.05322171 0.00894428 -6.28272 
-1.826794 2.1286 -0.4572639 3.048844 0.07571206 -3.610532 
-2.292444 2.54994 -0.4517546 -3.096041 -0.06438378 -3.777724 
1.807575 2.76167 -0.4785748 -3.81854 1.301888 -3.557265 
2.275446 2.56932 -0.478054 3.905599 1.01911 -3.810417 
2.292276 1.55039 -0.4520044 3.140475 -0.007606546 -3.470921 
-2.292734 2.27593 -0.4518642 -2.866488 0.002351945 -4.462871 
-2.262335 2.04045 -0.518074 -5.993848 0.06472019 -1.1029 
2.270475 2.50875 -0.6630745 2.726509 0.9890852 -2.75302 
1.808296 1.97914 -0.4774742 -3.860837 -0.06812516 -3.09977 
-1.851885 1.18402 -0.4781647 3.32371 -0.2392124 -4.332559 
1.796406 1.70169 -0.4455643 -2.668889 -0.1791621 -4.704043 
-2.291735 1.47969 -0.451664 -3.098986 -0.04306061 -3.711971 
-1.818375 1.03696 -0.4485741 2.39686 -0.9310074 -4.545532 
1.815506 1.49733 -0.4700947 -3.676541 0.08106037 -3.306144 
1.807436 1.05345 -0.4788942 -3.906708 0.01969294 -3.606931 
-2.263714 0.69551 -0.4876747 -3.800509 0.002436489 -3.374027 
1.783316 0.33313 -0.457284 -3.125451 -0.1283973 -4.030594 
-2.292255 0.60979 -0.4518347 -3.13823 -0.1141767 -3.617142 
2.292486 0.4526 -0.4517546 3.126694 0.03582156 -3.65826 
-1.907944 0.59261 -0.5999947 4.528923 -0.247192 -3.882507 
-1.874884 0.7413 -0.6098843 4.076919 -0.5713015 -3.551221 
-1.863714 0.48135 -0.4828644 5.689281 0.4723893 -2.528529 
1.353716 4.80893 -0.6631241 2.534923 1.841458 -3.38152 
-1.293444 4.84847 -0.6293039 -4.105055 2.93592 -2.84377 
0.8655949 4.81392 -0.6633043 -1.278359 -2.398321 -4.226052 
1.387396 3.98082 -0.6632547 -1.630625 -2.006875 -2.885906 
2.275196 3.54246 -0.5018644 4.98402 1.430512 -2.634115 
-1.866625 3.253578 -0.515954 5.216599 -1.934069 -1.888908 
-0.9485054 5.2503 -0.6630344 -1.23797 2.594272 -2.296421 
1.012625 5.2503 -0.6628742 1.221566 2.6198 -2.476639 
-0.9327641 4.66464 -0.663064 2.440591 -1.941007 -3.162575 
1.650415 4.40094 -0.6630745 2.607075 1.549714 -3.307541 
-1.550045 4.48163 -0.6594744 -2.531579 1.84968 -3.582359 
-1.396984 3.98686 -0.6277847 4.979753 -2.79336 -2.208136 
-1.489025 3.83458 -0.6622744 2.625052 -1.700792 -3.206971 
1.480146 3.83576 -0.6629543 -2.735246 -0.7010753 -2.462717 
2.274786 2.7672 -0.6497545 2.50518 -1.324274 -2.687816 
1.810715 2.70274 -0.6629047 -2.440832 0.9315913 -2.821541 
2.200195 2.68401 -0.6072044 3.188972 -1.059559 -4.54098 
-2.267134 2.74515 -0.6059046 -4.825874 0.04350255 -3.115495 
-1.853994 1.82835 -0.6627741 3.127672 -0.07139206 -3.436412 
2.269735 0.91026 -0.6631241 3.097208 -0.01344752 -3.473115 
-2.275675 0.58522 -0.650034 -2.666457 1.081406 -2.934002 
1.810755 0.87666 -0.6628046 -3.023632 0.3824697 -2.611412 
-1.855915 0.22978 -0.6613245 2.732934 0.8864917 -2.870383 
1.823946 0 -0.662014 -1.500381 -1.672333 -1.592164 
-1.727745 3.48487 -0.6632948 2.574416 -1.757142 -3.473599 
2.239506 3.27735 -0.6159744 2.968616 2.162768 -3.834696 
1.810366 3.29473 -0.6630545 -2.824795 -1.045072 -3.457237 
2.165316 2.61292 -0.657444 1.920509 1.571736 -4.945483 
1.841156 1.11859 -0.6467342 -3.437878 -0.08076558 -3.751403 
2.251135 0.54994 -0.663064 3.054387 -0.06246419 -3.854324 
2.158995 3.69986 -0.6633043 2.613805 0.6821831 -2.867665 
1.838356 2.95982 -0.6495447 -2.116091 -1.197068 -2.602828 
-1.919121 3.19367 -0.6378841 3.669369 -1.248355 -4.36676 
1.856756 2.86836 -0.5779247 -4.240944 -0.3647751 -3.416904 
-2.269894 1.9918 -0.663084 -3.137053 0.08040915 -3.065382 
1.810656 1.80207 -0.6627645 -3.141691 -0.05754104 -3.128214 
1.843916 1.26763 -0.6633043 -3.059418 -0.1035091 -3.681787 
-1.930794 0.2411 -0.6633043 0.7005365 0.8739898 -5.970227 
-1.853825 0.007880002 -0.6625042 1.520316 -1.542628 -1.529288 
1.464865 3.91929 -0.6126842 -1.831584 -1.770768 -4.873149 
-2.251875 1.46019 -0.6632948 -3.080837 -0.080372 -3.721907 
-2.270184 0.91019 -0.6631241 -3.031973 -0.2238021 -2.839118 
-1.955315 1.05033 -0.6600647 2.623997 0.0170224 -4.934268 
-2.214375 0.66178 -0.6151447 -2.826328 1.228657 -4.866883 
-1.063444 5.14013 -0.6603746 -2.336132 2.133163 -2.948864 
-1.161634 4.40631 -0.6627445 2.437014 -1.585705 -4.268151 
1.773586 4.23258 -0.6625748 0.7983747 2.219528 -2.302974 
1.749525 4.25652 -0.623704 2.902436 2.82945 -3.213435 
2.269945 3.25468 -0.6630945 0.8888997 1.314909 -1.702921 
2.163065 3.34064 -0.6594143 2.060432 0.1816715 -5.396698 
2.059225 3.61649 -0.6633043 1.044794 -0.341504 -6.001208 
1.577686 3.70993 -0.6372843 -2.617058 -2.567048 -4.389147 
-2.241175 2.87023 -0.6402941 -3.458791 0.02312498 -4.470191 
-1.933245 1.18079 -0.6616144 2.882921 -0.4445973 -4.354599 
-1.357594 4.12876 -0.6598148 1.380372 -0.9351803 -5.813763 
-2.269945 3.54707 -0.663044 -2.84795 0.9090322 -2.720588 
-2.165325 2.82615 -0.6632843 -1.006872 0.02426422 -6.01652 
-2.036985 3.14706 -0.6633043 0.5331115 -0.4125853 -6.168908 
-1.416374 4.57466 -0.6615343 -0.472194 0.5085149 -6.20452 
1.974035 2.97736 -0.6306744 -0.3554511 -0.3557657 -6.085673 
2.015085 2.84703 -0.6633043 -1.616234 -1.451511 -4.85445 
-2.015465 0.74106 -0.6633043 0.7373199 -0.4132236 -6.006225 
-2.015385 0.54461 -0.6629448 1.046168 0.3521679 -5.921846 
3 0 1 2 
3 3 4 2 
3 0 5 1 
3 1 5 6 
3 2 1 3 
3 7 3 8 
3 9 6 10 
3 3 1 8 
3 6 9 11 
3 9 10 12 
3 6 11 13 
3 6 13 1 
3 9 12 11 
3 1 13 14 
3 12 10 15 
3 1 16 8 
3 10 17 15 
3 18 8 16 
3 15 17 19 
3 20 15 19 
3 20 19 21 
3 18 16 22 
3 20 21 23 
3 24 25 26 
3 24 26 27 
3 25 18 22 
3 27 26 28 
3 29 27 28 
3 26 25 22 
3 26 30 28 
3 23 21 31 
3 30 26 22 
3 28 30 29 
3 30 22 32 
3 29 30 33 
3 33 30 34 
3 30 32 35 
3 34 30 35 
3 31 36 23 
3 37 34 38 
3 34 35 38 
3 35 39 38 
3 39 35 40 
3 38 39 41 
3 41 39 42 
3 41 42 43 
3 42 39 40 
3 42 40 43 
3 23 36 44 
3 43 40 45 
3 23 44 46 
3 47 43 45 
3 48 45 49 
3 45 40 50 
3 45 50 49 
3 46 44 51 
3 44 52 51 
3 50 40 53 
3 49 50 54 
3 51 55 56 
3 50 53 54 
3 49 54 57 
3 46 51 56 
3 56 55 58 
3 54 53 57 
3 57 53 59 
3 58 55 60 
3 60 61 62 
3 58 60 62 
3 62 61 63 
3 63 61 64 
3 65 62 63 
3 63 64 66 
3 57 59 67 
3 68 66 64 
3 67 59 69 
3 68 64 70 
3 51 52 55 
3 5 71 6 
3 71 5 0 
3 2 72 0 
3 18 73 8 
3 14 74 1 
3 74 75 1 
3 16 1 76 
3 77 21 19 
3 25 78 18 
3 16 79 22 
3 20 23 80 
3 81 34 37 
3 35 82 40 
3 36 83 44 
3 84 23 46 
3 44 85 52 
3 55 86 60 
3 87 57 67 
3 64 88 70 
3 10 6 89 
3 10 90 17 
3 15 91 12 
3 40 92 53 
3 60 86 61 
3 61 93 64 
3 71 89 6 
3 90 10 89 
3 12 94 11 
3 24 95 25 
3 29 96 27 
3 31 97 36 
3 37 38 41 
3 48 49 98 
3 65 63 66 
3 0 72 71 
3 7 99 3 
3 7 8 99 
3 95 24 27 
3 21 97 31 
3 33 34 81 
3 85 100 52 
3 59 101 69 
3 102 68 70 
3 103 4 3 
3 99 103 3 
3 19 17 104 
3 77 19 104 
3 48 47 45 
3 55 52 86 
3 53 105 59 
3 59 105 106 
3 18 107 73 
3 108 13 11 
3 29 33 109 
3 32 110 35 
3 41 43 111 
3 111 43 47 
3 40 112 92 
3 98 49 57 
3 52 100 86 
3 46 56 113 
3 61 86 93 
3 58 62 65 
3 71 114 89 
3 115 72 2 
3 115 2 4 
3 8 73 99 
3 94 108 11 
3 108 14 13 
3 75 116 1 
3 1 116 76 
3 15 20 91 
3 16 76 117 
3 18 78 107 
3 118 21 77 
3 117 79 16 
3 21 118 97 
3 23 119 80 
3 22 79 110 
3 22 110 32 
3 109 33 81 
3 110 82 35 
3 37 41 81 
3 120 121 23 
3 44 83 85 
3 120 23 84 
3 40 82 112 
3 98 47 48 
3 84 46 113 
3 92 105 53 
3 98 57 122 
3 113 56 58 
3 59 106 101 
3 122 57 87 
3 65 66 123 
3 123 66 68 
3 64 93 88 
3 69 124 67 
3 90 89 114 
3 72 114 71 
3 104 17 90 
3 94 12 91 
3 80 91 20 
3 25 95 78 
3 95 27 96 
3 96 29 109 
3 81 41 111 
3 125 99 126 
3 127 128 72 
3 125 129 103 
3 125 103 99 
3 126 99 130 
3 90 128 131 
3 114 128 90 
3 128 114 72 
3 115 127 72 
3 127 115 103 
3 129 127 103 
3 115 4 103 
3 130 99 73 
3 90 131 104 
3 130 73 107 
3 14 108 132 
3 14 132 133 
3 74 14 133 
3 75 74 133 
3 75 133 134 
3 116 75 134 
3 133 132 135 
3 136 130 107 
3 133 135 134 
3 94 91 137 
3 108 94 138 
3 76 116 134 
3 138 94 137 
3 131 77 104 
3 76 134 139 
3 78 136 107 
3 91 140 137 
3 141 136 78 
3 117 76 139 
3 77 131 118 
3 131 142 118 
3 140 91 143 
3 91 80 143 
3 117 139 144 
3 141 78 95 
3 141 95 145 
3 117 144 79 
3 145 95 96 
3 118 142 97 
3 142 146 97 
3 147 145 96 
3 143 80 119 
3 147 96 148 
3 144 149 110 
3 79 144 110 
3 146 150 97 
3 151 143 119 
3 150 152 97 
3 97 152 83 
3 148 96 109 
3 110 149 153 
3 148 109 154 
3 23 121 119 
3 154 109 155 
3 36 97 83 
3 119 121 151 
3 110 153 156 
3 109 81 157 
3 155 109 157 
3 155 157 158 
3 157 81 111 
3 83 152 159 
3 160 151 121 
3 110 156 161 
3 110 161 82 
3 157 111 158 
3 160 121 162 
3 120 162 121 
3 83 159 163 
3 158 111 47 
3 120 84 162 
3 82 161 164 
3 85 83 100 
3 83 163 100 
3 160 162 84 
3 158 47 165 
3 82 166 112 
3 47 98 165 
3 166 167 92 
3 92 112 166 
3 84 113 160 
3 160 113 168 
3 167 169 105 
3 92 167 105 
3 165 98 170 
3 98 122 170 
3 100 163 171 
3 100 171 86 
3 169 172 105 
3 86 171 173 
3 171 174 173 
3 168 113 175 
3 175 113 176 
3 105 172 177 
3 106 105 177 
3 113 58 176 
3 86 173 178 
3 170 122 179 
3 178 173 180 
3 93 86 178 
3 176 181 182 
3 58 181 176 
3 182 181 183 
3 58 65 181 
3 101 106 177 
3 88 93 178 
3 179 122 87 
3 183 181 184 
3 65 123 181 
3 184 181 123 
3 88 178 180 
3 179 87 185 
3 177 186 101 
3 88 180 187 
3 108 188 132 
3 189 134 135 
3 163 159 190 
3 82 164 166 
3 169 191 172 
3 177 172 186 
3 192 184 123 
3 128 193 131 
3 136 194 130 
3 195 142 131 
3 146 142 196 
3 147 197 145 
3 164 198 166 
3 199 158 165 
3 179 185 200 
3 200 185 87 
3 201 128 127 
3 136 141 202 
3 134 203 139 
3 143 204 140 
3 139 203 144 
3 150 146 196 
3 151 205 143 
3 144 206 149 
3 147 148 207 
3 153 206 156 
3 161 156 208 
3 160 168 209 
3 173 174 180 
3 186 172 210 
3 211 183 184 
3 88 102 70 
3 149 206 153 
3 207 148 154 
3 161 212 164 
3 164 212 198 
3 192 123 68 
3 213 214 215 
3 213 216 217 
3 218 219 220 
3 218 220 221 
3 214 213 217 
3 221 220 222 
3 138 188 108 
3 196 142 195 
3 166 198 223 
3 174 224 180 
3 225 220 219 
3 218 221 226 
3 135 132 188 
3 217 227 214 
3 166 223 167 
3 199 165 170 
3 228 213 215 
3 130 194 229 
3 220 225 222 
3 137 188 138 
3 140 230 137 
3 141 231 232 
3 231 141 145 
3 147 233 197 
3 163 234 171 
3 235 102 88 
3 130 229 126 
3 193 236 131 
3 237 219 218 
3 238 215 214 
3 239 131 236 
3 136 202 194 
3 240 221 222 
3 227 238 214 
3 141 232 202 
3 195 131 241 
3 231 145 197 
3 207 154 242 
3 163 190 243 
3 182 183 211 
3 187 235 88 
3 237 225 219 
3 228 216 213 
3 228 215 238 
3 237 218 226 
3 217 216 227 
3 225 240 222 
3 226 221 240 
3 241 131 239 
3 150 244 152 
3 169 223 191 
3 69 101 124 
3 126 229 245 
3 246 245 216 
3 247 248 237 
3 193 247 236 
3 248 249 225 
3 248 225 237 
3 216 245 194 
3 216 228 246 
3 228 250 246 
3 194 245 229 
3 250 228 251 
3 251 228 238 
3 237 226 239 
3 247 237 239 
3 247 239 236 
3 225 249 240 
3 216 194 227 
3 251 238 252 
3 227 194 202 
3 239 226 241 
3 240 249 253 
3 226 240 241 
3 240 253 241 
3 252 238 254 
3 230 140 204 
3 253 195 241 
3 227 202 232 
3 227 232 238 
3 254 238 232 
3 255 254 231 
3 254 232 231 
3 255 231 256 
3 195 253 196 
3 256 231 197 
3 253 257 196 
3 150 196 244 
3 242 154 155 
3 242 155 258 
3 259 155 158 
3 167 223 169 
3 163 260 234 
3 188 189 135 
3 191 261 172 
3 171 234 174 
3 262 170 179 
3 263 87 67 
3 129 264 127 
3 265 129 125 
3 126 266 125 
3 267 193 128 
3 268 126 245 
3 246 268 245 
3 269 248 247 
3 270 249 248 
3 249 257 253 
3 271 255 256 
3 256 197 233 
3 156 206 272 
3 261 210 172 
3 273 68 102 
3 152 274 159 
3 275 175 176 
3 180 224 187 
3 265 125 266 
3 276 196 257 
3 276 244 196 
3 258 155 259 
3 263 200 87 
3 210 101 186 
3 102 235 273 
3 269 277 248 
3 252 254 278 
3 279 170 262 
3 200 262 179 
3 278 255 271 
3 147 207 280 
3 156 272 208 
3 279 199 170 
3 234 224 174 
3 275 176 182 
3 224 281 187 
3 249 282 257 
3 271 256 233 
3 223 261 191 
3 265 264 129 
3 278 254 255 
3 242 258 283 
3 234 284 224 
3 126 285 266 
3 286 270 248 
3 277 286 248 
3 224 284 281 
3 269 247 193 
3 287 268 246 
3 287 246 250 
3 189 203 134 
3 280 233 147 
3 206 288 272 
3 161 208 289 
3 259 158 199 
3 159 274 190 
3 234 260 284 
3 275 182 290 
3 250 251 291 
3 249 292 282 
3 137 230 188 
3 282 293 257 
3 257 293 276 
3 280 207 294 
3 244 295 152 
3 284 296 281 
3 210 297 101 
3 298 128 201 
3 291 287 250 
3 270 286 249 
3 299 252 278 
3 300 278 271 
3 206 144 288 
3 198 301 223 
3 275 168 175 
3 290 182 211 
3 235 187 281 
3 285 265 266 
3 291 251 302 
3 294 207 242 
3 302 251 252 
3 205 151 160 
3 223 301 261 
3 284 303 296 
3 296 304 281 
3 298 267 128 
3 305 189 188 
3 271 233 306 
3 290 211 307 
3 308 68 273 
3 294 242 309 
3 163 243 260 
3 310 209 168 
3 310 168 275 
3 311 184 192 
3 269 193 267 
3 291 312 287 
3 249 286 292 
3 313 271 306 
3 306 233 280 
3 262 199 279 
3 304 235 281 
3 302 252 299 
3 203 314 144 
3 295 276 293 
3 314 288 144 
3 283 258 259 
3 101 297 124 
3 205 160 209 
3 307 211 315 
3 315 211 184 
3 298 316 267 
3 312 291 302 
3 230 204 317 
3 299 278 318 
3 318 278 300 
3 313 300 271 
3 272 319 208 
3 301 210 261 
3 243 320 260 
3 260 320 284 
3 297 321 124 
3 263 67 322 
3 268 285 126 
3 276 295 244 
3 306 280 294 
3 288 323 272 
3 152 295 274 
3 199 262 324 
3 303 325 296 
3 208 319 326 
3 208 326 289 
3 327 265 285 
3 269 267 328 
3 285 268 329 
3 269 328 277 
3 268 287 330 
3 286 277 331 
3 277 328 331 
3 328 267 332 
3 287 312 330 
3 333 331 328 
3 268 334 329 
3 268 330 334 
3 286 331 292 
3 328 332 335 
3 336 312 337 
3 328 335 338 
3 312 302 337 
3 292 331 282 
3 334 330 339 
3 282 331 340 
3 339 337 334 
3 230 341 188 
3 282 340 342 
3 340 338 342 
3 338 343 342 
3 337 302 299 
3 334 344 345 
3 334 337 344 
3 338 335 343 
3 337 299 344 
3 344 318 346 
3 344 299 318 
3 346 318 300 
3 347 346 300 
3 347 300 313 
3 282 342 293 
3 306 294 348 
3 68 349 192 
3 345 329 334 
3 272 323 319 
3 350 242 283 
3 161 289 212 
3 320 351 284 
3 275 290 352 
3 353 267 316 
3 329 354 285 
3 355 332 267 
3 356 331 333 
3 355 335 332 
3 339 330 357 
3 343 335 355 
3 343 358 342 
3 313 359 347 
3 358 293 342 
3 306 359 313 
3 198 212 301 
3 351 303 284 
3 352 290 307 
3 360 356 333 
3 340 331 361 
3 339 362 337 
3 346 363 344 
3 347 364 346 
3 283 259 365 
3 366 298 201 
3 127 264 201 
3 312 367 330 
3 333 328 368 
3 331 356 361 
3 368 328 338 
3 361 338 340 
3 357 362 339 
3 344 363 345 
3 301 212 369 
3 370 275 352 
3 325 304 296 
3 235 371 273 
3 273 371 308 
3 124 322 67 
3 267 353 355 
3 367 372 330 
3 330 372 357 
3 361 368 338 
3 341 305 188 
3 350 283 365 
3 365 259 373 
3 259 199 373 
3 324 262 200 
3 312 336 367 
3 372 367 362 
3 360 333 368 
3 367 336 362 
3 372 362 357 
3 356 360 361 
3 361 360 368 
3 362 336 337 
3 306 348 359 
3 288 374 323 
3 310 275 370 
3 351 325 303 
3 375 352 307 
3 304 371 235 
3 264 366 201 
3 264 265 327 
3 364 363 346 
3 293 358 295 
3 314 376 288 
3 204 143 205 
3 348 294 309 
3 309 242 350 
3 301 369 210 
3 315 184 311 
3 285 354 327 
3 345 354 329 
3 343 355 358 
3 359 364 347 
3 190 274 243 
3 373 199 324 
3 307 315 377 
3 366 378 298 
3 317 341 230 
3 375 307 377 
3 349 311 192 
3 264 327 379 
3 316 298 380 
3 366 264 381 
3 264 379 382 
3 298 378 380 
3 316 380 353 
3 380 378 383 
3 378 366 383 
3 327 354 384 
3 264 382 381 
3 380 383 385 
3 366 381 383 
3 379 327 384 
3 355 353 380 
3 384 354 386 
3 355 380 387 
3 388 389 390 
3 389 391 392 
3 391 393 392 
3 394 395 393 
3 389 392 305 
3 392 189 305 
3 393 395 189 
3 189 392 393 
3 390 389 305 
3 390 305 341 
3 189 395 203 
3 390 341 317 
3 355 387 396 
3 386 354 397 
3 354 345 363 
3 354 363 397 
3 355 396 358 
3 398 390 317 
3 395 399 203 
3 397 363 400 
3 363 364 400 
3 317 204 398 
3 364 359 400 
3 400 359 401 
3 402 398 204 
3 399 403 203 
3 358 396 404 
3 402 204 405 
3 203 403 314 
3 401 359 406 
3 358 404 295 
3 204 205 405 
3 295 404 407 
3 376 314 408 
3 314 403 408 
3 359 348 406 
3 409 405 205 
3 406 348 410 
3 406 410 411 
3 376 408 288 
3 408 374 288 
3 348 309 410 
3 410 309 411 
3 323 374 412 
3 295 407 274 
3 374 413 412 
3 323 412 319 
3 414 411 309 
3 274 407 415 
3 319 412 326 
3 409 205 416 
3 415 407 417 
3 326 418 289 
3 326 412 418 
3 309 350 414 
3 350 365 414 
3 415 417 274 
3 416 205 209 
3 414 365 419 
3 365 373 419 
3 419 373 420 
3 417 421 274 
3 421 417 422 
3 274 421 243 
3 289 418 212 
3 423 419 420 
3 418 424 212 
3 416 209 425 
3 212 424 426 
3 421 422 427 
3 243 421 427 
3 425 209 310 
3 425 310 428 
3 373 324 420 
3 426 369 212 
3 426 429 369 
3 369 429 430 
3 427 320 243 
3 427 431 320 
3 369 432 210 
3 369 430 432 
3 428 310 370 
3 320 431 433 
3 428 370 352 
3 420 324 434 
3 320 433 351 
3 435 436 352 
3 351 433 325 
3 435 352 375 
3 437 435 375 
3 437 375 377 
3 325 433 371 
3 325 371 304 
3 377 315 311 
3 432 297 210 
3 324 200 263 
3 434 324 263 
3 297 432 321 
3 349 437 377 
3 377 311 349 
3 386 438 384 
3 439 387 380 
3 394 440 395 
3 399 441 403 
3 401 442 400 
3 406 442 401 
3 408 403 374 
3 442 406 411 
3 409 443 405 
3 424 429 426 
3 428 352 436 
3 444 381 382 
3 445 444 382 
3 445 382 379 
3 438 379 384 
3 390 446 388 
3 389 388 391 
3 391 440 393 
3 440 394 393 
3 386 447 438 
3 397 447 386 
3 396 387 439 
3 448 396 439 
3 398 449 390 
3 396 448 404 
3 402 449 398 
3 405 450 402 
3 403 451 374 
3 452 411 414 
3 418 412 453 
3 454 414 419 
3 417 455 422 
3 409 416 456 
3 418 453 424 
3 456 416 425 
3 457 423 420 
3 420 434 457 
3 431 458 433 
3 432 459 321 
3 437 349 460 
3 322 434 263 
3 308 349 68 
3 461 322 321 
3 439 380 385 
3 443 462 450 
3 443 450 405 
3 442 411 463 
3 374 464 413 
3 407 455 417 
3 452 414 454 
3 454 419 465 
3 430 466 432 
3 457 434 467 
3 450 449 402 
3 400 442 468 
3 413 464 469 
3 443 409 470 
3 470 409 456 
3 412 413 469 
3 469 471 412 
3 412 471 453 
3 455 472 422 
3 424 473 429 
3 429 474 430 
3 432 466 459 
3 435 437 475 
3 475 437 460 
3 460 349 476 
3 322 124 321 
3 441 477 403 
3 470 462 443 
3 427 478 431 
3 431 478 479 
3 480 425 428 
3 481 458 431 
3 433 308 371 
3 381 444 383 
3 482 385 383 
3 482 439 385 
3 390 483 446 
3 390 449 483 
3 484 485 400 
3 403 477 451 
3 463 411 486 
3 422 472 427 
3 472 478 427 
3 474 466 430 
3 482 383 444 
3 400 447 397 
3 400 485 447 
3 400 468 484 
3 442 487 488 
3 374 489 464 
3 487 442 463 
3 407 490 455 
3 465 419 423 
3 429 473 474 
3 456 425 491 
3 491 425 480 
3 479 481 431 
3 467 434 322 
3 458 308 433 
3 308 476 349 
3 438 445 379 
3 388 440 391 
3 395 440 399 
3 449 492 483 
3 399 440 441 
3 493 404 448 
3 374 451 489 
3 488 468 442 
3 493 407 404 
3 407 493 490 
3 486 411 452 
3 490 494 455 
3 424 453 473 
3 449 450 492 
3 495 462 470 
3 459 461 321 
3 445 438 440 
3 444 445 388 
3 444 388 482 
3 446 482 388 
3 445 440 388 
3 439 482 496 
3 482 446 496 
3 496 446 483 
3 439 496 448 
3 496 483 492 
3 448 496 492 
3 438 447 440 
3 441 440 447 
3 448 492 450 
3 447 485 441 
3 485 477 441 
3 477 485 484 
3 477 484 451 
3 484 468 488 
3 448 450 493 
3 450 462 493 
3 484 488 451 
3 489 451 488 
3 489 488 464 
3 488 487 464 
3 493 462 495 
3 487 463 497 
3 464 487 469 
3 487 497 469 
3 463 486 498 
3 495 470 494 
3 490 493 495 
3 470 456 494 
3 497 463 498 
3 495 494 490 
3 498 486 452 
3 469 497 471 
3 497 498 471 
3 498 454 471 
3 498 452 454 
3 453 471 465 
3 471 454 465 
3 455 494 472 
3 473 465 423 
3 465 473 453 
3 494 456 472 
3 423 457 473 
3 472 456 478 
3 478 456 479 
3 474 473 457 
3 456 491 479 
3 474 457 466 
3 479 491 480 
3 479 480 499 
3 480 428 436 
3 480 436 499 
3 466 457 459 
3 479 499 481 
3 436 435 499 
3 481 499 500 
3 499 435 500 
3 481 500 458 
3 459 457 467 
3 500 435 475 
3 322 459 467 
3 458 500 475 
3 460 476 475 
3 458 475 308 
3 459 322 461 
3 475 476 308 
