ply
format ascii 1.0
comment VCGLIB generated
element vertex 300
property float x
property float y
property float z
property float nx
property float ny
property float nz
element face 596
property list uchar int vertex_indices
end_header
1.050755 4.958158 0.2645435 1.223738 2.35957 3.095912 
-0.009872437 4.956048 0.2615185 -1.792025 1.657371 2.201183 
0.06645203 4.481718 0.2645168 -0.816779 -1.75931 5.206659 
1.524773 4.955485 0.2387104 0.09257241 3.192136 4.06928 
1.149483 4.979746 0.2639027 -1.487045 1.728045 2.204862 
1.166714 4.517486 0.2489567 -1.17271 -1.422431 5.381067 
2.210548 4.942189 0.2646809 1.765538 1.57069 2.124233 
1.001884 4.527234 0.2627659 1.243262 -1.598812 5.121161 
2.192993 4.468945 0.2646923 1.936266 -1.562638 2.280641 
1.041843 3.871583 0.2644901 0.9399928 2.333277 2.635648 
0.1249161 3.836147 0.2651768 -0.6016161 2.849027 3.90732 
0.7362404 3.385786 0.2651157 0.3029227 -2.986149 3.840368 
3.93132 3.858669 0.1961918 0.828993 -0.07858351 5.192984 
3.947166 3.397775 0.2648144 -1.751816 -1.668212 2.331292 
4.254208 3.859864 0.2661915 -0.2010711 3.058491 3.040823 
5.028843 3.837965 0.2646465 1.819895 1.550625 1.925626 
5.014751 3.363143 0.2656345 1.901959 -1.602347 2.11742 
3.882679 3.848156 0.2637157 1.585867 2.157382 3.209635 
3.900982 3.374138 0.2656498 1.441251 -1.957716 1.991302 
3.054337 3.872417 0.2642612 -2.032283 1.492736 2.314884 
3.05069 3.457905 0.2641201 -2.543905 -0.9465566 2.757574 
-0.01113892 3.829986 0.2286854 -2.474845 1.985093 2.172331 
-0.007389069 3.35647 0.2643566 -1.815202 -1.607805 2.10758 
1.066883 3.384057 0.2020817 0.01045483 0.1970249 6.043525 
3.052086 3.384258 0.2030125 0.3094644 -0.6931087 5.399028 
5.028961 2.749892 0.2648029 2.567605 1.182354 2.536062 
4.573931 2.742073 0.2664318 -0.3955452 1.856972 5.560133 
4.880428 2.275673 0.2622242 0.3627485 -2.808445 4.27212 
4.211123 2.355871 0.2454243 -1.396194 -1.825203 5.016652 
5.026333 2.292466 0.2346325 2.828478 -1.60144 2.613209 
4.964001 1.659638 0.2188435 3.312533 0.4765841 4.824011 
4.836039 1.645407 0.2613087 0.5109648 2.531563 4.657377 
5.026501 1.170263 0.2637424 1.710045 -1.488196 1.834818 
1.688223 4.42183 0.196413 -0.4821043 0.06877357 4.122259 
4.297909 3.941058 0.2381916 -0.005178126 -1.407191 5.976402 
3.410786 4.423699 0.2715816 -1.579924 1.856297 2.639503 
3.438683 3.978666 0.263586 -1.266542 -1.77024 4.931894 
3.349125 3.925732 0.1967449 0.4433523 0.7293291 4.535645 
3.051262 3.897502 0.1961155 -0.7299656 0.1796102 4.234539 
-0.0008888245 2.765691 0.2682934 -2.709155 -0.4203387 4.200731 
0.004062653 2.334888 0.2477665 -2.651039 -0.9298657 3.407514 
0.9316578 2.731189 0.2454166 1.485708 1.819287 4.139776 
4.072853 2.764746 0.2023182 -0.05601692 -0.2922156 6.107114 
3.82391 2.816856 0.2440815 -0.8340879 1.298823 1.399761 
3.82915 2.345439 0.2399998 -2.553292 -0.5377778 2.802194 
4.161753 2.341521 0.2144146 -0.7756856 -1.094675 6.001669 
4.185169 1.581559 0.2468815 -2.606606 0.7307093 3.448176 
1.126049 0.5002307 0.2480106 3.107116 -0.05899243 3.443401 
1.009972 0.09704387 0.2722645 -1.897355 -0.7585256 2.35885 
1.150173 0.01852322 0.2411594 1.239792 -1.548171 1.404749 
5.038662 4.942109 0.247015 1.854073 1.565375 2.156005 
3.971127 4.982831 0.2474537 -0.5631524 2.957905 2.72674 
4.57914 4.484753 0.2472668 -0.1703523 -2.9561 4.180559 
3.424229 4.481668 0.2401524 -0.1165187 -2.501692 5.063987 
3.907207 4.957776 0.2476025 -0.4392515 2.909461 3.589684 
2.992504 4.957776 0.2476025 -0.09328136 2.824558 3.794379 
3.087242 4.542948 0.2247219 -0.7970903 -1.511052 5.856278 
3.89592 4.494502 0.2294674 0.1084516 -2.596538 5.122901 
5.021282 4.469196 0.2474537 1.873478 -1.574317 1.870296 
2.275238 4.952982 0.2418995 -1.183376 2.427726 2.944439 
3.018314 4.506421 0.2006283 -0.3182838 -0.8057451 6.186303 
2.266865 4.482693 0.2477245 -1.110951 -1.760436 4.662819 
4.267834 4.483899 0.1957455 -0.1071716 -1.970801 3.260648 
3.387806 4.444422 0.1964893 -0.6536612 -0.05188025 4.258647 
2.471546 4.435066 0.1962032 -0.0176101 0.305865 4.489044 
4.237267 4.399479 0.2407131 1.851694 1.180673 5.017375 
1.084589 4.444422 0.1950932 0.1091452 1.65339 4.211229 
0.5776043 4.430935 0.2477245 -1.906809 1.501095 2.632539 
1.643173 4.405549 0.2477245 1.418425 2.056557 3.539486 
0.4889107 4.414855 0.2474728 0.8821568 1.877005 4.627482 
-0.01633835 4.417127 0.2138805 -3.707926 -0.4348415 3.350338 
0.4436359 3.9454 0.2386913 0.9774399 -2.417259 4.404101 
1.281431 3.939712 0.247385 0.2217003 -1.982724 5.528242 
1.688164 3.925873 0.1965809 -0.9290397 0.1870886 4.917607 
4.950233 4.412765 0.246664 1.950961 1.562544 2.213923 
4.349712 4.41578 0.2465458 -1.05597 1.473135 5.347307 
4.949741 3.939712 0.2477245 2.578264 -1.008167 2.818658 
2.430237 4.412916 0.2468052 1.551033 1.804086 3.652449 
1.703152 4.412916 0.2468052 -1.719027 1.78578 2.452218 
2.112278 3.935702 0.2322102 0.05200142 -2.652999 4.931995 
3.345432 4.41374 0.2455692 1.590127 1.745153 3.9679 
2.484703 4.413318 0.2477894 -1.839435 1.745793 2.91645 
2.760174 3.97563 0.2402401 -0.184676 -1.737333 5.763901 
3.304871 3.938737 0.2480335 1.414733 -2.197104 3.579389 
1.70393 3.939742 0.2477245 -1.680739 -1.753907 2.59294 
2.427639 3.933611 0.2045231 -0.2144396 0.8947527 5.936585 
-0.02559662 3.981108 0.217474 -2.498838 -1.346727 2.527353 
0.5527 3.949862 0.1934528 0.4984848 -0.5718368 6.098571 
4.91713 3.856829 0.2028103 1.933297 2.812494 2.71659 
1.384314 3.85691 0.2474003 -0.3004943 2.342378 5.083122 
1.126999 3.868598 0.2025394 0.3246332 -0.3916887 5.676979 
1.134336 3.53533 0.2477245 -1.87964 -0.1907235 5.350609 
1.674772 3.392519 0.2290211 -0.05296352 -2.941894 4.852193 
1.715408 3.475075 0.2414646 -0.1692394 -0.4891241 6.235306 
3.000618 3.843332 0.2525997 1.729669 1.365637 4.547198 
2.457771 3.871131 0.240057 -0.448833 1.504499 5.79884 
2.98724 3.367274 0.2481823 0.6412875 -2.23961 1.607965 
5.033443 3.321064 -0.1259594 2.767681 -1.741074 -1.632955 
2.255104 3.412227 0.2341175 -0.03576349 0.428619 6.259501 
3.220314 3.327767 0.1883564 0.03592409 0.8292305 4.98504 
1.640999 3.367565 0.1929073 -0.4452338 -1.674116 4.75324 
1.225075 3.27607 0.2417583 0.09183683 1.208056 6.041471 
1.553755 2.921204 0.2467518 1.489546 -0.9935181 5.339035 
0.5089722 3.317717 0.1966343 1.134099 -0.3025582 4.816586 
0.5656624 2.798323 0.2477245 -1.624755 -1.913383 2.898988 
4.355682 3.291386 0.2443066 -1.332677 1.972931 3.507539 
4.950207 2.821428 0.247076 2.544779 1.933563 4.053455 
4.949871 3.293597 0.2477245 1.797527 1.588175 2.099062 
4.288239 3.301416 0.2476826 1.876572 1.992589 2.75838 
3.410059 3.268975 0.2475071 -0.1495132 1.792229 5.625065 
4.325684 2.82583 0.2476749 1.598622 -1.723495 4.137028 
1.700998 3.293929 0.2476292 -1.629738 1.20158 5.216728 
1.619034 2.910852 0.2466259 -2.400353 -0.4904925 2.319057 
2.443806 3.293959 0.2476635 0.1589132 0.4778256 6.22422 
-0.0762291 3.293587 0.2477245 -2.056299 1.496525 2.248171 
0.4987106 2.821448 0.2470722 1.896722 -1.556422 4.237326 
0.5050812 3.293587 0.2477245 2.026238 1.446324 2.41139 
4.374531 2.798715 0.1962261 0.5199217 1.181263 5.064992 
2.552544 2.893315 0.2335606 -0.01531483 0.7375427 6.167624 
3.566235 2.882924 0.2477245 -1.789534 -1.766879 2.220822 
0.5415649 2.78763 0.1960545 -0.283674 0.5866026 3.791059 
-0.0573616 2.273271 -0.1037579 -4.794345 1.013446 -2.360103 
0.9063129 2.262196 0.2296429 1.636923 -1.960132 3.90326 
1.175962 2.281291 0.2478504 1.889836 -0.9690088 1.95293 
1.18674 2.82871 0.2450809 1.011799 0.5236694 -0.59151 
0.9280472 2.239352 0.1961498 0.303648 0.4110149 5.435105 
4.992706 2.198077 0.2422314 1.836378 1.709252 2.39073 
4.45541 2.238287 0.1941891 0.166027 -0.5364825 5.43565 
4.438114 2.020433 0.2448444 -2.951275 0.3560138 3.09621 
0.4134521 2.164068 0.2369785 1.326594 1.127734 5.451614 
-0.07309341 2.178881 0.2375317 -1.97294 1.488222 2.18318 
0.06108665 1.712782 0.2451687 -0.5337825 -2.688069 3.8461 
4.791 1.730802 0.2471981 -0.1187317 -1.636811 5.715281 
0.4336262 1.730711 0.2477245 1.216686 -1.258221 5.1847 
3.832924 2.126408 0.194521 -3.217056 -0.06715093 2.637568 
3.854897 1.71025 0.2472706 -1.889543 -0.8224695 2.769232 
4.175045 1.661819 0.1935482 0.341445 1.544382 5.648523 
0.9359322 1.63997 0.2503147 0.883238 2.370542 3.812448 
-0.006288528 1.699948 0.2106304 -3.801729 -0.9848765 3.594176 
0.8731689 1.214011 0.246172 0.5722157 -1.50573 5.694729 
1.150181 1.651246 0.1962261 4.438039 0.01874799 2.748 
1.017258 1.640422 0.2476521 -1.68793 1.029341 2.171079 
1.148594 1.213564 0.2434826 2.114997 -0.6254032 2.818595 
4.125134 1.642503 0.242857 1.276131 2.189402 3.714281 
3.854904 1.63995 0.2477245 -1.864979 1.428431 2.095477 
3.855553 1.197448 0.2387104 -2.544746 -1.006889 2.790057 
-0.02441025 1.168836 0.2492962 -2.800388 0.4331321 3.227533 
5.0522 1.687135 0.07217598 5.832549 0.4270778 0.9365761 
4.094938 1.169741 0.2470303 0.5496582 -2.434474 3.862021 
4.179096 1.142123 0.1965885 0.4348864 1.079286 5.469884 
0.4884911 1.090617 0.1927395 0.1724393 -0.9882662 5.874366 
-0.0593605 1.070085 0.2476444 -2.830251 0.5313203 2.634809 
0.4177952 0.7654291 0.2409763 2.042045 -0.4204782 5.329849 
0.5119839 0.5944687 0.247385 -1.426771 -0.8506035 5.194446 
1.149426 0.9282935 0.2471714 2.869979 0.3538108 3.041284 
4.994743 1.063944 0.2421093 2.577173 1.307949 2.68726 
4.40984 1.06312 0.2477245 -0.0238895 1.599232 5.844077 
4.991455 0.5956143 0.2477245 2.743201 0.3076709 4.357958 
4.446253 0.5949812 0.2477245 -0.2223741 -0.142852 6.266516 
-0.05742264 0.592941 0.242506 -2.872263 -0.4724976 2.456717 
0.4758434 0.7077522 0.1831074 -0.9877952 -0.1909748 4.141824 
0.3836212 0.5351334 0.1902561 -0.06081649 1.76529 4.878462 
3.858299 1.088275 0.2474689 -1.737775 1.524656 1.625146 
3.856087 0.5418334 0.2298679 -3.114735 -0.09400227 3.049501 
4.42474 0.5128727 0.2472172 -0.5807566 0.2049749 6.220278 
5.028866 0.04104527 0.2477245 1.716458 -1.621661 1.906058 
5.029423 0.5175359 0.2397289 3.175695 0.5429264 3.195505 
-0.02388191 0.4878281 0.2476978 -2.810231 -0.1372179 3.2636 
0.9442883 0.05471327 0.2474613 1.273156 -2.615962 3.251478 
4.162537 0.5039282 0.1926517 -0.1010256 -1.123064 5.583551 
4.14196 0.03251282 0.2475948 -0.1404013 -2.952949 3.539002 
3.86372 0.05386906 0.2475414 -1.864509 -1.478929 2.000623 
-0.01730728 -1.903027e-05 0.1856747 -2.128073 -2.131276 1.667452 
0.1761169 0.02237237 0.2470913 -0.2594998 -2.914634 3.812483 
2.21888 4.941777 0.1950626 3.097347 2.309437 1.897742 
2.279095 3.904778 0.1963444 -0.1168348 -1.293748 5.624046 
3.425533 2.959264 0.2390804 0.5309935 -0.9504713 6.02912 
3.577271 2.869738 0.202364 -1.108848 -0.1488745 3.406505 
1.612831 2.850111 0.2001476 -0.1202551 1.625179 3.746122 
2.54319 2.847234 0.2469864 -0.09880014 -2.193669 3.11471 
0.02326584 2.209333 0.1938496 -2.034111 2.733893 3.8765 
1.150101 2.224518 0.1977406 5.188401 0.05603957 1.341653 
5.009327 2.225202 0.1319904 5.369208 -1.168634 1.721663 
0.4711132 2.260246 0.190958 -0.02562317 -1.637373 4.938776 
0.5072556 2.07618 0.2403202 -2.131476 0.5155309 5.119022 
1.150101 2.217293 0.2343159 1.812956 1.476101 1.933648 
4.403893 2.190931 0.2548389 1.291555 1.374442 4.012837 
4.414452 1.717335 0.19557 -0.5566465 0.6133138 6.027956 
0.4958076 1.707577 0.2409306 -2.203658 -1.019291 1.852466 
1.150116 1.716802 0.202116 3.495482 0.01453718 2.999957 
0.5145302 1.658171 0.1954899 -0.03416311 1.308825 1.79964 
1.019936 1.164706 0.2026501 -0.01070092 -0.3292531 6.109945 
1.148041 1.104597 0.1885586 4.281301 0.10673 2.730931 
1.12442 5.026598 0.0489254 -2.758531 2.768771 0.3763592 
1.133934 4.927747 0.2030964 -2.353634 2.019469 2.58696 
2.194904 4.444523 0.1961155 0.606498 0.5750862 3.530122 
-0.01654816 3.33848 0.1701336 -4.055331 2.514735 1.741934 
3.931499 3.384901 0.1962261 0.2239821 -0.9981164 3.783581 
3.152527 3.27086 0.2434254 0.2661513 1.634996 5.78653 
0.9896317 2.757279 0.1938992 0.4472136 -0.6018153 5.527703 
3.854805 1.658291 0.1956654 -5.140812 0.3256004 1.615812 
1.019533 1.657578 0.1952 -1.010478 1.33752 4.356562 
3.863991 0.01315652 0.06403923 -3.076162 -3.116171 0.3706822 
4.186371 -0.002089334 0.06409645 -1.386416 -5.810404 0.4563121 
0.2069893 3.865171 0.1934948 -0.801307 1.9944 3.893618 
4.132204 2.210036 0.2018337 -0.4557412 1.149437 5.929975 
0.570013 4.455266 0.1965351 -0.3822213 -0.6724051 4.103612 
-0.0981884 2.776515 0.06402779 -3.339828 -2.733125 0.5202829 
1.150173 -0.03242023 0.04920769 2.111538 -2.818561 0.6025204 
2.229633 4.983544 0.08014107 2.98458 3.638818 0.9080244 
4.956478 4.434644 0.164011 3.97488 -2.684722 1.442181 
4.964268 3.894346 -0.1146259 4.791523 1.708559 -2.096555 
4.305126 3.307547 0.1952686 0.5988181 1.021909 4.574527 
4.95837 3.321697 0.1332493 3.936437 -2.947374 1.240085 
3.855106 2.222609 0.1909924 1.787006 -0.7983235 5.261307 
3.855835 1.13954 0.192625 -3.902336 -0.967728 2.689237 
4.91708 1.15554 0.2022648 1.382557 -2.407157 2.95831 
0.9952297 0.07719512 0.2017803 0.5518005 -4.461469 3.03204 
-0.05396652 3.896979 -0.1133404 -4.598464 -0.1038272 -2.116972 
2.969791 3.278985 0.2363071 -0.03145743 0.9836581 6.156574 
5.015148 1.126887 -0.03695869 5.027255 -1.971287 2.550813 
3.858929 1.084868 0.1962261 -5.005112 1.56687 1.287037 
0.9655819 0.01340776 0.07153893 -0.3219088 -6.080219 1.044841 
-0.1172523 2.220509 -0.1133518 -1.994968 1.094619 -1.630616 
-0.09304047 1.662583 -0.1135082 -0.9135035 -1.346687 -0.8825794 
5.05014 0.5575349 0.06405449 6.18692 0.3817568 0.544403 
5.060246 4.984791 0.06408882 2.925505 2.814941 0.3953927 
3.00639 4.998308 0.07223701 2.711895 2.325073 0.2381445 
1.124737 5.026558 -0.1259594 -0.01631394 3.25351 -2.806323 
-0.09688759 2.777228 -0.1145802 -4.193411 -0.4138083 -2.466712 
5.048401 2.789992 -0.1259594 1.828625 1.654553 -1.619375 
3.95142 4.973726 -0.1137524 -0.1180913 6.270468 -0.2047076 
2.240326 4.945796 0.05485725 0.5492249 2.459125 0.7403423 
5.05014 2.232096 -0.1212406 3.705625 -0.3183515 -2.637762 
-0.01014709 1.108074 -0.1207829 -2.56466 1.576328 -4.549911 
4.965874 1.126536 -0.006181717 1.675715 -0.3068165 1.008615 
-0.03592682 4.999403 0.07306862 -2.932063 2.897885 0.4705647 
-0.007526398 0.5474246 -0.1128483 -6.113154 0.04390164 0.578982 
3.032097 4.998891 0.06405449 -1.88253 5.273656 0.1724969 
-0.05396652 4.455086 -0.113142 -3.442998 0.1222418 -2.718095 
4.966286 4.431217 -0.1144123 6.016403 -0.4416772 -1.4199 
5.049416 0.5570123 -0.1139202 4.242568 0.1202664 -2.847343 
5.048538 -0.002089334 -0.1131229 1.88673 -1.884587 -1.281724 
-0.09500885 3.33632 -0.1136761 -3.372638 1.532529 -1.722301 
-0.01921463 1.696431 -0.1152859 -3.698194 -1.474662 -3.479571 
5.0084 1.110566 -0.03658485 5.200467 0.2476212 2.912558 
-0.07736206 1.110838 -0.1135349 -1.506475 1.412463 -1.169906 
0.6044216 -0.001616986 -0.1129742 0.1067529 -3.288538 -2.994468 
5.050282 3.880216 -0.1211529 1.652627 1.480528 -1.454002 
4.172655 -0.002089334 -0.1131229 -0.04428918 -4.195721 -2.811713 
-0.0288868 -0.02789773 -0.1131039 -1.417132 -1.58867 -1.368747 
2.252953 4.998891 -0.1137791 0.001125738 3.238389 -2.818709 
1.150171 -0.04128433 -0.1447086 0.9117824 -1.362738 -1.21761 
3.004086 4.970681 -0.1514912 -0.03018521 3.089234 -3.54881 
5.059883 1.684833 -0.1274014 1.390079 1.174653 -1.560711 
-0.03417206 4.998178 -0.1259594 -1.673621 1.57885 -1.589014 
5.061043 1.126887 -0.1264057 3.254535 0.02212036 -1.589124 
3.864292 -0.002089334 -0.113348 -1.872109 -2.06315 -1.288617 
5.060215 4.984288 -0.1131115 1.984767 1.660402 -1.412302 
5.001579 1.694883 -0.1135578 1.782111 1.664432 -4.827421 
-0.03268051 0.06227087 -0.1134548 -3.195827 -0.1372891 -2.962197 
0.01738739 3.431513 -0.1544094 -2.72784 0.6091923 -4.218602 
4.690748 -0.001878282 -0.1128139 -0.004277998 -3.934403 -3.048997 
3.759739 4.970781 -0.1514416 0.04560696 3.160648 -3.125031 
4.950562 2.797449 -0.1204815 4.489014 1.832741 -2.068734 
4.952263 3.284241 -0.1515636 2.527761 -1.117015 -4.143359 
-0.01031494 2.844352 -0.1515789 -1.36495 -0.08630385 -6.018457 
0.9653549 0.02971892 -0.1129742 -0.7958444 -3.363959 -3.81808 
4.952206 4.97054 -0.1509647 0.6267346 2.525831 -4.101871 
0.002714157 2.180811 -0.1544094 -2.105278 -0.06965253 -5.468598 
4.942585 2.604077 -0.1544094 0.8045087 -0.02187628 -6.153699 
4.952106 0.9493642 -0.1513348 0.8287664 -0.03775324 -6.168655 
3.868988 0.09777384 -0.1544094 -2.707747 -0.5821717 -3.122836 
4.459999 0.04436579 -0.1246395 0.0333636 -0.9795219 -6.178406 
4.952255 0.04507532 -0.1514721 0.5545869 -1.720607 -5.293366 
4.532848 4.970841 -0.1516132 -0.01771296 3.085551 -3.818001 
-0.01024437 0.7277015 -0.1515942 -3.095329 -0.06381988 -2.976785 
0.5217323 4.961907 -0.1543026 -0.09189856 1.492843 -5.86935 
4.952095 4.066482 -0.1513348 2.987973 -0.007648011 -4.175622 
0.00270462 3.181509 -0.1544094 -1.127395 0.05988383 -6.073305 
-0.01031494 3.075241 -0.1515789 -1.951055 0.008840488 -5.937124 
0.003078461 1.372409 -0.1544094 -2.071619 -0.3859093 -4.382199 
2.525385 2.835649 -0.1572285 -0.02157208 -3.111551 -3.078251 
3.90551 4.480662 -0.1544094 -0.00139957 0.009601822 -6.283131 
1.169428 2.828796 -0.1544094 1.582904 -1.590251 -4.739306 
4.410271 4.653885 -0.1544094 -0.00118796 0.02841352 -6.283055 
4.593449 4.643412 -0.1544094 0.09293468 0.04690962 -6.281228 
4.516491 4.596087 -0.1544094 0 0 -6.283186 
4.506516 4.586177 -0.1544094 0 0 -6.283185 
4.516415 4.585655 -0.1544094 0 0 -6.283185 
4.486618 4.53842 -0.1544094 0.0085881 -0.007287616 -6.283162 
3.296741 3.12328 -0.1509037 0.02376703 0.02159357 -6.282484 
0.002714157 2.950581 -0.1544094 -0.6643624 -0.01602317 -6.211427 
3.854889 2.832928 -0.1544094 -1.516091 -1.514927 -4.878797 
0.4849262 2.227694 -0.1543827 0.005054766 -0.01247913 -6.283097 
0.7992401 1.672743 -0.151392 -0.01265472 0.008148057 -6.282983 
1.137632 1.869301 -0.1526165 3.133059 -0.02192871 -3.261679 
1.141359 1.034108 -0.1538525 3.132863 0.02068986 -3.212306 
3.862503 1.097627 -0.1544094 -3.132246 -0.01501678 -3.193573 
1.150146 0.3245558 -0.1544094 2.951468 -0.1501924 -3.009253 
3 0 1 2 
3 3 4 5 
3 3 5 6 
3 0 2 7 
3 6 5 8 
3 9 10 11 
3 12 13 14 
3 15 14 16 
3 12 17 18 
3 17 19 20 
3 14 13 16 
3 21 22 10 
3 17 20 18 
3 9 11 23 
3 18 20 24 
3 10 22 11 
3 25 26 27 
3 27 26 28 
3 25 27 29 
3 30 31 32 
3 33 8 5 
3 34 35 36 
3 34 36 12 
3 37 19 17 
3 19 38 20 
3 39 40 41 
3 26 42 28 
3 43 44 45 
3 31 46 32 
3 47 48 49 
3 50 51 52 
3 53 54 55 
3 55 56 53 
3 51 57 52 
3 50 52 58 
3 54 53 57 
3 59 60 55 
3 60 59 61 
3 52 57 62 
3 53 63 57 
3 64 60 61 
3 63 35 65 
3 66 67 68 
3 69 70 71 
3 68 67 72 
3 73 68 72 
3 74 75 76 
3 65 35 34 
3 77 78 79 
3 80 81 82 
3 80 82 83 
3 78 84 79 
3 77 79 85 
3 76 75 34 
3 81 85 82 
3 71 70 86 
3 72 67 87 
3 88 14 15 
3 89 90 91 
3 89 91 92 
3 93 89 92 
3 94 95 96 
3 15 16 97 
3 98 93 92 
3 91 23 92 
3 18 24 99 
3 22 23 11 
3 100 101 102 
3 101 103 104 
3 105 106 107 
3 102 101 104 
3 108 109 110 
3 111 112 113 
3 114 39 115 
3 116 114 115 
3 117 108 110 
3 113 112 118 
3 105 117 106 
3 110 109 42 
3 42 109 119 
3 39 41 120 
3 106 26 25 
3 39 121 40 
3 40 122 41 
3 123 124 125 
3 126 127 128 
3 129 130 131 
3 126 128 132 
3 129 131 133 
3 134 135 136 
3 126 132 30 
3 137 138 139 
3 140 141 142 
3 143 144 145 
3 138 146 139 
3 30 32 147 
3 148 143 145 
3 149 143 148 
3 148 145 149 
3 32 46 149 
3 150 151 152 
3 150 153 154 
3 155 156 157 
3 157 156 158 
3 154 153 47 
3 152 151 159 
3 160 152 161 
3 152 159 161 
3 156 162 158 
3 162 163 158 
3 164 165 166 
3 47 167 168 
3 169 163 170 
3 163 171 170 
3 167 172 173 
3 164 169 170 
3 164 170 165 
3 168 167 173 
3 174 6 8 
3 55 60 56 
3 63 53 56 
3 36 35 37 
3 69 71 87 
3 78 33 84 
3 94 85 95 
3 175 98 95 
3 96 95 98 
3 176 109 118 
3 109 176 177 
3 176 118 177 
3 178 124 179 
3 41 122 125 
3 121 180 40 
3 181 123 125 
3 127 27 28 
3 127 182 27 
3 125 183 184 
3 125 184 185 
3 186 134 187 
3 185 184 188 
3 185 188 189 
3 187 134 136 
3 190 138 137 
3 136 143 149 
3 191 137 139 
3 150 139 146 
3 192 191 154 
3 3 193 4 
3 4 194 66 
3 195 78 77 
3 63 64 81 
3 63 81 80 
3 38 85 94 
3 12 37 17 
3 22 21 196 
3 18 99 197 
3 196 114 116 
3 197 109 108 
3 109 198 118 
3 199 124 178 
3 118 179 43 
3 183 122 40 
3 27 182 29 
3 130 129 180 
3 184 183 188 
3 183 129 133 
3 131 130 138 
3 189 141 140 
3 143 200 144 
3 136 200 143 
3 141 201 191 
3 191 150 154 
3 149 162 156 
3 161 167 47 
3 202 170 171 
3 203 165 170 
3 1 70 2 
3 4 66 5 
3 7 66 194 
3 62 65 34 
3 37 80 83 
3 33 73 84 
3 71 86 204 
3 83 82 38 
3 94 96 38 
3 98 24 96 
3 23 22 103 
3 199 104 120 
3 183 125 122 
3 205 134 186 
3 128 187 132 
3 187 30 132 
3 136 46 31 
3 46 136 149 
3 141 191 142 
3 152 160 150 
3 61 59 195 
3 195 8 33 
3 67 206 87 
3 35 63 37 
3 90 73 72 
3 73 79 84 
3 85 175 95 
3 114 207 39 
3 102 104 178 
3 41 199 120 
3 199 41 125 
3 139 150 191 
3 153 160 161 
3 208 49 48 
3 3 6 209 
3 209 6 174 
3 0 7 194 
3 56 60 63 
3 70 206 2 
3 206 7 2 
3 62 75 74 
3 68 73 33 
3 64 77 85 
3 81 64 85 
3 210 76 211 
3 87 90 72 
3 36 37 12 
3 38 37 83 
3 34 88 76 
3 204 10 9 
3 90 204 9 
3 204 21 10 
3 20 38 24 
3 12 18 197 
3 16 13 197 
3 103 22 196 
3 212 213 16 
3 107 212 105 
3 103 101 23 
3 198 109 99 
3 103 116 115 
3 109 177 119 
3 177 42 119 
3 43 42 177 
3 42 45 28 
3 199 125 124 
3 45 42 43 
3 180 183 40 
3 45 127 28 
3 126 182 127 
3 205 214 134 
3 127 186 187 
3 183 190 188 
3 215 149 145 
3 149 216 32 
3 153 150 160 
3 47 153 161 
3 47 217 48 
3 157 164 166 
3 47 168 217 
3 4 193 194 
3 174 8 195 
3 66 33 5 
3 195 64 61 
3 62 210 52 
3 58 52 210 
3 206 67 66 
3 62 63 65 
3 206 70 69 
3 195 33 78 
3 64 195 77 
3 210 62 74 
3 87 206 69 
3 75 62 34 
3 37 38 19 
3 14 88 12 
3 89 93 98 
3 204 218 21 
3 13 12 197 
3 24 38 96 
3 90 9 23 
3 23 100 92 
3 212 16 197 
3 103 196 116 
3 100 23 101 
3 212 197 108 
3 198 99 24 
3 219 198 24 
3 212 108 117 
3 212 117 105 
3 111 178 112 
3 103 115 120 
3 199 178 104 
3 178 118 112 
3 42 117 110 
3 104 103 120 
3 214 45 44 
3 129 183 180 
3 127 187 128 
3 201 189 188 
3 138 133 131 
3 201 190 137 
3 189 201 141 
3 216 220 32 
3 149 221 162 
3 158 169 164 
3 157 158 164 
3 173 222 168 
3 51 54 57 
3 59 174 195 
3 7 206 66 
3 60 64 63 
3 63 62 57 
3 68 33 66 
3 80 37 63 
3 210 74 76 
3 71 204 87 
3 79 73 175 
3 85 79 175 
3 82 85 38 
3 90 87 204 
3 175 73 89 
3 34 12 88 
3 90 89 73 
3 89 98 175 
3 91 90 23 
3 92 100 98 
3 24 98 113 
3 98 100 111 
3 197 99 109 
3 98 111 113 
3 212 107 213 
3 24 113 219 
3 100 102 178 
3 111 100 178 
3 115 39 120 
3 106 117 26 
3 117 42 26 
3 179 118 178 
3 177 118 43 
3 45 214 205 
3 181 125 185 
3 127 45 205 
3 186 127 205 
3 190 183 133 
3 130 223 224 
3 147 126 30 
3 136 135 200 
3 30 187 31 
3 133 138 190 
3 188 190 201 
3 187 136 31 
3 137 191 201 
3 142 191 192 
3 149 215 221 
3 216 149 156 
3 150 146 151 
3 156 155 216 
3 158 163 169 
3 159 167 161 
3 157 166 225 
3 130 224 138 
3 226 51 50 
3 211 76 88 
3 213 107 106 
3 227 59 55 
3 228 0 194 
3 50 58 226 
3 207 229 39 
3 230 106 25 
3 54 51 231 
3 182 126 147 
3 147 32 220 
3 225 166 165 
3 232 174 59 
3 21 218 196 
3 233 25 29 
3 182 233 29 
3 180 223 130 
3 70 218 86 
3 39 229 121 
3 146 234 151 
3 235 216 155 
3 155 157 225 
3 204 86 218 
3 222 217 168 
3 0 236 1 
3 230 25 233 
3 138 234 146 
3 159 151 237 
3 217 208 48 
3 238 55 54 
3 213 97 16 
3 159 237 167 
3 217 222 208 
3 209 193 3 
3 218 70 239 
3 15 211 88 
3 172 222 173 
3 58 210 240 
3 228 236 0 
3 1 236 70 
3 231 51 226 
3 209 174 232 
3 155 225 241 
3 242 225 165 
3 203 242 165 
3 243 114 196 
3 114 229 207 
3 138 244 234 
3 241 245 155 
3 151 246 237 
3 247 222 172 
3 193 228 194 
3 224 244 138 
3 245 235 155 
3 248 15 97 
3 235 220 216 
3 170 249 203 
3 250 247 172 
3 249 170 202 
3 248 211 15 
3 59 251 232 
3 222 252 208 
3 253 227 55 
3 254 147 220 
3 70 236 255 
3 254 220 256 
3 121 223 180 
3 257 249 202 
3 228 193 209 
3 251 59 227 
3 258 226 58 
3 220 235 245 
3 220 245 256 
3 226 258 231 
3 232 251 209 
3 255 239 70 
3 259 182 147 
3 167 260 172 
3 172 260 250 
3 238 253 55 
3 218 261 196 
3 254 259 147 
3 243 196 261 
3 246 151 234 
3 262 242 203 
3 240 210 211 
3 262 203 249 
3 251 228 209 
3 263 253 238 
3 263 238 54 
3 114 243 229 
3 264 213 106 
3 253 251 227 
3 263 54 231 
3 265 213 264 
3 121 229 266 
3 241 225 242 
3 258 58 240 
3 213 265 97 
3 230 264 106 
3 233 182 259 
3 256 245 241 
3 167 237 260 
3 267 222 247 
3 267 252 222 
3 228 255 236 
3 268 258 240 
3 218 239 261 
3 229 243 266 
3 266 269 121 
3 270 233 259 
3 223 121 244 
3 223 244 224 
3 256 241 271 
3 246 234 237 
3 271 241 242 
3 249 257 272 
3 247 250 260 
3 273 262 249 
3 273 242 262 
3 273 274 242 
3 258 275 231 
3 258 268 275 
3 121 269 244 
3 234 276 237 
3 237 276 260 
3 274 271 242 
3 277 255 228 
3 268 240 278 
3 211 248 265 
3 265 248 97 
3 261 279 243 
3 243 279 280 
3 264 230 270 
3 270 230 233 
3 259 254 256 
3 256 271 259 
3 278 240 211 
3 278 211 265 
3 243 280 266 
3 265 264 270 
3 273 249 272 
3 275 263 231 
3 244 281 234 
3 228 282 277 
3 228 251 282 
3 253 263 283 
3 277 284 261 
3 277 282 284 
3 251 253 282 
3 263 285 283 
3 263 275 285 
3 275 286 285 
3 275 278 286 
3 275 268 278 
3 255 277 239 
3 253 283 282 
3 239 277 261 
3 285 286 287 
3 285 287 288 
3 287 289 288 
3 287 286 289 
3 288 289 290 
3 289 286 290 
3 286 278 290 
3 288 290 285 
3 290 283 285 
3 282 283 291 
3 278 265 290 
3 279 261 284 
3 283 290 291 
3 280 279 292 
3 291 290 293 
3 280 292 266 
3 284 292 279 
3 282 291 293 
3 290 265 293 
3 266 292 294 
3 266 294 269 
3 293 265 270 
3 292 284 294 
3 294 284 295 
3 295 284 296 
3 293 270 259 
3 293 259 271 
3 269 294 281 
3 244 269 281 
3 295 296 276 
3 296 297 276 
3 294 295 276 
3 272 298 271 
3 281 294 234 
3 234 294 276 
3 272 271 273 
3 273 271 274 
3 276 267 247 
3 260 276 247 
3 276 299 267 
3 299 252 267 
3 219 113 118 
3 198 219 118 
3 276 297 299 
3 271 298 293 
3 208 252 299 
3 49 208 47 
3 47 208 299 
3 154 47 299 
3 154 299 297 
3 192 154 297 
3 142 192 297 
3 140 142 297 
3 140 297 296 
3 189 140 296 
3 181 185 189 
3 296 284 181 
3 296 181 189 
3 200 135 134 
3 144 200 215 
3 144 215 145 
3 215 200 293 
3 215 293 298 
3 293 200 134 
3 162 221 163 
3 221 215 298 
3 163 221 298 
3 202 171 163 
3 272 257 202 
3 298 272 202 
3 298 202 163 
3 43 179 282 
3 43 282 293 
3 179 124 284 
3 179 284 282 
3 123 181 284 
3 124 123 284 
3 134 214 44 
3 134 44 293 
3 293 44 43 
