ply
format ascii 1.0
comment VCGLIB generated
element vertex 154
property float x
property float y
property float z
property float nx
property float ny
property float nz
element face 278
property list uchar int vertex_indices
end_header
6.359772 -0.6509209 -5.085793 0.7487953 -6.120716 0.4431437 
4.838409 -0.9296932 -5.39431 -0.006305262 -5.397594 0.7252244 
7.303223 0.06877613 -8.984825 0.5473289 -4.522307 -3.254955 
-9.386421 0.4962244 -8.576622 -3.617957 -4.087825 -2.02617 
-8.269257 0.05290985 -6.672112 -1.188765 -6.115457 -0.07657959 
-10.05416 0.3748474 -5.542183 -3.437539 -4.530032 -0.8085555 
-3.22493 -0.786274 2.165718 -1.139711 -6.005237 0.9327487 
-3.585175 -0.4974127 2.744682 -0.7081971 -5.977698 1.40404 
-4.525482 -0.4702282 2.285332 0.08215415 -5.150866 2.251761 
1.973526 -0.02672482 -6.420296 -0.2737666 -5.686188 -1.262302 
1.93515 -0.4556437 -5.66114 -0.449115 -5.882606 -1.902521 
-1.48027 -0.2656136 -5.774788 -0.130142 -6.170247 -0.8834085 
3.315125 -0.2489758 5.728065 -1.203104 -6.11456 0.005431071 
4.817169 0.1365519 9.158669 0.6998639 -3.581923 3.602739 
2.537292 0.1138687 7.909248 1.151052 -5.785372 1.054714 
-2.700409 -0.5788593 -4.387199 -1.610456 -4.823256 -2.202363 
1.399963 -0.559144 -5.112785 -0.1693537 -6.146679 -1.270738 
-0.478363 -0.6896009 -3.828117 -0.4072016 -6.234931 -0.4695323 
-2.056061 -0.1622038 -7.271599 0.03871656 -6.2458 -0.6197137 
-2.870575 -0.3821011 -5.951866 0.2380905 -6.114646 0.3873785 
-6.498047 -0.4087811 -6.495384 -0.8117788 -5.686619 -0.8215006 
-8.559967 -0.2243176 -7.928017 -1.695194 -4.544414 -0.1174723 
-10.33735 -0.1062708 1.355309 -2.819105 -5.223149 0.4420279 
-8.449036 -0.4107771 -0.3469467 -0.08713082 -6.246232 -0.1772612 
-9.075638 -0.544816 1.45417 -1.23629 -5.924884 -0.01111622 
7.458145 -0.1519985 5.719231 0.4423294 -6.193733 0.5385373 
6.785645 -0.1786842 4.367165 1.406024 -5.874466 0.2437296 
7.593246 -0.2279158 3.670052 -2.101184 -5.747922 -0.4764344 
5.105148 -0.6909771 5.3834 -0.1963045 -6.006407 0.5932887 
3.926498 -0.7492685 -5.115089 -0.4504475 -6.183512 0.7299912 
8.351028 -0.07946491 0.719902 -0.5192951 -5.881319 0.3808373 
6.359589 -0.5313559 0.5659409 0.6785742 -6.154738 0.4551724 
7.871536 -0.2887745 -0.9502182 0.3362444 -6.136079 -0.4267252 
1.613571 -1.034316 2.060326 0.8031235 -6.117258 1.011917 
1.876343 -1.676232 0.121376 2.681496 -4.441474 0.9051507 
2.702301 -1.033859 -1.394066 2.024866 -5.539912 -1.822796 
-2.288635 -0.04857254 -9.227348 -0.3106792 -4.67031 -2.787383 
5.45459 -0.1167583 -7.892998 -0.3361686 -6.061694 -1.45565 
10.68437 -0.1202774 4.924248 3.192947 -4.205162 0.8435553 
9.993164 0.4265423 7.914459 3.315785 -3.914941 2.367743 
8.352051 0.1482687 8.929482 0.8704686 -3.777781 3.164758 
5.434357 -0.2459087 8.541542 0.1058802 -4.648505 2.641013 
1.4207 -0.4598198 4.823448 2.166938 -5.774374 0.2952683 
1.735184 -0.6678791 7.425774 1.485532 -4.9404 1.023541 
0.2691498 -0.6706839 4.387489 -0.3281811 -5.967697 1.453995 
-7.836136 -0.4724236 6.309563 -0.5789742 -5.741207 0.2985728 
-8.977066 0.4797916 8.23632 -1.258936 -3.810243 4.002521 
-9.916252 0.1497393 7.334221 -2.65556 -4.033041 1.926506 
-7.31691 0.5969563 -9.22303 -0.3131815 -3.723056 -4.766775 
-8.74498 0.4106445 -9.107033 -1.225502 -3.684043 -3.776253 
-4.256638 0.464345 -9.439629 -0.4720886 -4.039638 -4.040136 
9.757828 0.5194483 -8.555061 2.475916 -3.974915 -3.049934 
9.370926 -0.3438463 -5.898247 1.557021 -5.755375 -0.2221812 
10.99263 -0.1296101 -0.9919968 3.097956 -2.714254 -0.7048608 
10.64565 0.437109 -3.032173 4.746502 -3.80356 -0.4236862 
11.17239 0.2656965 0.6470718 4.237061 -3.912514 0.03656226 
9.23288 -0.5622578 0.2096329 -0.07642579 -5.660195 0.6888736 
10.25783 0.0495491 -6.244133 3.303416 -4.700573 -0.6843956 
1.784866 -1.126141 -2.352867 0.6424531 -5.989941 -1.184214 
-3.087952 -0.6185064 -2.299324 -0.7480258 -6.179159 -0.6290534 
-1.354919 -0.5208731 -2.193489 -0.3917826 -5.814216 -1.001389 
-2.076523 -1.074625 -0.7744217 -1.129836 -5.968666 -0.7141005 
5.688049 -1.006303 3.768196 1.154158 -5.358889 0.5973569 
2.185272 -0.7552032 3.294395 1.603198 -5.296021 2.48485 
-0.427002 -1.309544 3.161842 -0.4061934 -5.541276 1.680483 
-6.386322 -0.4397678 3.812798 -0.6547604 -6.183216 0.04473713 
-6.635803 -0.3307381 5.178169 -0.160196 -6.186002 0.4126993 
-7.273193 -0.53613 1.154396 0.4700143 -5.950602 -1.188048 
-9.155167 -0.5057001 -2.650291 -0.6097824 -5.390906 -0.6084523 
-5.30603 0.2105303 8.171303 -0.251237 -5.859203 2.154105 
-0.9031372 -0.3381634 6.970161 -0.6230707 -6.16092 0.8014117 
-2.217361 0.06603432 8.596138 -0.3750711 -6.061032 1.547861 
-6.076187 -0.6510105 4.509651 -0.6827761 -5.298631 0.8587667 
-1.430603 0.3354216 9.656639 -0.3438603 -3.713548 3.799361 
0.07363892 -1.473193 0.6573257 -0.7507377 -6.107978 0.9278659 
1.234009 0.181839 9.247444 0.2975689 -4.151937 3.806353 
2.318436 -0.1116219 6.02198 1.45552 -5.813408 -0.3296562 
2.415878 0.2020121 4.114723 0.9723693 -4.319431 1.258195 
3.745239 -0.7068272 -1.651497 1.829777 -5.518919 -1.016813 
4.230606 -0.3464985 -2.951714 1.739281 -5.435346 0.2015018 
4.128616 -0.332613 -1.567757 1.487248 -4.39394 -1.372822 
2.377411 -0.8792324 -3.379875 1.504377 -5.841895 -1.12438 
3.205322 -0.6467934 -1.577354 0.7995092 -5.029965 -1.537389 
3.969666 -0.9575071 -0.9998703 1.427527 -5.440976 -1.714107 
3.703033 0.3702364 -9.401176 0.2369737 -3.294916 -5.208974 
9.586151 -0.4499302 2.769814 2.332769 -5.812544 -0.1113659 
8.94931 -0.7936735 3.049171 1.098426 -4.760932 0.6556785 
9.601135 -0.2842474 1.29789 1.016323 -6.094553 -0.2565447 
8.310455 -0.7484388 3.777336 -1.110549 -5.374956 0.2542332 
3.227036 -0.8974037 2.659355 -0.01402434 -5.918622 1.545481 
3.541031 -0.8321962 1.546684 2.183589 -5.631351 0.1018802 
-4.754364 -0.3717232 0.53022 -0.9843589 -5.98115 -1.000489 
-5.178635 -0.960763 1.742546 0.06428608 -5.347958 -0.3134254 
-6.417404 -0.1011028 0.8676529 0.2067809 -5.027086 -1.853797 
-8.465546 -0.1601763 -3.438698 0.05055828 -6.157775 -0.8185741 
-11.19799 0.7685528 -0.3163223 -4.829392 -3.634151 -0.2133383 
-10.97367 0.4817028 2.345131 -4.455648 -3.877707 0.3829402 
-7.622314 -0.3104391 -5.039421 0.05557314 -5.816899 -0.4388283 
-0.9331055 -0.9604111 3.476234 -1.438001 -5.174573 3.184284 
1.240417 -1.859131 0.126564 0.3867134 -4.630188 1.295951 
6.546204 -0.8351536 -0.668602 1.120974 -5.598261 0.2419711 
-2.609711 -0.8590755 0.07071686 -1.465336 -6.098357 0.1243997 
-4.741989 -0.1543837 6.426567 0.08015221 -6.219503 0.252073 
-6.723373 -0.5039988 -1.964149 -0.2391405 -6.142884 -0.1583461 
-6.669327 -0.1192484 -4.909355 0.09077185 -6.217671 0.09924496 
-5.105988 -0.1386538 -3.706902 -0.08144709 -6.186059 -0.7947197 
7.520279 0.1166897 -2.37188 0.104658 -5.351853 -0.61497 
6.074905 -0.3768024 -3.674263 0.6624711 -6.167373 0.5090124 
-3.071869 -0.08915997 4.501945 -0.2335946 -6.016105 0.9309462 
-0.7962952 -0.3114948 4.244331 -1.121036 -5.129721 1.995294 
-4.657059 -0.3825684 -1.35743 -0.7195427 -6.202528 -0.1461349 
2.510117 -0.1076517 -7.431282 0.07901838 -6.271786 0.1828228 
3.304916 -1.233138 -0.08286285 0.8543774 -5.803577 0.004768059 
4.946762 -0.3799267 0.4043503 0.6177387 -5.72789 0.4895035 
-0.1432648 0.5007153 -9.623802 0.06057186 -3.102903 -5.353854 
-4.16716 0.449482 8.81913 -1.321768 -3.511333 4.905063 
-4.453018 0.09714127 -8.092628 -0.2025433 -6.067624 -1.516937 
-3.087585 0.01646709 -4.479347 -1.215196 -3.941453 -1.881679 
-4.997055 0.03921795 5.268028 0.6120011 -5.582749 0.7876234 
-7.866409 -0.1687212 -1.87072 -0.5996252 -5.906037 -0.5124238 
-10.65401 0.411191 5.326897 -3.748403 -4.13634 0.6263072 
10.52997 0.5362911 -7.424858 4.000925 -3.787941 -1.401274 
-10.11639 0.5954752 -6.916954 -4.188502 -3.850862 -0.8787285 
6.792694 0.646718 -9.329491 0.4134788 -2.619281 -5.683805 
-11.16521 0.8990726 -2.912392 -4.548719 -3.642206 -0.7103559 
8.374298 0.546176 -9.147072 1.284015 -3.397747 -4.806386 
-10.52639 1.555532 -7.192604 -2.39587 -1.21814 -0.530118 
-9.843651 1.456282 -8.970055 -1.92319 -1.398566 -1.307796 
7.060547 1.606775 -9.695534 0.2095546 -1.108222 -2.750406 
8.708084 1.506231 -9.509102 0.6934147 -1.26755 -2.675105 
-9.124908 1.370701 -9.466408 -0.9838006 -1.322479 -2.492475 
-7.637299 1.557013 -9.584526 -0.1524687 -1.094764 -2.771421 
10.16136 1.479506 -8.919838 1.547937 -1.349617 -1.866727 
-4.356003 1.409538 9.166626 -0.5960858 -1.167302 2.879672 
-9.386314 1.439848 8.595474 -0.8617449 -1.13764 2.107689 
-4.449463 1.424402 -9.813667 -0.1989766 -1.185829 -2.940772 
10.95361 1.496347 -7.727394 2.32593 -1.27321 -0.8009948 
11.04802 1.397165 -3.151573 2.895236 -1.246521 -0.2647108 
3.842072 1.330292 -9.773628 0.1589219 -1.199338 -3.031234 
11.60054 1.225754 0.6810684 2.723282 -1.20881 -0.126095 
11.09373 0.8397789 5.136559 2.937007 -1.402489 0.6076121 
8.684906 1.108326 9.308777 0.8120167 -1.179633 2.311232 
5.646042 0.7141476 8.851189 0.8692678 -1.282989 3.380614 
-0.1645966 1.460772 -10.00555 0.001770373 -1.131334 -2.846611 
5.003159 1.096609 9.487587 0.6196644 -0.866914 2.170542 
1.270508 1.141895 9.592323 0.2366912 -1.089733 3.018763 
-1.505081 1.295477 10.00552 -0.2813982 -1.019667 2.715741 
-11.04922 1.371246 5.548805 -2.649128 -1.201802 0.5035934 
-11.36384 1.441759 2.439568 -2.95945 -1.224699 0.1954899 
-10.44685 1.334904 -5.765785 -3.245163 -1.453184 -0.4833303 
-11.55213 1.859129 -3.031868 -2.512665 -1.079223 -0.4440041 
-10.33572 1.109797 7.644905 -2.24221 -1.473022 1.586869 
10.40704 1.386599 8.277519 1.662987 -1.170233 1.234565 
-11.60056 1.728609 -0.3332443 -2.814029 -1.175532 0.003372851 
3 0 1 2 
3 3 4 5 
3 6 7 8 
3 9 10 11 
3 12 13 14 
3 15 16 17 
3 18 19 20 
3 3 21 4 
3 22 23 24 
3 25 26 27 
3 25 28 26 
3 11 19 18 
3 1 0 29 
3 30 31 32 
3 33 34 35 
3 36 2 37 
3 38 39 40 
3 12 28 41 
3 42 43 44 
3 45 46 47 
3 48 21 49 
3 48 50 21 
3 2 51 52 
3 53 54 55 
3 56 57 54 
3 32 57 56 
3 16 58 17 
3 59 60 61 
3 26 28 62 
3 63 42 44 
3 33 63 64 
3 24 65 66 
3 24 67 65 
3 24 23 67 
3 68 23 22 
3 69 70 71 
3 65 7 72 
3 71 73 69 
3 74 64 6 
3 14 13 75 
3 76 77 12 
3 78 79 80 
3 81 78 82 
3 83 78 80 
3 29 10 1 
3 36 84 2 
3 85 86 87 
3 25 27 88 
3 37 10 9 
3 89 90 62 
3 59 17 60 
3 91 92 93 
3 5 4 94 
3 95 22 96 
3 97 94 4 
3 6 98 7 
3 77 76 42 
3 26 62 31 
3 35 58 82 
3 32 52 57 
3 76 43 42 
3 99 34 74 
3 92 67 93 
3 31 30 26 
3 100 32 31 
3 6 101 74 
3 41 28 25 
3 45 66 102 
3 103 104 105 
3 17 59 15 
3 16 81 58 
3 10 81 16 
3 0 106 107 
3 100 107 106 
3 58 35 34 
3 58 34 99 
3 7 98 108 
3 109 108 98 
3 4 104 97 
3 101 110 61 
3 6 92 91 
3 93 103 110 
3 19 104 20 
3 109 44 70 
3 44 64 63 
3 16 11 10 
3 11 16 15 
3 18 111 11 
3 12 14 76 
3 76 14 43 
3 35 112 33 
3 10 37 1 
3 40 41 25 
3 0 52 106 
3 2 52 0 
3 32 106 52 
3 86 30 87 
3 30 32 56 
3 85 88 86 
3 81 10 78 
3 29 79 78 
3 29 78 10 
3 35 82 83 
3 112 35 83 
3 82 78 83 
3 90 89 112 
3 112 83 113 
3 62 77 89 
3 28 77 62 
3 75 43 14 
3 13 12 41 
3 37 111 36 
3 84 36 114 
3 11 111 9 
3 61 58 99 
3 61 60 58 
3 98 6 64 
3 109 98 44 
3 98 64 44 
3 71 70 75 
3 75 73 71 
3 69 73 115 
3 116 50 36 
3 20 116 18 
3 105 104 117 
3 19 117 104 
3 15 105 117 
3 103 105 110 
3 59 61 110 
3 105 59 110 
3 8 92 6 
3 91 110 6 
3 110 91 93 
3 110 101 6 
3 8 7 65 
3 92 8 65 
3 118 72 108 
3 46 45 69 
3 70 69 102 
3 3 49 21 
3 116 4 21 
3 95 68 22 
3 95 5 68 
3 23 68 94 
3 119 23 94 
3 24 96 22 
3 93 67 23 
3 24 120 96 
3 120 24 66 
3 45 47 120 
3 45 120 66 
3 92 65 67 
3 65 72 66 
3 72 7 108 
3 113 31 62 
3 30 27 26 
3 119 94 103 
3 103 93 23 
3 119 103 23 
3 81 82 58 
3 100 80 79 
3 79 107 100 
3 83 80 100 
3 52 121 57 
3 52 51 121 
3 2 1 37 
3 116 21 50 
3 20 104 4 
3 4 116 20 
3 29 0 107 
3 29 107 79 
3 117 19 11 
3 94 104 103 
3 97 104 94 
3 3 5 122 
3 118 108 102 
3 108 70 102 
3 44 43 70 
3 75 70 43 
3 54 53 56 
3 50 114 36 
3 83 100 113 
3 100 31 113 
3 74 33 64 
3 34 33 74 
3 2 84 123 
3 69 115 46 
3 56 55 87 
3 53 55 56 
3 109 70 108 
3 117 11 15 
3 57 121 54 
3 36 18 116 
3 95 124 5 
3 55 85 87 
3 85 55 38 
3 85 38 88 
3 77 42 63 
3 94 68 5 
3 69 45 102 
3 15 59 105 
3 17 58 60 
3 89 77 63 
3 12 77 28 
3 90 112 113 
3 33 112 89 
3 63 33 89 
3 9 111 37 
3 88 38 25 
3 88 30 86 
3 30 88 27 
3 56 87 30 
3 2 125 51 
3 125 2 123 
3 113 62 90 
3 36 111 18 
3 61 74 101 
3 61 99 74 
3 118 66 72 
3 106 32 100 
3 66 118 102 
3 38 40 25 
3 3 122 126 
3 3 126 127 
3 125 123 128 
3 125 128 129 
3 48 49 130 
3 48 130 131 
3 51 125 129 
3 51 129 132 
3 46 115 133 
3 46 133 134 
3 50 48 131 
3 50 131 135 
3 54 121 136 
3 54 136 137 
3 123 84 138 
3 123 138 128 
3 38 55 139 
3 38 139 140 
3 41 40 141 
3 41 141 142 
3 84 114 143 
3 84 143 138 
3 13 41 142 
3 13 142 144 
3 75 13 144 
3 75 144 145 
3 73 75 145 
3 73 145 146 
3 115 73 146 
3 115 146 133 
3 49 3 127 
3 49 127 130 
3 96 120 147 
3 96 147 148 
3 55 54 137 
3 55 137 139 
3 121 51 132 
3 121 132 136 
3 122 5 149 
3 122 149 126 
3 5 124 150 
3 5 150 149 
3 47 46 134 
3 47 134 151 
3 40 39 152 
3 40 152 141 
3 114 50 135 
3 114 135 143 
3 95 96 148 
3 95 148 153 
3 39 38 140 
3 39 140 152 
3 124 95 153 
3 124 153 150 
3 120 47 151 
3 120 151 147 
