ply
format ascii 1.0
comment VCGLIB generated
element vertex 282
property float x
property float y
property float z
property float nx
property float ny
property float nz
element face 488
property list uchar int vertex_indices
end_header
-3.965869 -0.1693429 -4.582878 -3.178452 -2.52216 -1.506543 
-3.441161 -0.5344694 -4.249218 -0.4219078 -1.17149 -0.6184826 
-4.353396 -0.6453149 -3.416965 -2.627369 -1.207887 -1.366394 
-5.302573 0.1106331 3.468003 -4.615202 0.452101 -0.8699635 
-4.857758 -0.4758393 3.452946 -2.70131 -3.406801 0.03053042 
-4.949718 -0.5271984 5.100236 -3.933718 -3.778647 0.08321863 
0.04020425 15.30157 10.78611 -3.84889 -3.880135 1.896069 
-3.947554 16.84796 9.117498 -3.792538 -3.418823 0.2121588 
1.380874 13.18102 9.991275 -5.019974 -2.548376 2.056181 
-4.579337 -0.3672275 30.58657 -4.81209 -3.138271 -0.3408216 
-4.918993 0.4939467 32.16798 -5.060484 -0.3907148 1.077261 
-4.743818 0.343928 30.77673 -6.140686 -0.3230724 -0.8208462 
-4.324899 22.21549 12.6877 -3.833982 3.416355 0.7764342 
-2.253141 23.08354 9.922693 -1.204479 1.993192 0.375069 
-5.379228 20.63575 12.25397 -3.850434 -0.05030707 1.635548 
-2.042003 22.8256 27.338 -5.216236 1.669993 -0.002183892 
-1.09827 23.83603 29.86393 -1.758264 5.593452 -0.3194191 
-1.472699 23.28114 27.51108 -2.295 3.069635 -0.02999126 
-1.435631 22.94945 33.47098 -0.5348005 5.867486 1.524725 
-0.1098558 22.76545 33.2818 0.2517114 1.474829 0.3295308 
-1.504914 23.23166 32.29869 -0.8440729 3.947353 0.952361 
-0.9148383 6.248377 -0.9767126 -2.518455 5.727124 0.5435169 
4.889939 9.071504 0.01743001 -4.221455 1.480003 -0.6456251 
4.062989 8.50237 -1.16578 -3.449232 4.870548 0.4426242 
1.6395 12.39007 29.47168 -4.39358 0.2753518 3.918317 
0.5429264 6.920793 31.87085 -3.982804 3.615572 2.61096 
3.788255 9.533714 31.90195 -3.695168 1.46836 1.377496 
2.134363 15.03256 24.9718 -5.45551 0.3941518 -2.975904 
-1.060434 9.977661 26.2728 -3.938406 0.656759 -2.073416 
0.7571424 12.9362 28.34085 -5.65237 1.146468 1.410842 
0.9904143 7.035853 7.886495 -4.762713 1.908151 -3.073347 
-0.2111647 6.466008 10.03091 -4.830831 3.601641 0.6181961 
1.240924 9.913783 7.616411 -6.048133 0.1919858 -1.292308 
-3.923215 -0.6815007 10.95555 -2.859331 -4.170966 3.235945 
-2.930915 -0.7018391 12.1707 -2.083319 -4.431111 1.650499 
-4.547993 0.6206434 11.14266 -4.077248 -1.336632 4.481316 
3.194993 7.156733 4.757315 -4.161253 2.10539 -0.764384 
1.734872 13.56934 5.937922 -4.959651 -2.355751 -1.24705 
3.430843 7.630055 4.126503 -4.577354 1.704185 -0.4520106 
1.842324 6.943041 17.39801 -5.322989 1.321813 1.923149 
0.8987443 6.057754 16.10928 -4.901651 2.861462 1.952573 
-1.326419 3.381631 16.62826 -5.049117 3.57706 0.4954359 
3.761314 13.16287 16.77486 -4.709474 1.122522 1.163975 
1.25121 13.40667 14.23609 -5.164528 0.2432424 3.501287 
1.600729 7.849793 16.64472 -5.674405 1.081379 2.281299 
1.592452 16.29522 25.61603 -4.888672 -1.526422 -3.44851 
0.08437261 3.072518 -8.690707 -1.940967 0.4308052 -2.666032 
-0.8325586 4.694932 -7.674897 -3.874758 2.654866 -2.540684 
0.3880498 6.570201 -8.018165 -3.554069 2.469685 -1.623889 
2.613074 6.673424 21.25143 -5.310918 -1.970315 2.219629 
2.22109 5.63142 19.13928 -4.437381 2.41524 1.899302 
3.703847 6.319263 22.90791 -4.334936 0.942403 -0.02917746 
0.9647082 20.77124 16.84467 -3.407794 -3.516434 1.402387 
3.236407 17.51853 20.80447 -4.897834 -1.950913 -1.104738 
-2.669699 21.65659 21.82313 -3.889314 -2.606254 0.8848472 
1.836977 8.800133 20.81936 -5.568251 -0.9895856 1.477427 
1.651667 12.78816 20.79598 -5.465343 0.8640292 -0.1212792 
1.921843 8.506045 18.69936 -6.141114 0.1776154 0.01684189 
2.604575 11.57491 -8.184178 -4.970537 -1.408954 -3.174306 
4.272691 10.46366 -9.203154 -1.243478 -0.07302405 -2.348675 
3.474615 8.187703 -8.76619 -1.751153 0.6817906 -2.265702 
-5.20706 0.3976192 -2.541046 -5.513626 -2.506098 -1.392485 
-4.367248 1.617832 -6.563611 -3.85963 1.083305 -2.426955 
-2.220228 23.01446 25.43747 -4.792192 1.657749 0.2167025 
-1.320183 23.68068 25.91721 -1.737503 2.230052 0.2063004 
-1.931921 23.19133 23.47872 -4.287951 4.270095 0.9880226 
-3.94767 -0.4792236 26.62077 -3.888345 -2.869615 -2.022699 
-3.513143 -0.6440344 26.30512 -2.769691 -3.918271 -2.617928 
-3.741601 -0.7893685 27.92186 -2.162517 -2.573364 -0.1828422 
-1.865197 -0.01071296 16.48928 -5.781393 -2.205508 0.09353732 
-1.629209 -0.48569 16.53452 -3.402654 -4.298556 0.5126788 
-1.224922 -0.6873511 18.00453 -0.9157531 -5.877907 -0.5567012 
-3.266651 -0.8681308 33.36094 0.3279591 -5.998558 0.5313779 
-3.338783 -0.7678754 34.00892 -2.124905 -4.145852 1.585692 
-3.888593 -0.7945992 32.87827 -3.186909 -4.350483 1.207974 
-1.465756 7.569559 29.35148 -5.107569 0.4661698 1.034864 
2.48373 15.3323 -0.03605919 -4.521738 -3.102022 -2.334175 
1.057252 14.45532 2.219919 -4.897778 -2.977848 -1.9908 
-5.236938 21.8139 3.595567 -4.09801 -1.134235 -2.345168 
-4.02837 -0.9765931 10.47924 -2.710743 -3.423065 2.010658 
-4.159672 -1.128609 9.994913 -1.182298 -5.137434 1.467253 
-3.309126 -0.8077358 10.91945 0.479646 -6.080969 0.8977117 
-2.114455 -0.5414406 9.897137 0.8163944 -2.885221 0.04247479 
-4.000574 -1.203892 8.864151 1.183025 -6.043267 0.02520049 
0.6547738 15.67325 27.8918 -5.876666 -1.432604 -1.159944 
0.8728777 15.50892 30.11283 -5.462348 -2.503775 1.387571 
-0.9257107 5.649458 28.78664 -5.599871 1.229694 0.5203913 
-0.7245604 5.085558 29.84954 -3.805073 1.206382 -0.8858135 
-5.234124 -0.5947983 1.196338 -2.814546 -0.04319245 0.471517 
-3.455479 -0.7891064 26.84102 -0.8387462 -5.47786 -0.3897527 
1.445139 4.94663 24.59271 -3.794839 3.914137 -2.995048 
-0.7249506 2.0478 23.46423 -4.568017 4.07361 -0.2183465 
2.417821 13.01052 23.78767 -6.112792 0.2415361 -1.016525 
2.283769 13.21575 22.40577 -5.88099 0.8851858 1.601349 
2.150553 14.30063 -9.052912 -2.409014 -1.458059 -5.29138 
0.6698942 15.90156 -8.550437 -4.143269 -0.7850583 -2.508329 
2.46506 15.94377 -9.348927 -1.22157 -0.379858 -3.34414 
2.057242 6.484242 -8.938058 -1.482375 1.218559 -2.670877 
1.085711 4.161051 -8.858011 -1.120403 0.5467873 -2.499211 
-1.86599 23.39049 31.13881 -3.266371 5.150852 0.5708792 
-1.855747 23.04758 32.63581 -3.590556 4.187666 1.499688 
-1.413374 23.50067 23.44193 -1.543816 2.637748 0.4191468 
-3.692535 2.54202 -4.503789 -3.388985 4.439844 -1.910549 
-6.32361 2.459744 -1.305231 -5.096825 -0.1106299 -0.6593308 
-2.507089 3.799932 -6.319818 -3.343167 3.771838 -1.469691 
-1.78637 3.270601 4.7337 -3.538164 4.761349 -0.7013633 
-4.536597 2.423316 6.190989 -3.323953 4.445199 -2.886803 
1.605233 6.229362 6.672222 -3.879703 3.053973 -2.568691 
-3.6374 1.720626 4.107447 -3.84709 4.050086 -0.2454364 
-5.119467 0.2046874 5.341978 -4.362512 -3.648035 0.3255701 
-6.625184 1.157727 7.436082 -4.234217 -0.1956235 -0.8980356 
-2.301435 2.180845 18.06915 -5.438739 1.525875 -0.1326185 
-1.517678 3.353274 18.3005 -4.49895 3.905787 0.8498771 
-2.876338 2.158514 14.12559 -5.532507 0.6601192 2.126915 
-2.018745 1.765537 16.59178 -6.054609 0.7861555 0.3942809 
-2.566127 2.910374 14.04979 -5.09565 2.878205 2.204906 
-4.266745 0.7401396 26.52881 -4.730267 -0.09375512 -2.63285 
-2.849147 -0.1071206 25.36987 -4.619223 -0.2370074 -3.845724 
-3.856285 1.684763 26.40278 -3.724528 2.280819 -3.942223 
-2.523126 -0.2913693 36.53468 -1.97616 -0.6379148 0.8607215 
-3.244576 1.374781 35.60326 -5.655771 0.2070753 2.220379 
-2.348456 23.49394 17.43801 -3.53219 1.395686 -1.547458 
-1.666422 23.94632 17.80444 -1.777381 5.46563 -1.064062 
-1.253368 23.43321 16.43752 -0.6019256 3.918825 -1.414483 
-2.308184 23.04284 31.05791 -4.846964 2.422441 0.2460035 
0.386546 16.57535 -7.740281 -5.278763 -1.493249 -1.888913 
1.978937 18.02235 -9.350888 -1.773511 -0.2119267 -1.995986 
1.034743 6.004652 36.97031 -2.07665 2.283131 0.9849385 
-2.223245 3.518121 36.29322 -4.37745 3.82515 1.650183 
-1.807557 3.303512 37.23515 -3.451795 2.778795 3.88099 
-1.973061 -0.7016889 23.7965 -1.434357 -4.619586 1.063472 
-1.695774 -0.9117973 22.6595 -0.0364866 -5.514709 0.4883078 
-1.181545 -0.6254165 23.10696 1.010075 -2.791348 0.4941104 
4.315585 15.18128 17.0043 -4.056074 -0.171205 1.087066 
2.029847 7.728982 -6.45436 -5.223558 2.324791 2.222253 
2.304528 9.023245 -7.458034 -5.421151 1.259015 -2.219463 
2.344656 11.30516 -6.388302 -6.190149 -0.6436813 0.177059 
-1.403704 18.92128 -3.745491 -5.119456 -3.325467 0.0957597 
-2.4391 21.88297 -5.526358 -5.232418 -0.285444 -1.973499 
-1.458424 22.61456 -6.935226 -2.785642 0.9142478 -1.52386 
-0.8363094 21.85396 -8.310319 -2.00508 -0.8425857 -1.145591 
-1.541971 0.9769866 23.44186 -5.37183 3.082595 -0.1597312 
-1.436804 1.935105 25.16177 -3.925933 2.860525 -3.503902 
2.617829 17.96103 24.37087 -3.222934 -2.075999 -1.160403 
3.356176 15.61762 22.65916 -5.179368 0.2266411 -0.117668 
-2.186181 22.683 23.47754 -5.463083 -0.6884876 1.040709 
-1.518663 20.89777 27.3228 -5.699325 -2.490526 -0.6171472 
-0.6556178 -0.5935068 16.57967 -0.1687693 -2.873018 -0.02807676 
0.7504359 6.789183 15.38007 -5.311882 1.719354 2.791951 
0.7115653 11.87506 13.29418 -5.616328 0.2400609 -0.619645 
-0.5512936 5.831518 10.91954 -4.117319 4.541125 -0.41824 
-0.8415983 5.868482 11.92023 -4.411855 4.256515 -1.123365 
1.129043 7.47004 10.64605 -4.634556 3.441786 -0.9244246 
0.4911424 14.71239 12.96042 -5.20362 -2.456203 1.427768 
3.080041 13.83488 -2.979024 -5.219536 -2.706965 1.620791 
2.286434 15.78218 -1.191693 -4.622362 -3.917487 0.5936974 
1.669431 14.46817 -5.372998 -5.38371 -2.862329 1.285608 
1.823883 12.47271 3.73346 -5.721303 -2.260875 -0.3651202 
-0.4407799 5.996015 8.005746 -3.316836 4.784926 -1.766676 
-4.099014 -0.7207554 30.91268 -2.131437 -5.59643 -0.1349745 
-4.54716 -1.22204 8.856355 -2.26481 -4.991098 0.09982387 
-2.910908 3.14344 34.61027 -4.879253 3.485882 1.149483 
-4.118207 2.426988 31.33151 -4.251803 2.880847 -1.413191 
0.4298657 6.463649 33.7812 -4.123311 4.604457 1.062583 
-1.018965 5.921217 30.23195 -5.734747 0.7736558 0.5238087 
1.136891 5.721304 25.50746 -3.485955 1.85627 -4.676295 
-0.477412 6.685472 27.16933 -4.855758 0.3397665 -3.432122 
1.769257 7.841316 24.99256 -3.798491 -0.7910408 -4.898871 
-0.9280356 5.897779 13.15351 -4.693658 3.714372 1.426151 
-0.606939 5.711878 14.04235 -4.837686 3.086514 2.522464 
-3.637764 20.90025 1.598671 -4.353201 -0.7599197 -1.985122 
-1.378188 22.4245 1.131525 -2.001256 2.260692 -1.729273 
-0.6719231 22.59181 0.3622976 -0.6029179 2.095021 0.4725622 
-2.000375 -0.7217631 13.75951 -2.578225 -1.712375 0.9459136 
2.289306 9.837684 10.72905 -4.197296 0.4111648 0.6140242 
2.30052 11.64584 11.16197 -4.800847 -0.1330494 -0.1918061 
1.133469 8.712354 9.551588 -5.161813 1.892619 2.719006 
4.494216 9.482887 -2.445171 -4.734752 1.456037 2.360613 
4.704326 12.94655 -1.598 -3.682316 -1.703337 0.673431 
3.605795 8.52986 -2.780755 -4.070037 3.686494 1.685809 
2.302841 12.48044 -5.687152 -5.773454 -1.282035 2.004652 
0.2995701 5.248134 -5.461244 -3.466345 4.605867 -0.8555565 
-6.121319 4.087941 -0.8871161 -3.435922 2.263835 -0.003355399 
-6.022216 1.592547 10.1311 -4.561713 1.135974 2.733968 
-2.813035 4.223905 11.44027 -4.147385 4.397016 1.190967 
-5.165965 2.876689 10.25735 -3.665125 3.368768 2.541126 
1.727977 7.391047 34.65536 -4.806711 3.791824 0.5980644 
1.584023 6.62732 36.65233 -4.655853 3.804764 -0.01119548 
-6.161672 22.98358 4.74338 -3.299209 0.9640012 -0.6994963 
0.7834204 8.908257 12.65509 -5.431284 1.814034 -2.365969 
2.968263 5.999208 24.64948 -3.286633 1.357565 -2.48843 
-2.981446 22.38828 -2.860389 -4.571105 1.803179 -1.301811 
-2.548166 23.04253 -4.403571 -3.68774 3.262518 -0.5267985 
2.733265 7.521219 -4.839475 -4.426676 2.618116 0.5463709 
-0.3896113 1.89062 -8.371799 -1.601335 0.6061273 -2.430137 
-1.838513 0.01393495 -8.176178 -0.9322101 0.5046734 -2.063004 
-3.645849 -0.2147477 -7.41544 -1.84313 0.1031418 -1.819374 
1.778534 15.161 15.16846 -4.520068 -1.171775 4.122701 
-4.355003 -1.200634 8.202114 -1.605698 -5.387012 -0.7752151 
-4.663359 -0.8627032 6.474051 -3.297411 -3.978525 -0.1817364 
-2.504462 -0.5847164 35.98218 -1.552691 -2.369981 0.8764825 
-3.682791 -0.8880299 32.01164 -0.6196096 -5.96288 -0.1773579 
-3.135011 -0.7362784 31.00197 0.2092628 -3.303902 -0.2004264 
1.824256 7.10307 2.76855 -3.098246 5.118573 1.629473 
-0.9633508 23.80837 30.43315 0.4111774 5.714789 1.42046 
-0.4355817 23.83302 29.9227 0.07366797 2.129291 0.0231562 
-4.383221 2.144834 11.31386 -4.518739 1.576202 3.903948 
-0.6179197 7.746424 30.47279 -4.37671 2.036821 3.719843 
-0.6639214 5.520524 31.24908 -4.418433 3.354954 1.745403 
-0.1836193 7.174733 12.45413 -5.140599 2.996016 -1.080579 
0.5698533 8.770311 13.42047 -6.014987 1.376181 0.1913383 
-4.183629 -0.5759625 3.475538 -0.1477317 -2.072476 -0.1674881 
-4.306398 -0.7269406 5.45201 -0.169593 -6.151339 -0.8084729 
-5.98513 0.4379382 10.14324 -4.032734 -1.862494 2.340291 
0.8450947 13.33952 8.086307 -5.056979 -3.111475 -0.6656193 
1.384212 8.389024 7.347932 -5.29225 0.02774586 -3.36792 
2.094644 12.80733 11.15139 -4.81119 -1.619003 -0.1757683 
-0.9553211 23.98915 17.83916 -0.03381433 3.134778 -0.7897551 
-0.5965384 23.46375 16.52199 0.00629317 1.35559 -0.5390065 
-4.737596 1.306418 31.29728 -5.444535 2.178522 -0.115898 
-5.932845 2.1253 -0.235055 -5.712136 -0.6462888 2.042734 
-5.073083 -0.2924382 -0.5238568 -3.220442 -1.308693 -0.2832584 
-5.847147 2.792945 8.026004 -3.895387 3.57909 -0.8344276 
-4.205994 1.832857 27.0329 -4.858665 2.437803 -1.462323 
-2.709961 2.285179 36.8881 -3.209304 1.02017 1.427628 
-2.15003 23.16119 -4.862465 -3.908887 4.150218 -2.001638 
-0.9211146 21.95212 17.10884 -3.922106 -4.280376 0.4773719 
-1.778843 22.92684 15.09169 -2.489833 1.488789 1.176043 
-2.649132 23.24797 22.0763 -4.432933 2.462562 0.9450837 
-2.828857 22.80072 18.78294 -4.343901 -0.743871 -1.038396 
-1.50772 22.59398 34.5648 -1.131281 2.067798 0.7179803 
-1.211882 22.6522 34.66806 -0.1720517 1.86479 0.4952127 
-1.229844 -0.8573281 19.71512 0.2189106 -5.965006 -0.4199909 
-2.296819 -0.6232205 21.98932 -4.578077 -1.897049 0.3934086 
-2.109718 -0.7952572 21.2529 -3.094855 -4.752216 -0.3591806 
-3.119178 -0.616479 25.92771 -1.628851 -3.816724 -2.823098 
-2.856393 -0.4332727 25.61769 -2.148901 -2.424574 -2.52576 
-2.678397 -0.6100241 26.06046 0.2816246 -2.183379 -0.549222 
2.239169 8.426507 24.35514 -4.884367 -0.5397442 -3.81609 
-2.325848 21.83578 30.68376 -5.894113 -1.227781 -0.1597242 
-1.622706 20.12707 34.46277 -5.350883 -1.263106 1.456351 
-2.033682 22.10822 33.33959 -4.799755 0.5663701 1.021668 
-2.624981 5.669313 -2.515843 -2.852866 4.675412 -1.759314 
1.790307 6.523477 -4.750267 -3.425239 3.480345 -1.760849 
2.764487 8.416985 36.88541 -2.50664 0.5263507 0.8683352 
1.2557 7.686174 10.16872 -4.041861 2.748769 2.277116 
3.598054 13.40829 32.59241 -4.81725 -1.619398 0.4876246 
2.254921 12.14089 36.941 -2.639714 -0.6200651 -0.8761634 
3.896089 12.16951 -2.524492 -4.825276 -1.692871 3.483918 
-3.843016 -0.7560325 28.9621 -1.851049 -2.976799 -0.2028461 
1.034627 15.41799 36.41723 -2.71476 -1.581591 -0.8164513 
-0.7320496 19.07379 36.18591 -2.252784 -0.9150271 0.6051024 
-3.932709 22.41372 -0.8401242 -2.550535 1.055307 0.2233168 
-2.710306 22.85422 -1.847375 -1.745964 5.639096 -0.1709732 
-1.259612 23.13959 -2.996173 -0.825656 2.95069 0.3761672 
-4.115616 1.969406 28.3011 -5.141724 3.422926 0.1011919 
-4.662964 -0.6706564 -2.717891 -2.634843 -1.171323 -0.8694557 
-2.68796 -0.5620123 6.353055 0.6838915 -2.724274 -0.344745 
-4.059417 -1.099495 7.524679 0.7267205 -6.054176 -0.8832294 
-2.861598 23.3743 2.492523 -1.521991 0.8031016 -2.164672 
4.178601 12.3181 -8.999168 -0.3625363 0.006990448 -2.93573 
3.616044 14.62224 -9.326971 -0.3888085 -0.4319959 -2.586054 
-2.028092 -0.5936657 19.35929 -3.896177 -3.718428 -0.6914099 
-2.277971 -0.1520403 24.22596 -5.629396 0.3494657 -1.537228 
-2.142389 -0.5752022 24.36631 -2.587822 -1.552262 -0.8500125 
2.523484 13.0654 -8.771008 -2.778748 -1.752281 -5.231781 
-1.317525 24.05298 18.43084 -1.084141 5.765141 0.2158958 
-1.120972 24.0274 19.32351 -0.8961328 2.715621 0.1723542 
0.1109278 -0.4983134 20.67927 0.5666596 -2.400134 0.05950679 
-1.331914 23.64773 31.09252 -1.322729 3.232338 0.5088897 
-1.740973 23.84315 22.04607 -1.726467 2.68879 0.3627835 
-1.603182 23.81581 20.66715 -1.856508 2.88465 -0.2155831 
-3.188996 22.777 12.78704 -1.767377 3.507405 0.3837382 
-5.406435 23.5959 4.518705 -2.154134 2.265123 -1.067769 
-1.542279 23.41029 -5.387511 -1.486624 2.289661 -0.6344877 
-1.663733 23.42844 -4.878268 -1.438561 3.092232 -0.08427095 
-1.539658 23.25253 -5.891799 -2.117543 1.814722 -1.094625 
-1.679316 2.877606 37.4466 -1.361433 0.7022444 2.240179 
-1.088314 3.494979 37.51612 -1.251745 1.405163 2.246727 
2.605496 10.45663 36.6289 -3.38533 0.07134148 -0.366841 
-0.6715212 23.78589 29.28648 -0.3223905 2.997361 -0.4985173 
-1.870582 -0.5001844 33.26749 0.5512146 -2.329428 0.03737359 
3 0 1 2 
3 3 4 5 
3 6 7 8 
3 9 10 11 
3 12 13 14 
3 15 16 17 
3 18 19 20 
3 21 22 23 
3 24 25 26 
3 27 28 29 
3 30 31 32 
3 33 34 35 
3 36 37 38 
3 39 40 41 
3 42 43 44 
3 27 29 45 
3 46 47 48 
3 49 50 51 
3 52 53 54 
3 55 56 57 
3 58 59 60 
3 0 61 62 
3 63 64 65 
3 66 67 68 
3 69 70 71 
3 72 73 74 
3 75 24 29 
3 76 77 78 
3 79 80 81 
3 82 81 83 
3 84 29 85 
3 86 87 75 
3 3 88 4 
3 68 67 89 
3 90 51 91 
3 55 49 51 
3 92 93 51 
3 94 95 96 
3 97 98 48 
3 20 99 100 
3 65 64 101 
3 102 62 103 
3 102 104 62 
3 105 106 107 
3 3 106 108 
3 3 109 110 
3 41 111 112 
3 41 113 114 
3 41 115 113 
3 67 116 117 
3 117 116 118 
3 119 120 73 
3 73 10 74 
3 121 122 123 
3 63 15 17 
3 99 16 124 
3 125 126 95 
3 127 128 129 
3 130 131 132 
3 42 56 133 
3 57 49 55 
3 48 47 134 
3 58 135 136 
3 136 95 58 
3 137 138 125 
3 138 139 140 
3 91 141 142 
3 143 144 27 
3 145 146 63 
3 147 71 70 
3 148 43 149 
3 39 57 44 
3 150 151 152 
3 41 40 115 
3 153 14 6 
3 137 154 155 
3 156 154 137 
3 157 37 77 
3 106 158 107 
3 9 74 10 
3 9 159 74 
3 80 160 83 
3 161 162 10 
3 163 25 161 
3 87 162 164 
3 165 166 167 
3 168 115 169 
3 170 171 172 
3 34 82 173 
3 174 175 176 
3 177 22 178 
3 179 177 180 
3 181 102 182 
3 183 184 185 
3 186 163 187 
3 158 30 107 
3 37 188 78 
3 174 189 149 
3 165 167 190 
3 165 142 118 
3 191 138 137 
3 191 192 138 
3 193 180 136 
3 194 195 196 
3 42 133 197 
3 197 133 52 
3 198 109 199 
3 200 119 73 
3 72 201 202 
3 203 22 21 
3 77 22 157 
3 16 204 205 
3 202 201 159 
3 206 168 184 
3 207 164 208 
3 189 152 209 
3 189 209 210 
3 174 152 189 
3 211 212 4 
3 110 109 198 
3 199 109 5 
3 160 110 198 
3 213 110 160 
3 8 214 32 
3 37 214 7 
3 215 32 37 
3 214 37 32 
3 36 215 37 
3 216 153 6 
3 50 49 39 
3 123 122 217 
3 123 217 218 
3 180 95 136 
3 95 156 125 
3 180 156 95 
3 219 11 10 
3 220 103 221 
3 3 5 109 
3 158 222 185 
3 116 223 118 
3 116 11 223 
3 161 120 224 
3 128 161 224 
3 192 225 138 
3 226 227 12 
3 54 145 228 
3 229 228 121 
3 230 18 100 
3 231 18 230 
3 131 232 132 
3 131 130 233 
3 234 131 233 
3 47 46 104 
3 194 104 46 
3 193 47 181 
3 138 140 126 
3 235 236 237 
3 235 237 89 
3 142 165 90 
3 118 142 117 
3 51 190 238 
3 51 90 190 
3 190 167 238 
3 143 145 144 
3 143 45 145 
3 27 45 143 
3 70 173 147 
3 226 121 227 
3 197 153 43 
3 149 189 210 
3 175 174 149 
3 239 240 241 
3 188 37 7 
3 14 188 7 
3 188 14 13 
3 107 215 36 
3 107 30 215 
3 179 23 177 
3 242 23 179 
3 21 23 242 
3 193 243 242 
3 179 193 242 
3 187 163 161 
3 186 187 244 
3 158 184 150 
3 185 184 158 
3 245 150 152 
3 150 245 31 
3 182 21 242 
3 26 246 24 
3 246 26 247 
3 186 26 163 
3 180 177 248 
3 177 178 248 
3 178 22 76 
3 176 175 8 
3 216 6 8 
3 216 8 175 
3 249 202 159 
3 26 25 163 
3 250 246 247 
3 250 240 246 
3 241 240 251 
3 76 78 170 
3 171 170 78 
3 170 172 252 
3 76 170 252 
3 253 254 191 
3 252 253 191 
3 252 191 137 
3 184 168 151 
3 31 158 150 
3 30 158 31 
3 223 166 165 
3 167 28 27 
3 167 166 28 
3 118 223 165 
3 164 162 208 
3 162 219 10 
3 187 161 128 
3 161 25 208 
3 162 161 208 
3 86 28 166 
3 223 86 166 
3 255 86 223 
3 75 28 86 
3 29 28 75 
3 245 176 31 
3 245 174 176 
3 174 245 152 
3 0 2 256 
3 80 79 33 
3 33 79 81 
3 113 35 34 
3 80 213 160 
3 80 33 213 
3 66 68 249 
3 9 249 159 
3 159 201 74 
3 74 201 72 
3 257 82 83 
3 83 258 257 
3 83 198 258 
3 222 158 106 
3 222 106 110 
3 36 203 105 
3 107 36 105 
3 203 36 38 
3 37 157 38 
3 77 37 78 
3 259 171 78 
3 259 78 188 
3 260 94 261 
3 261 94 96 
3 155 76 252 
3 76 155 178 
3 154 156 248 
3 155 154 248 
3 155 252 137 
3 14 7 6 
3 146 85 239 
3 85 146 84 
3 246 85 24 
3 246 240 85 
3 69 233 111 
3 262 233 69 
3 40 169 115 
3 169 148 210 
3 40 148 169 
3 44 40 39 
3 44 148 40 
3 168 169 209 
3 209 169 210 
3 151 168 209 
3 152 151 209 
3 44 57 42 
3 44 43 148 
3 175 149 216 
3 197 43 42 
3 197 52 153 
3 14 52 226 
3 14 226 12 
3 146 145 45 
3 27 92 238 
3 27 144 92 
3 45 29 84 
3 263 130 264 
3 236 263 264 
3 117 263 236 
3 89 237 68 
3 125 156 137 
3 58 95 265 
3 58 60 135 
3 134 47 193 
3 136 134 193 
3 232 131 234 
3 71 232 262 
3 71 262 69 
3 262 232 234 
3 93 56 55 
3 56 93 53 
3 133 56 53 
3 52 133 53 
3 145 53 144 
3 145 54 53 
3 226 229 121 
3 54 229 226 
3 54 226 52 
3 266 267 217 
3 266 217 122 
3 232 268 132 
3 128 127 187 
3 126 125 138 
3 94 265 95 
3 241 124 239 
3 269 16 99 
3 15 124 16 
3 15 146 239 
3 124 15 239 
3 145 63 65 
3 146 15 63 
3 65 270 228 
3 145 65 228 
3 228 270 271 
3 123 227 121 
3 13 12 272 
3 188 13 273 
3 172 254 253 
3 172 253 252 
3 274 225 275 
3 275 225 192 
3 225 139 138 
3 274 276 225 
3 128 224 129 
3 120 161 10 
3 73 120 10 
3 255 11 219 
3 116 66 11 
3 116 67 66 
3 141 111 233 
3 233 263 141 
3 112 91 50 
3 39 112 50 
3 114 113 69 
3 41 112 39 
3 115 206 35 
3 206 115 168 
3 113 115 35 
3 108 106 105 
3 182 108 203 
3 220 108 182 
3 3 108 88 
3 62 104 194 
3 62 196 0 
3 196 62 194 
3 103 62 61 
3 108 220 88 
3 88 220 221 
3 110 106 3 
3 206 183 213 
3 184 183 206 
3 35 213 33 
3 213 183 110 
3 185 222 183 
3 34 173 113 
3 277 129 224 
3 129 277 278 
3 192 254 275 
3 273 259 188 
3 12 227 272 
3 228 271 267 
3 267 122 228 
3 228 122 121 
3 230 124 241 
3 230 100 124 
3 269 99 20 
3 18 20 100 
3 46 48 98 
3 58 265 59 
3 147 268 71 
3 51 93 55 
3 135 134 136 
3 134 135 48 
3 97 48 135 
3 236 235 67 
3 117 236 67 
3 235 89 67 
3 257 258 212 
3 257 212 211 
3 258 199 212 
3 199 258 198 
3 81 34 33 
3 193 179 180 
3 243 193 181 
3 207 24 75 
3 207 208 25 
3 24 207 25 
3 244 279 186 
3 255 87 86 
3 19 18 231 
3 204 269 205 
3 280 16 205 
3 16 280 17 
3 85 29 24 
3 76 22 77 
3 281 72 202 
3 281 73 72 
3 21 182 203 
3 150 184 151 
3 255 219 87 
3 5 212 199 
3 142 90 91 
3 144 93 92 
3 232 71 268 
3 126 96 95 
3 99 124 100 
3 70 113 173 
3 70 69 113 
3 110 183 222 
3 206 213 35 
3 181 104 102 
3 181 47 104 
3 221 61 256 
3 221 103 61 
3 0 256 61 
3 114 111 41 
3 114 69 111 
3 111 91 112 
3 141 91 111 
3 9 11 66 
3 139 225 276 
3 65 101 270 
3 64 63 17 
3 244 187 127 
3 278 127 129 
3 57 56 42 
3 144 53 93 
3 51 50 91 
3 233 262 234 
3 60 97 135 
3 130 132 264 
3 92 51 238 
3 14 153 52 
3 149 210 148 
3 146 45 84 
3 178 155 248 
3 156 180 248 
3 160 198 83 
3 66 249 9 
3 32 176 8 
3 32 31 176 
3 219 162 87 
3 242 181 182 
3 254 192 191 
3 240 250 251 
3 73 281 200 
3 81 82 34 
3 23 22 177 
3 265 260 59 
3 265 94 260 
3 279 26 186 
3 279 247 26 
3 103 182 102 
3 242 243 181 
3 85 240 239 
3 216 149 153 
3 153 149 43 
3 167 27 238 
3 142 263 117 
3 141 263 142 
3 165 190 90 
3 130 263 233 
3 54 228 229 
3 119 224 120 
3 11 255 223 
3 105 203 108 
3 182 103 220 
3 266 122 267 
3 57 39 49 
3 30 32 215 
3 8 7 214 
3 212 5 4 
3 164 75 87 
3 207 75 164 
3 16 269 204 
3 80 83 81 
3 22 38 157 
3 203 38 22 
